<svg width="128" height="145" viewBox="0 0 128 145" fill="none" xmlns="http://www.w3.org/2000/svg">
<g filter="url(#filter0_d_221_35866)">
<path fill-rule="evenodd" clip-rule="evenodd" d="M20.5455 114.859C20.5455 117.202 21.9094 119.331 24.0382 120.31L58.1042 135.979C60.9271 137.277 64.2246 136.172 65.9457 133.585C68.304 130.041 70.8363 127.193 75.3383 123.324C75.6687 123.04 76.0354 122.794 76.4185 122.586C80.5091 120.369 81.3444 119.35 86.538 118.703C96.076 117.505 100.6 116.361 107.784 113.811C111.24 112.267 111.725 110.499 110.616 106.123C110.213 104.471 110.051 103.46 109.959 102.137C109.918 101.537 109.978 100.931 110.154 100.355C110.538 99.1016 110.946 98.2923 111.501 97.5945C112.219 96.6914 112.93 95.7521 113.184 94.6263C113.757 92.0829 113.692 90.314 112.948 87.8929C112.817 87.4654 112.718 87.0256 112.67 86.5809C112.272 82.878 112.19 82.3734 116.273 80.2631L122.275 77.1716C122.96 76.7801 123.123 76.4202 122.779 75.6784C122.714 75.5386 122.631 75.3852 122.531 75.2155L111.221 54.1328C110.822 53.3896 110.585 52.5707 110.524 51.7296L109.908 43.2207V36.9264C109.908 36.4647 109.854 35.9986 109.746 35.5499C105.53 18.1177 98.6277 9.82249 80.8725 3.38274C60.2756 -2.11349 50.1763 -0.886593 33.4241 6.8773C20.7018 13.3588 15.7462 18.8284 9.34586 30.6403C2.37391 45.666 2.83195 53.4836 7.2213 66.2848L12.8868 80.2631C21.0874 96.5286 20.7926 103.074 20.5455 110.5L20.5455 114.859Z" fill="#405AA9"/>
<path fill-rule="evenodd" clip-rule="evenodd" d="M30.3241 109.814L62.2332 126.36C65.2342 121.049 67.3022 118.15 72.8695 113.36C76.7109 111.302 78.9749 110.387 83.5059 109.814C91.4644 108.802 95.2396 107.834 101.233 105.678C104.117 104.373 104.522 102.878 103.597 99.1781C103.188 97.4813 103.076 96.5836 103.006 95.0417C103.588 92.7704 104.163 91.9755 105.37 90.9054C106.276 87.6964 106.3 86.0097 105.37 83.2236C104.997 79.5699 105.904 78.0195 109.506 76.1327L113.324 74.7007C113.896 74.3698 114.032 74.0655 113.745 73.4383C113.691 73.3201 113.622 73.1904 113.538 73.047L103.597 54.269L103.006 45.9963V40.0872C99.5001 24.9543 93.7853 17.8296 78.7786 12.3145C61.5925 7.66758 53.1657 8.70488 39.1877 15.269C28.5722 20.749 24.4373 25.3733 19.0968 35.3599C13.2794 48.0637 13.6616 54.6733 17.3241 65.4963L22.6423 77.3145C29.4849 91.0665 31.1212 96.445 30.915 102.724L30.3241 109.814Z" fill="#F9F9F9"/>
<path d="M56.8649 85.3454C56.8649 86.4454 57.722 87.5454 59.0077 87.5454H67.5792C68.8649 87.5454 69.722 86.4454 69.722 85.3454V83.1454H56.8649V85.3454ZM63.2935 43.5454C54.9363 43.5454 48.2935 50.3654 48.2935 58.9454C48.2935 64.2254 50.8649 68.8454 54.722 71.4854V76.5454C54.722 77.6454 55.5792 78.7454 56.8649 78.7454H69.722C71.0077 78.7454 71.8649 77.6454 71.8649 76.5454V71.4854C75.722 68.6254 78.2935 64.0054 78.2935 58.9454C78.2935 50.3654 71.6506 43.5454 63.2935 43.5454Z" fill="#405AA9"/>
<path d="M64.951 28.9997C64.4057 32.2721 63.3148 34.9991 63.3148 34.9991H62.7694C62.7694 34.9991 61.6787 32.2721 61.1332 28.9997C60.5877 25.7273 65.4964 25.7273 64.951 28.9997Z" fill="#405AA9"/>
<path d="M85.2207 38.9813C82.5754 40.9834 79.9087 42.2143 79.9087 42.2143L79.5126 41.8395C79.5126 41.8395 80.5947 39.109 82.4477 36.3572C84.3006 33.6054 87.866 36.9792 85.2207 38.9813Z" fill="#405AA9"/>
<path d="M43.5815 36.1545C45.4347 38.9062 46.5167 41.6367 46.5167 41.6367L46.1206 42.0116C46.1206 42.0116 43.454 40.7806 40.8085 38.7786C38.1631 36.7767 41.7284 33.4028 43.5815 36.1545Z" fill="#405AA9"/>
</g>
<defs>
<filter id="filter0_d_221_35866" x="0" y="0" width="127.145" height="144.525" filterUnits="userSpaceOnUse" color-interpolation-filters="sRGB">
<feFlood flood-opacity="0" result="BackgroundImageFix"/>
<feColorMatrix in="SourceAlpha" type="matrix" values="0 0 0 0 0 0 0 0 0 0 0 0 0 0 0 0 0 0 127 0" result="hardAlpha"/>
<feOffset dy="4"/>
<feGaussianBlur stdDeviation="2"/>
<feComposite in2="hardAlpha" operator="out"/>
<feColorMatrix type="matrix" values="0 0 0 0 0 0 0 0 0 0 0 0 0 0 0 0 0 0 0.25 0"/>
<feBlend mode="normal" in2="BackgroundImageFix" result="effect1_dropShadow_221_35866"/>
<feBlend mode="normal" in="SourceGraphic" in2="effect1_dropShadow_221_35866" result="shape"/>
</filter>
</defs>
</svg>
