<svg width="866" height="683" viewBox="0 0 866 683" fill="none" xmlns="http://www.w3.org/2000/svg">
<g filter="url(#filter0_d_499_36687)">
<path d="M844.48 595.27H21.29V595.68H844.48V595.27Z" fill="#EBEBEB"/>
<path d="M761.99 621.76H707.46V622.17H761.99V621.76Z" fill="#EBEBEB"/>
<path d="M566.6 626.24H552.29V626.65H566.6V626.24Z" fill="#EBEBEB"/>
<path d="M705.81 606.48H674.22V606.89H705.81V606.48Z" fill="#EBEBEB"/>
<path d="M178.77 609.25H107.66V609.66H178.77V609.25Z" fill="#EBEBEB"/>
<path d="M203.85 609.25H193.43V609.66H203.85V609.25Z" fill="#EBEBEB"/>
<path d="M391.97 616.19H237.74V616.6H391.97V616.19Z" fill="#EBEBEB"/>
<path d="M411.48 521.84H93.5801C91.0905 521.835 88.7047 520.842 86.9462 519.08C85.1877 517.318 84.2001 514.93 84.2001 512.44V65.56C84.2212 63.0852 85.2184 60.7189 86.9749 58.9754C88.7314 57.232 91.1052 56.2525 93.5801 56.25H411.48C413.973 56.25 416.364 57.2404 418.127 59.0032C419.89 60.766 420.88 63.157 420.88 65.65V512.44C420.88 514.933 419.89 517.324 418.127 519.087C416.364 520.85 413.973 521.84 411.48 521.84ZM93.5801 56.57C91.1931 56.57 88.9039 57.5182 87.2161 59.206C85.5283 60.8939 84.5801 63.1831 84.5801 65.57V512.44C84.5801 514.827 85.5283 517.116 87.2161 518.804C88.9039 520.492 91.1931 521.44 93.5801 521.44H411.48C413.867 521.44 416.156 520.492 417.844 518.804C419.532 517.116 420.48 514.827 420.48 512.44V65.56C420.48 63.173 419.532 60.8839 417.844 59.196C416.156 57.5082 413.867 56.56 411.48 56.56L93.5801 56.57Z" fill="#EBEBEB"/>
<path d="M767.61 521.84H449.69C447.198 521.837 444.808 520.846 443.046 519.084C441.284 517.322 440.293 514.932 440.29 512.44V65.56C440.316 63.0834 441.318 60.7171 443.078 58.9742C444.837 57.2313 447.213 56.2525 449.69 56.25H767.61C770.087 56.2499 772.463 57.2282 774.222 58.9719C775.98 60.7156 776.979 63.0835 777 65.56V512.44C777.001 513.674 776.759 514.896 776.288 516.036C775.817 517.177 775.125 518.213 774.253 519.086C773.381 519.959 772.346 520.652 771.206 521.124C770.066 521.597 768.844 521.84 767.61 521.84ZM449.69 56.57C447.303 56.57 445.014 57.5182 443.326 59.206C441.638 60.8939 440.69 63.1831 440.69 65.57V512.44C440.69 514.827 441.638 517.116 443.326 518.804C445.014 520.492 447.303 521.44 449.69 521.44H767.61C769.997 521.44 772.286 520.492 773.974 518.804C775.662 517.116 776.61 514.827 776.61 512.44V65.56C776.61 63.173 775.662 60.8839 773.974 59.196C772.286 57.5082 769.997 56.56 767.61 56.56L449.69 56.57Z" fill="#EBEBEB"/>
<path d="M368.29 134.17H115.77V595.27H368.29V134.17Z" fill="#EBEBEB"/>
<path d="M331.27 77.8H152.8V108.39H331.27V77.8Z" fill="#FAFAFA"/>
<path d="M355.3 145.36H128.76V595.26H355.3V145.36Z" fill="white"/>
<path d="M344.46 346.81H299.36C298.789 346.807 298.224 346.917 297.695 347.134C297.167 347.35 296.687 347.668 296.282 348.071C295.877 348.473 295.555 348.951 295.335 349.478C295.115 350.004 295.001 350.569 295 351.14C295 352.296 295.459 353.405 296.277 354.223C297.095 355.041 298.204 355.5 299.36 355.5H344.46C345.616 355.5 346.725 355.041 347.543 354.223C348.361 353.405 348.82 352.296 348.82 351.14C348.809 349.99 348.346 348.89 347.53 348.079C346.713 347.269 345.61 346.813 344.46 346.81Z" fill="#EBEBEB"/>
<path d="M215.12 170.29H162.63V550.21H215.12V170.29Z" fill="#EBEBEB"/>
<path d="M215.12 224.01L162.63 250.25V314.61L215.12 288.37V224.01Z" fill="#F5F5F5"/>
<path d="M215.12 301.5L162.63 327.75V352.39L215.12 326.15V301.5Z" fill="#F5F5F5"/>
<path d="M215.12 435.42L162.63 461.65V486.29L215.12 460.05V435.42Z" fill="#F5F5F5"/>
<path d="M750.01 108.37H406.03V473.32H750.01V108.37Z" fill="#EBEBEB"/>
<path d="M747.34 111.22H408.7V470.51H747.34V111.22Z" fill="white"/>
<path d="M452.032 292.969L447.601 379.846L558.357 385.495L562.788 298.618L452.032 292.969Z" fill="#F0F0F0"/>
<path d="M673.033 189.502L562.884 202.383L572.987 288.785L683.137 275.903L673.033 189.502Z" fill="#F0F0F0"/>
<path d="M652.46 99.3999H503.56C496.806 99.3999 491.33 104.875 491.33 111.63V114.78C491.33 121.534 496.806 127.01 503.56 127.01H652.46C659.215 127.01 664.69 121.534 664.69 114.78V111.63C664.69 104.875 659.215 99.3999 652.46 99.3999Z" fill="#E6E6E6"/>
<path d="M651.75 109.57H504.27C500.277 109.57 497.04 112.807 497.04 116.8V117.27C497.04 121.263 500.277 124.5 504.27 124.5H651.75C655.743 124.5 658.98 121.263 658.98 117.27V116.8C658.98 112.807 655.743 109.57 651.75 109.57Z" fill="white"/>
<path d="M583.87 153.4H438.51V267.43H583.87V153.4Z" fill="#E6E6E6"/>
<path d="M458 166.91C448.68 166.6 447.69 172.07 451.33 175.38C454.97 178.69 490.41 198.54 491.63 204.38C492.85 210.22 495.14 218.93 498.73 211.49C502.32 204.05 509.07 206.04 511.42 199.75C513.07 195.21 496.03 194.81 491.02 191.25C476.28 180.92 463.42 167.11 458 166.91Z" fill="white"/>
<path d="M558.7 253.89C562.88 255.01 563.64 252.95 559.98 249.66C556.32 246.37 527.05 229.56 525.06 216.44C524.16 210.53 521.56 201.87 517.95 209.31C514.34 216.75 507.63 214.77 505.27 221.06C503.63 225.59 520.67 226 525.67 229.54C540.37 239.9 553.41 252.49 558.7 253.89Z" fill="white"/>
<path d="M514 211.53C517.11 208.09 512.8 203.13 506.36 206.03C499.92 208.93 505.65 220.88 514 211.53Z" fill="white"/>
<path d="M523.33 212C533.57 224.22 562.24 244.32 566.33 245.79C570.42 247.26 573.72 254.02 561.8 246.18C549.88 238.34 525.12 219.59 523.37 216.43C521.62 213.27 523.33 212 523.33 212Z" fill="white"/>
<path d="M710.77 302.77H565.41V416.8H710.77V302.77Z" fill="#E6E6E6"/>
<path d="M652.54 319.66C639.98 319.32 646.32 350.32 648.69 367.66C651.06 385 654.6 405.52 673.52 404.66C692.44 403.8 696.86 391.24 693.01 374.28C687.1 348.21 663.82 319.93 652.54 319.66Z" fill="white"/>
<path d="M623.65 319.66C636.19 319.32 629.85 350.32 627.5 367.66C625.15 385 621.59 405.52 602.67 404.66C583.75 403.8 579.33 391.24 583.18 374.28C589.07 348.21 612.34 319.93 623.65 319.66Z" fill="white"/>
<path d="M651.09 344.61C650.485 344.607 649.89 344.452 649.36 344.16C648.75 343.82 634.55 335.62 634.55 315.45C634.598 314.542 634.993 313.688 635.652 313.062C636.312 312.437 637.186 312.088 638.095 312.088C639.004 312.088 639.878 312.437 640.538 313.062C641.197 313.688 641.592 314.542 641.64 315.45C641.64 331.34 652.39 337.73 652.85 337.99C653.519 338.38 654.042 338.979 654.337 339.695C654.632 340.411 654.683 341.204 654.483 341.952C654.283 342.7 653.842 343.362 653.229 343.835C652.616 344.308 651.864 344.566 651.09 344.57V344.61Z" fill="white"/>
<path d="M625.1 344.61C624.33 344.597 623.585 344.333 622.977 343.859C622.37 343.384 621.934 342.726 621.734 341.981C621.534 341.237 621.582 340.449 621.87 339.734C622.157 339.019 622.67 338.418 623.33 338.02C623.84 337.73 634.55 331.34 634.55 315.48C634.598 314.572 634.993 313.718 635.652 313.092C636.312 312.467 637.186 312.118 638.095 312.118C639.004 312.118 639.878 312.467 640.538 313.092C641.197 313.718 641.592 314.572 641.64 315.48C641.64 335.65 627.43 343.85 626.82 344.2C626.29 344.48 625.699 344.621 625.1 344.61Z" fill="white"/>
<path d="M665.68 385.78C665.666 387.576 666.186 389.336 667.173 390.836C668.16 392.336 669.571 393.51 671.226 394.207C672.881 394.905 674.705 395.096 676.469 394.756C678.232 394.415 679.855 393.559 681.131 392.295C682.407 391.032 683.28 389.418 683.638 387.658C683.996 385.898 683.823 384.071 683.142 382.409C682.46 380.748 681.301 379.326 679.811 378.323C678.32 377.321 676.566 376.784 674.77 376.78C672.373 376.775 670.072 377.718 668.368 379.405C666.665 381.091 665.698 383.383 665.68 385.78Z" fill="#F5F5F5"/>
<path d="M617.05 350.45C615.51 355.23 616.21 359.7 618.59 360.45C620.97 361.2 624.14 357.96 625.67 353.2C627.2 348.44 626.51 343.95 624.12 343.2C621.73 342.45 618.58 345.69 617.05 350.45Z" fill="#F5F5F5"/>
<path d="M188 617.22L199.18 502.94L230.77 511.54L207.62 617.22L219.15 624C213.859 626.006 208.099 626.434 202.569 625.23C197.04 624.027 191.979 621.244 188 617.22Z" fill="#F9B499"/>
<path d="M257.9 510.28L256.27 617.22C256.27 617.22 263.73 628.89 288.04 624.35L277.67 617.22L283.83 549.14L285.19 503.61L257.9 510.28Z" fill="#F9B499"/>
<path d="M256.72 143.48C256.72 143.48 264.81 141.15 269.24 129.27C269.426 133.266 269.168 137.271 268.47 141.21C267.648 144.764 267.924 148.484 269.264 151.877C270.603 155.27 272.942 158.176 275.97 160.21C276.31 160.43 276.67 160.65 277.05 160.86C277.05 160.86 268.11 158.12 262.43 158.12C260.738 156.554 258.811 155.262 256.72 154.29V143.48Z" fill="#2F2E41"/>
<path d="M207.62 507.38C207.62 507.38 240.62 520.13 289.36 502.13L271.53 277.8H235.8L207.62 507.38Z" fill="#2F2E41"/>
<path d="M235.8 277.8C235.8 277.8 258.26 284.63 271.53 277.8L266.74 177.68L263.4 165L233 173.73L228 238.4L235.8 277.8Z" fill="#005048"/>
<path d="M262.43 173.73C262.43 173.73 271.18 247.64 271.67 308.91L283.83 549.14C283.83 549.14 305.71 549.63 314.46 542.82C314.46 542.82 305.71 314.26 291.12 266.61L290.63 222.35C290.63 222.35 316.89 258.83 324.19 257.85C324.19 257.85 326.13 260.77 333.91 251.05L370.39 211.66L354.82 194.15L328.56 220.41L298.42 173.73C298.42 173.73 284.31 159 262.42 158.1H224.65L201.16 163C201.16 163 202.37 258.87 191.92 323.47L156.42 532.09C156.42 532.09 193.86 546.19 213.31 544.73C213.31 544.73 235.2 359.46 235.2 299.81C235.2 299.81 238.06 215.52 234.99 181.81C234.99 181.81 238.62 174.31 243.75 178.81C243.75 178.81 248.02 183.92 249.75 183.43C249.75 183.43 253.57 183.43 256.68 176.43C256.72 176.4 258.73 170.33 262.43 173.73Z" fill="#005048"/>
<path opacity="0.6" d="M262.43 173.73C262.43 173.73 271.18 247.64 271.67 308.91L283.83 549.14C283.83 549.14 305.71 549.63 314.46 542.82C314.46 542.82 305.71 314.26 291.12 266.61L290.63 222.35C290.63 222.35 316.89 258.83 324.19 257.85C324.19 257.85 326.13 260.77 333.91 251.05L370.39 211.66L354.82 194.15L328.56 220.41L298.42 173.73C298.42 173.73 284.31 159 262.42 158.1H224.65L201.16 163C201.16 163 202.37 258.87 191.92 323.47L156.42 532.09C156.42 532.09 193.86 546.19 213.31 544.73C213.31 544.73 235.2 359.46 235.2 299.81C235.2 299.81 238.06 215.52 234.99 181.81C234.99 181.81 238.62 174.31 243.75 178.81C243.75 178.81 248.02 183.92 249.75 183.43C249.75 183.43 253.57 183.43 256.68 176.43C256.72 176.4 258.73 170.33 262.43 173.73Z" fill="#D5E7FD"/>
<path d="M548.81 616.25C548.81 616.25 502.66 632.25 512.87 639.1H579L574.29 612.22L548.81 616.25Z" fill="#005048"/>
<path d="M631.32 617.32C631.32 617.32 585.17 633.32 595.39 640.18H661.52L656.81 613.29L631.32 617.32Z" fill="#005048"/>
<path d="M574.29 612.22C574.07 612.69 570.37 620.14 561.98 621.11C554.39 621.99 549.35 616.82 548.81 616.25V601.17H574.29V612.22Z" fill="#F9B499"/>
<path d="M656.81 613.29C656.59 613.76 652.88 621.21 644.5 622.18C636.91 623.06 631.87 617.89 631.32 617.32V592.91H656.81V613.29Z" fill="#F9B499"/>
<path d="M542.01 605.14H577.69L595.25 399.53L628.1 600.61L661.52 601.17L647.93 323.5L547.67 336.66L542.01 605.14Z" fill="#005048"/>
<path d="M441.3 264.32L448.63 291.22L526.38 266.81L538.38 247.76C540.785 274.984 540.785 302.366 538.38 329.59L526.38 474.59C526.38 474.59 552.79 496.02 580.69 491.53L588.69 336.58L621 492.13C621 492.13 667.84 488.03 676.8 477.56L650.9 229.94L665.84 163.79C665.84 163.79 664.84 154.71 653.84 149.73L612.07 129.3C612.07 129.3 576.2 127.81 541.82 150.23C541.82 150.23 528.37 151.86 523.89 171.97L501 238.91L441.3 264.32Z" fill="#005048"/>
<path opacity="0.6" d="M441.3 264.32L448.63 291.22L526.38 266.81L538.38 247.76C540.785 274.984 540.785 302.366 538.38 329.59L526.38 474.59C526.38 474.59 552.79 496.02 580.69 491.53L588.69 336.58L621 492.13C621 492.13 667.84 488.03 676.8 477.56L650.9 229.94L665.84 163.79C665.84 163.79 664.84 154.71 653.84 149.73L612.07 129.3C612.07 129.3 576.2 127.81 541.82 150.23C541.82 150.23 528.37 151.86 523.89 171.97L501 238.91L441.3 264.32Z" fill="#D5E7FD"/>
<path d="M642.26 177L640 176.85C643 131.17 610.28 126.94 610 126.9L610.26 124.64C610.56 124.72 645.41 129.22 642.26 177Z" fill="#2F2E41"/>
<path d="M233.59 125L230.8 152.86C230.7 153.846 230.898 154.839 231.37 155.71C233.83 160.27 242.23 175.02 250.37 179.97C250.37 179.97 257.64 171.79 256.6 152.51L256.7 143.51L233.59 125Z" fill="#F9B499"/>
<path d="M288.37 197.8H286.1C286.1 177.86 263.6 157.23 263.4 157.04L267.63 157.64C268.47 158.42 288.37 176.87 288.37 197.8Z" fill="#2F2E41"/>
<path d="M205.93 185L203.67 184.79C203.74 184.04 205.47 166.54 215.89 158.86L217.78 159.52C208.19 166.61 206 184.84 205.93 185Z" fill="#2F2E41"/>
<path d="M215.49 238.63C214.654 238.628 213.82 238.578 212.99 238.48L213.16 237.35C213.25 237.35 221.94 238.56 222.79 233.59L221 206.34L222.13 206.27L223.91 233.64V233.7C223.26 237.94 218.51 238.63 215.49 238.63Z" fill="#E1E1E1"/>
<path d="M210.68 241.71C212.63 241.71 214.21 240.457 214.21 238.91C214.21 237.364 212.63 236.11 210.68 236.11C208.73 236.11 207.15 237.364 207.15 238.91C207.15 240.457 208.73 241.71 210.68 241.71Z" fill="#2F2E41"/>
<path d="M201.16 163C201.16 163 186.48 163.35 185.35 184.88L164.53 256.3C164.53 256.3 154.69 283.83 178.08 280.84L221.58 262.15L216.58 241.71L200.24 247.07C200.24 247.07 202.08 212.24 201.16 163Z" fill="#005048"/>
<path opacity="0.6" d="M201.16 163C201.16 163 186.48 163.35 185.35 184.88L164.53 256.3C164.53 256.3 154.69 283.83 178.08 280.84L221.58 262.15L216.58 241.71L200.24 247.07C200.24 247.07 202.08 212.24 201.16 163Z" fill="#D5E7FD"/>
<path opacity="0.1" d="M210.68 266.83C210.68 266.83 193.77 337.29 186.54 355.11C186.54 355.11 197.54 293.69 197.68 272.42L210.68 266.83Z" fill="black"/>
<path opacity="0.1" d="M200.22 247.07L201.19 222.05L204.81 245.56L200.22 247.07Z" fill="black"/>
<path d="M217.1 243.9C224.296 242.742 231.339 240.783 238.1 238.06C238.1 238.06 252.82 234.29 262.47 238.91C262.47 238.91 267.87 243.5 248.53 243.91C248.53 243.91 245.08 247.61 258.6 247.08L279.98 247.13C279.98 247.13 285.86 251.95 262.47 254.05C254.382 256.099 245.853 255.542 238.1 252.46L220.83 258.91L217.1 243.9Z" fill="#F9B499"/>
<path d="M354.82 194.15L359.89 186.23C360.414 177.688 364.168 169.666 370.39 163.79V200.54C370.39 200.54 370.13 201.93 366.08 202.09L364.08 204.53L354.82 194.15Z" fill="#F9B499"/>
<path d="M477.65 102.05H370.39V235.05H477.65V102.05Z" fill="#005048"/>
<path d="M453.65 207.68C462.94 210.05 473.38 214.53 471.19 196.17C469.5 182 453.68 146.1 443.52 141.71C433.36 137.32 429.12 139.64 427.52 154.42C425.9 170.14 423.59 200 453.65 207.68Z" fill="#2F2E41"/>
<path d="M450.37 172L455.16 170.76C453.71 165.14 450.92 162.76 448.84 161.76C447.421 161.051 445.823 160.779 444.25 160.98C438.82 161.34 434.36 159.15 431 154.44C428.622 150.953 427.051 146.98 426.4 142.81L421.51 143.48C422.271 148.44 424.148 153.162 427 157.29C431.39 163.44 437.53 166.41 444.74 165.88H445.02C445.53 165.78 448.75 165.69 450.37 172Z" fill="#E6E6E6"/>
<path d="M435.9 161.1C435.85 166.227 437.437 171.237 440.43 175.4C440.86 176 441.86 175.4 441.43 174.82C438.548 170.829 437.013 166.023 437.05 161.1C437.032 160.961 436.963 160.833 436.857 160.74C436.752 160.647 436.616 160.596 436.475 160.596C436.334 160.596 436.199 160.647 436.093 160.74C435.987 160.833 435.918 160.961 435.9 161.1Z" fill="#E6E6E6"/>
<path d="M437.51 168.86C442.234 170.529 446.452 173.377 449.765 177.135C453.078 180.892 455.376 185.435 456.44 190.33C456.59 191.06 457.71 190.75 457.56 190.02C456.44 184.933 454.039 180.218 450.584 176.32C447.129 172.422 442.735 169.472 437.82 167.75C437.11 167.51 436.82 168.62 437.51 168.86Z" fill="#E6E6E6"/>
<path d="M448.13 175.05C445.243 181.11 444.157 187.871 445 194.53C445.09 195.26 446.25 195.27 446.15 194.53C445.308 188.078 446.332 181.519 449.1 175.63C449.42 174.96 448.42 174.37 448.1 175.05H448.13Z" fill="#E6E6E6"/>
<path d="M394.37 207.68C385.08 210.05 374.65 214.53 376.84 196.17C378.53 182 394.35 146.1 404.5 141.71C414.65 137.32 418.91 139.64 420.5 154.42C422.13 170.14 424.44 200 394.37 207.68Z" fill="#2F2E41"/>
<path d="M397 170.78C397.4 167.59 401.73 165.78 403.56 165.88C403.86 165.88 404.17 165.88 404.47 165.88C418.97 165.88 424.82 151.64 425.99 143.06C426.73 137.6 426.04 121.91 425.99 121.24L421.05 121.46C421.05 121.62 421.76 137.38 421.05 142.39C420.79 144.39 418.05 161.49 403.72 160.92C401.276 160.948 398.893 161.684 396.86 163.04C395.582 163.793 394.487 164.82 393.655 166.048C392.823 167.276 392.275 168.674 392.05 170.14L397 170.78Z" fill="#E6E6E6"/>
<path d="M411.86 161.1C411.897 166.023 410.362 170.829 407.48 174.82C407.05 175.42 408.05 176 408.48 175.4C411.464 171.233 413.047 166.225 413 161.1C413 160.946 412.939 160.799 412.83 160.69C412.721 160.581 412.574 160.52 412.42 160.52C412.266 160.52 412.119 160.581 412.01 160.69C411.901 160.799 411.84 160.946 411.84 161.1H411.86Z" fill="#E6E6E6"/>
<path d="M411.1 167.75C406.185 169.467 401.791 172.413 398.336 176.307C394.881 180.202 392.479 184.916 391.36 190C391.2 190.73 392.36 191 392.47 190.31C393.534 185.415 395.832 180.872 399.145 177.115C402.458 173.357 406.677 170.509 411.4 168.84C412.1 168.6 411.8 167.48 411.1 167.73V167.75Z" fill="#E6E6E6"/>
<path d="M399.79 175.63C402.558 181.519 403.582 188.078 402.74 194.53C402.64 195.27 403.8 195.26 403.89 194.53C404.739 187.873 403.66 181.112 400.78 175.05C400.47 174.37 399.47 174.96 399.78 175.63H399.79Z" fill="#E6E6E6"/>
<path d="M449.09 153.17C443.178 154.254 437.64 156.829 433 160.65C432.42 161.12 433.24 161.93 433.82 161.46C438.332 157.773 443.713 155.305 449.45 154.29C450.18 154.16 449.87 153.04 449.14 153.17H449.09Z" fill="#E6E6E6"/>
<path d="M413.55 159.42C410.335 155.794 405.951 153.409 401.16 152.68C400.43 152.57 400.16 153.68 400.85 153.79C405.446 154.473 409.653 156.758 412.73 160.24C413.22 160.8 414.04 159.98 413.55 159.42Z" fill="#E6E6E6"/>
<path d="M585.67 265.32L622.54 163.79L611.08 159.79L626.52 150.68C626.52 150.68 623.04 130.75 610.08 125.77C610.08 125.77 614.57 136.77 612.08 145.98C609.28 151.603 607.262 157.581 606.08 163.75C606.08 163.75 587.16 232.93 585.67 265.32Z" fill="#005048"/>
<path opacity="0.1" d="M585.67 265.32L622.54 163.79L611.08 159.79L626.52 150.68C626.52 150.68 623.04 130.75 610.08 125.77C610.08 125.77 614.57 136.77 612.08 145.98C609.28 151.603 607.262 157.581 606.08 163.75C606.08 163.75 587.16 232.93 585.67 265.32Z" fill="black"/>
<path d="M574.21 161.06L562.75 158.06C562.75 158.06 557.27 144.66 577.75 129.24C577.75 129.24 574.26 221.93 585.75 265.24C585.75 265.24 564.32 180.93 564.82 168.03L574.21 161.06Z" fill="#005048"/>
<path opacity="0.1" d="M574.21 161.06L562.75 158.06C562.75 158.06 557.27 144.66 577.75 129.24C577.75 129.24 574.26 221.93 585.75 265.24C585.75 265.24 564.32 180.93 564.82 168.03L574.21 161.06Z" fill="black"/>
<path d="M577.26 149.65L583.34 143.65L588.79 145.1L599.31 140.46L598.91 146.01L608.39 156.26C608.39 156.26 587.23 231.32 585.67 265.26C585.67 265.32 576.27 245.05 577.26 149.65Z" fill="#005048"/>
<path d="M588.462 148.102L585.432 245.035L586.002 245.052L589.031 148.12L588.462 148.102Z" fill="#2F2E41"/>
<path opacity="0.1" d="M584.88 157.39C585.891 157.39 586.71 156.571 586.71 155.56C586.71 154.549 585.891 153.73 584.88 153.73C583.869 153.73 583.05 154.549 583.05 155.56C583.05 156.571 583.869 157.39 584.88 157.39Z" fill="black"/>
<path opacity="0.1" d="M583.06 173.8C584.071 173.8 584.89 172.981 584.89 171.97C584.89 170.959 584.071 170.14 583.06 170.14C582.049 170.14 581.23 170.959 581.23 171.97C581.23 172.981 582.049 173.8 583.06 173.8Z" fill="black"/>
<path opacity="0.1" d="M583.06 190.21C584.071 190.21 584.89 189.391 584.89 188.38C584.89 187.369 584.071 186.55 583.06 186.55C582.049 186.55 581.23 187.369 581.23 188.38C581.23 189.391 582.049 190.21 583.06 190.21Z" fill="black"/>
<path d="M608.39 94.16L610.08 125.81C605.37 142.81 588.79 145.14 588.79 145.14L579 128.14L581.27 121.29L603.27 92.29L608.39 94.16Z" fill="#F9B499"/>
<path d="M539.74 207.89C539.74 207.28 538.41 146.66 579.5 126.61V129.13C539.76 148.52 542 207.19 542 207.79L539.74 207.89Z" fill="#2F2E41"/>
<path d="M541.3 223.42C545.602 223.42 549.09 219.932 549.09 215.63C549.09 211.328 545.602 207.84 541.3 207.84C536.998 207.84 533.51 211.328 533.51 215.63C533.51 219.932 536.998 223.42 541.3 223.42Z" fill="#D1D3D4"/>
<path opacity="0.1" d="M541.3 219.74C543.57 219.74 545.41 217.9 545.41 215.63C545.41 213.36 543.57 211.52 541.3 211.52C539.03 211.52 537.19 213.36 537.19 215.63C537.19 217.9 539.03 219.74 541.3 219.74Z" fill="black"/>
<path d="M441.3 264.32C441.3 264.32 428.35 264.45 418.05 268.45C418.05 268.45 402.78 268.45 407.98 273.03C407.98 273.03 414.33 276.75 422.63 273.03C422.63 273.03 410.72 288.48 398.93 295.03C398.93 295.03 393.26 298.18 398.93 300.47C398.93 300.47 393.37 304.19 396.41 306.47C396.41 306.47 399.16 311.91 405.17 306.47C405.17 306.47 405.59 312.47 411.25 308.89L415.76 305.04C415.76 305.04 417.67 310.76 424.01 305.9C424.01 305.9 442.19 296.66 445.3 278.96L441.3 264.32Z" fill="#F9B499"/>
<path d="M607.29 350.42L597.37 278.94L699.84 262.83L709.35 334.31L607.29 350.42Z" fill="#2F2E41"/>
<path d="M626.47 233.6C626.35 233.6 614.78 231.2 615.36 223.39L620.75 197.24L621.3 197.36L615.92 223.47C615.38 230.74 626.47 233.02 626.58 233.05L626.47 233.6Z" fill="#E1E1E1"/>
<path d="M572.12 154.7L583.34 143.7L588.79 145.15L579 128.15C579 128.15 568.91 135.21 572.12 154.7Z" fill="#2F2E41"/>
<path d="M591.61 144.51C591.61 144.51 606.32 138.42 610.08 125.81C613.042 132.119 613.748 139.253 612.08 146.02L608.4 156.3L598.92 146.05L591.61 144.51Z" fill="#2F2E41"/>
<path d="M627.69 236.33C629.468 236.33 630.91 234.888 630.91 233.11C630.91 231.332 629.468 229.89 627.69 229.89C625.912 229.89 624.47 231.332 624.47 233.11C624.47 234.888 625.912 236.33 627.69 236.33Z" fill="#2F2E41"/>
<path d="M641.33 237.81C643.108 237.81 644.55 236.368 644.55 234.59C644.55 232.812 643.108 231.37 641.33 231.37C639.552 231.37 638.11 232.812 638.11 234.59C638.11 236.368 639.552 237.81 641.33 237.81Z" fill="#2F2E41"/>
<path d="M194.53 239.48C192.88 239.48 189.16 239.22 186.81 237.12C186.179 236.546 185.676 235.846 185.331 235.066C184.987 234.286 184.809 233.443 184.81 232.59L186.75 206.26L187.88 206.35L185.94 232.61C185.947 233.301 186.098 233.983 186.382 234.613C186.666 235.243 187.077 235.807 187.59 236.27C190.25 238.66 195.25 238.33 195.3 238.27L195.38 239.4C195.098 239.442 194.815 239.469 194.53 239.48Z" fill="#E1E1E1"/>
<path d="M198.85 241.57C200.8 241.57 202.38 240.316 202.38 238.77C202.38 237.224 200.8 235.97 198.85 235.97C196.901 235.97 195.32 237.224 195.32 238.77C195.32 240.316 196.901 241.57 198.85 241.57Z" fill="#2F2E41"/>
<path d="M230.8 152.86C230.8 152.86 224.46 154.13 223.41 162.38C223.299 163.212 223.402 164.059 223.71 164.84L232.56 187.34C232.56 187.34 237.18 173.58 243.75 178.83C243.75 178.83 247.81 184.5 249.75 184.26C249.75 184.26 252.75 185.5 256.75 177.72C256.75 177.72 259.3 171.4 262.46 175.05L269.27 179.97C269.27 179.97 268.79 157.92 256.75 154.27C256.75 154.27 257.83 170.9 250.42 179.97C250.42 179.97 242.89 177.08 231.42 155.71C230.872 154.868 230.651 153.854 230.8 152.86Z" fill="#005048"/>
<path opacity="0.1" d="M230.8 152.86C230.8 152.86 224.46 154.13 223.41 162.38C223.299 163.212 223.402 164.059 223.71 164.84L232.56 187.34C232.56 187.34 237.18 173.58 243.75 178.83C243.75 178.83 247.81 184.5 249.75 184.26C249.75 184.26 252.75 185.5 256.75 177.72C256.75 177.72 259.3 171.4 262.46 175.05L269.27 179.97C269.27 179.97 268.79 157.92 256.75 154.27C256.75 154.27 257.83 170.9 250.42 179.97C250.42 179.97 242.89 177.08 231.42 155.71C230.872 154.868 230.651 153.854 230.8 152.86Z" fill="black"/>
<path d="M221.58 207.44C221.315 207.441 221.058 207.349 220.854 207.178C220.651 207.008 220.515 206.771 220.47 206.51C216.6 185.61 207.19 186.01 207.09 186.04H206.83C205.148 185.748 203.424 185.806 201.765 186.21C200.107 186.615 198.549 187.357 197.19 188.39C190.06 193.83 188.44 206.33 188.42 206.46C188.405 206.609 188.361 206.754 188.289 206.886C188.217 207.017 188.119 207.133 188.002 207.227C187.884 207.32 187.749 207.389 187.605 207.429C187.46 207.469 187.309 207.479 187.16 207.46C186.861 207.425 186.587 207.273 186.4 207.036C186.212 206.8 186.126 206.499 186.16 206.2C186.23 205.65 187.9 192.64 195.8 186.61C197.374 185.397 199.18 184.52 201.106 184.031C203.032 183.543 205.038 183.454 207 183.77C208.44 183.77 218.61 184.17 222.66 206.1C222.713 206.395 222.647 206.7 222.476 206.947C222.306 207.194 222.045 207.364 221.75 207.42C221.694 207.433 221.637 207.44 221.58 207.44Z" fill="#2F2E41"/>
<path d="M288.42 212.21C292.551 212.21 295.9 208.861 295.9 204.73C295.9 200.599 292.551 197.25 288.42 197.25C284.289 197.25 280.94 200.599 280.94 204.73C280.94 208.861 284.289 212.21 288.42 212.21Z" fill="#D1D3D4"/>
<path opacity="0.1" d="M288.42 209.14C290.856 209.14 292.83 207.166 292.83 204.73C292.83 202.294 290.856 200.32 288.42 200.32C285.984 200.32 284.01 202.294 284.01 204.73C284.01 207.166 285.984 209.14 288.42 209.14Z" fill="black"/>
<path d="M188 617.22C188 617.22 180.05 637.97 188 639.91H242C242.315 639.913 242.623 639.818 242.88 639.636C243.138 639.455 243.332 639.198 243.435 638.9C243.538 638.602 243.544 638.28 243.454 637.978C243.363 637.677 243.18 637.411 242.93 637.22C240.03 634.95 233.55 630.93 219.15 624.03C219.15 624 203.43 631.48 188 617.22Z" fill="#2F2E41"/>
<path d="M256.28 616.46C256.28 616.46 247.76 637.97 255.7 639.91H309.7C310.012 639.907 310.316 639.808 310.569 639.626C310.822 639.444 311.013 639.188 311.115 638.893C311.217 638.599 311.225 638.279 311.138 637.98C311.051 637.68 310.874 637.415 310.63 637.22C307.73 634.95 302.46 631.22 288.06 624.35C288 624.35 272.73 629.2 256.28 616.46Z" fill="#2F2E41"/>
<path d="M256.72 154.27V143.48C256.72 143.48 246.57 140.48 240.08 132.72C240.08 132.72 240.24 148.84 256.72 154.27Z" fill="#F7A48B"/>
<path d="M252.05 144.3C262.809 144.3 271.53 131.576 271.53 115.88C271.53 100.184 262.809 87.46 252.05 87.46C241.292 87.46 232.57 100.184 232.57 115.88C232.57 131.576 241.292 144.3 252.05 144.3Z" fill="#F9B499"/>
<path d="M185.35 184.91C185.35 184.91 166.99 167.11 181.42 146.51C183.161 144.106 185.174 141.911 187.42 139.97C192.58 135.4 206.07 122.63 209.2 111.65C209.2 111.65 216.7 79.65 246.35 79.09C246.35 79.09 272.66 74.36 274.35 92.17C274.35 92.17 275.53 110.54 271.6 119.73C271.6 119.73 273.43 105.73 264.85 94.37C264.85 94.37 261.55 115.72 247.91 117.03C247.91 117.03 258.21 110.54 258.21 101.91C258.21 101.91 248.49 112.91 237.48 113.09C237.48 113.09 236.37 109.42 233.09 109.01C233.09 109.01 231.33 118.16 233.66 125.01L230.87 152.87C230.87 152.87 225.74 155.12 224.72 158.11L201.16 163C201.16 163 186.61 163.25 185.35 184.91Z" fill="#2F2E41"/>
<path d="M233.02 125.05C235.804 125.05 238.06 121.459 238.06 117.03C238.06 112.601 235.804 109.01 233.02 109.01C230.236 109.01 227.98 112.601 227.98 117.03C227.98 121.459 230.236 125.05 233.02 125.05Z" fill="#F9B499"/>
<path d="M581.27 121.26L579.5 126.61V129.13C579.5 129.13 592.5 129.5 597.09 111.21L581.27 121.26Z" fill="#F7A48B"/>
<path d="M581.27 121.26C593.509 121.26 603.43 106.271 603.43 87.78C603.43 69.2896 593.509 54.3 581.27 54.3C569.031 54.3 559.11 69.2896 559.11 87.78C559.11 106.271 569.031 121.26 581.27 121.26Z" fill="#F9B499"/>
<path d="M555.42 54.31C555.42 54.31 546.49 57.69 552.34 67.24C552.34 67.24 564.96 77.7 587.12 60.77C588.347 63.3287 590.183 65.5474 592.467 67.2315C594.751 68.9157 597.413 70.0139 600.22 70.43C600.22 70.43 603.22 80.12 603.32 83.95L612.73 77.64C612.73 77.64 617.28 52.16 603.43 51.54C603.43 51.54 604.05 41.08 588.35 45.08C588.35 45.08 575.42 49.39 564.96 46C564.96 46 557.27 38.61 553.88 46C553.88 46 553.26 48.77 555.42 54.31Z" fill="#2F2E41"/>
<path d="M613.419 87.2304C615.022 82.2985 614.057 77.564 611.263 76.6556C608.469 75.7472 604.904 79.0088 603.3 83.9407C601.697 88.8725 602.662 93.607 605.456 94.5155C608.25 95.4239 611.815 92.1622 613.419 87.2304Z" fill="#F9B499"/>
<path d="M398.93 300.5C403.22 297.496 407.334 294.248 411.25 290.77" stroke="#F7A48B" stroke-miterlimit="10"/>
<path d="M398.06 306C398.82 307 406.61 299.08 412.06 295.68" stroke="#F7A48B" stroke-miterlimit="10"/>
<path d="M405.17 306.51C405.17 306.51 405.97 308.51 417.17 295.63" stroke="#F7A48B" stroke-miterlimit="10"/>
<path d="M424 297.52C424 297.52 422.06 300.35 415.75 305.08" stroke="#F7A48B" stroke-miterlimit="10"/>
<path d="M661.52 322.44C661.47 323.33 661.099 324.172 660.475 324.81C659.852 325.448 659.019 325.839 658.13 325.91C658.13 325.91 646.31 328.72 649.92 345.34C649.92 345.34 651.72 347.94 654.52 345.34C654.52 345.34 653.52 355.95 656.92 355.75C656.92 355.75 660.31 356.35 661.52 354.95C661.52 354.95 663.93 357.75 667.34 354.95C667.34 354.95 670 357.35 672.27 354.75C672.27 354.75 677.75 357.35 679.35 354.75L681 337.53C681 337.53 682 331.05 678.79 327.11L678.99 323.36L661.52 322.44Z" fill="#F9B499"/>
<path d="M661.52 354.95V339.32" stroke="#F7A48B" stroke-miterlimit="10"/>
<path d="M667.34 354.95V339.32" stroke="#F7A48B" stroke-miterlimit="10"/>
<path d="M672.27 354.75L671.3 339.32" stroke="#F7A48B" stroke-miterlimit="10"/>
<path d="M654.52 345.34L658.35 334.33" stroke="#F7A48B" stroke-miterlimit="10"/>
<path d="M657.32 322.22L681.6 323.5C681.6 323.5 697.25 267.01 692.82 251.66L665.88 163.79L650.94 229.94L665.36 265.32L657.32 322.22Z" fill="#005048"/>
<path opacity="0.6" d="M657.32 322.22L681.6 323.5C681.6 323.5 697.25 267.01 692.82 251.66L665.88 163.79L650.94 229.94L665.36 265.32L657.32 322.22Z" fill="#D5E7FD"/>
<path d="M645.92 234.87C644.67 234.87 643.78 234.8 643.66 234.79V234.23C643.78 234.23 655.08 235.12 655.76 230.34L657 201.67H657.57L656.32 230.37C655.8 234.33 649.42 234.87 645.92 234.87Z" fill="#E1E1E1"/>
<path d="M656.19 201.73C655.77 190.73 651.97 184.73 648.87 181.59C647.285 180.022 645.292 178.93 643.118 178.438C640.944 177.947 638.675 178.076 636.57 178.81C625.92 182.53 622.16 197.42 622.13 197.57L619.92 197.03C620.08 196.37 624.02 180.79 635.82 176.66C638.33 175.791 641.033 175.643 643.623 176.233C646.213 176.824 648.585 178.129 650.47 180C653.87 183.39 658.01 189.91 658.47 201.65L656.19 201.73Z" fill="#2F2E41"/>
</g>
<defs>
<filter id="filter0_d_499_36687" x="-4" y="0" width="873.76" height="690.89" filterUnits="userSpaceOnUse" color-interpolation-filters="sRGB">
<feFlood flood-opacity="0" result="BackgroundImageFix"/>
<feColorMatrix in="SourceAlpha" type="matrix" values="0 0 0 0 0 0 0 0 0 0 0 0 0 0 0 0 0 0 127 0" result="hardAlpha"/>
<feOffset dy="4"/>
<feGaussianBlur stdDeviation="2"/>
<feComposite in2="hardAlpha" operator="out"/>
<feColorMatrix type="matrix" values="0 0 0 0 0 0 0 0 0 0 0 0 0 0 0 0 0 0 0.25 0"/>
<feBlend mode="normal" in2="BackgroundImageFix" result="effect1_dropShadow_499_36687"/>
<feBlend mode="normal" in="SourceGraphic" in2="effect1_dropShadow_499_36687" result="shape"/>
</filter>
</defs>
</svg>
