<svg width="866" height="683" viewBox="0 0 866 683" fill="none" xmlns="http://www.w3.org/2000/svg">
<path d="M245.82 567.07C245.82 567.07 22.8199 586.27 25.8999 409.75C25.8999 409.75 13.5299 271.43 115.09 188.95C140.363 168.634 170.093 154.6 201.84 148C227.23 142.6 270.59 130.77 315.29 106.76C315.29 106.76 508.41 -32.24 716.1 95.83C716.1 95.83 872.25 197.3 826.97 367.52C826.97 367.52 797.97 547.76 520.48 538.07C520.48 538.07 339.26 562 245.82 567.07Z" fill="#005048"/>
<path opacity="0.7" d="M245.82 567.07C245.82 567.07 22.8199 586.27 25.8999 409.75C25.8999 409.75 13.5299 271.43 115.09 188.95C140.363 168.634 170.093 154.6 201.84 148C227.23 142.6 270.59 130.77 315.29 106.76C315.29 106.76 508.41 -32.24 716.1 95.83C716.1 95.83 872.25 197.3 826.97 367.52C826.97 367.52 797.97 547.76 520.48 538.07C520.48 538.07 339.26 562 245.82 567.07Z" fill="white"/>
<path d="M370.34 27.03H102.21V570.34H370.34V27.03Z" fill="#CCCCCC"/>
<path d="M340.05 64.95H131.31V122.57H340.05V64.95Z" fill="#B3B3B3"/>
<path d="M150.13 80.8301H142.49V112.58H150.13V80.8301Z" fill="white"/>
<path d="M180.11 80.8301H172.47V112.58H180.11V80.8301Z" fill="white"/>
<path d="M165.41 87.8799H157.77V112.58H165.41V87.8799Z" fill="white"/>
<path d="M194.23 87.8799H186.59V112.58H194.23V87.8799Z" fill="white"/>
<path d="M208.93 80.8301H201.29V112.58H208.93V80.8301Z" fill="white"/>
<path d="M238.91 80.8301H231.27V112.58H238.91V80.8301Z" fill="white"/>
<path d="M224.21 87.8799H216.57V112.58H224.21V87.8799Z" fill="white"/>
<path d="M253.02 87.8799H245.38V112.58H253.02V87.8799Z" fill="white"/>
<path d="M267.14 80.8301H259.5V112.58H267.14V80.8301Z" fill="white"/>
<path d="M297.12 80.8301H289.48V112.58H297.12V80.8301Z" fill="white"/>
<path d="M282.42 87.8799H274.78V112.58H282.42V87.8799Z" fill="white"/>
<path d="M311.24 87.8799H303.6V112.58H311.24V87.8799Z" fill="white"/>
<path d="M325.94 87.8799H318.3V112.58H325.94V87.8799Z" fill="white"/>
<path d="M340.64 146.09H131.9V203.71H340.64V146.09Z" fill="#B3B3B3"/>
<path d="M150.71 161.97H143.07V193.72H150.71V161.97Z" fill="white"/>
<path d="M180.7 161.97H173.06V193.72H180.7V161.97Z" fill="white"/>
<path d="M166 169.03H158.36V193.73H166V169.03Z" fill="white"/>
<path d="M194.81 169.03H187.17V193.73H194.81V169.03Z" fill="white"/>
<path d="M209.51 161.97H201.87V193.72H209.51V161.97Z" fill="white"/>
<path d="M239.5 161.97H231.86V193.72H239.5V161.97Z" fill="white"/>
<path d="M224.8 169.03H217.16V193.73H224.8V169.03Z" fill="white"/>
<path d="M253.61 169.03H245.97V193.73H253.61V169.03Z" fill="white"/>
<path d="M267.72 161.97H260.08V193.72H267.72V161.97Z" fill="white"/>
<path d="M297.71 161.97H290.07V193.72H297.71V161.97Z" fill="white"/>
<path d="M283.01 169.03H275.37V193.73H283.01V169.03Z" fill="white"/>
<path d="M311.82 169.03H304.18V193.73H311.82V169.03Z" fill="white"/>
<path d="M326.52 169.03H318.88V193.73H326.52V169.03Z" fill="white"/>
<path d="M340.64 225.47H131.9V283.09H340.64V225.47Z" fill="#B3B3B3"/>
<path d="M150.71 241.35H143.07V273.1H150.71V241.35Z" fill="white"/>
<path d="M180.7 241.35H173.06V273.1H180.7V241.35Z" fill="white"/>
<path d="M166 248.41H158.36V273.11H166V248.41Z" fill="white"/>
<path d="M194.81 248.41H187.17V273.11H194.81V248.41Z" fill="white"/>
<path d="M209.51 241.35H201.87V273.1H209.51V241.35Z" fill="white"/>
<path d="M239.5 241.35H231.86V273.1H239.5V241.35Z" fill="white"/>
<path d="M224.8 248.41H217.16V273.11H224.8V248.41Z" fill="white"/>
<path d="M253.61 248.41H245.97V273.11H253.61V248.41Z" fill="white"/>
<path d="M267.72 241.35H260.08V273.1H267.72V241.35Z" fill="white"/>
<path d="M297.71 241.35H290.07V273.1H297.71V241.35Z" fill="white"/>
<path d="M283.01 248.41H275.37V273.11H283.01V248.41Z" fill="white"/>
<path d="M311.82 248.41H304.18V273.11H311.82V248.41Z" fill="white"/>
<path d="M326.52 248.41H318.88V273.11H326.52V248.41Z" fill="white"/>
<path d="M340.64 306.62H131.9V364.24H340.64V306.62Z" fill="#B3B3B3"/>
<path d="M150.71 322.49H143.07V354.24H150.71V322.49Z" fill="white"/>
<path d="M180.7 322.49H173.06V354.24H180.7V322.49Z" fill="white"/>
<path d="M166 329.55H158.36V354.25H166V329.55Z" fill="white"/>
<path d="M194.81 329.55H187.17V354.25H194.81V329.55Z" fill="white"/>
<path d="M209.51 322.49H201.87V354.24H209.51V322.49Z" fill="white"/>
<path d="M239.5 322.49H231.86V354.24H239.5V322.49Z" fill="white"/>
<path d="M224.8 329.55H217.16V354.25H224.8V329.55Z" fill="white"/>
<path d="M253.61 329.55H245.97V354.25H253.61V329.55Z" fill="white"/>
<path d="M267.72 322.49H260.08V354.24H267.72V322.49Z" fill="white"/>
<path d="M297.71 322.49H290.07V354.24H297.71V322.49Z" fill="white"/>
<path d="M283.01 329.55H275.37V354.25H283.01V329.55Z" fill="white"/>
<path d="M311.82 329.55H304.18V354.25H311.82V329.55Z" fill="white"/>
<path d="M326.52 329.55H318.88V354.25H326.52V329.55Z" fill="white"/>
<path d="M340.64 387.76H131.9V445.38H340.64V387.76Z" fill="#B3B3B3"/>
<path d="M150.71 403.64H143.07V435.39H150.71V403.64Z" fill="white"/>
<path d="M180.7 403.64H173.06V435.39H180.7V403.64Z" fill="white"/>
<path d="M166 410.69H158.36V435.39H166V410.69Z" fill="white"/>
<path d="M194.81 410.69H187.17V435.39H194.81V410.69Z" fill="white"/>
<path d="M209.51 403.64H201.87V435.39H209.51V403.64Z" fill="white"/>
<path d="M239.5 403.64H231.86V435.39H239.5V403.64Z" fill="white"/>
<path d="M224.8 410.69H217.16V435.39H224.8V410.69Z" fill="white"/>
<path d="M253.61 410.69H245.97V435.39H253.61V410.69Z" fill="white"/>
<path d="M267.72 403.64H260.08V435.39H267.72V403.64Z" fill="white"/>
<path d="M297.71 403.64H290.07V435.39H297.71V403.64Z" fill="white"/>
<path d="M283.01 410.69H275.37V435.39H283.01V410.69Z" fill="white"/>
<path d="M311.82 410.69H304.18V435.39H311.82V410.69Z" fill="white"/>
<path d="M326.52 410.69H318.88V435.39H326.52V410.69Z" fill="white"/>
<path d="M340.64 466.55H131.9V524.17H340.64V466.55Z" fill="#B3B3B3"/>
<path d="M150.71 482.43H143.07V514.18H150.71V482.43Z" fill="white"/>
<path d="M180.7 482.43H173.06V514.18H180.7V482.43Z" fill="white"/>
<path d="M166 489.48H158.36V514.18H166V489.48Z" fill="white"/>
<path d="M194.81 489.48H187.17V514.18H194.81V489.48Z" fill="white"/>
<path d="M209.51 482.43H201.87V514.18H209.51V482.43Z" fill="white"/>
<path d="M239.5 482.43H231.86V514.18H239.5V482.43Z" fill="white"/>
<path d="M224.8 489.48H217.16V514.18H224.8V489.48Z" fill="white"/>
<path d="M253.61 489.48H245.97V514.18H253.61V489.48Z" fill="white"/>
<path d="M267.72 482.43H260.08V514.18H267.72V482.43Z" fill="white"/>
<path d="M297.71 482.43H290.07V514.18H297.71V482.43Z" fill="white"/>
<path d="M283.01 489.48H275.37V514.18H283.01V489.48Z" fill="white"/>
<path d="M311.82 489.48H304.18V514.18H311.82V489.48Z" fill="white"/>
<path d="M326.52 489.48H318.88V514.18H326.52V489.48Z" fill="white"/>
<path d="M655.91 27.03H387.78V570.34H655.91V27.03Z" fill="#CCCCCC"/>
<path d="M625.62 64.95H416.88V122.57H625.62V64.95Z" fill="#B3B3B3"/>
<path d="M435.69 80.8301H428.05V112.58H435.69V80.8301Z" fill="white"/>
<path d="M465.68 80.8301H458.04V112.58H465.68V80.8301Z" fill="white"/>
<path d="M450.98 87.8799H443.34V112.58H450.98V87.8799Z" fill="white"/>
<path d="M479.79 87.8799H472.15V112.58H479.79V87.8799Z" fill="white"/>
<path d="M494.49 80.8301H486.85V112.58H494.49V80.8301Z" fill="white"/>
<path d="M524.48 80.8301H516.84V112.58H524.48V80.8301Z" fill="white"/>
<path d="M509.78 87.8799H502.14V112.58H509.78V87.8799Z" fill="white"/>
<path d="M538.59 87.8799H530.95V112.58H538.59V87.8799Z" fill="white"/>
<path d="M552.7 80.8301H545.06V112.58H552.7V80.8301Z" fill="white"/>
<path d="M582.69 80.8301H575.05V112.58H582.69V80.8301Z" fill="white"/>
<path d="M567.99 87.8799H560.35V112.58H567.99V87.8799Z" fill="white"/>
<path d="M596.8 87.8799H589.16V112.58H596.8V87.8799Z" fill="white"/>
<path d="M611.5 87.8799H603.86V112.58H611.5V87.8799Z" fill="white"/>
<path d="M626.21 146.09H417.47V203.71H626.21V146.09Z" fill="#B3B3B3"/>
<path d="M436.28 161.97H428.64V193.72H436.28V161.97Z" fill="white"/>
<path d="M466.27 161.97H458.63V193.72H466.27V161.97Z" fill="white"/>
<path d="M451.57 169.03H443.93V193.73H451.57V169.03Z" fill="white"/>
<path d="M480.38 169.03H472.74V193.73H480.38V169.03Z" fill="white"/>
<path d="M495.08 161.97H487.44V193.72H495.08V161.97Z" fill="white"/>
<path d="M525.07 161.97H517.43V193.72H525.07V161.97Z" fill="white"/>
<path d="M510.37 169.03H502.73V193.73H510.37V169.03Z" fill="white"/>
<path d="M539.18 169.03H531.54V193.73H539.18V169.03Z" fill="white"/>
<path d="M553.29 161.97H545.65V193.72H553.29V161.97Z" fill="white"/>
<path d="M583.28 161.97H575.64V193.72H583.28V161.97Z" fill="white"/>
<path d="M568.58 169.03H560.94V193.73H568.58V169.03Z" fill="white"/>
<path d="M597.39 169.03H589.75V193.73H597.39V169.03Z" fill="white"/>
<path d="M612.09 169.03H604.45V193.73H612.09V169.03Z" fill="white"/>
<path d="M626.21 225.47H417.47V283.09H626.21V225.47Z" fill="#B3B3B3"/>
<path d="M436.28 241.35H428.64V273.1H436.28V241.35Z" fill="white"/>
<path d="M466.27 241.35H458.63V273.1H466.27V241.35Z" fill="white"/>
<path d="M451.57 248.41H443.93V273.11H451.57V248.41Z" fill="white"/>
<path d="M480.38 248.41H472.74V273.11H480.38V248.41Z" fill="white"/>
<path d="M495.08 241.35H487.44V273.1H495.08V241.35Z" fill="white"/>
<path d="M525.07 241.35H517.43V273.1H525.07V241.35Z" fill="white"/>
<path d="M510.37 248.41H502.73V273.11H510.37V248.41Z" fill="white"/>
<path d="M539.18 248.41H531.54V273.11H539.18V248.41Z" fill="white"/>
<path d="M553.29 241.35H545.65V273.1H553.29V241.35Z" fill="white"/>
<path d="M583.28 241.35H575.64V273.1H583.28V241.35Z" fill="white"/>
<path d="M568.58 248.41H560.94V273.11H568.58V248.41Z" fill="white"/>
<path d="M597.39 248.41H589.75V273.11H597.39V248.41Z" fill="white"/>
<path d="M612.09 248.41H604.45V273.11H612.09V248.41Z" fill="white"/>
<path d="M626.21 306.62H417.47V364.24H626.21V306.62Z" fill="#B3B3B3"/>
<path d="M436.28 322.49H428.64V354.24H436.28V322.49Z" fill="white"/>
<path d="M466.27 322.49H458.63V354.24H466.27V322.49Z" fill="white"/>
<path d="M451.57 329.55H443.93V354.25H451.57V329.55Z" fill="white"/>
<path d="M480.38 329.55H472.74V354.25H480.38V329.55Z" fill="white"/>
<path d="M495.08 322.49H487.44V354.24H495.08V322.49Z" fill="white"/>
<path d="M525.07 322.49H517.43V354.24H525.07V322.49Z" fill="white"/>
<path d="M510.37 329.55H502.73V354.25H510.37V329.55Z" fill="white"/>
<path d="M539.18 329.55H531.54V354.25H539.18V329.55Z" fill="white"/>
<path d="M553.29 322.49H545.65V354.24H553.29V322.49Z" fill="white"/>
<path d="M583.28 322.49H575.64V354.24H583.28V322.49Z" fill="white"/>
<path d="M568.58 329.55H560.94V354.25H568.58V329.55Z" fill="white"/>
<path d="M597.39 329.55H589.75V354.25H597.39V329.55Z" fill="white"/>
<path d="M612.09 329.55H604.45V354.25H612.09V329.55Z" fill="white"/>
<path d="M626.21 387.76H417.47V445.38H626.21V387.76Z" fill="#B3B3B3"/>
<path d="M436.28 403.64H428.64V435.39H436.28V403.64Z" fill="white"/>
<path d="M466.27 403.64H458.63V435.39H466.27V403.64Z" fill="white"/>
<path d="M451.57 410.69H443.93V435.39H451.57V410.69Z" fill="white"/>
<path d="M480.38 410.69H472.74V435.39H480.38V410.69Z" fill="white"/>
<path d="M495.08 403.64H487.44V435.39H495.08V403.64Z" fill="white"/>
<path d="M525.07 403.64H517.43V435.39H525.07V403.64Z" fill="white"/>
<path d="M510.37 410.69H502.73V435.39H510.37V410.69Z" fill="white"/>
<path d="M539.18 410.69H531.54V435.39H539.18V410.69Z" fill="white"/>
<path d="M553.29 403.64H545.65V435.39H553.29V403.64Z" fill="white"/>
<path d="M583.28 403.64H575.64V435.39H583.28V403.64Z" fill="white"/>
<path d="M568.58 410.69H560.94V435.39H568.58V410.69Z" fill="white"/>
<path d="M597.39 410.69H589.75V435.39H597.39V410.69Z" fill="white"/>
<path d="M612.09 410.69H604.45V435.39H612.09V410.69Z" fill="white"/>
<path d="M626.21 466.55H417.47V524.17H626.21V466.55Z" fill="#B3B3B3"/>
<path d="M436.28 482.43H428.64V514.18H436.28V482.43Z" fill="white"/>
<path d="M466.27 482.43H458.63V514.18H466.27V482.43Z" fill="white"/>
<path d="M451.57 489.48H443.93V514.18H451.57V489.48Z" fill="white"/>
<path d="M480.38 489.48H472.74V514.18H480.38V489.48Z" fill="white"/>
<path d="M495.08 482.43H487.44V514.18H495.08V482.43Z" fill="white"/>
<path d="M525.07 482.43H517.43V514.18H525.07V482.43Z" fill="white"/>
<path d="M510.37 489.48H502.73V514.18H510.37V489.48Z" fill="white"/>
<path d="M539.18 489.48H531.54V514.18H539.18V489.48Z" fill="white"/>
<path d="M553.29 482.43H545.65V514.18H553.29V482.43Z" fill="white"/>
<path d="M583.28 482.43H575.64V514.18H583.28V482.43Z" fill="white"/>
<path d="M568.58 489.48H560.94V514.18H568.58V489.48Z" fill="white"/>
<path d="M597.39 489.48H589.75V514.18H597.39V489.48Z" fill="white"/>
<path d="M612.09 489.48H604.45V514.18H612.09V489.48Z" fill="white"/>
<path d="M236.48 600.72V589.32L225.04 585.32C224.766 582.686 224.267 580.08 223.55 577.53L233.24 570.3L228.83 560L216.61 563C214.929 560.628 213.035 558.416 210.95 556.39L215.54 545L206.54 538.65L196.71 546.86C194.4 545.871 192.016 545.065 189.58 544.45L188 532.31L176.53 531.23L173.3 543.23C170.736 543.478 168.197 543.94 165.71 544.61L157.85 534L147.69 539.58L150.35 551.89C148.08 553.519 145.961 555.35 144.02 557.36L132.4 551.8L125.64 561.04L134.9 570.69C133.8 573.089 132.907 575.579 132.23 578.13L118.88 579.44L118.29 590.32L130.88 595.1C131.151 597.789 131.656 600.449 132.39 603.05L121.82 610.6L126.61 620.6L138.61 616.53C140.252 618.989 142.12 621.289 144.19 623.4L139.51 635.89L148.92 642.35L157.72 633.08C160.254 634.285 162.891 635.258 165.6 635.99L167.14 648.82H178L181.7 637.49C184.609 637.268 187.492 636.776 190.31 636.02L197.7 645.88L207.11 641.18L205.04 629.18C207.402 627.532 209.611 625.675 211.64 623.63L222.4 628.26L228.86 618.92L220.86 610.42C222.052 607.884 223.016 605.247 223.74 602.54L236.48 600.72ZM177.68 620.61C171.747 620.61 165.946 618.851 161.013 615.554C156.079 612.258 152.234 607.572 149.964 602.091C147.693 596.609 147.099 590.577 148.256 584.757C149.414 578.938 152.271 573.592 156.467 569.397C160.662 565.201 166.008 562.344 171.827 561.186C177.647 560.029 183.679 560.623 189.161 562.894C194.642 565.164 199.328 569.009 202.624 573.943C205.921 578.876 207.68 584.677 207.68 590.61C207.68 598.566 204.519 606.197 198.893 611.823C193.267 617.449 185.637 620.61 177.68 620.61Z" fill="#005048"/>
<path d="M704.64 65.6V58.11L697.14 55.51C696.951 53.7783 696.616 52.0656 696.14 50.39L702.51 45.65L699.61 38.89L691.61 40.83C690.504 39.2734 689.259 37.8207 687.89 36.49L690.89 28.99L685 24.82L678.54 30.21C677.026 29.5556 675.461 29.0271 673.86 28.63L672.86 20.63L665.25 20L663.13 27.88C661.442 28.0495 659.77 28.3538 658.13 28.79L652.99 21.79L646.32 25.45L648.07 33.54C646.577 34.6082 645.185 35.8098 643.91 37.13L636.28 33.48L631.84 39.55L637.92 45.89C637.202 47.4651 636.616 49.0975 636.17 50.77L627.4 51.63L627 58.78L635.27 61.92C635.454 63.6854 635.788 65.4318 636.27 67.14L629.33 72.14L632.47 78.7L640.34 76C641.419 77.6123 642.644 79.122 644 80.51L640.92 88.7L647.1 93L652.89 86.91C654.552 87.7034 656.283 88.3459 658.06 88.83L659.06 97.25H666.21L668.64 89.81C670.55 89.6527 672.442 89.318 674.29 88.81L679.15 95.28L685.33 92.19L684 84.29C685.555 83.2085 687.008 81.9867 688.34 80.64L695.41 83.64L699.65 77.51L694.37 72C695.155 70.334 695.788 68.6002 696.26 66.82L704.64 65.6ZM666 78.66C662.103 78.656 658.294 77.4963 655.057 75.3274C651.819 73.1586 649.297 70.0781 647.81 66.4757C646.323 62.8734 645.938 58.9109 646.704 55.0897C647.47 51.2685 649.351 47.7603 652.111 45.0088C654.871 42.2573 658.385 40.3862 662.209 39.6322C666.032 38.8782 669.993 39.2752 673.591 40.773C677.189 42.2708 680.262 44.802 682.421 48.0465C684.58 51.2909 685.728 55.1029 685.72 59C685.716 61.5857 685.203 64.1454 684.21 66.5328C683.217 68.9201 681.763 71.0886 679.932 72.9142C678.101 74.7398 675.928 76.1868 673.537 77.1727C671.147 78.1586 668.586 78.6639 666 78.66Z" fill="#005048"/>
<path d="M728.04 416.57H540.47V625.31H728.04V416.57Z" fill="#2F2E41"/>
<path opacity="0.2" d="M728.04 416.57H540.47V625.31H728.04V416.57Z" fill="black"/>
<path d="M748.03 363.07H522.24V425.4H748.03V363.07Z" fill="#005048"/>
<path opacity="0.3" d="M688.65 386.88H549.29V401.58H688.65V386.88Z" fill="white"/>
<path d="M718.34 403.93C723.697 403.93 728.04 399.587 728.04 394.23C728.04 388.873 723.697 384.53 718.34 384.53C712.983 384.53 708.64 388.873 708.64 394.23C708.64 399.587 712.983 403.93 718.34 403.93Z" fill="white"/>
<path d="M748.03 444.4H522.24V506.73H748.03V444.4Z" fill="#005048"/>
<path opacity="0.3" d="M688.65 468.22H549.29V482.92H688.65V468.22Z" fill="white"/>
<path d="M718.34 485.27C723.697 485.27 728.04 480.927 728.04 475.57C728.04 470.213 723.697 465.87 718.34 465.87C712.983 465.87 708.64 470.213 708.64 475.57C708.64 480.927 712.983 485.27 718.34 485.27Z" fill="white"/>
<path d="M748.03 527.7H522.24V590.03H748.03V527.7Z" fill="#005048"/>
<path opacity="0.3" d="M688.65 551.52H549.29V566.22H688.65V551.52Z" fill="white"/>
<path d="M718.34 568.57C723.697 568.57 728.04 564.227 728.04 558.87C728.04 553.513 723.697 549.17 718.34 549.17C712.983 549.17 708.64 553.513 708.64 558.87C708.64 564.227 712.983 568.57 718.34 568.57Z" fill="white"/>
<path d="M748.03 610.02H522.24V672.35H748.03V610.02Z" fill="#005048"/>
<path opacity="0.3" d="M688.65 633.84H549.29V648.54H688.65V633.84Z" fill="white"/>
<path d="M718.34 650.89C723.697 650.89 728.04 646.547 728.04 641.19C728.04 635.833 723.697 631.49 718.34 631.49C712.983 631.49 708.64 635.833 708.64 641.19C708.64 646.547 712.983 650.89 718.34 650.89Z" fill="white"/>
<path d="M697 153.13C697 153.13 705.7 187.01 669.13 182.36C675.265 177.744 679.38 170.935 680.614 163.357C681.848 155.778 680.107 148.016 675.753 141.692C671.399 135.367 664.77 130.969 657.251 129.417C649.731 127.864 641.902 129.277 635.4 133.36C635.4 133.02 636.05 124.85 664.71 124.85C665.71 124.85 685.91 125.85 691.96 137.97C691.96 137.97 695.6 129.22 701.66 132.79C702.761 133.47 703.688 134.398 704.366 135.501C705.043 136.604 705.452 137.85 705.56 139.14C706 144.33 705.82 153.87 697 153.13Z" fill="#2F2E41"/>
<path d="M665.79 181.46V197.55L665.56 197.7C662.722 199.86 659.317 201.146 655.76 201.4C653.043 201.517 650.321 201.376 647.63 200.98V181.46H665.79Z" fill="#F9B499"/>
<path d="M647.63 181.46V192.05C647.63 192.05 654.69 194.58 665.79 192.05V181.46H647.63Z" fill="#F7A48B"/>
<path d="M702.12 338.87L693.04 339.87L629.47 310.61H615.34L594.15 274.28L621.27 234C621.27 234 627.45 221.82 637.54 214.76L642.02 210.92C642.758 210.282 643.341 209.483 643.724 208.586C644.107 207.688 644.28 206.715 644.23 205.74C644.09 203.14 644.51 199.95 647.63 200.98C650.321 201.376 653.043 201.517 655.76 201.4C659.317 201.146 662.722 199.86 665.56 197.7L665.79 197.55C666.96 196.83 668.3 196.96 668.79 200.63V205.89C668.647 206.538 668.638 207.208 668.764 207.86C668.891 208.511 669.149 209.129 669.524 209.677C669.899 210.224 670.383 210.689 670.944 211.042C671.506 211.395 672.134 211.629 672.79 211.73C672.79 211.73 690 219.8 693 232.92C693 232.92 705.11 262.18 712.17 304.57C712.21 304.57 719.28 336.86 702.12 338.87Z" fill="#005048"/>
<g opacity="0.2">
<path d="M649.77 204.93C649.032 204.937 648.293 204.897 647.56 204.81C647.494 204.8 647.43 204.777 647.372 204.743C647.315 204.709 647.265 204.663 647.225 204.609C647.185 204.555 647.156 204.494 647.14 204.429C647.123 204.364 647.12 204.296 647.13 204.23C647.139 204.164 647.16 204.101 647.194 204.044C647.227 203.987 647.272 203.938 647.325 203.898C647.379 203.859 647.439 203.831 647.504 203.816C647.568 203.801 647.635 203.799 647.7 203.81C647.77 203.81 654.33 204.71 663.37 200.97C663.433 200.936 663.503 200.916 663.574 200.911C663.646 200.905 663.718 200.915 663.785 200.94C663.852 200.964 663.914 201.002 663.966 201.052C664.017 201.102 664.058 201.162 664.085 201.228C664.111 201.294 664.124 201.366 664.121 201.437C664.119 201.509 664.101 201.579 664.07 201.644C664.038 201.708 663.993 201.765 663.938 201.811C663.883 201.857 663.819 201.891 663.75 201.91C659.329 203.811 654.582 204.836 649.77 204.93Z" fill="black"/>
</g>
<path opacity="0.2" d="M672.2 308.16C672.2 308.16 676.32 304.16 674.35 284.53C674.14 282.4 673.83 280.28 673.44 278.18C672.58 273.61 670.9 263.08 672.71 259.18C672.854 258.883 673.083 258.635 673.369 258.468C673.654 258.302 673.983 258.225 674.312 258.246C674.642 258.268 674.958 258.387 675.219 258.589C675.481 258.791 675.676 259.066 675.78 259.38C676.55 261.66 677.78 266.98 678.91 279.38C680.837 289.393 682.03 299.533 682.48 309.72C682.48 309.72 677.6 308.72 672.2 308.16Z" fill="black"/>
<g opacity="0.2">
<path d="M674.88 253.61C674.746 253.597 674.623 253.533 674.537 253.43C674.451 253.327 674.409 253.194 674.42 253.06C676.42 233.16 680.23 230.99 680.66 230.81C680.721 230.784 680.787 230.77 680.853 230.77C680.919 230.769 680.985 230.782 681.047 230.807C681.108 230.832 681.164 230.869 681.211 230.916C681.258 230.963 681.295 231.019 681.32 231.08C681.347 231.139 681.361 231.203 681.363 231.268C681.365 231.332 681.354 231.397 681.331 231.457C681.307 231.518 681.272 231.573 681.228 231.62C681.183 231.667 681.129 231.704 681.07 231.73C680.97 231.79 677.34 234.08 675.43 253.16C675.413 253.291 675.346 253.41 675.244 253.494C675.142 253.577 675.012 253.619 674.88 253.61Z" fill="black"/>
</g>
<path opacity="0.2" d="M594.15 274.29L595.65 272.07L604.73 286.97C605.166 287.687 605.789 288.272 606.532 288.662C607.276 289.052 608.111 289.232 608.949 289.182C609.787 289.133 610.596 288.856 611.288 288.382C611.981 287.908 612.531 287.254 612.88 286.49C613.238 285.706 613.529 284.893 613.75 284.06C614.106 282.72 614.344 281.352 614.46 279.97C614.93 274.97 616.7 258.26 619.34 253.87C619.375 253.819 619.425 253.781 619.484 253.762C619.543 253.743 619.606 253.744 619.664 253.764C619.722 253.785 619.772 253.824 619.805 253.876C619.839 253.927 619.855 253.989 619.85 254.05C619.35 259.28 616.85 284.69 615.68 292.18C614.009 293.183 612.629 294.604 611.675 296.304C610.721 298.003 610.226 299.921 610.24 301.87L594.15 274.29Z" fill="black"/>
<path d="M558.83 315.67C558.83 315.67 527.05 323.23 534.62 346.95C534.62 346.95 548.74 413.55 567.91 455.95H587.25C587.25 455.95 598.19 405.49 596.17 363.11L677.17 363.37C677.17 363.37 691.82 358.47 688.89 339.6L639.49 315.71L558.83 315.67Z" fill="#2F2E41"/>
<path d="M558.83 315.67C558.83 315.67 467.51 315.16 466.83 339.67C466.83 339.67 463.94 367.11 523.48 394.35L550.7 408.75L534.62 347C534.62 347 526.54 324.75 558.83 315.67Z" fill="#2F2E41"/>
<path opacity="0.2" d="M558.83 315.67C558.83 315.67 467.51 315.16 466.83 339.67C466.83 339.67 463.94 367.11 523.48 394.35L550.7 408.75L534.62 347C534.62 347 526.54 324.75 558.83 315.67Z" fill="black"/>
<path opacity="0.2" d="M533.75 339.88C533.75 339.88 508.88 336.43 512.67 341.18C512.67 341.18 515.01 344.79 535.91 351.92C535.91 351.92 532.88 343.92 533.75 339.88Z" fill="black"/>
<path opacity="0.2" d="M525.81 348.2C525.81 348.2 542.57 378.63 531.53 398.61L550.74 408.77C550.74 408.77 537.21 361.94 535.91 351.92L525.81 348.2Z" fill="black"/>
<path opacity="0.2" d="M596.17 363.09C596.17 363.09 595.17 355.76 589.62 345.3C593.153 347.375 595.971 350.476 597.7 354.19L660.35 357.74C665.83 358.096 671.321 357.236 676.43 355.22C681.5 353.17 686.1 349.84 684.19 344.72C683.646 343.351 682.771 342.139 681.644 341.192C680.516 340.244 679.172 339.591 677.73 339.29C672.6 338.14 661.99 335.08 652.82 328.01C645.562 322.497 636.898 319.143 627.82 318.33C622.835 317.857 617.824 317.713 612.82 317.9L550.71 318.61C550.71 318.61 555.78 315.67 558.8 315.67H639.48L688.88 339.56C688.88 339.56 693.6 355.56 677.16 363.33L596.17 363.09Z" fill="black"/>
<path d="M615.34 443.82C610.34 433.73 592.34 425.88 592.34 425.88L594.57 407.34L603.92 408.76L617.31 430.7C622.4 440.79 615.34 443.82 615.34 443.82Z" fill="#F9B499"/>
<path d="M594.62 407.34L597.37 407.76V428.37L592.4 425.88L594.62 407.34Z" fill="#F7A48B"/>
<path d="M635.18 452.07C634.628 453.518 633.581 454.724 632.224 455.472C630.868 456.221 629.289 456.465 627.77 456.16C624.43 455.43 619.77 452.63 615.34 443.82C615.34 443.82 622.4 440.82 617.34 430.7L604 408.76C604 408.76 603.26 406.48 608.31 406.48C610.403 406.167 612.542 406.461 614.474 407.326C616.405 408.19 618.049 409.59 619.21 411.36C619.21 411.36 640.56 438.58 635.18 452.07Z" fill="#005048"/>
<path opacity="0.2" d="M635.18 452.07C634.628 453.518 633.581 454.724 632.224 455.472C630.868 456.221 629.289 456.465 627.77 456.16C624.43 455.43 619.77 452.63 615.34 443.82C615.34 443.82 622.4 440.82 617.34 430.7L604 408.76C604 408.76 603.26 406.48 608.31 406.48C610.403 406.167 612.542 406.461 614.474 407.326C616.405 408.19 618.049 409.59 619.21 411.36C619.21 411.36 640.56 438.58 635.18 452.07Z" fill="black"/>
<path d="M587.33 469.56C587.283 470.436 586.929 471.268 586.33 471.91L575 484.18C568.1 491.85 561.77 490.77 559.14 489.82C558.976 489.759 558.828 489.662 558.706 489.537C558.584 489.411 558.491 489.261 558.434 489.096C558.377 488.931 558.356 488.755 558.375 488.581C558.393 488.407 558.449 488.24 558.54 488.09L559.4 486.69L570.61 468.45C570.999 467.815 571.204 467.085 571.2 466.34V456.34L585.79 455.97C585.68 457.69 585.69 459.19 585.73 460.41C585.783 462.091 586.094 463.753 586.65 465.34C586.942 466.104 587.144 466.899 587.25 467.71C587.335 468.323 587.361 468.942 587.33 469.56Z" fill="#F9B499"/>
<path d="M595.16 485.19C587.351 493.061 578.997 500.373 570.16 507.07C567.768 508.878 565.162 510.382 562.4 511.55C552.64 515.61 547 514.15 544.13 512.49C543.165 511.914 542.399 511.056 541.935 510.032C541.472 509.007 541.334 507.865 541.54 506.76C543.2 497.48 558.9 487.02 559.4 486.69L558.54 488.09C558.45 488.24 558.393 488.407 558.375 488.581C558.357 488.755 558.377 488.931 558.434 489.096C558.491 489.261 558.584 489.411 558.706 489.537C558.828 489.662 558.976 489.759 559.14 489.82C561.77 490.77 568.14 491.82 575 484.18L586.32 471.91C586.919 471.268 587.273 470.436 587.32 469.56C587.351 468.929 587.321 468.296 587.23 467.67L587.33 467.61C587.33 467.61 588.09 464 591.11 470.05C591.12 470.05 599.2 481.15 595.16 485.19Z" fill="#005048"/>
<path opacity="0.2" d="M595.16 485.19C587.351 493.061 578.997 500.373 570.16 507.07C567.768 508.878 565.162 510.382 562.4 511.55C552.64 515.61 547 514.15 544.13 512.49C543.165 511.914 542.399 511.056 541.935 510.032C541.472 509.007 541.334 507.865 541.54 506.76C543.2 497.48 558.9 487.02 559.4 486.69L558.54 488.09C558.45 488.24 558.393 488.407 558.375 488.581C558.357 488.755 558.377 488.931 558.434 489.096C558.491 489.261 558.584 489.411 558.706 489.537C558.828 489.662 558.976 489.759 559.14 489.82C561.77 490.77 568.14 491.82 575 484.18L586.32 471.91C586.919 471.268 587.273 470.436 587.32 469.56C587.351 468.929 587.321 468.296 587.23 467.67L587.33 467.61C587.33 467.61 588.09 464 591.11 470.05C591.12 470.05 599.2 481.15 595.16 485.19Z" fill="black"/>
<path d="M571.19 456.3V460.3C571.19 460.3 577.26 464.01 585.7 459.45L585.78 455.91L571.19 456.3Z" fill="#F7A48B"/>
<path d="M485.17 249.07L524.09 317.41L614.1 315.67L575.55 249.07H485.17Z" fill="#005048"/>
<path opacity="0.2" d="M485.17 249.07L524.09 317.41L614.1 315.67L575.55 249.07H485.17Z" fill="black"/>
<path d="M493.24 245L485.17 249H575.55L614.1 315.6H639.51L637.42 314.19C637.42 314.19 631.49 311.54 629.47 310.53H615.34L577.64 245H493.24Z" fill="#005048"/>
<path opacity="0.4" d="M493.24 245L485.17 249H575.55L614.1 315.6H639.51L637.42 314.19C637.42 314.19 631.49 311.54 629.47 310.53H615.34L577.64 245H493.24Z" fill="white"/>
<path opacity="0.2" d="M544.71 287.42C549.725 287.42 553.79 285.611 553.79 283.38C553.79 281.149 549.725 279.34 544.71 279.34C539.695 279.34 535.63 281.149 535.63 283.38C535.63 285.611 539.695 287.42 544.71 287.42Z" fill="black"/>
<path d="M685.458 170.219C686.752 167.138 685.715 163.765 683.143 162.686C680.572 161.606 677.439 163.229 676.145 166.31C674.852 169.391 675.889 172.763 678.46 173.843C681.032 174.922 684.165 173.3 685.458 170.219Z" fill="#F7A48B"/>
<path d="M680.81 158.68C680.81 166.215 677.951 173.47 672.81 178.98C670.014 181.964 666.636 184.344 662.885 185.973C659.134 187.602 655.089 188.445 651 188.45C644.544 188.433 638.268 186.318 633.12 182.422C627.972 178.527 624.23 173.063 622.459 166.854C620.688 160.646 620.983 154.03 623.302 148.004C625.62 141.979 629.834 136.87 635.31 133.45C639.818 130.654 644.991 129.114 650.294 128.988C655.597 128.862 660.837 130.156 665.473 132.734C670.108 135.313 673.97 139.084 676.66 143.656C679.349 148.228 680.768 153.436 680.77 158.74L680.81 158.68Z" fill="#F9B499"/>
<path d="M680.81 158.68C680.809 166.215 677.95 173.47 672.81 178.98C680.34 157.84 673.36 147.65 673.36 147.65C666.3 127.47 635.36 133.39 635.36 133.39C639.868 130.594 645.041 129.054 650.344 128.928C655.647 128.802 660.887 130.096 665.523 132.674C670.158 135.253 674.02 139.024 676.71 143.596C679.399 148.168 680.818 153.375 680.82 158.68H680.81Z" fill="#F7A48B"/>
<path d="M699.72 335.45C698.798 336.355 697.794 337.172 696.72 337.89C694.417 339.368 691.659 339.968 688.95 339.58C683.67 338.87 678.49 339.28 661.25 329.76C658 328 654.83 326 651.78 324L637.42 314.3C637.42 314.3 626.42 310.64 624.42 305.59C624.42 305.59 617.35 309.47 613.82 308.04L612.82 306.37L610.21 301.89C610.21 301.89 609.21 295.5 618.34 290.46C618.34 290.46 630.45 281.38 633.47 288.46L639.53 298.55C640.015 299.951 640.812 301.225 641.86 302.274C642.907 303.324 644.179 304.122 645.58 304.61L679.22 309.15C684.223 309.784 689.052 311.398 693.43 313.9C695.918 315.306 698.166 317.098 700.09 319.21C700.64 319.821 701.12 320.492 701.52 321.21C702.814 323.455 703.339 326.062 703.014 328.633C702.689 331.203 701.532 333.598 699.72 335.45Z" fill="#F9B499"/>
<path d="M626.44 294.47C621.393 296.498 616.106 297.869 610.71 298.55C615.758 296.525 621.044 295.154 626.44 294.47Z" fill="#F7A48B"/>
<path d="M625.43 300.53C620.896 302.257 616.137 303.325 611.3 303.7C615.835 301.975 620.593 300.908 625.43 300.53Z" fill="#F7A48B"/>
<path d="M628.46 289.43C624.588 290.854 620.504 291.615 616.38 291.68C620.25 290.25 624.335 289.489 628.46 289.43Z" fill="#F7A48B"/>
</svg>
