<svg width="866" height="683" viewBox="0 0 866 683" fill="none" xmlns="http://www.w3.org/2000/svg">
<path d="M475.92 535.55C670.258 535.55 827.8 437.885 827.8 317.41C827.8 196.935 670.258 99.27 475.92 99.27C281.582 99.27 124.04 196.935 124.04 317.41C124.04 437.885 281.582 535.55 475.92 535.55Z" fill="#005048"/>
<path opacity="0.7" d="M827.79 317.41C827.79 437.88 670.25 535.55 475.92 535.55C360.98 535.55 258.92 501.38 194.7 448.55C193.95 447.95 193.21 447.33 192.47 446.7C189.443 444.16 186.503 441.573 183.65 438.94C182.88 438.23 182.11 437.52 181.35 436.79C177.93 433.563 174.643 430.267 171.49 426.9C169.817 425.12 168.187 423.323 166.6 421.51C149.6 402.14 137.2 380.99 130.31 358.64C130.03 357.727 129.76 356.817 129.5 355.91C125.87 343.398 124.018 330.438 124 317.41C124.089 295.173 129.351 273.262 139.37 253.41C139.49 253.14 139.62 252.88 139.75 252.62C184.24 163.75 317.9 99.22 475.88 99.22C670.25 99.27 827.79 196.93 827.79 317.41Z" fill="white"/>
<path d="M100.6 257.67C100.6 257.67 119.6 252.11 129.29 264.67C129.29 264.67 111.72 259.98 104.99 266.13C104.99 266.13 104.99 288.96 119.04 301.26C119.04 301.26 141.29 301.84 150.04 310.33C150.04 310.33 129.21 302.74 124.04 313.33L135.51 331.33C135.51 331.33 144.83 324.58 150.94 325.54L140.19 336.87C140.19 336.87 157.47 352.29 173.25 342.87C173.25 342.87 196.09 327.15 175.82 291.37C173.099 292.158 170.667 293.722 168.82 295.87C168.82 295.87 169.25 287.08 178.68 277.22L165.82 251.76C165.82 251.76 155.1 253.44 149.53 262.87C149.53 262.87 146.32 250.87 159.18 241.22C159.18 241.22 148.89 217.01 132.39 207.58C132.39 207.58 110.32 193.65 104.53 185.94C104.53 185.94 97.68 211.22 94.89 215.51C94.89 215.51 103.46 217.44 107.53 223.01C107.53 223.01 98.96 221.94 94.89 223.22C95 223.27 88.88 232.28 100.6 257.67Z" fill="#005048"/>
<path opacity="0.2" d="M100.6 257.67C100.6 257.67 119.6 252.11 129.29 264.67C129.29 264.67 111.72 259.98 104.99 266.13C104.99 266.13 104.99 288.96 119.04 301.26C119.04 301.26 141.29 301.84 150.04 310.33C150.04 310.33 129.21 302.74 124.04 313.33L135.51 331.33C135.51 331.33 144.83 324.58 150.94 325.54L140.19 336.87C140.19 336.87 157.47 352.29 173.25 342.87C173.25 342.87 196.09 327.15 175.82 291.37C173.099 292.158 170.667 293.722 168.82 295.87C168.82 295.87 169.25 287.08 178.68 277.22L165.82 251.76C165.82 251.76 155.1 253.44 149.53 262.87C149.53 262.87 146.32 250.87 159.18 241.22C159.18 241.22 148.89 217.01 132.39 207.58C132.39 207.58 110.32 193.65 104.53 185.94C104.53 185.94 97.68 211.22 94.89 215.51C94.89 215.51 103.46 217.44 107.53 223.01C107.53 223.01 98.96 221.94 94.89 223.22C95 223.27 88.88 232.28 100.6 257.67Z" fill="black"/>
<path d="M183.65 438.92C182.88 438.21 182.11 437.5 181.35 436.77C181.503 426.855 181.096 416.939 180.13 407.07C179.13 395.91 177.61 384.78 175.81 373.71C174.91 368.17 173.937 362.647 172.89 357.14C172.36 354.38 171.82 351.63 171.25 348.88L170.38 344.77C170.08 343.37 169.84 342.01 169.57 340.63C167.379 329.63 164.51 318.776 160.98 308.13C154.833 289.512 147.632 271.259 139.41 253.46C138.23 250.87 137.04 248.27 135.83 245.69C126.25 225.38 115.9 205.41 104.6 185.99C116.07 205.31 126.6 225.19 136.38 245.43C137.533 247.843 138.67 250.257 139.79 252.67C148.28 270.589 155.739 288.979 162.13 307.75C165.754 318.414 168.716 329.291 171 340.32C171.29 341.69 171.55 343.09 171.85 344.43L172.76 348.56C173.347 351.313 173.917 354.067 174.47 356.82C175.583 362.34 176.61 367.87 177.55 373.41C179.44 384.51 181.04 395.66 182.17 406.87C183.334 417.512 183.828 428.216 183.65 438.92Z" fill="#2F2E41"/>
<path d="M413.79 487.69L398.13 476.39L388.25 459.81C388.25 459.81 394.73 459.48 395.06 459.48C395.39 459.48 410.06 463.98 410.32 464.86C410.58 465.74 414.52 482.87 413.79 487.69Z" fill="#2F2E41"/>
<path d="M286.51 480.19H331V490.19H296.28C293.686 490.19 291.199 489.16 289.365 487.325C287.53 485.491 286.5 483.004 286.5 480.41V480.19H286.51Z" fill="#005048"/>
<path d="M293.43 489.83L290.58 504.914L291.562 505.099L294.412 490.016L293.43 489.83Z" fill="#2F2E41"/>
<path d="M308.305 490.095L307.315 490.235L310.357 511.741L311.347 511.601L308.305 490.095Z" fill="#2F2E41"/>
<path d="M352.43 470.52C375.9 459.58 389.8 463.69 389.8 463.69L392.8 463.9C395.41 467.53 402.42 473.34 402.42 473.34C406.04 476.244 409.126 479.756 411.54 483.72C412.98 486.006 413.829 488.614 414.01 491.31L414.63 500.55V532.69C405.51 531.69 389.77 529.27 389.77 529.27L386.12 500.82C386.056 500.332 385.888 499.864 385.628 499.446C385.367 499.029 385.02 498.672 384.61 498.4L377.13 493.48C377.13 496.27 374.99 501.84 374.99 501.84L367.49 525.62C356.77 524.77 341.77 519.62 341.77 519.62L345 496.91C333.21 493.91 313.42 482 313.54 481.98C326.966 479.956 340.052 476.1 352.43 470.52Z" fill="#F9B499"/>
<path d="M313.55 482L323.61 487.71C323.61 487.71 348.87 479.26 356.61 471.92L369.61 480.74C371.912 481.982 373.834 483.824 375.172 486.071C376.51 488.317 377.215 490.885 377.21 493.5L379.21 494.79C379.21 494.79 382.15 484.48 371.21 477.71C371.21 477.71 357.8 472.07 368.48 468.89C368.48 468.89 386.66 463.34 394.27 465.61L392.89 463.92L389.89 463.71C389.89 463.71 379.62 460.88 359.25 467.71C344.935 475.025 329.482 479.857 313.55 482Z" fill="#F7A48B"/>
<path d="M403 366.66C403 366.66 399.25 423.78 405 447.47C405 447.47 389.7 424.16 385.08 376.22C385.05 376.22 386.71 370.83 403 366.66Z" fill="#F9B499"/>
<path d="M389.8 333.25C389.8 333.25 408.07 345.17 402.98 366.66C402.98 366.66 387.11 370.66 385.05 376.22C385.05 376.22 381.71 347.71 389.8 333.25Z" fill="#005048"/>
<path opacity="0.2" d="M389.8 333.25C389.8 333.25 408.07 345.17 402.98 366.66C402.98 366.66 387.11 370.66 385.05 376.22C385.05 376.22 381.71 347.71 389.8 333.25Z" fill="black"/>
<path d="M326.39 315.18H324.59L315.85 361.88L314 370.49C314 370.49 348.21 404.26 348.95 404.26C349.69 404.26 385.76 383.07 385.76 383.07C385.76 383.07 381 348.3 389.8 333.25C389.8 333.25 378.39 326.61 371.1 324.44L345.44 314.05L326.39 315.18Z" fill="#005048"/>
<path d="M403.33 294.42C399.93 291.66 394.24 286.94 394.03 284.29L393.65 288.29C395.51 291.47 400.59 296.85 403.03 299.14C404.569 300.546 405.62 302.406 406.03 304.45C406.78 308.37 404.67 309.78 404.67 309.78C404.675 309.717 404.675 309.653 404.67 309.59C404.601 308.516 404.319 307.467 403.842 306.502C403.365 305.537 402.701 304.677 401.89 303.97C398.03 300.53 394.54 295.25 392.89 292.55C392.095 295.886 390.938 299.125 389.44 302.21C382.54 314.36 373.27 315.82 373.27 315.82C372.003 317.408 371.25 319.344 371.11 321.37C371.11 321.37 400.11 328.73 404.22 313.57C405.519 312.542 406.571 311.235 407.3 309.747C408.028 308.259 408.415 306.627 408.43 304.97C408.432 302.94 407.975 300.937 407.091 299.109C406.208 297.282 404.922 295.679 403.33 294.42Z" fill="#2F2E41"/>
<path d="M421.08 533.28C421.08 533.28 431.47 465.6 493.8 479.59C501.141 481.242 507.732 485.27 512.55 491.05C516.66 496 521.55 502.24 524.22 506.77L542.91 532C542.91 532 458.54 539.05 421.08 533.28Z" fill="#2F2E41"/>
<path d="M569.78 414.17L565 419.82C550.77 438.66 529.27 429.23 529.27 429.23L438.92 407.72C452.41 385.27 441.11 370.49 441.11 370.49L451.29 372.76L531.46 390.63C532.333 390.827 533.24 390.805 534.102 390.566C534.964 390.327 535.754 389.878 536.4 389.26L581 346.72L583.58 356.14L584.78 360.53C569.52 388.48 569.78 414.17 569.78 414.17Z" fill="#005048"/>
<path opacity="0.5" d="M569.78 414.17L565 419.82C550.77 438.66 529.27 429.23 529.27 429.23L438.92 407.72C452.41 385.27 441.11 370.49 441.11 370.49L451.29 372.76L531.46 390.63C532.333 390.827 533.24 390.805 534.102 390.566C534.964 390.327 535.754 389.878 536.4 389.26L581 346.72L583.58 356.14L584.78 360.53C569.52 388.48 569.78 414.17 569.78 414.17Z" fill="white"/>
<path opacity="0.5" d="M569.78 414.17L565 419.82C550.77 438.66 529.27 429.23 529.27 429.23L438.92 407.72C452.41 385.27 441.11 370.49 441.11 370.49L451.29 372.76C454.274 379.026 455.79 385.89 455.72 392.83C455.72 392.83 455.72 404.67 466.17 407.73C466.17 407.73 492.12 415.01 511.87 417.58C511.87 417.58 546.29 422.35 560.22 398.51L582.45 356.57L583.62 356.14L584.82 360.53C569.4 388.86 569.78 414.17 569.78 414.17Z" fill="white"/>
<path d="M584.78 360.53C584.78 360.53 566.37 393.88 570.34 422L572.51 450.51L505.65 483.08C505.65 483.08 519.94 499.65 524.22 506.8C524.22 506.8 504.79 520.51 499.65 528.8C499.65 528.8 613.08 519.65 631.36 583.65C631.36 583.65 664.51 527.65 686.22 513.37C686.22 513.37 699.94 505.37 696.51 465.37L690.22 384.92C690.22 384.92 688.79 357.65 664.51 339.65L649.51 328.42L584.78 360.53Z" fill="#005048"/>
<path opacity="0.5" d="M584.78 360.53C584.78 360.53 566.37 393.88 570.34 422L572.51 450.51L505.65 483.08C505.65 483.08 519.94 499.65 524.22 506.8C524.22 506.8 504.79 520.51 499.65 528.8C499.65 528.8 613.08 519.65 631.36 583.65C631.36 583.65 664.51 527.65 686.22 513.37C686.22 513.37 699.94 505.37 696.51 465.37L690.22 384.92C690.22 384.92 688.79 357.65 664.51 339.65L649.51 328.42L584.78 360.53Z" fill="white"/>
<path d="M595.29 322.91C598.91 328.338 601.06 334.613 601.53 341.12C601.53 341.12 622.2 326.84 629.91 322.91C629.91 322.91 623.52 305.57 626.17 298.29L595.29 322.91Z" fill="#F9B499"/>
<path d="M595.29 322.91C597.297 325.997 598.878 329.34 599.99 332.85C599.99 332.85 609.37 328.41 616.05 316.01L595.29 322.91Z" fill="#F7A48B"/>
<path d="M578.73 407.72C578.73 407.72 626.97 341.12 649.56 328.39C646.779 325.928 644.466 322.984 642.73 319.7C642.73 319.7 639.11 309.06 627.73 315.9C628.02 317.01 628.37 318.21 628.73 319.39C629.09 320.57 629.51 321.79 629.92 322.91C626.25 324.91 622.49 327.13 618.6 329.49C612.46 333.2 605.36 337.75 601.54 341.12C601.54 341.12 591.21 347.02 587.28 373.41C587.11 374.56 586.91 375.69 586.64 376.82C585.09 383.39 579.53 406.81 578.73 407.72Z" fill="#005048"/>
<path d="M587.75 370.49C587.75 370.49 594.33 345.64 600.88 351.49C605.029 356.32 607.976 362.063 609.48 368.25L607.59 370.53C607.59 370.53 601.18 357.89 595.37 362.66L587.75 370.49Z" fill="#005048"/>
<path opacity="0.2" d="M587.75 370.49C587.75 370.49 594.33 345.64 600.88 351.49C605.029 356.32 607.976 362.063 609.48 368.25L607.59 370.53C607.59 370.53 601.18 357.89 595.37 362.66L587.75 370.49Z" fill="black"/>
<path d="M579.3 343.81C579.3 343.81 589.51 340.4 592.3 354.33C594.384 349.305 597.541 344.797 601.55 341.12C601.302 336.528 600.135 332.033 598.12 327.9C598.12 327.9 582.29 335.35 579.3 343.81Z" fill="#005048"/>
<path opacity="0.1" d="M579.3 343.81C579.3 343.81 589.51 340.4 592.3 354.33C594.384 349.305 597.541 344.797 601.55 341.12C601.302 336.528 600.135 332.033 598.12 327.9C598.12 327.9 582.29 335.35 579.3 343.81Z" fill="black"/>
<path d="M579.37 343.74C579.1 343.8 579.26 343.99 579.22 344.26C579.01 345.74 578.76 350.81 583.33 358.12L588.5 366.7C589.476 362.495 590.739 358.362 592.28 354.33C592.28 354.33 590.72 341.28 579.37 343.74Z" fill="#005048"/>
<path opacity="0.2" d="M579.37 343.74C579.1 343.8 579.26 343.99 579.22 344.26C579.01 345.74 578.76 350.81 583.33 358.12L588.5 366.7C589.476 362.495 590.739 358.362 592.28 354.33C592.28 354.33 590.72 341.28 579.37 343.74Z" fill="black"/>
<path d="M585.7 362.05C585.7 362.05 579.52 388.36 578.7 407.72C580.33 403.17 581.91 398.21 583.32 392.86C585.258 385.504 586.728 378.032 587.72 370.49L588.47 366.7L585.7 362.05Z" fill="#005048"/>
<path opacity="0.5" d="M524.22 506.77C524.22 506.77 546.67 487.39 578.73 480.77L607.73 471.95C607.73 471.95 626.85 466.19 634.49 452.53L669.29 394.88L519.75 479.61L505.65 483.05C505.65 483.05 515.51 495 524.22 506.77Z" fill="white"/>
<path opacity="0.5" d="M571.7 439.93L571.07 431.62C571.07 431.62 587.58 427.91 598.61 408.77L629.91 370.49C629.91 370.49 650.51 339.64 668.51 357.2C668.51 357.2 597.08 429.05 597.08 429.91C597.08 430.77 571.7 439.93 571.7 439.93Z" fill="white"/>
<path d="M441.08 370.49C441.08 370.49 433.31 384.58 435.14 397.78C435.14 397.78 435.65 408.13 438.88 407.72C438.88 407.72 452 388.67 441.08 370.49Z" fill="#005048"/>
<path opacity="0.6" d="M441.08 370.49C441.08 370.49 433.31 384.58 435.14 397.78C435.14 397.78 435.65 408.13 438.88 407.72C438.88 407.72 452 388.67 441.08 370.49Z" fill="white"/>
<path d="M373.3 315.86C371.461 318.316 370.67 321.402 371.1 324.44C371.1 324.44 374.49 343.91 366.19 344.08C366.19 344.08 357.9 345.27 351.8 330.88L345.44 314.05C345.44 314.05 351.66 311.55 352.44 306.05C352.41 306.06 360.87 317.72 373.3 315.86Z" fill="#F9B499"/>
<path d="M358.58 312.27C358.58 312.27 360.81 319.2 371.01 322.34C371.227 320.024 372.014 317.798 373.3 315.86C370.731 316.283 368.103 316.183 365.574 315.567C363.044 314.95 360.666 313.828 358.58 312.27Z" fill="#F7A48B"/>
<path d="M287.2 341.48C287.2 341.48 282.81 350.78 298.64 355.37L300.57 345C300.57 345 296.11 339.49 287.2 341.48Z" fill="#005048"/>
<path opacity="0.3" d="M287.2 341.48C287.2 341.48 282.81 350.78 298.64 355.37L300.57 345C300.57 345 296.11 339.49 287.2 341.48Z" fill="black"/>
<path d="M237.93 458.12C242.49 453.12 253 442.4 265.69 434.42C265.69 434.42 282.16 415.75 289.46 403.67C296.76 391.59 314 370.49 314 370.49C314 370.49 342.49 365.69 333.63 314.75L341.24 314.3C341.24 314.3 344.8 351.62 361.66 354.48C361.66 354.48 374.09 357.48 375.37 342.48V326L378.51 327.38C380.073 336.088 380.697 344.939 380.37 353.78C379.95 369.42 382.37 381.31 385.76 383.08C385.76 383.08 391.38 427.92 406.34 449.56C406.34 449.56 422.8 470.56 413.8 487.7C413.8 487.7 407.8 463.49 389.8 463.7C389.8 463.7 373.51 459.85 345.86 473.56C345.86 473.56 277.27 501.73 238.06 463.56C237.331 462.85 236.91 461.883 236.886 460.867C236.861 459.85 237.236 458.864 237.93 458.12Z" fill="#2F2E41"/>
<path opacity="0.2" d="M237.93 458.12C242.49 453.12 253 442.4 265.69 434.42C265.69 434.42 282.16 415.75 289.46 403.67C296.76 391.59 314 370.49 314 370.49C314 370.49 342.49 365.69 333.63 314.75L341.24 314.3C341.24 314.3 344.8 351.62 361.66 354.48C361.66 354.48 374.09 357.48 375.37 342.48V326L378.51 327.38C380.073 336.088 380.697 344.939 380.37 353.78C379.95 369.42 382.37 381.31 385.76 383.08C385.76 383.08 391.38 427.92 406.34 449.56C406.34 449.56 422.8 470.56 413.8 487.7C413.8 487.7 407.8 463.49 389.8 463.7C389.8 463.7 373.51 459.85 345.86 473.56C345.86 473.56 277.27 501.73 238.06 463.56C237.331 462.85 236.91 461.883 236.886 460.867C236.861 459.85 237.236 458.864 237.93 458.12Z" fill="black"/>
<path d="M372.77 381.31C376.923 381.31 380.29 373.9 380.29 364.76C380.29 355.62 376.923 348.21 372.77 348.21C368.617 348.21 365.25 355.62 365.25 364.76C365.25 373.9 368.617 381.31 372.77 381.31Z" fill="#005048"/>
<path opacity="0.2" d="M372.77 381.31C376.923 381.31 380.29 373.9 380.29 364.76C380.29 355.62 376.923 348.21 372.77 348.21C368.617 348.21 365.25 355.62 365.25 364.76C365.25 373.9 368.617 381.31 372.77 381.31Z" fill="white"/>
<path d="M379.4 371.53C383.062 371.53 386.03 368.562 386.03 364.9C386.03 361.238 383.062 358.27 379.4 358.27C375.738 358.27 372.77 361.238 372.77 364.9C372.77 368.562 375.738 371.53 379.4 371.53Z" fill="#005048"/>
<path opacity="0.4" d="M379.4 371.53C383.062 371.53 386.03 368.562 386.03 364.9C386.03 361.238 383.062 358.27 379.4 358.27C375.738 358.27 372.77 361.238 372.77 364.9C372.77 368.562 375.738 371.53 379.4 371.53Z" fill="black"/>
<path d="M491.72 448C465.3 448 440.96 431.42 424.18 416.19C410.851 403.937 398.958 390.209 388.73 375.27L389.57 374.72C399.748 389.602 411.592 403.274 424.87 415.47C444.39 433.18 474.24 452.76 505.53 445.41C505.76 445.41 525.43 441.41 558.71 388.93L567.44 375.99L568.27 376.55L559.55 389.48C525.95 442.42 506.55 446.25 505.73 446.39C501.137 447.463 496.436 448.003 491.72 448Z" fill="#2F2E41"/>
<path d="M208.35 331.16C215.534 325.905 221.264 318.909 225 310.83C228.15 277.53 221.68 246.16 221.68 246.16L221.33 241.08L196.44 233.36L176.63 273.36C165.94 301.06 181.89 309.82 181.89 309.82C172.78 306.66 171.73 297.55 171.73 297.55C166.12 317.18 178.73 328.92 178.73 328.92C186.79 338.04 184.16 340.32 184.16 340.32C181.16 334.32 169.96 334.01 169.96 334.01C169.96 334.01 168.75 362.9 194.54 374.68C197.456 376.025 200.776 376.204 203.82 375.18C212.26 372.26 227.46 361.49 224.65 321.74C224.65 321.74 224.38 322.06 223.9 322.58C219.904 326.835 214.707 329.772 209 331L208.35 331.16Z" fill="#005048"/>
<path opacity="0.4" d="M208.34 331.16L209 331C214.708 329.755 219.902 326.8 223.89 322.53C224.37 322.01 224.63 321.69 224.63 321.69C227.45 361.44 212.24 372.21 203.8 375.13C200.76 376.154 197.443 375.975 194.53 374.63C168.75 362.86 170 334 170 334C170 334 181.22 334.35 184.2 340.31C184.2 340.31 186.83 338.03 178.76 328.91C178.76 328.91 166.15 317.17 171.76 297.54C171.76 297.54 172.82 306.64 181.9 309.8C181.32 309.46 170.9 303.2 173.36 285.6C173.703 283.149 174.235 280.729 174.95 278.36C175.423 276.78 175.99 275.13 176.65 273.41L177.37 271.96L196.43 233.49L221.31 241.21L221.66 246.29C221.66 246.29 223.15 253.49 224.35 264.66C226.079 280.028 226.294 295.53 224.99 310.94C221.239 318.98 215.511 325.937 208.34 331.16Z" fill="white"/>
<path opacity="0.4" d="M224.35 264.53C199.24 250.84 173.98 284.65 173.35 285.53C173.521 283.044 174.06 280.597 174.95 278.27C175.6 276.32 176.43 274.16 177.37 271.87C183.85 256.11 195.92 234.32 196.43 233.4L221.31 241.12L221.66 246.2C221.66 246.2 223.15 253.36 224.35 264.53Z" fill="white"/>
<path d="M81.37 333C87.2355 338.665 91.6884 345.629 94.37 353.33C94.37 353.33 98.75 367.27 117.08 373.45C117.08 373.45 128.08 376.64 128.44 382.45C128.44 382.45 120.44 378.06 112.7 380.85C112.7 380.85 136.21 414.33 155.7 396C155.7 396 166.98 386.26 155.7 363.12L150.12 369.5C150.12 369.5 149.12 362.5 152.12 357.34L134.38 329.5H124L131.94 321.5C131.94 321.5 126.62 311.34 124 308.95C124 308.95 105.44 304.25 95.48 311.68L93.35 304.59L79 301.17L65.45 310.17L81.37 333Z" fill="#005048"/>
<path opacity="0.4" d="M81.37 333C87.2355 338.665 91.6884 345.629 94.37 353.33C94.37 353.33 98.75 367.27 117.08 373.45C117.08 373.45 128.08 376.64 128.44 382.45C128.44 382.45 120.44 378.06 112.7 380.85C112.7 380.85 136.21 414.33 155.7 396C155.7 396 166.98 386.26 155.7 363.12L150.12 369.5C150.12 369.5 149.12 362.5 152.12 357.34L134.38 329.5H124L131.94 321.5C131.94 321.5 126.62 311.34 124 308.95C124 308.95 105.44 304.25 95.48 311.68L93.35 304.59L79 301.17L65.45 310.17L81.37 333Z" fill="white"/>
<path opacity="0.4" d="M93.39 350.86C93.39 350.86 89.54 307.01 127.39 313.51C123.87 307.566 118.245 303.161 111.63 301.17C100.63 297.98 94.49 301.17 94.49 301.17L73.77 306.17L81.37 333C86.6211 338.014 90.7221 344.107 93.39 350.86Z" fill="white"/>
<path d="M171.49 426.88C169.817 425.1 168.187 423.303 166.6 421.49L159.92 407.11C157.92 402.84 156.04 398.53 153.8 394.44C152.7 392.38 151.48 390.38 150.27 388.36C149.06 386.34 147.85 384.36 146.59 382.36C141.597 374.4 136.29 366.647 130.67 359.1L130.31 358.63C124.79 351.27 119.03 344.05 112.84 337.26C110.535 334.32 108.04 331.534 105.37 328.92C102.72 326.27 99.94 323.76 97.13 321.29C94.32 318.82 91.42 316.42 88.5 314.07C85.58 311.72 82.62 309.41 79.61 307.18C82.61 309.37 85.61 311.64 88.61 313.94C91.61 316.24 94.49 318.61 97.35 321.04C100.21 323.47 103.02 325.96 105.72 328.58C108.442 331.164 110.987 333.926 113.34 336.85C119.06 342.95 124.4 349.36 129.54 355.93C130.21 356.78 130.88 357.64 131.54 358.5C137.29 365.97 142.72 373.7 147.86 381.61C149.14 383.61 150.41 385.61 151.64 387.61C152.87 389.61 154.14 391.61 155.28 393.7C157.63 397.84 159.57 402.15 161.63 406.37L171.49 426.88Z" fill="#2F2E41"/>
<path d="M627.77 291.76C624.09 312.32 609.36 326.89 594.86 324.29C589.08 323.29 584.21 319.65 580.67 314.38C580.36 313.91 580.06 313.43 579.78 312.94C575.1 305.06 573.2 294 575.28 282.36C578.96 261.8 593.7 247.23 608.19 249.83C622.68 252.43 631.45 271.19 627.77 291.76Z" fill="#F9B499"/>
<path d="M576.05 278.78C576.05 278.78 581.79 266.34 589.94 265.91C589.94 265.91 608.74 287.78 628.59 284.02L591.1 254.46C591.1 254.46 579.31 261.86 576.05 278.78Z" fill="#F7A48B"/>
<path d="M587.79 257.31C587.79 257.31 564.69 281.31 572.79 299.44C570.843 297.657 569.441 295.36 568.743 292.814C568.046 290.267 568.083 287.576 568.85 285.05C568.85 285.05 560.47 276.23 568.25 260.22C568.25 260.22 579.64 240.73 601.51 237.94C601.51 237.94 594.7 232.23 596.87 223.38C597.301 221.732 598.004 220.167 598.95 218.75C600.695 215.899 602.914 213.366 605.51 211.26C605.51 211.26 594.37 227.26 604.12 236.78C604.12 236.78 608.25 238.37 605.51 232.37C605.51 232.37 597.63 212.77 615.84 208.27C615.84 208.27 626.77 203.77 639.63 215.98C639.63 215.98 664.92 245.34 634.7 250.69C634.7 250.69 662.17 292.27 625.7 306.42C625.64 305.62 625.52 304.76 625.49 303.92C625.456 302.039 625.553 300.158 625.78 298.29C626.28 296.65 626.78 294.87 627.18 292.98C627.957 290.038 628.409 287.02 628.53 283.98C628.53 283.98 604.92 281.28 587.79 257.31Z" fill="#2F2E41"/>
<path d="M635.046 295.542C638.529 291.108 639.06 285.713 636.233 283.492C633.406 281.271 628.29 283.065 624.807 287.5C621.323 291.934 620.792 297.329 623.619 299.55C626.447 301.771 631.562 299.977 635.046 295.542Z" fill="#F9B499"/>
<path d="M501.46 457.53C501.46 457.53 505.82 485.87 520.7 491.15C520.7 491.15 524.82 464.81 501.46 457.53Z" fill="#005048"/>
<path opacity="0.6" d="M501.46 457.53C501.46 457.53 505.82 485.87 520.7 491.15C520.7 491.15 524.82 464.81 501.46 457.53Z" fill="white"/>
<path d="M520.32 481.87L513.41 482.92C495.13 485.59 487.34 498.46 487.34 498.46C482.94 506.25 479.72 504.05 479.72 504.05C474.48 501.17 487.72 485.42 487.72 485.42C481.12 487.96 474.14 497.1 474.14 497.1C467.84 507.1 465.04 504.72 465.04 504.72C460.13 500.32 477.23 483.56 477.23 483.56C468.93 487.29 461.48 495.24 461.48 495.24C456.23 501.84 453.19 500.83 453.19 500.83C446.75 496.93 467.58 481.19 467.58 481.19C458.94 482.88 450.98 492.03 450.98 492.03C444.72 499.47 441.17 497.61 441.17 497.61C435.58 489.82 462.84 474.34 462.84 474.34C475.19 464.61 507.84 460.88 507.84 460.88C507.84 460.88 516.73 466 520.32 481.87Z" fill="#F9B499"/>
<path d="M453 480.72C453 480.72 451 471 469.77 470.26C469.77 470.26 466.55 472.06 462.77 474.34L453 480.72Z" fill="#F7A48B"/>
<path d="M503.8 461.42C503.8 461.42 512.97 467.96 515.41 482.92L520.32 481.87C520.32 481.87 517.71 468.31 507.83 460.87L503.8 461.42Z" fill="#F7A48B"/>
<path d="M501.46 457.53C501.46 457.53 520.46 462.41 520.7 491.15L609.48 463.15C609.48 463.15 624.12 456.99 629.25 449.29L668.51 396C668.51 396 689.04 370.34 668.51 357.25C668.51 357.25 654.14 346.88 635.15 370.54L596.92 421.92C596.92 421.92 592.1 430.92 578.73 434.49L501.46 457.53Z" fill="#005048"/>
<path opacity="0.5" d="M501.46 457.53C501.46 457.53 520.46 462.41 520.7 491.15L609.48 463.15C609.48 463.15 624.12 456.99 629.25 449.29L668.51 396C668.51 396 689.04 370.34 668.51 357.25C668.51 357.25 654.14 346.88 635.15 370.54L596.92 421.92C596.92 421.92 592.1 430.92 578.73 434.49L501.46 457.53Z" fill="white"/>
<path d="M369.78 316.21C383.217 316.21 394.11 301.05 394.11 282.35C394.11 263.65 383.217 248.49 369.78 248.49C356.343 248.49 345.45 263.65 345.45 282.35C345.45 301.05 356.343 316.21 369.78 316.21Z" fill="#F9B499"/>
<path d="M332.05 264.2L316.05 290.2C316.05 290.2 310.38 299.2 319.14 308.2L326.35 315.15L345.4 314.02C345.4 314.02 352.13 311.02 352.4 306.02C349.769 302.176 347.858 297.887 346.76 293.36L349.76 282.36C349.76 282.36 352.07 285.31 352.38 285.58C352.69 285.85 350.87 277.38 356.76 276.42C365.063 273.225 371.846 266.999 375.74 259C375.786 258.896 375.855 258.803 375.941 258.728C376.027 258.653 376.128 258.598 376.238 258.566C376.348 258.535 376.463 258.528 376.576 258.546C376.688 258.564 376.796 258.606 376.89 258.67C377.598 259.183 378.455 259.45 379.33 259.43C379.524 259.423 379.717 259.458 379.896 259.532C380.076 259.607 380.237 259.719 380.369 259.862C380.501 260.004 380.6 260.173 380.661 260.357C380.722 260.542 380.742 260.737 380.72 260.93C380.07 266.33 379.52 281.93 394.65 283.82C396.967 284.136 399.325 283.902 401.535 283.138C403.745 282.374 405.744 281.1 407.37 279.42L407.52 279.26C407.576 279.199 407.61 279.12 407.618 279.038C407.625 278.955 407.605 278.872 407.561 278.802C407.517 278.731 407.451 278.677 407.373 278.648C407.295 278.619 407.21 278.616 407.13 278.64C404.35 279.52 398.27 280.28 397.51 270.52C397.51 270.52 397.85 238.06 386.79 248.52C386.79 248.52 373.52 228.37 345.44 246.44C345.44 246.44 325.69 257.64 318.62 265.12C317.89 265.9 317.14 266.65 316.36 267.38C311.87 271.54 298.04 285.87 313.22 291.94C313.22 291.94 303.22 280.37 312.79 274.65L332.05 264.2Z" fill="#2F2E41"/>
<path d="M347.596 293.128C350.798 291.75 351.935 287.245 350.136 283.065C348.337 278.884 344.284 276.612 341.083 277.989C337.882 279.367 336.745 283.872 338.544 288.052C340.342 292.233 344.395 294.505 347.596 293.128Z" fill="#F9B499"/>
<path d="M300.57 345C300.57 345 294.81 379.51 285.76 404.27L277.42 425.89C276.666 427.913 275.42 429.717 273.795 431.138C272.17 432.559 270.216 433.553 268.11 434.03C267.82 434.09 267.53 434.14 267.22 434.18C265.333 434.428 263.468 434.819 261.64 435.35C256.01 437.1 245.98 441.12 247.22 447.28C247.22 447.28 238.36 454.35 243.36 456.35C243.36 456.35 240.3 459.35 241.83 460.49C241.83 460.49 243.36 462.92 247.22 459.06C247.22 459.06 246.94 463.49 251.94 460.35L258.64 454.67C259.14 454.251 259.691 453.899 260.28 453.62C262.65 452.52 269 449.8 272.28 450.62C272.634 450.71 272.937 450.936 273.125 451.249C273.312 451.562 273.368 451.936 273.28 452.29C272.857 453.512 272.05 454.564 270.98 455.29C270.98 455.29 263.89 458.81 266.37 461.86C266.479 462 266.618 462.112 266.778 462.189C266.938 462.265 267.113 462.303 267.29 462.3C269.6 462.3 279.2 461.18 283.71 445.22C283.71 445.22 287.14 436.86 289.93 433.22C289.93 433.22 308.93 403.22 313.98 370.44L316.11 360.38C316.11 360.38 308.62 357.38 302.17 346.97L300.57 345Z" fill="#F9B499"/>
<path d="M298.64 355.37C298.64 355.37 310.45 362.45 315.64 362.56L316.09 360.43C310.336 357.277 305.533 352.64 302.18 347C301.683 346.302 301.146 345.634 300.57 345L298.64 355.37Z" fill="#F7A48B"/>
<path d="M399.67 359.29C399.67 359.29 393.01 364.69 396.01 369.41C396.01 369.41 399.9 388.79 408.24 384.03L417.44 369.62L411.22 358.27L399.67 359.29Z" fill="#F7A48B"/>
<path d="M442.23 372.37L436.33 371.23C433.399 370.664 430.652 369.386 428.33 367.51C426.993 366.43 425.73 365.26 424.55 364.01C419.006 358.519 412.297 354.345 404.92 351.8C404.92 351.8 394.92 348.19 387.86 350.69C387.86 350.69 369.86 355.13 374.54 359.34C374.54 359.34 375.7 361.44 384.82 358.87C384.82 358.87 393.22 355.95 401.15 359.95C402.864 360.832 404.366 362.078 405.55 363.6L410.99 370.49C410.99 370.49 381.99 362.71 381.55 370.49C381.55 370.49 381.36 373.8 389.15 374.95C391.455 375.265 393.712 375.863 395.87 376.73C398.871 377.903 401.714 379.449 404.33 381.33C406.362 382.955 408.577 384.338 410.93 385.45C416.433 387.979 422.285 389.665 428.29 390.45C429.5 390.586 430.695 390.833 431.86 391.19C435.08 392.19 441.38 394.46 443.65 397.38C445.076 393.324 445.684 389.025 445.441 384.733C445.197 380.44 444.106 376.239 442.23 372.37Z" fill="#F9B499"/>
<path d="M437.42 393.28C437.42 393.28 444.98 384.67 440.31 372L442.23 372.37C442.23 372.37 448.43 382.12 443.65 397.37C441.739 395.77 439.648 394.397 437.42 393.28Z" fill="#F7A48B"/>
<path d="M247.22 447.27C247.892 446.487 248.628 445.762 249.42 445.1C250.2 444.437 251.014 443.817 251.86 443.24C252.709 442.655 253.598 442.131 254.52 441.67C255.435 441.181 256.415 440.824 257.43 440.61C255.72 441.76 254.1 442.92 252.43 444.06C250.757 445.23 249.018 446.302 247.22 447.27Z" fill="#F7A48B"/>
<path d="M243.36 456.34C243.843 455.471 244.409 454.65 245.05 453.89C245.673 453.134 246.341 452.416 247.05 451.74C248.497 450.352 250.171 449.222 252 448.4C250.63 449.84 249.21 451.13 247.8 452.47C246.39 453.81 244.93 455.1 243.36 456.34Z" fill="#F7A48B"/>
<path d="M247.22 459.05C247.757 458.105 248.379 457.211 249.08 456.38C249.766 455.538 250.511 454.746 251.31 454.01C252.104 453.267 252.964 452.597 253.88 452.01C254.792 451.393 255.809 450.946 256.88 450.69C255.146 451.92 253.507 453.281 251.98 454.76C250.41 456.17 248.9 457.66 247.22 459.05Z" fill="#F7A48B"/>
<path d="M628.78 296.47C630.52 296.47 631.93 295.06 631.93 293.32C631.93 291.58 630.52 290.17 628.78 290.17C627.04 290.17 625.63 291.58 625.63 293.32C625.63 295.06 627.04 296.47 628.78 296.47Z" fill="#2F2E41"/>
<path d="M198.11 276C197.53 284.16 197.3 292.33 197.24 300.5C197.24 316.85 197.83 333.19 198.92 349.5C199.07 351.5 199.19 353.59 199.26 355.66L199.34 361.8C199.41 365.89 199.34 369.98 199.34 374.08C199.27 382.27 199.13 390.46 198.77 398.64C198.13 414.1 196.69 432.74 194.66 448.51C193.91 447.91 193.17 447.29 192.43 446.66C194.59 431.29 195.81 413.85 196.67 398.54C197.14 390.39 197.4 382.22 197.58 374.06C197.64 369.97 197.74 365.89 197.72 361.8V355.7C197.67 353.7 197.59 351.7 197.46 349.6C196.61 333.25 196.22 316.88 196.46 300.51C196.63 292.33 196.98 284.15 197.68 275.99L198.29 269.89L199.11 263.8C199.44 261.8 199.85 259.8 200.21 257.8C200.57 255.8 201.21 253.8 201.7 251.85C201.24 253.85 200.7 255.85 200.3 257.85C199.9 259.85 199.58 261.85 199.3 263.9L198.56 269.99L198.11 276Z" fill="#2F2E41"/>
<path d="M175.88 275.36C175.88 275.36 192.75 249.31 211.68 249.84C211.68 249.84 201.34 241.25 199.06 236.52C199.06 236.52 213.06 245.28 221.67 246.16C221.67 246.16 238.84 241.6 244.67 230.73C244.67 230.73 232.4 229.73 228.54 226.18H242.39C242.39 226.18 250.63 226.88 253.78 216.89C253.78 216.89 262.02 193.89 264.12 191.13C264.12 191.13 228.72 188.32 231 204.45C231 204.45 227.84 203.92 228.89 196.03C228.85 196 178 223.72 175.88 275.36Z" fill="#005048"/>
<path d="M177.79 261C179.317 256.514 181.494 252.275 184.25 248.42C186.958 244.526 189.932 240.824 193.15 237.34C194.78 235.62 196.39 233.89 198.15 232.27C199.91 230.65 201.61 229.04 203.38 227.46C206.924 224.311 210.625 221.344 214.47 218.57C218.37 215.868 222.431 213.407 226.63 211.2C230.78 208.95 234.91 206.66 239.08 204.44L251.56 197.74L264.1 191.13L251.8 198.13L239.45 205.07C235.34 207.4 231.19 209.66 227.06 211.96C222.916 214.182 218.909 216.65 215.06 219.35C207.413 224.854 200.281 231.039 193.75 237.83C190.491 241.229 187.464 244.844 184.69 248.65C181.823 252.423 179.5 256.58 177.79 261Z" fill="#2F2E41"/>
<path d="M47.1 387.24C47.1 387.24 73.21 372.49 74.4 354.56C74.4 354.56 65.4 348.78 65.4 343.41C65.4 343.41 71.18 350.09 74.4 351.33C74.4 351.33 80.4 330.26 90.14 319.1C90.14 319.1 80.14 310.93 79.58 307.1C79.58 307.1 88.58 312.96 95.52 311.63C95.52 311.63 104.52 304.51 124.04 308.9C124.04 308.9 110.26 288.77 86.55 291.56C86.55 291.56 67.63 293.95 53.88 302.72C53.88 302.72 61.45 302.58 63.44 304.54C63.44 304.54 35.55 304.91 38.14 332.81L40.33 348.15L45.71 347.95L41.33 353.13C41.33 353.13 46.9 377.68 47.1 387.24Z" fill="#005048"/>
<path d="M47.1 387.24C47.8861 386.142 48.5249 384.945 49 383.68C49.5104 382.435 49.9413 381.159 50.29 379.86C50.9848 377.257 51.4862 374.607 51.79 371.93C52.4132 366.577 52.5671 361.18 52.25 355.8C50.993 344.972 52.0497 334 55.35 323.61C57.0648 318.408 59.6517 313.535 63 309.2C66.3539 304.859 70.6392 301.325 75.54 298.86C80.4343 296.443 85.7402 294.971 91.18 294.52C96.581 294.093 102.013 294.287 107.37 295.1C101.993 294.478 96.5642 294.445 91.18 295C85.828 295.536 80.6243 297.072 75.84 299.53C71.0909 302.015 66.9385 305.502 63.67 309.75C60.4323 314.023 57.9437 318.814 56.31 323.92C55.84 325.17 55.51 326.48 55.12 327.76C54.73 329.04 54.46 330.36 54.21 331.68C53.6577 334.322 53.257 336.993 53.01 339.68C52.7417 342.338 52.6215 345.009 52.65 347.68C52.65 350.33 52.97 353.07 53.03 355.76C53.2562 361.185 53.0052 366.619 52.28 372C51.903 374.682 51.3281 377.333 50.56 379.93C50.1678 381.228 49.6969 382.5 49.15 383.74C48.6227 384.991 47.9335 386.168 47.1 387.24Z" fill="#2F2E41"/>
<path opacity="0.2" d="M629.91 322.91C629.91 322.91 628.41 318.8 627.71 315.91C628.905 315.176 630.184 314.588 631.52 314.16C633.59 313.5 629.91 322.91 629.91 322.91Z" fill="black"/>
<path d="M616.64 337.76C592.2 373.42 575.84 377.2 570 377.2C569.205 377.22 568.411 377.133 567.64 376.94H567.54C566.007 376.233 564.651 375.196 563.566 373.903C562.482 372.61 561.698 371.092 561.27 369.46C556.6 353.72 574.47 321.92 579.78 312.98C580.06 313.47 580.36 313.98 580.67 314.42C575.05 324.05 558.37 354.42 562.67 369.04C563.031 370.459 563.704 371.78 564.64 372.906C565.576 374.032 566.751 374.935 568.08 375.55C569 375.77 586.41 379.19 615.39 336.91C615.62 336.61 636 310.31 632.68 298.53C632.396 297.449 631.843 296.457 631.074 295.646C630.305 294.835 629.344 294.231 628.28 293.89C628.187 293.855 628.103 293.803 628.03 293.735C627.958 293.667 627.9 293.586 627.859 293.496C627.818 293.406 627.795 293.309 627.792 293.21C627.789 293.111 627.805 293.013 627.84 292.92C627.875 292.827 627.927 292.743 627.995 292.67C628.063 292.598 628.144 292.54 628.234 292.499C628.324 292.458 628.421 292.436 628.52 292.432C628.619 292.429 628.717 292.445 628.81 292.48C630.093 292.909 631.25 293.649 632.178 294.632C633.106 295.616 633.776 296.814 634.13 298.12C637.68 310.59 617.5 336.66 616.64 337.76Z" fill="#2F2E41"/>
<g opacity="0.2">
<path d="M616.64 337.76C592.2 373.42 575.84 377.2 570 377.2C569.205 377.22 568.411 377.133 567.64 376.94H567.54C566.007 376.233 564.651 375.196 563.566 373.903C562.482 372.61 561.698 371.092 561.27 369.46C556.6 353.72 574.47 321.92 579.78 312.98C580.06 313.47 580.36 313.98 580.67 314.42C575.05 324.05 558.37 354.42 562.67 369.04C563.031 370.459 563.704 371.78 564.64 372.906C565.576 374.032 566.751 374.935 568.08 375.55C569 375.77 586.41 379.19 615.39 336.91C615.62 336.61 636 310.31 632.68 298.53C632.396 297.449 631.843 296.457 631.074 295.646C630.305 294.835 629.344 294.231 628.28 293.89C628.187 293.855 628.103 293.803 628.03 293.735C627.958 293.667 627.9 293.586 627.859 293.496C627.818 293.406 627.795 293.309 627.792 293.21C627.789 293.111 627.805 293.013 627.84 292.92C627.875 292.827 627.927 292.743 627.995 292.67C628.063 292.598 628.144 292.54 628.234 292.499C628.324 292.458 628.421 292.436 628.52 292.432C628.619 292.429 628.717 292.445 628.81 292.48C630.093 292.909 631.25 293.649 632.178 294.632C633.106 295.616 633.776 296.814 634.13 298.12C637.68 310.59 617.5 336.66 616.64 337.76Z" fill="black"/>
</g>
<path d="M717.93 280.29C744.257 280.29 765.6 258.947 765.6 232.62C765.6 206.293 744.257 184.95 717.93 184.95C691.603 184.95 670.26 206.293 670.26 232.62C670.26 258.947 691.603 280.29 717.93 280.29Z" fill="#EBEBEB"/>
<path d="M743.799 272.461C765.24 259.379 772.016 231.391 758.933 209.949C745.85 188.507 717.863 181.731 696.421 194.814C674.979 207.897 668.203 235.885 681.286 257.327C694.369 278.768 722.357 285.544 743.799 272.461Z" fill="#DBDBDB"/>
<path d="M750.254 263.791C766.894 247.15 766.894 220.171 750.254 203.531C733.614 186.891 706.635 186.891 689.995 203.531C673.354 220.171 673.354 247.15 689.995 263.791C706.635 280.431 733.614 280.431 750.254 263.791Z" fill="white"/>
<path opacity="0.5" d="M761.78 224.67C742.38 236.42 710.49 255.67 692.66 266.29C687.616 262.036 683.626 256.673 681 250.62L740 196C745.5 198.903 750.3 202.973 754.062 207.925C757.824 212.878 760.458 218.593 761.78 224.67Z" fill="#EBEBEB"/>
<path opacity="0.5" d="M762.71 235.18C762.557 239.912 761.607 244.584 759.9 249L706.75 274.21C704.434 273.445 702.189 272.482 700.04 271.33C716.1 262 745.44 245.15 762.71 235.18Z" fill="#EBEBEB"/>
<path d="M720.54 194.18H719.72V200.64H720.54V194.18Z" fill="#C7C7C7"/>
<path d="M700.731 199.255L700.021 199.665L703.251 205.26L703.961 204.85L700.731 199.255Z" fill="#C7C7C7"/>
<path d="M686.077 213.559L685.667 214.269L691.262 217.499L691.672 216.789L686.077 213.559Z" fill="#C7C7C7"/>
<path d="M687.09 233.29H680.63V234.11H687.09V233.29Z" fill="#C7C7C7"/>
<path d="M691.32 249.909L685.725 253.139L686.135 253.85L691.73 250.62L691.32 249.909Z" fill="#C7C7C7"/>
<path d="M703.226 262.104L699.999 267.7L700.71 268.11L703.937 262.514L703.226 262.104Z" fill="#C7C7C7"/>
<path d="M720.54 266.76H719.72V273.22H720.54V266.76Z" fill="#C7C7C7"/>
<path d="M737.028 262.113L736.318 262.523L739.548 268.118L740.258 267.708L737.028 262.113Z" fill="#C7C7C7"/>
<path d="M748.937 249.841L748.527 250.551L754.121 253.781L754.531 253.071L748.937 249.841Z" fill="#C7C7C7"/>
<path d="M759.65 233.29H753.19V234.11H759.65V233.29Z" fill="#C7C7C7"/>
<path d="M754.168 213.593L748.574 216.823L748.984 217.534L754.578 214.303L754.168 213.593Z" fill="#C7C7C7"/>
<path d="M739.575 199.283L736.348 204.879L737.058 205.289L740.285 199.693L739.575 199.283Z" fill="#C7C7C7"/>
<path d="M720.76 197.11L722.16 236.58L718.11 236.52L719.66 197.09L720.76 197.11Z" fill="#C7C7C7"/>
<path d="M745.34 219.94L718.79 236.88L716.85 233.34L744.82 218.97L745.34 219.94Z" fill="#A6A6A6"/>
<path d="M721.52 233.7C721.52 233.975 721.438 234.244 721.286 234.472C721.133 234.701 720.916 234.879 720.662 234.984C720.408 235.089 720.128 235.117 719.859 235.063C719.589 235.01 719.341 234.877 719.147 234.683C718.953 234.489 718.82 234.241 718.767 233.971C718.713 233.702 718.741 233.422 718.846 233.168C718.951 232.914 719.129 232.697 719.358 232.544C719.586 232.392 719.855 232.31 720.13 232.31C720.499 232.31 720.852 232.457 721.113 232.717C721.374 232.978 721.52 233.331 721.52 233.7Z" fill="#C7C7C7"/>
<path d="M521.38 220C509.294 236.173 493.873 249.559 476.16 259.25C458.448 249.559 443.026 236.173 430.94 220C415 199 415.8 166 438.59 158.86C463.78 151 476.16 189 476.16 189C476.16 189 488.72 150.84 513.75 159C536.45 166.29 537.31 199 521.38 220Z" fill="#005048"/>
<path d="M458.39 242.7L451.51 214.1L447.04 224.18H419.31V220.95H444.94L452.44 204.1L457.79 226.39L465.35 180.2L472.03 216.75L477.33 201.49L485.65 226.47L487.5 220.95H533.05V224.16H489.82L485.65 236.65L477.27 211.51L471.08 229.41L465.53 199.1L458.39 242.7Z" fill="#005048"/>
<path opacity="0.7" d="M458.39 242.7L451.51 214.1L447.04 224.18H419.31V220.95H444.94L452.44 204.1L457.79 226.39L465.35 180.2L472.03 216.75L477.33 201.49L485.65 226.47L487.5 220.95H533.05V224.16H489.82L485.65 236.65L477.27 211.51L471.08 229.41L465.53 199.1L458.39 242.7Z" fill="white"/>
</svg>
