<svg width="866" height="683" viewBox="0 0 866 683" fill="none" xmlns="http://www.w3.org/2000/svg">
<path d="M239.54 98.28L237.75 67.62C237.609 65.1537 236.7 62.7933 235.15 60.87L216.91 38.13C216.026 37.0347 215.371 35.7738 214.981 34.4215C214.592 33.0692 214.477 31.6527 214.643 30.2553C214.808 28.8579 215.252 27.5077 215.947 26.284C216.642 25.0604 217.575 23.988 218.69 23.13L221.34 21.08C222.482 20.1984 223.792 19.56 225.19 19.2042C226.588 18.8485 228.044 18.7829 229.468 19.0115C230.892 19.2402 232.254 19.7581 233.471 20.5335C234.687 21.3089 235.732 22.3253 236.54 23.52L245.47 36.73C245.893 37.3447 246.53 37.7796 247.257 37.9497C247.984 38.1198 248.748 38.013 249.4 37.65C249.77 37.4386 250.09 37.151 250.34 36.8061C250.59 36.4613 250.764 36.0672 250.85 35.65L253.64 22.65C253.725 22.2539 253.943 21.8988 254.257 21.6441C254.572 21.3893 254.965 21.2502 255.37 21.25C255.609 21.2497 255.846 21.298 256.066 21.3919C256.286 21.4858 256.485 21.6234 256.651 21.7963C256.816 21.9693 256.945 22.174 257.029 22.398C257.113 22.6221 257.151 22.8609 257.14 23.1L256.38 40.74C256.211 44.7207 255.228 48.6245 253.49 52.21C252.239 54.7888 251.79 57.6833 252.2 60.52L257.2 95.27L239.54 98.28Z" fill="#F9B499"/>
<path d="M415.45 221.67C415.45 221.67 386.8 251.23 373.51 253.42L345.51 234.06C345.51 234.06 374.65 225.82 392.59 195.93L415.45 221.67Z" fill="#F9B499"/>
<path d="M506.23 621.47V633.5L529.48 645.88V620.38L506.23 621.47Z" fill="#F9B499"/>
<path d="M477.52 661.21C477.52 661.21 481.35 645.53 501.31 644.44V636.51C501.31 636.51 502 628.51 509.49 630.66C510.715 631.024 511.874 631.585 512.92 632.32C516.319 634.583 519.485 637.179 522.37 640.07C522.37 640.07 527.84 633.67 531.94 645.76C533.545 650.804 534.732 655.971 535.49 661.21H477.52Z" fill="#005048"/>
<path d="M535.49 661.21H477.52V665.49H535.49V661.21Z" fill="#2F2E41"/>
<path d="M429.85 621.47V647.03L450.72 652.03V623.69L429.85 621.47Z" fill="#F9B499"/>
<path d="M400.32 661.21C400.32 661.21 402.53 647.21 423.93 644.21L424.64 635.39C424.699 634.649 424.916 633.928 425.275 633.278C425.635 632.627 426.13 632.06 426.727 631.616C427.323 631.172 428.008 630.861 428.734 630.703C429.461 630.545 430.213 630.544 430.94 630.7L433.61 631.27C435.577 631.693 437.365 632.716 438.728 634.197C440.091 635.678 440.961 637.544 441.22 639.54L441.97 645.35H455.37L458.93 661.25L400.32 661.21Z" fill="#005048"/>
<path d="M458.93 661.21H400.32V665.49H458.93V661.21Z" fill="#2F2E41"/>
<path d="M473.24 338.26C473.24 338.26 474.7 363.71 487.46 378.65L498.76 548.92L502.76 622.2C502.76 622.2 512.24 628.76 532.29 624.39C532.29 624.39 546.15 571.16 541.77 497.51C541.77 497.51 537.77 454.12 539.58 442.82C539.58 442.82 547.04 337.52 545.86 320.17C545.87 320.17 502.77 339.44 473.24 338.26Z" fill="#2F2E41"/>
<path opacity="0.2" d="M473.24 338.26C473.24 338.26 474.7 363.71 487.46 378.65L498.76 548.92L502.76 622.2C502.76 622.2 512.24 628.76 532.29 624.39C532.29 624.39 546.15 571.16 541.77 497.51C541.77 497.51 537.77 454.12 539.58 442.82C539.58 442.82 547.04 337.52 545.86 320.17C545.87 320.17 502.77 339.44 473.24 338.26Z" fill="black"/>
<path d="M476.18 474.39C476.079 473.447 476.113 472.494 476.28 471.56C477.02 463.35 481.02 423.32 489.92 415.82L487.46 378.65C487.46 378.65 475.46 364.96 473.24 338.26C473.24 338.26 457.84 338.39 450.01 334.67L439.01 419.12C439.01 419.12 435.36 450.48 435.73 469.44L425.15 621.84L451.36 631C451.36 631 459.75 624.8 468.13 565C468.13 565 479.12 489.19 476.18 474.39Z" fill="#2F2E41"/>
<path d="M383.45 193.14C383.45 193.14 412.72 225.27 416.54 225.81C416.54 225.81 424.47 218.43 426.39 223.08L438.15 327.81C438.15 327.81 459.83 353.61 522.78 331.2L561.78 314.14C561.78 314.14 552.78 214.88 552.21 202.3C552.21 202.3 552.66 197.81 556.82 198.19C558.148 198.335 559.485 198.386 560.82 198.34L569.45 197.92C569.45 197.92 574.37 191.92 575.19 177.92V153.08C575.19 153.08 534.95 124.88 489.19 130.64C489.19 130.64 443.14 129.29 417.98 157.73L383.45 193.14Z" fill="#005048"/>
<path d="M457.56 112.32L458.38 136.11C458.38 136.11 450.18 145.68 466.86 147.18C466.86 147.18 481.6 148.95 490.4 141.35C491.509 140.407 492.327 139.169 492.76 137.78C493.34 135.78 493.19 133.22 489.28 131.73L486 108.63L457.56 112.32Z" fill="#F9B499"/>
<path d="M425.34 221.72L424.71 221.62C430.38 187.62 417.71 158.13 417.62 157.84L418.2 157.58C418.33 157.88 431 187.54 425.34 221.72Z" fill="#2F2E41"/>
<path d="M554.6 198.54C539.12 171.08 543.07 137.76 543.11 137.43L543.74 137.51C543.74 137.84 539.74 170.95 555.16 198.23L554.6 198.54Z" fill="#2F2E41"/>
<path d="M526.48 289.1L525.91 288.83C538.05 263.47 541.43 231.28 541.46 230.96L542.1 231.03C542.07 231.35 538.67 263.64 526.48 289.1Z" fill="#2F2E41"/>
<path d="M315.38 150.06C315.38 150.06 304.98 145.46 316.19 129.85C316.19 129.85 330.68 106.03 343.26 112.59C343.26 112.59 347.91 114.69 347.91 119.11C347.91 119.11 361.29 112.8 370.08 120.76C371.506 122.08 372.67 123.658 373.51 125.41C376.03 130.56 382.19 145.49 377.01 160.04C375.407 164.59 374.906 169.455 375.549 174.235C376.192 179.016 377.961 183.576 380.71 187.54C383.407 191.382 386.625 194.832 390.27 197.79C391.773 199.174 393.034 200.8 394 202.6C394.608 203.804 394.889 205.146 394.817 206.493C394.744 207.84 394.32 209.144 393.587 210.276C392.854 211.408 391.837 212.328 390.637 212.945C389.437 213.561 388.097 213.853 386.75 213.79C384.02 213.634 381.342 212.977 378.85 211.85C378.85 211.85 387.6 219.78 381.04 224.98C381.04 224.98 376.66 230.17 363.81 219.51C363.81 219.51 362.72 234.51 350.96 229.63L334 216.5H331.27L308.57 205.56L304.71 202C304.927 200.995 305.429 200.074 306.156 199.346C306.884 198.619 307.805 198.117 308.81 197.9C308.81 197.9 296.5 198.99 295.14 194.62C295.14 194.62 287.75 186.03 300.33 176.82C300.33 176.82 294.11 176.13 290.72 173.4C290.195 172.963 289.768 172.42 289.467 171.806C289.165 171.193 288.996 170.523 288.971 169.84C288.946 169.157 289.064 168.477 289.319 167.843C289.574 167.209 289.959 166.635 290.45 166.16C292.2 164.44 295.56 162.44 301.97 161.39C302 161.4 309.1 160.72 315.38 150.06Z" fill="#2F2E41"/>
<path d="M240.26 113.6L246.1 204C246.1 204 247.92 233.17 243.18 255.05L216.57 410.74C216.57 410.74 227.87 439.54 262.87 459.59C275.2 416.103 284.884 371.908 291.87 327.25C291.87 327.25 292.06 261.8 303.87 209.39C303.87 209.39 307.97 208.7 308.79 205.7L296 195.93L294.69 197.76C294.69 197.76 281.44 187.76 277.98 167.92L266.13 112.32L240.26 113.6Z" fill="#005048"/>
<path d="M232.06 98.65L233.16 117.06H269.07L263.42 90.44L232.06 98.65Z" fill="#005048"/>
<path opacity="0.2" d="M232.06 98.65L233.16 117.06H269.07L263.42 90.44L232.06 98.65Z" fill="black"/>
<path d="M351.71 234.06C351.71 234.06 370.42 244.85 377.71 253.6L417.9 291.15C417.9 291.15 433.85 304.7 420.73 320.15C420.73 320.15 406.14 335.41 401.4 338.24C396.66 341.07 385.4 316.65 385.4 316.65L388.84 313.74L367.54 300.25L394.54 441.71C394.54 441.71 369.93 367.33 349.6 353.48L347.5 284.98L351.71 234.06Z" fill="#005048"/>
<path d="M335.33 302.82L345.49 282.37C344.33 273.17 342.93 263.653 341.29 253.82C339.723 244.487 338.03 235.487 336.21 226.82C334.41 229.82 330.33 234.28 324.29 238.73C317.12 244 307.53 247.92 297.87 242.47C297.037 249.043 296.27 255.767 295.57 262.64C294.71 271.18 294.003 279.513 293.45 287.64C307.036 293.679 321.03 298.752 335.33 302.82Z" fill="#2F2E41"/>
<path d="M328 323.24L335.38 302.82C335.38 302.82 312 296 293.45 287.67L291.52 322L328 323.24Z" fill="#F9B499"/>
<path d="M332.05 621.47C332.05 621.47 318.65 542.72 308.26 518.66C308.26 518.66 297.05 489.66 296.26 481.47L323.33 476.55C323.33 476.55 352.86 540.81 347.67 629.13L345.21 634.05L332.05 621.47Z" fill="#F9B499"/>
<path d="M310.72 658.93C310.72 658.93 313.72 637.61 330.96 636.24C330.96 636.24 321.59 620.9 334.78 621.47C334.78 621.47 340.53 624.02 344.08 631.47C344.08 631.47 347.91 623.36 352.56 634.02C352.56 634.02 358.03 650.15 357.21 658.9L310.72 658.93Z" fill="#005048"/>
<path d="M357.29 658.93H310.72V665.49H357.29V658.93Z" fill="#2F2E41"/>
<path d="M371.65 470.3L398.5 456.59C398.5 456.59 446 521.43 461.63 602.08L453.91 609.44L444.8 601.78C444.8 601.78 413.66 526.78 393.42 503.52C391.244 501.009 389.265 498.335 387.5 495.52L371.65 470.3Z" fill="#F9B499"/>
<path d="M478.34 614.91L465 600C465 600 459.72 599.18 458.9 604.69C458.9 604.69 442.76 594.9 443.68 603.83C443.68 603.83 443.49 612.94 448.78 617.83C448.78 617.83 438.21 631.32 437.48 644.44C437.48 644.44 450.97 649.91 458.9 642.98C458.93 643 476.7 622.75 478.34 614.91Z" fill="#005048"/>
<path d="M436.93 647.4L437.51 644.4C437.51 644.4 449.36 650.6 458.93 642.94C458.93 642.94 473.93 627.08 478.34 614.87C478.34 614.87 482.34 616.15 481.81 621.43C481.81 621.43 466.86 644.77 457.93 649.69C457.93 649.69 452.88 653.21 439.98 651.55C439.502 651.49 439.041 651.333 438.626 651.089C438.21 650.845 437.849 650.518 437.563 650.13C437.278 649.742 437.075 649.3 436.966 648.83C436.857 648.361 436.845 647.874 436.93 647.4Z" fill="#2F2E41"/>
<path d="M345.49 282.37C345.49 282.37 349.3 317.79 348.92 333L333.26 331.21C333.26 331.21 331.78 331.28 331.44 332C331.44 332 328.36 326.95 327.95 323.24L335.33 302.82L345.49 282.37Z" fill="#005048"/>
<path opacity="0.2" d="M345.49 282.37C345.49 282.37 349.3 317.79 348.92 333L333.26 331.21C333.26 331.21 331.78 331.28 331.44 332C331.44 332 328.36 326.95 327.95 323.24L335.33 302.82L345.49 282.37Z" fill="white"/>
<path d="M575.14 153.06L588 156.34C588 156.34 609.06 127.34 615.07 69.66L604.32 41C604.117 40.4518 604.116 39.8496 604.315 39.3003C604.515 38.751 604.903 38.2903 605.41 38C605.954 37.6927 606.595 37.6023 607.203 37.7469C607.811 37.8916 608.342 38.2605 608.69 38.78L616.69 50.78L627.56 32.49C628.184 31.4422 629.051 30.5598 630.087 29.9175C631.124 29.2751 632.3 28.8917 633.516 28.7995C634.732 28.7073 635.952 28.9091 637.074 29.3879C638.195 29.8666 639.185 30.6082 639.96 31.55L650.04 43.81C651.24 45.2674 651.854 47.1191 651.763 49.0046C651.673 50.89 650.884 52.6743 649.55 54.01L630.65 72.94C630.65 72.94 628.74 155.52 611.51 177.13C611.51 177.13 605.67 187.22 573.18 189.69C573.18 189.69 575.18 183.14 575.18 172.2L575.14 153.06Z" fill="#F9B499"/>
<path d="M457.82 119.73L457.55 113.57L486.13 109.74L486.64 113.15C486.64 113.15 477.77 123.84 457.82 119.73Z" fill="#F7A389"/>
<path d="M469.41 119.11C484.41 119.11 496.57 102.204 496.57 81.35C496.57 60.4958 484.41 43.59 469.41 43.59C454.41 43.59 442.25 60.4958 442.25 81.35C442.25 102.204 454.41 119.11 469.41 119.11Z" fill="#F9B499"/>
<path d="M443.52 90.81C447.044 90.81 449.9 87.1388 449.9 82.61C449.9 78.0813 447.044 74.41 443.52 74.41C439.996 74.41 437.14 78.0813 437.14 82.61C437.14 87.1388 439.996 90.81 443.52 90.81Z" fill="#F9B499"/>
<path d="M442.7 74.47C441.974 74.6215 441.28 74.899 440.65 75.29C440.65 75.29 425.11 49.06 445.89 40.68C445.89 40.68 462.67 33.75 475.06 34.84C475.06 34.84 473.58 28.93 474.97 24.84C475.134 24.3515 475.453 23.9299 475.878 23.6396C476.304 23.3493 476.813 23.2063 477.327 23.2324C477.842 23.2585 478.334 23.4522 478.728 23.784C479.122 24.1158 479.397 24.5674 479.51 25.07C479.996 27.7168 479.972 30.4321 479.44 33.07C479.44 33.07 482.44 27.51 486.78 26.79C487.051 26.7479 487.327 26.7617 487.592 26.8307C487.857 26.8997 488.105 27.0224 488.32 27.1912C488.536 27.3599 488.715 27.5711 488.845 27.8117C488.976 28.0524 489.056 28.3172 489.08 28.59C489.23 30.39 488.53 33.32 483.81 36.35C483.81 36.35 500.5 34.71 501.32 51.94C501.32 51.94 501.79 61.56 499.63 77.12C499.63 77.12 499.33 98.39 492.8 100.6C496.281 92.3519 497.426 83.3053 496.11 74.45C495.044 74.1674 493.909 74.3146 492.95 74.86C492.95 74.86 490.72 70.99 490.9 60.4C490.919 60.0528 490.843 59.7068 490.68 59.3999C490.516 59.093 490.271 58.8369 489.972 58.6595C489.673 58.4821 489.331 58.3902 488.983 58.3938C488.635 58.3974 488.295 58.4964 488 58.68C487.125 59.2588 486.313 59.9293 485.58 60.68C485.58 60.68 473 72.81 471.92 67.2C471.92 67.2 470.6 64.83 475.46 58.54C475.557 58.4178 475.61 58.2662 475.61 58.11C475.61 57.9538 475.557 57.8022 475.46 57.68C474.97 57.06 473.74 56.45 471.18 59.77C470.667 60.4495 470.109 61.0943 469.51 61.7C466.2 65.03 455.95 74.7 453.32 69.7C453.32 69.7 450.8 66.55 455.68 57.35C455.827 57.0839 455.885 56.7782 455.848 56.4768C455.81 56.1753 455.678 55.8934 455.471 55.6715C455.263 55.4495 454.991 55.2989 454.693 55.2412C454.394 55.1834 454.085 55.2215 453.81 55.35C452.255 56.2656 450.92 57.5117 449.9 59C449.9 59 443.45 67.72 445.12 78.69C445.12 78.69 443.29 79.15 442.7 74.47Z" fill="#2F2E41"/>
<path d="M494.94 90.81C498.464 90.81 501.32 87.1388 501.32 82.61C501.32 78.0813 498.464 74.41 494.94 74.41C491.416 74.41 488.56 78.0813 488.56 82.61C488.56 87.1388 491.416 90.81 494.94 90.81Z" fill="#F9B499"/>
<path opacity="0.2" d="M283.68 262L275.21 251.52C275.21 251.52 275.21 224.62 296.05 195.95L308.86 205.72C308.86 205.72 308.63 208.13 303.92 209.41L297.92 242.5C296.08 256.17 294.92 268.13 294.1 277.91C293.28 287.91 292.84 296.1 292.59 301.45C292.16 310.98 291.96 319.65 291.91 327.27C288.37 320.97 284.91 314.27 281.35 307.37C275.91 296.85 270.17 285.16 268.94 280.51L283.68 262Z" fill="black"/>
<path d="M349.28 282.4L359.12 275.57L350.92 229.63L334 216.5C334 216.5 347.68 274.75 348.77 323.69L349.59 353.5C349.59 353.5 357.79 317.68 364.9 302.91L349.28 282.4Z" fill="#005048"/>
<path opacity="0.2" d="M349.28 282.4L359.12 275.57L350.92 229.63L334 216.5C334 216.5 347.68 274.75 348.77 323.69L349.59 353.5C349.59 353.5 357.79 317.68 364.9 302.91L349.28 282.4Z" fill="black"/>
<path d="M405.65 338.26L387.42 345.84C387.42 345.84 378.67 336.27 376.12 324.6L387.58 313.76C387.58 313.76 395.81 333.6 405.65 338.26Z" fill="#005048"/>
<path opacity="0.2" d="M405.65 338.26L387.42 345.84C387.42 345.84 378.67 336.27 376.12 324.6L387.58 313.76C387.58 313.76 395.81 333.6 405.65 338.26Z" fill="black"/>
<path d="M318.65 189.69C318.65 189.69 309 209.3 303.83 209.3C302.72 214.24 301.71 219.46 300.73 224.77C299.61 230.87 298.657 236.773 297.87 242.48C301.313 244.307 305.163 245.229 309.06 245.16C315.93 244.84 325.34 241.16 335.49 227.92C335.49 227.92 330.84 224.68 330.68 219.05C330.675 218.609 330.695 218.169 330.74 217.73C331.02 214.54 332.37 200.92 335.33 194.35L318.65 189.69Z" fill="#F9B499"/>
<path d="M294.59 482.81L273.59 418.81C273.59 418.81 288 352 291.85 327.25L291.52 321.96L328 323.24C328 323.24 329.37 334.63 344.41 345.84C357.93 360.197 368.735 376.887 376.3 395.1C376.3 395.1 394.17 434.16 398.55 456.59C398.55 456.59 390.34 467.25 369.02 470.8C369.02 470.8 347.46 423.8 320.64 409.8C320.64 409.8 320.34 456.56 328 475.15C328 475.18 317.56 488.25 294.59 482.81Z" fill="#2F2E41"/>
<path d="M378 327.25L363.46 334.67L333.22 331.21C332.94 331.18 332.657 331.21 332.39 331.297C332.123 331.385 331.877 331.527 331.668 331.716C331.459 331.905 331.293 332.135 331.18 332.393C331.066 332.65 331.008 332.929 331.01 333.21C331.013 333.637 331.152 334.051 331.408 334.393C331.663 334.735 332.022 334.986 332.43 335.11L341.85 337.91L328.58 341.73C327.676 341.979 326.847 342.447 326.167 343.092C325.486 343.737 324.975 344.54 324.679 345.43C324.382 346.319 324.309 347.268 324.466 348.193C324.624 349.117 325.006 349.988 325.58 350.73L332.34 359.6C333.156 360.668 334.322 361.413 335.634 361.706C336.945 361.999 338.318 361.82 339.51 361.2L364.86 348L385.37 341.64C382.112 337.298 379.619 332.431 378 327.25Z" fill="#F9B499"/>
<path d="M315.38 195.93L318.65 189.69L335.49 195.93C335.49 195.93 330 202.5 315.38 195.93Z" fill="#F7A389"/>
<path d="M357.617 177.639C366.801 161.731 365.601 143.843 354.935 137.685C344.269 131.527 328.177 139.431 318.992 155.339C309.808 171.247 311.009 189.135 321.675 195.293C332.341 201.451 348.432 193.547 357.617 177.639Z" fill="#F9B499"/>
<path d="M320.219 163.31C321.581 159.87 320.517 156.222 317.841 155.163C315.166 154.104 311.893 156.034 310.531 159.474C309.169 162.915 310.233 166.563 312.909 167.622C315.584 168.681 318.857 166.751 320.219 163.31Z" fill="#F9B499"/>
<path d="M363.957 178.742C365.32 175.302 364.255 171.654 361.58 170.595C358.904 169.535 355.631 171.466 354.269 174.906C352.907 178.347 353.972 181.994 356.647 183.054C359.322 184.113 362.595 182.183 363.957 178.742Z" fill="#F9B499"/>
<path d="M342.92 136C342.92 136 335.34 159.36 326.45 145.55C326.45 145.55 320.91 152.37 315.82 150.26C315.399 150.075 315 149.844 314.63 149.57C312.68 148.14 307.86 143.57 312.57 136C312.57 136 328.77 104.66 343.26 112.59C344.508 113.215 345.585 114.135 346.396 115.272C347.206 116.408 347.726 117.726 347.91 119.11C347.91 119.11 366.29 110.88 373.51 125.41L365.41 161.41C365.41 161.41 356.11 166.47 355.84 150.34C355.84 150.33 345.3 169.25 342.92 136Z" fill="#2F2E41"/>
</svg>
