<svg width="216" height="216" viewBox="0 0 216 216" fill="none" xmlns="http://www.w3.org/2000/svg">
<g filter="url(#filter0_d_215_35871)">
<circle cx="108" cy="104" r="104" fill="#405AA9"/>
<path fill-rule="evenodd" clip-rule="evenodd" d="M65.4546 150.313C65.4546 152.656 66.8186 154.785 68.9473 155.764L103.013 171.434C105.836 172.732 109.134 171.627 110.855 169.04C113.213 165.495 115.746 162.648 120.247 158.778C120.578 158.494 120.945 158.248 121.328 158.041C125.418 155.824 126.254 154.805 131.447 154.158C140.985 152.96 145.51 151.816 152.693 149.265C156.149 147.721 156.634 145.954 155.525 141.577C155.122 139.926 154.96 138.914 154.869 137.592C154.827 136.991 154.887 136.386 155.063 135.81C155.447 134.556 155.855 133.747 156.41 133.049C157.128 132.146 157.84 131.207 158.093 130.081C158.666 127.538 158.601 125.769 157.857 123.348C157.726 122.92 157.627 122.48 157.579 122.035C157.181 118.333 157.1 117.828 161.182 115.718L167.184 112.626C167.869 112.235 168.032 111.875 167.688 111.133C167.623 110.993 167.54 110.84 167.44 110.67L156.13 89.5873C155.732 88.8442 155.494 88.0253 155.433 87.1842L154.817 78.6753V72.381C154.817 71.9193 154.763 71.4532 154.655 71.0045C150.439 53.5723 143.537 45.2771 125.782 38.8373C105.185 33.3411 95.0855 34.568 78.3333 42.3319C65.611 48.8134 60.6554 54.2829 54.255 66.0949C47.2831 81.1206 47.7411 88.9382 52.1305 101.739L57.796 115.718C65.9966 131.983 65.7018 138.529 65.4546 145.955L65.4546 150.313Z" fill="white"/>
<path fill-rule="evenodd" clip-rule="evenodd" d="M75.2333 145.269L107.142 161.815C110.143 156.504 112.211 153.604 117.779 148.815C121.62 146.757 123.884 145.841 128.415 145.269C136.374 144.256 140.149 143.289 146.142 141.133C149.026 139.827 149.431 138.333 148.506 134.633C148.097 132.936 147.986 132.038 147.915 130.496C148.497 128.225 149.072 127.43 150.279 126.36C151.185 123.151 151.209 121.464 150.279 118.678C149.906 115.025 150.813 113.474 154.415 111.587L158.234 110.155C158.806 109.824 158.941 109.52 158.654 108.893C158.6 108.775 158.531 108.645 158.447 108.502L148.506 89.7237L147.915 81.451V75.5419C144.409 60.409 138.695 53.2843 123.688 47.7692C106.502 43.1223 98.0749 44.1596 84.0969 50.7237C73.4814 56.2037 69.3465 60.828 64.006 70.8146C58.1886 83.5184 58.5708 90.128 62.2333 100.951L67.5514 112.769C74.3941 126.521 76.0304 131.9 75.8242 138.178L75.2333 145.269Z" fill="#405AA9"/>
<path d="M101.774 120.8C101.774 121.9 102.631 123 103.917 123H112.488C113.774 123 114.631 121.9 114.631 120.8V118.6H101.774V120.8ZM108.203 79C99.8455 79 93.2026 85.82 93.2026 94.4C93.2026 99.68 95.7741 104.3 99.6312 106.94V112C99.6312 113.1 100.488 114.2 101.774 114.2H114.631C115.917 114.2 116.774 113.1 116.774 112V106.94C120.631 104.08 123.203 99.46 123.203 94.4C123.203 85.82 116.56 79 108.203 79Z" fill="#F9F9F9"/>
<path d="M109.86 64.4543C109.315 67.7267 108.224 70.4537 108.224 70.4537H107.679C107.679 70.4537 106.588 67.7267 106.042 64.4543C105.497 61.1819 110.406 61.1819 109.86 64.4543Z" fill="#F9F9F9"/>
<path d="M130.13 74.4359C127.485 76.4379 124.818 77.6689 124.818 77.6689L124.422 77.2941C124.422 77.2941 125.504 74.5636 127.357 71.8118C129.21 69.06 132.775 72.4338 130.13 74.4359Z" fill="#F9F9F9"/>
<path d="M88.4907 71.6091C90.3439 74.3608 91.4259 77.0913 91.4259 77.0913L91.0298 77.4662C91.0298 77.4662 88.3632 76.2351 85.7177 74.2332C83.0723 72.2313 86.6376 68.8574 88.4907 71.6091Z" fill="#F9F9F9"/>
</g>
<defs>
<filter id="filter0_d_215_35871" x="0" y="0" width="216" height="216" filterUnits="userSpaceOnUse" color-interpolation-filters="sRGB">
<feFlood flood-opacity="0" result="BackgroundImageFix"/>
<feColorMatrix in="SourceAlpha" type="matrix" values="0 0 0 0 0 0 0 0 0 0 0 0 0 0 0 0 0 0 127 0" result="hardAlpha"/>
<feOffset dy="4"/>
<feGaussianBlur stdDeviation="2"/>
<feComposite in2="hardAlpha" operator="out"/>
<feColorMatrix type="matrix" values="0 0 0 0 0 0 0 0 0 0 0 0 0 0 0 0 0 0 0.25 0"/>
<feBlend mode="normal" in2="BackgroundImageFix" result="effect1_dropShadow_215_35871"/>
<feBlend mode="normal" in="SourceGraphic" in2="effect1_dropShadow_215_35871" result="shape"/>
</filter>
</defs>
</svg>
