<svg width="866" height="683" viewBox="0 0 866 683" fill="none" xmlns="http://www.w3.org/2000/svg">
<g filter="url(#filter0_d_499_36553)">
<path d="M806.73 279.67L663.77 657H139C129.445 656.997 120.179 653.72 112.746 647.716C105.313 641.711 100.162 633.341 98.15 624L14.15 235.62C11.8145 224.841 13.435 213.581 18.7154 203.898C23.9958 194.215 32.5836 186.754 42.91 182.88L314.42 80.9999L324 77.3999L334.94 73.2799L463.58 24.9399L467.68 23.4099L497.03 12.4099C504.053 9.77672 511.641 9.02081 519.045 10.2169C526.449 11.4129 533.414 14.5195 539.25 19.2299L614.81 80.2299L623.3 87.0799L623.68 87.3899L645.57 105.07L791.3 222.71C799.546 229.367 805.477 238.46 808.248 248.689C811.019 258.918 810.488 269.761 806.73 279.67Z" fill="#005048"/>
<path opacity="0.7" d="M806.73 279.67L663.77 657H139C129.445 656.997 120.179 653.72 112.746 647.716C105.313 641.711 100.162 633.341 98.15 624L14.15 235.62C11.8145 224.841 13.435 213.581 18.7154 203.898C23.9958 194.215 32.5836 186.754 42.91 182.88L314.42 80.9999L324 77.3999L334.94 73.2799L463.58 24.9399L467.68 23.4099L497.03 12.4099C504.053 9.77672 511.641 9.02081 519.045 10.2169C526.449 11.4129 533.414 14.5195 539.25 19.2299L614.81 80.2299L623.3 87.0799L623.68 87.3899L645.57 105.07L791.3 222.71C799.546 229.367 805.477 238.46 808.248 248.689C811.019 258.918 810.488 269.761 806.73 279.67Z" fill="white"/>
<path d="M287.88 298.46C251.13 312.1 231.72 304.04 223.21 297.72C219.572 294.997 216.773 291.307 215.13 287.07C208.03 268.96 220.58 253.07 233.78 242.13C247.592 230.852 264.025 223.241 281.56 220C310.12 214.58 323.45 223.71 329.32 230.85C330.221 231.962 331.008 233.161 331.67 234.43C333.198 237.377 334.039 240.632 334.13 243.95C335.27 278.71 287.88 298.46 287.88 298.46Z" fill="#EBEBEB"/>
<path d="M756.59 290.77H498.33V301.21H756.59V290.77Z" fill="#2E3135"/>
<path d="M493.15 257.8H494.73C496.125 257.8 497.463 258.354 498.449 259.341C499.436 260.327 499.99 261.665 499.99 263.06V656.73H487.89V263.06C487.89 261.665 488.444 260.327 489.431 259.341C490.417 258.354 491.755 257.8 493.15 257.8Z" fill="#3F4347"/>
<path d="M519.68 293.52C556.44 307.16 575.84 299.09 584.36 292.77C587.989 290.045 590.785 286.36 592.43 282.13C599.53 264.03 586.98 248.13 573.78 237.19C559.973 225.893 543.539 218.261 526 215C497.44 209.58 484.11 218.71 478.24 225.85C477.337 226.957 476.55 228.153 475.89 229.42C474.369 232.37 473.528 235.623 473.43 238.94C472.29 273.77 519.68 293.52 519.68 293.52Z" fill="#EBEBEB"/>
<path d="M475.89 229.43C476.55 228.163 477.337 226.967 478.24 225.86C484.11 218.72 497.44 209.59 526 215.01C543.541 218.263 559.978 225.888 573.79 237.18C586.99 248.08 599.54 264.02 592.44 282.12C592.66 282.03 599.08 279.07 601.9 266.05C602.2 264.69 602.45 263.23 602.65 261.65C602.65 261.65 603.75 229.78 556.5 207.8C556.5 207.8 517.02 191.47 491.72 204.12C487.438 206.267 483.755 209.442 481 213.36C478.631 216.705 477.024 220.528 476.29 224.56C475.968 226.162 475.834 227.797 475.89 229.43Z" fill="#3F4347"/>
<path d="M481 213.36C483.764 209.438 487.457 206.263 491.75 204.12C517.05 191.47 556.53 207.8 556.53 207.8C603.78 229.8 602.68 261.65 602.68 261.65C602.48 263.23 602.23 264.65 601.93 266.05C601.93 266.05 612.72 256.8 601.93 233.67C601.93 233.67 578.28 187.47 515.99 190.18C508.357 190.462 500.9 192.56 494.24 196.3C488 199.87 481.78 205.37 481 213.36Z" fill="#2E3135"/>
<path d="M536.171 237.358C538.601 232.13 532.942 224.345 523.532 219.971C514.121 215.597 504.523 216.289 502.092 221.518C499.662 226.746 505.32 234.531 514.731 238.905C524.141 243.279 533.74 242.587 536.171 237.358Z" fill="white"/>
<path d="M510.696 257.586C513.01 252.608 507.351 245.07 498.055 240.749C488.76 236.428 479.349 236.961 477.035 241.94C474.721 246.918 480.38 254.456 489.676 258.777C498.971 263.097 508.382 262.564 510.696 257.586Z" fill="white"/>
<path d="M536.512 287.798C538.826 282.82 533.678 275.52 525.014 271.492C516.35 267.465 507.45 268.236 505.136 273.214C502.822 278.192 507.97 285.493 516.634 289.52C525.299 293.547 534.198 292.776 536.512 287.798Z" fill="white"/>
<path d="M752.74 545.73H490.64V656.73H752.74V545.73Z" fill="#E1E1E2"/>
<g opacity="0.2">
<path d="M490.648 577.998L490.627 579.648L752.457 582.892L752.478 581.243L490.648 577.998Z" fill="black"/>
</g>
<g opacity="0.2">
<path d="M490.654 620.859L490.634 622.509L752.464 625.754L752.484 624.104L490.654 620.859Z" fill="black"/>
</g>
<path d="M756.59 535.29H490.64V545.73H756.59V535.29Z" fill="#2E3135"/>
<path d="M639.21 333.63H571.2C567.676 333.63 564.82 336.486 564.82 340.01V366.26C564.82 369.783 567.676 372.64 571.2 372.64H639.21C642.734 372.64 645.59 369.783 645.59 366.26V340.01C645.59 336.486 642.734 333.63 639.21 333.63Z" fill="#005048"/>
<path opacity="0.2" d="M645.59 340V366.25C645.591 367.088 645.427 367.919 645.107 368.693C644.787 369.468 644.317 370.172 643.724 370.764C643.132 371.357 642.428 371.827 641.653 372.147C640.878 372.467 640.048 372.631 639.21 372.63H632.21C634.21 371.52 633.52 367.69 633.52 367.69L633.08 340.76C633.74 334.16 627.48 333.62 627.48 333.62H639.23C640.919 333.625 642.536 334.3 643.728 335.496C644.921 336.692 645.59 338.312 645.59 340Z" fill="black"/>
<path d="M758 257.8H759.58C760.975 257.8 762.313 258.354 763.299 259.341C764.286 260.327 764.84 261.665 764.84 263.06V656.73H752.74V263.06C752.74 261.665 753.294 260.327 754.281 259.341C755.267 258.354 756.605 257.8 758 257.8Z" fill="#3F4347"/>
<path d="M581.689 257.436C584.317 251.781 578.515 243.51 568.729 238.961C558.943 234.412 548.879 235.309 546.25 240.963C543.622 246.617 549.425 254.888 559.211 259.437C568.997 263.986 579.061 263.09 581.689 257.436Z" fill="white"/>
<path d="M579.912 289.457C582.226 284.478 576.619 276.965 567.389 272.674C558.158 268.384 548.8 268.942 546.486 273.92C544.172 278.898 549.779 286.412 559.009 290.702C568.239 294.992 577.598 294.435 579.912 289.457Z" fill="white"/>
<path d="M756.59 373.19H498.33V383.63H756.59V373.19Z" fill="#2E3135"/>
<path d="M200.35 423H271.78V436.19H208.86C206.603 436.19 204.438 435.293 202.843 433.697C201.247 432.102 200.35 429.937 200.35 427.68V423Z" fill="#2E3135"/>
<path d="M273.99 436.17H227.83V655.96H273.99V436.17Z" fill="#F8F6EE"/>
<path d="M239.37 436.17H227.83V655.96H239.37V436.17Z" fill="#E1E1E2"/>
<path d="M284.28 342.21H208.19C199.006 342.21 191.56 349.655 191.56 358.84V406.35C191.56 415.534 199.006 422.98 208.19 422.98H284.28C293.464 422.98 300.91 415.534 300.91 406.35V358.84C300.91 349.655 293.464 342.21 284.28 342.21Z" fill="#E1E1E2"/>
<path d="M117.1 364.19H126.44V374.41C126.44 375.487 126.012 376.519 125.251 377.281C124.489 378.042 123.457 378.47 122.38 378.47H121.16C120.083 378.47 119.051 378.042 118.289 377.281C117.528 376.519 117.1 375.487 117.1 374.41V364.19Z" fill="#EBEBEB"/>
<path d="M130.76 304.3H112.79C108.648 304.3 105.29 307.658 105.29 311.8V358.89C105.29 363.032 108.648 366.39 112.79 366.39H130.76C134.902 366.39 138.26 363.032 138.26 358.89V311.8C138.26 307.658 134.902 304.3 130.76 304.3Z" fill="#EBEBEB"/>
<path d="M121.17 296.6H122.39C122.923 296.6 123.451 296.705 123.944 296.909C124.436 297.113 124.884 297.412 125.261 297.789C125.638 298.166 125.937 298.614 126.141 299.106C126.345 299.599 126.45 300.127 126.45 300.66V307H117.1V300.62C117.111 299.549 117.544 298.525 118.307 297.772C119.069 297.019 120.098 296.597 121.17 296.6Z" fill="#EBEBEB"/>
<path d="M123.15 292.76H120.4V300.45H123.15V292.76Z" fill="#EBEBEB"/>
<path d="M108 326.82C107.7 320.52 107.7 313.92 107.77 307.59V307.35H108L111.84 307.44C112.97 307.44 114.58 307.51 115.69 307.58C114.59 307.64 112.97 307.69 111.84 307.73L108 307.81L108.23 307.58C108.29 313.92 108.29 320.5 108 326.81V326.82Z" fill="white"/>
<path d="M108 332.32H135.47V349.5C135.47 352.669 134.211 355.709 131.97 357.95C129.729 360.191 126.689 361.45 123.52 361.45H120C118.427 361.457 116.867 361.152 115.412 360.555C113.956 359.957 112.633 359.078 111.518 357.968C110.403 356.857 109.518 355.538 108.914 354.085C108.311 352.632 108 351.074 108 349.5V332.32Z" fill="#005048"/>
<path d="M81.66 288.36H76.17V324.08H81.66V288.36Z" fill="#E1E1E2"/>
<path d="M78.22 318.58H80.15C81.8572 318.577 83.4958 319.252 84.7067 320.455C85.9176 321.659 86.6021 323.293 86.61 325V656H71.77V325C71.7779 323.295 72.461 321.662 73.6697 320.459C74.8785 319.256 76.5145 318.58 78.22 318.58Z" fill="#2F2E41"/>
<path d="M122.85 649.92H109.71C104.749 649.915 99.9935 647.942 96.4859 644.434C92.9782 640.927 91.0053 636.171 91 631.21V557.06H93.2V631.21C93.2053 635.587 94.9464 639.783 98.0415 642.879C101.137 645.974 105.333 647.715 109.71 647.72H122.85C127.227 647.715 131.423 645.974 134.518 642.879C137.614 639.783 139.355 635.587 139.36 631.21V557.06H141.56V631.21C141.555 636.171 139.582 640.927 136.074 644.434C132.566 647.942 127.811 649.915 122.85 649.92Z" fill="#E1E1E2"/>
<path d="M142.4 622.45H131.4C127.544 622.445 123.847 620.91 121.121 618.182C118.395 615.454 116.863 611.756 116.86 607.9V557.06H119V607.9C119.003 611.173 120.303 614.311 122.617 616.626C124.93 618.942 128.067 620.245 131.34 620.25H142.34C145.613 620.245 148.75 618.942 151.063 616.626C153.377 614.311 154.677 611.173 154.68 607.9V557.06H156.88V607.9C156.877 611.746 155.353 615.435 152.64 618.161C149.927 620.887 146.246 622.429 142.4 622.45Z" fill="#E1E1E2"/>
<path d="M109.11 496.06H164.65C168.578 496.06 172.345 497.62 175.122 500.398C177.9 503.175 179.46 506.942 179.46 510.87V513.09H94.3V510.87C94.3 506.942 95.8603 503.175 98.6377 500.398C101.415 497.62 105.182 496.06 109.11 496.06Z" fill="#E1E1E2"/>
<path d="M98.5 509.8H172.5C174.497 509.797 176.476 510.189 178.321 510.952C180.167 511.714 181.845 512.834 183.257 514.246C184.67 515.657 185.791 517.334 186.555 519.179C187.319 521.025 187.711 523.003 187.71 525V532.34H83.31V525C83.3087 523.004 83.7006 521.028 84.4634 519.184C85.2262 517.34 86.3449 515.664 87.7555 514.253C89.1662 512.841 90.8411 511.721 92.6847 510.957C94.5283 510.193 96.5044 509.8 98.5 509.8Z" fill="#CCCCCC"/>
<path d="M734.82 320.99H653.62C650.096 320.99 647.24 323.846 647.24 327.37V366.81C647.24 370.334 650.096 373.19 653.62 373.19H734.82C738.344 373.19 741.2 370.334 741.2 366.81V327.37C741.2 323.846 738.344 320.99 734.82 320.99Z" fill="#005048"/>
<path opacity="0.2" d="M741.2 327.38V366.81C741.2 368.502 740.528 370.125 739.331 371.321C738.135 372.518 736.512 373.19 734.82 373.19H715.22C719.53 373.19 721.82 371.55 723.02 369.9C723.911 368.649 724.38 367.146 724.36 365.61V330C724.44 325.18 722.1 322.5 719.48 321H734.82C736.511 321.003 738.133 321.676 739.328 322.872C740.524 324.067 741.197 325.689 741.2 327.38Z" fill="black"/>
<path d="M211.89 423H283.32V436.19H220.4C218.143 436.19 215.978 435.293 214.383 433.697C212.787 432.102 211.89 429.937 211.89 427.68V423Z" fill="#3F4347"/>
<path d="M301.86 342.21H225.77C216.586 342.21 209.14 349.655 209.14 358.84V406.35C209.14 415.534 216.586 422.98 225.77 422.98H301.86C311.044 422.98 318.49 415.534 318.49 406.35V358.84C318.49 349.655 311.044 342.21 301.86 342.21Z" fill="#F8F6EE"/>
<path opacity="0.21" d="M288.62 347.15H221.43C217.376 347.15 214.09 350.436 214.09 354.49V411.79C214.09 415.844 217.376 419.13 221.43 419.13H288.62C292.674 419.13 295.96 415.844 295.96 411.79V354.49C295.96 350.436 292.674 347.15 288.62 347.15Z" fill="#005048"/>
<path opacity="0.21" d="M221.42 419.14C219.475 419.137 217.611 418.363 216.236 416.987C214.862 415.61 214.09 413.745 214.09 411.8V354.49C214.09 352.545 214.862 350.68 216.236 349.303C217.611 347.927 219.475 347.153 221.42 347.15C221.42 347.15 217.93 348.25 217.93 354.85V414.74C217.93 414.74 217.77 416.94 221.42 419.14Z" fill="#005048"/>
<path d="M291.56 355.4H271.78V359.8H291.56V355.4Z" fill="#F8F6EE"/>
<path d="M291.56 361.44H271.78V365.84H291.56V361.44Z" fill="#F8F6EE"/>
<path d="M291.56 367.49H271.78V371.89H291.56V367.49Z" fill="#F8F6EE"/>
<path d="M291.56 373.53H271.78V377.93H291.56V373.53Z" fill="#F8F6EE"/>
<path d="M263.54 361.72C263.482 361.719 263.426 361.7 263.38 361.666C263.333 361.632 263.299 361.585 263.28 361.53L261.96 357.53L261.61 359.27C261.598 359.333 261.565 359.389 261.515 359.429C261.466 359.47 261.404 359.491 261.34 359.49H257.5C257.443 359.491 257.388 359.474 257.341 359.442C257.294 359.41 257.259 359.364 257.24 359.31L255.88 355.68L254.46 360.39C254.439 360.446 254.402 360.494 254.354 360.53C254.307 360.565 254.249 360.586 254.19 360.59C254.13 360.586 254.073 360.564 254.027 360.526C253.98 360.489 253.946 360.438 253.93 360.38L253.06 356.9L252.26 359.3C252.243 359.355 252.208 359.404 252.161 359.438C252.115 359.472 252.058 359.491 252 359.49H247.06C246.987 359.488 246.917 359.457 246.865 359.405C246.813 359.353 246.782 359.284 246.78 359.21V356.79L245.11 361C245.091 361.055 245.054 361.103 245.005 361.135C244.956 361.168 244.898 361.183 244.84 361.18C244.781 361.174 244.725 361.149 244.68 361.11C244.636 361.07 244.604 361.018 244.59 360.96L243.71 356.96L242.92 359.32C242.901 359.375 242.867 359.422 242.82 359.456C242.774 359.49 242.718 359.509 242.66 359.51H237.72C237.652 359.511 237.586 359.487 237.535 359.443C237.483 359.399 237.45 359.337 237.44 359.27L237.08 356.74L235.78 361.5C235.763 361.559 235.728 361.611 235.679 361.649C235.631 361.687 235.571 361.708 235.51 361.71C235.447 361.707 235.387 361.682 235.34 361.64C235.293 361.599 235.261 361.542 235.25 361.48L234.37 357.1L233.58 359.86C233.565 359.917 233.531 359.968 233.484 360.004C233.437 360.04 233.379 360.06 233.32 360.06H228.37C228.297 360.058 228.229 360.027 228.178 359.975C228.128 359.922 228.1 359.853 228.1 359.78V357.1L226.42 360.45C226.398 360.5 226.361 360.542 226.315 360.57C226.268 360.599 226.214 360.613 226.16 360.61C226.106 360.605 226.054 360.585 226.012 360.551C225.969 360.517 225.937 360.472 225.92 360.42L225.05 357.83L224.23 359.88C224.212 359.932 224.178 359.977 224.133 360.009C224.089 360.041 224.035 360.059 223.98 360.06H220.13C220.057 360.058 219.989 360.027 219.938 359.975C219.888 359.922 219.86 359.853 219.86 359.78C219.86 359.708 219.888 359.64 219.939 359.589C219.99 359.539 220.058 359.51 220.13 359.51H223.79L224.79 356.93C224.812 356.878 224.85 356.833 224.898 356.803C224.947 356.773 225.003 356.758 225.06 356.76C225.116 356.763 225.17 356.783 225.214 356.817C225.259 356.851 225.292 356.897 225.31 356.95L226.2 359.62L228.1 355.81C228.129 355.756 228.175 355.713 228.231 355.688C228.287 355.662 228.35 355.656 228.41 355.67C228.47 355.686 228.523 355.72 228.561 355.769C228.599 355.818 228.62 355.878 228.62 355.94V359.51H233.08L234.08 355.86C234.099 355.801 234.137 355.75 234.187 355.714C234.238 355.678 234.298 355.659 234.36 355.66C234.421 355.665 234.479 355.688 234.526 355.728C234.572 355.767 234.605 355.821 234.62 355.88L235.49 360.24L236.83 355.31C236.848 355.25 236.885 355.198 236.936 355.162C236.986 355.126 237.048 355.107 237.11 355.11C237.174 355.116 237.234 355.142 237.281 355.186C237.328 355.229 237.359 355.287 237.37 355.35L238 359H242.51L243.51 355.89C243.526 355.832 243.562 355.781 243.611 355.747C243.66 355.712 243.72 355.696 243.78 355.7C243.841 355.705 243.899 355.728 243.946 355.768C243.992 355.807 244.025 355.861 244.04 355.92L244.94 359.99L246.81 355.32C246.838 355.265 246.883 355.22 246.938 355.193C246.994 355.166 247.057 355.159 247.117 355.171C247.178 355.184 247.232 355.216 247.273 355.263C247.313 355.31 247.337 355.368 247.34 355.43V359H251.81L252.81 355.89C252.83 355.835 252.867 355.787 252.915 355.753C252.964 355.719 253.021 355.701 253.08 355.7C253.14 355.704 253.197 355.726 253.243 355.764C253.29 355.801 253.324 355.853 253.34 355.91L254.19 359.34L255.56 354.8C255.576 354.745 255.609 354.697 255.654 354.661C255.698 354.625 255.753 354.604 255.81 354.6C255.868 354.6 255.924 354.617 255.973 354.649C256.021 354.681 256.058 354.727 256.08 354.78L257.66 359H261.09L261.59 356.47C261.605 356.411 261.638 356.357 261.684 356.318C261.731 356.278 261.789 356.255 261.85 356.25C261.91 356.246 261.97 356.262 262.019 356.297C262.068 356.331 262.104 356.382 262.12 356.44L263.49 360.52L264.89 355.35C264.909 355.293 264.945 355.243 264.993 355.207C265.041 355.171 265.1 355.151 265.16 355.15C265.219 355.15 265.277 355.17 265.324 355.206C265.371 355.242 265.405 355.293 265.42 355.35L266.5 359H268.5C268.572 359 268.64 359.029 268.691 359.079C268.742 359.13 268.77 359.198 268.77 359.27C268.77 359.343 268.742 359.412 268.692 359.465C268.641 359.517 268.573 359.547 268.5 359.55H266.3C266.24 359.549 266.181 359.529 266.133 359.493C266.085 359.457 266.049 359.407 266.03 359.35L265.21 356.45L263.82 361.54C263.802 361.597 263.768 361.647 263.722 361.685C263.676 361.722 263.619 361.745 263.56 361.75L263.54 361.72Z" fill="white"/>
<path d="M235.52 381.5C235.457 381.492 235.398 381.463 235.352 381.418C235.307 381.372 235.278 381.314 235.27 381.25L234.38 373.25L233.62 377.45C233.608 377.513 233.575 377.569 233.525 377.609C233.476 377.65 233.414 377.671 233.35 377.67H227L226.49 380.74C226.476 380.805 226.441 380.862 226.39 380.904C226.339 380.946 226.276 380.969 226.21 380.97C226.144 380.968 226.081 380.943 226.031 380.899C225.982 380.856 225.949 380.796 225.94 380.73L225.08 373.81L224.29 378.54C224.278 378.604 224.245 378.661 224.196 378.703C224.147 378.745 224.085 378.769 224.02 378.77H221.27C221.206 378.758 221.148 378.724 221.107 378.674C221.065 378.623 221.043 378.56 221.043 378.495C221.043 378.43 221.065 378.367 221.107 378.317C221.148 378.266 221.206 378.232 221.27 378.22H223.79L224.85 371.86C224.85 371.788 224.878 371.72 224.929 371.669C224.98 371.619 225.048 371.59 225.12 371.59C225.192 371.59 225.26 371.619 225.311 371.669C225.362 371.72 225.39 371.788 225.39 371.86L226.26 378.78L226.5 377.34C226.51 377.276 226.542 377.217 226.592 377.175C226.642 377.132 226.705 377.109 226.77 377.11H233.13L234.19 371.29C234.202 371.226 234.237 371.168 234.289 371.127C234.34 371.087 234.405 371.067 234.47 371.07C234.535 371.072 234.597 371.097 234.645 371.142C234.693 371.186 234.723 371.245 234.73 371.31L235.68 379.82L236.39 377.31C236.407 377.252 236.443 377.201 236.492 377.165C236.54 377.129 236.599 377.11 236.66 377.11H242.47L243.53 371.29C243.54 371.225 243.574 371.166 243.626 371.125C243.678 371.084 243.744 371.064 243.81 371.07C243.876 371.07 243.939 371.095 243.987 371.139C244.035 371.184 244.065 371.245 244.07 371.31L244.95 378.73L245.18 377.34C245.19 377.276 245.222 377.217 245.272 377.175C245.322 377.132 245.385 377.109 245.45 377.11H251.79L252.32 371.86C252.325 371.793 252.356 371.73 252.407 371.686C252.457 371.641 252.523 371.617 252.59 371.62C252.657 371.617 252.723 371.641 252.773 371.686C252.824 371.73 252.855 371.793 252.86 371.86L253.73 378.78L253.97 377.34C253.982 377.276 254.015 377.219 254.064 377.177C254.113 377.135 254.175 377.111 254.24 377.11H261.16L262.21 371.84C262.22 371.773 262.256 371.712 262.31 371.671C262.364 371.63 262.432 371.612 262.5 371.62C262.567 371.625 262.631 371.654 262.679 371.701C262.726 371.749 262.755 371.813 262.76 371.88L263.15 378.49L263.31 377.35C263.317 377.284 263.349 377.223 263.399 377.178C263.449 377.134 263.513 377.11 263.58 377.11H267.43C267.494 377.122 267.552 377.157 267.593 377.207C267.635 377.257 267.657 377.32 267.657 377.385C267.657 377.45 267.635 377.513 267.593 377.563C267.552 377.614 267.494 377.648 267.43 377.66H263.82L263.3 381.27C263.288 381.336 263.254 381.397 263.203 381.44C263.152 381.484 263.087 381.509 263.02 381.51C262.953 381.505 262.889 381.477 262.841 381.429C262.794 381.381 262.765 381.318 262.76 381.25L262.33 374.04L261.65 377.44C261.638 377.503 261.605 377.559 261.555 377.599C261.506 377.64 261.444 377.661 261.38 377.66H254.47L253.96 380.73C253.947 380.793 253.913 380.85 253.864 380.891C253.815 380.933 253.754 380.957 253.69 380.96C253.624 380.958 253.561 380.933 253.511 380.889C253.462 380.846 253.429 380.786 253.42 380.72L252.62 374.35L252.32 377.41C252.311 377.478 252.277 377.541 252.226 377.587C252.175 377.632 252.109 377.658 252.04 377.66H245.68L245.17 380.73C245.16 380.796 245.126 380.857 245.074 380.899C245.023 380.942 244.957 380.963 244.89 380.96C244.826 380.956 244.765 380.93 244.717 380.886C244.67 380.843 244.639 380.784 244.63 380.72L243.74 373.2L242.97 377.44C242.958 377.503 242.925 377.559 242.875 377.599C242.826 377.64 242.764 377.661 242.7 377.66H236.86L235.86 381.31C235.851 381.345 235.835 381.378 235.812 381.407C235.79 381.436 235.762 381.46 235.73 381.478C235.699 381.495 235.664 381.506 235.628 381.51C235.591 381.514 235.555 381.511 235.52 381.5Z" fill="#2F2E41"/>
<path d="M268.49 395.23H265.74C265.667 395.23 265.598 395.202 265.545 395.152C265.493 395.101 265.463 395.033 265.46 394.96V393C265.478 392.773 265.448 392.545 265.374 392.33C265.299 392.115 265.181 391.918 265.026 391.751C264.872 391.584 264.684 391.451 264.476 391.36C264.268 391.269 264.042 391.222 263.815 391.222C263.588 391.222 263.362 391.269 263.154 391.36C262.946 391.451 262.758 391.584 262.604 391.751C262.449 391.918 262.331 392.115 262.256 392.33C262.182 392.545 262.152 392.773 262.17 393V395C262.167 395.073 262.137 395.141 262.085 395.192C262.032 395.242 261.963 395.27 261.89 395.27H256.4C256.327 395.27 256.258 395.242 256.205 395.192C256.153 395.141 256.123 395.073 256.12 395V393C256.138 392.773 256.108 392.545 256.034 392.33C255.959 392.115 255.841 391.918 255.686 391.751C255.532 391.584 255.344 391.451 255.136 391.36C254.928 391.269 254.703 391.222 254.475 391.222C254.248 391.222 254.022 391.269 253.814 391.36C253.606 391.451 253.418 391.584 253.264 391.751C253.109 391.918 252.991 392.115 252.916 392.33C252.842 392.545 252.812 392.773 252.83 393V395C252.827 395.073 252.797 395.141 252.745 395.192C252.692 395.242 252.623 395.27 252.55 395.27H247.61C247.574 395.271 247.538 395.265 247.504 395.252C247.47 395.24 247.439 395.22 247.413 395.195C247.386 395.169 247.366 395.139 247.351 395.106C247.337 395.072 247.33 395.036 247.33 395V393C247.33 392.562 247.156 392.143 246.847 391.833C246.537 391.524 246.118 391.35 245.68 391.35C245.242 391.35 244.823 391.524 244.513 391.833C244.204 392.143 244.03 392.562 244.03 393V395C244.03 395.072 244.002 395.14 243.951 395.191C243.9 395.242 243.832 395.27 243.76 395.27H237.76C237.724 395.271 237.688 395.265 237.654 395.252C237.62 395.24 237.589 395.22 237.563 395.195C237.536 395.169 237.516 395.139 237.501 395.106C237.487 395.072 237.48 395.036 237.48 395V393C237.48 392.562 237.306 392.143 236.997 391.833C236.687 391.524 236.268 391.35 235.83 391.35C235.392 391.35 234.973 391.524 234.663 391.833C234.354 392.143 234.18 392.562 234.18 393V395C234.18 395.072 234.152 395.14 234.101 395.191C234.05 395.242 233.982 395.27 233.91 395.27H228.91C228.838 395.27 228.77 395.242 228.719 395.191C228.668 395.14 228.64 395.072 228.64 395V393C228.64 392.562 228.466 392.143 228.157 391.833C227.847 391.524 227.428 391.35 226.99 391.35C226.552 391.35 226.133 391.524 225.823 391.833C225.514 392.143 225.34 392.562 225.34 393V395C225.34 395.072 225.312 395.14 225.261 395.191C225.21 395.242 225.142 395.27 225.07 395.27H220.67C220.598 395.27 220.53 395.242 220.479 395.191C220.428 395.14 220.4 395.072 220.4 395C220.4 394.928 220.428 394.858 220.478 394.806C220.529 394.753 220.597 394.723 220.67 394.72H224.79V393C224.79 392.417 225.022 391.857 225.434 391.444C225.847 391.032 226.407 390.8 226.99 390.8C227.573 390.8 228.133 391.032 228.546 391.444C228.958 391.857 229.19 392.417 229.19 393V394.64H233.58V393C233.58 392.417 233.812 391.857 234.224 391.444C234.637 391.032 235.197 390.8 235.78 390.8C236.363 390.8 236.923 391.032 237.336 391.444C237.748 391.857 237.98 392.417 237.98 393V394.64H243.48V393C243.46 392.699 243.501 392.398 243.603 392.114C243.704 391.83 243.862 391.57 244.068 391.35C244.274 391.129 244.522 390.954 244.799 390.834C245.075 390.714 245.374 390.652 245.675 390.652C245.976 390.652 246.275 390.714 246.551 390.834C246.828 390.954 247.076 391.129 247.282 391.35C247.488 391.57 247.646 391.83 247.747 392.114C247.849 392.398 247.89 392.699 247.87 393V394.64H252.27V393C252.25 392.699 252.291 392.398 252.393 392.114C252.494 391.83 252.652 391.57 252.858 391.35C253.064 391.129 253.312 390.954 253.589 390.834C253.865 390.714 254.164 390.652 254.465 390.652C254.766 390.652 255.065 390.714 255.341 390.834C255.618 390.954 255.866 391.129 256.072 391.35C256.278 391.57 256.436 391.83 256.538 392.114C256.639 392.398 256.68 392.699 256.66 393V394.64H261.61V393C261.59 392.699 261.631 392.398 261.733 392.114C261.834 391.83 261.992 391.57 262.198 391.35C262.404 391.129 262.652 390.954 262.929 390.834C263.205 390.714 263.504 390.652 263.805 390.652C264.106 390.652 264.405 390.714 264.681 390.834C264.958 390.954 265.206 391.129 265.412 391.35C265.618 391.57 265.776 391.83 265.878 392.114C265.979 392.398 266.02 392.699 266 393V394.64H268.48C268.553 394.643 268.621 394.673 268.672 394.726C268.722 394.778 268.75 394.848 268.75 394.92C268.756 394.958 268.753 394.997 268.743 395.033C268.733 395.07 268.714 395.104 268.69 395.134C268.665 395.163 268.635 395.187 268.6 395.203C268.566 395.22 268.528 395.229 268.49 395.23Z" fill="white"/>
<path d="M224.8 409.24C226.468 409.24 227.82 407.888 227.82 406.22C227.82 404.552 226.468 403.2 224.8 403.2C223.132 403.2 221.78 404.552 221.78 406.22C221.78 407.888 223.132 409.24 224.8 409.24Z" fill="#F8F6EE"/>
<path d="M232.83 409.24C234.498 409.24 235.85 407.888 235.85 406.22C235.85 404.552 234.498 403.2 232.83 403.2C231.162 403.2 229.81 404.552 229.81 406.22C229.81 407.888 231.162 409.24 232.83 409.24Z" fill="#F8F6EE"/>
<path d="M240.85 409.24C242.518 409.24 243.87 407.888 243.87 406.22C243.87 404.552 242.518 403.2 240.85 403.2C239.182 403.2 237.83 404.552 237.83 406.22C237.83 407.888 239.182 409.24 240.85 409.24Z" fill="#F8F6EE"/>
<path d="M248.87 409.24C250.538 409.24 251.89 407.888 251.89 406.22C251.89 404.552 250.538 403.2 248.87 403.2C247.202 403.2 245.85 404.552 245.85 406.22C245.85 407.888 247.202 409.24 248.87 409.24Z" fill="#F8F6EE"/>
<path d="M256.89 409.24C258.558 409.24 259.91 407.888 259.91 406.22C259.91 404.552 258.558 403.2 256.89 403.2C255.222 403.2 253.87 404.552 253.87 406.22C253.87 407.888 255.222 409.24 256.89 409.24Z" fill="#F8F6EE"/>
<path d="M264.92 409.24C266.588 409.24 267.94 407.888 267.94 406.22C267.94 404.552 266.588 403.2 264.92 403.2C263.252 403.2 261.9 404.552 261.9 406.22C261.9 407.888 263.252 409.24 264.92 409.24Z" fill="#F8F6EE"/>
<path d="M233.87 425.73H222.33V427.93H233.87V425.73Z" fill="white"/>
<path d="M233.87 431.78H222.33V433.43H233.87V431.78Z" fill="white"/>
<path d="M249.81 431.78H238.27V433.43H249.81V431.78Z" fill="white"/>
<path d="M249.81 425.73H238.27V427.93H249.81V425.73Z" fill="white"/>
<path d="M205.61 463.23C200.545 463.303 195.563 461.94 191.24 459.3L191.45 458.09C194.8 460.084 198.526 461.365 202.395 461.852C206.263 462.339 210.19 462.022 213.93 460.92L214.24 461.97C211.438 462.798 208.532 463.223 205.61 463.23Z" fill="#005048"/>
<path d="M153.64 502.11L163.54 498.26L187.71 504.86C187.71 504.86 189.36 525.74 211.34 527.39H233.34L229.49 458.15C229.49 458.15 213.56 462.55 196.49 480.68L179.49 477.38L149.82 494.38L153.64 502.11Z" fill="#F7A48B"/>
<path d="M240.46 527.39V559.8H84.14C80.8556 559.8 77.6488 558.801 74.945 556.937C72.2411 555.072 70.1678 552.43 69 549.36C68.2941 547.519 67.9347 545.562 67.94 543.59C67.9374 541.461 68.3549 539.353 69.1687 537.385C69.9826 535.418 71.1766 533.631 72.6825 532.126C74.1884 530.621 75.9765 529.428 77.9443 528.615C79.9122 527.802 82.021 527.386 84.15 527.39H240.46Z" fill="#E1E1E2"/>
<path opacity="0.2" d="M240.46 549.36V559.8H84.14C80.8556 559.8 77.6488 558.801 74.945 556.937C72.2411 555.072 70.1678 552.43 69 549.36H240.46Z" fill="black"/>
<path d="M139.36 286.71C139.357 288.895 138.488 290.989 136.944 292.534C135.399 294.078 133.305 294.947 131.12 294.95H81.12C78.9346 294.95 76.8387 294.082 75.2934 292.537C73.7481 290.991 72.88 288.895 72.88 286.71C72.88 284.525 73.7481 282.429 75.2934 280.883C76.8387 279.338 78.9346 278.47 81.12 278.47H131.12C131.902 278.467 132.68 278.579 133.43 278.8C135.14 279.301 136.642 280.343 137.711 281.768C138.78 283.194 139.358 284.928 139.36 286.71Z" fill="#2F2E41"/>
<path opacity="0.2" d="M139.36 286.71C139.357 288.895 138.488 290.989 136.944 292.534C135.399 294.078 133.305 294.947 131.12 294.95H81.12C79.6281 294.95 78.1642 294.546 76.884 293.78C75.6038 293.014 74.5553 291.915 73.85 290.6L126.18 291.11C133.93 290.4 134.18 283.6 133.44 278.8C135.148 279.303 136.648 280.345 137.715 281.771C138.782 283.197 139.359 284.929 139.36 286.71Z" fill="black"/>
<path d="M109.41 423.53C105.987 423.527 102.705 422.166 100.284 419.746C97.8637 417.325 96.5026 414.043 96.5 410.62V283.41C96.71 279.18 97.58 276.88 99.15 276.41C100.98 275.81 102.77 277.92 102.97 278.16L102.12 278.86C101.71 278.36 100.44 277.14 99.49 277.45C98.89 277.65 97.84 278.7 97.6 283.45V410.62C97.6894 413.694 98.9735 416.612 101.179 418.755C103.385 420.898 106.34 422.096 109.415 422.096C112.49 422.096 115.445 420.898 117.651 418.755C119.857 416.612 121.141 413.694 121.23 410.62V361.44H122.32V410.62C122.317 414.043 120.956 417.325 118.536 419.746C116.115 422.166 112.833 423.527 109.41 423.53Z" fill="#005048"/>
<path d="M596.88 456.78V457.01L586.12 459.8C586.12 459.8 553.12 467.49 471.28 444.96C447.935 437.292 424.127 431.113 400 426.46L399.81 379C399.81 379 401.23 350.35 420.58 334.46L442.87 309.34C442.87 309.34 450.8 309.25 462.2 310.18C482.37 311.81 513.39 316.61 530.59 330.65C530.59 330.65 542.13 334.5 573.45 390.54L596.88 456.78Z" fill="#005048"/>
<path opacity="0.4" d="M597.1 456.78V457.01L586.34 459.8C586.34 459.8 553.34 467.49 471.5 444.96C448.175 437.295 424.387 431.116 400.28 426.46L400 379C400 379 401.41 350.35 420.76 334.46L443.05 309.34C443.05 309.34 450.98 309.25 462.38 310.18C482.55 311.81 513.57 316.61 530.77 330.65C530.77 330.65 542.31 334.5 573.63 390.54L597.1 456.78Z" fill="white"/>
<path opacity="0.4" d="M522.35 343.31C521.23 353.49 520.46 363.72 520.28 373.95C520.038 381.607 520.54 389.27 521.78 396.83C522.209 399.342 522.879 401.807 523.78 404.19C524.38 406.5 524.99 408.8 525.56 411.11C526.13 413.42 526.73 415.72 527.28 418.04C526.55 415.77 525.86 413.5 525.16 411.23C524.46 408.96 523.72 406.49 523.1 404.44C521.241 399.604 520.093 394.525 519.69 389.36C518.36 373.99 519.69 358.47 522.34 343.31H522.35Z" fill="white"/>
<path opacity="0.4" d="M480 428.48C494.6 419.75 514 417.04 530.76 417.48C533.26 417.59 535.76 417.8 538.24 417.99C534.64 417.99 530.64 417.99 527.02 418.14C511.31 418.76 494.21 421.48 480.02 428.43L480 428.48Z" fill="white"/>
<path d="M468.5 435.62C466.977 438.049 466.457 440.975 467.05 443.78C467.05 443.78 451.94 438.78 434.67 434.16C434.67 434.16 436.08 426.83 438.83 422.98C438.83 422.98 418.66 412.66 418.83 404.56C418.846 404.408 418.897 404.261 418.978 404.132C419.06 404.002 419.17 403.893 419.301 403.813C419.431 403.733 419.578 403.684 419.731 403.669C419.883 403.655 420.037 403.676 420.18 403.73C424.24 405.73 438.61 412.73 448.9 419.6C449.526 420.022 450.13 420.476 450.71 420.96L468.5 435.62Z" fill="#005048"/>
<path opacity="0.2" d="M468.5 435.62C466.977 438.049 466.457 440.975 467.05 443.78C467.05 443.78 451.94 438.78 434.67 434.16C434.67 434.16 436.08 426.83 438.83 422.98C438.83 422.98 418.66 412.66 418.83 404.56C418.846 404.408 418.897 404.261 418.978 404.132C419.06 404.002 419.17 403.893 419.301 403.813C419.431 403.733 419.578 403.684 419.731 403.669C419.883 403.655 420.037 403.676 420.18 403.73C424.24 405.73 438.61 412.73 448.9 419.6C449.526 420.022 450.13 420.476 450.71 420.96L468.5 435.62Z" fill="white"/>
<path d="M330.58 410.89C331.691 413.753 332.005 416.863 331.49 419.89C331.49 419.89 365.62 418.96 400.03 426.48V412.67C400.03 412.67 358.6 404.85 330.58 410.89Z" fill="#005048"/>
<path opacity="0.5" d="M330.58 410.89C331.691 413.753 332.005 416.863 331.49 419.89C331.49 419.89 365.62 418.96 400.03 426.48V412.67C400.03 412.67 358.6 404.85 330.58 410.89Z" fill="white"/>
<path d="M276.62 431.71C276.62 431.71 275.08 418.59 309.7 415.29C309.7 415.29 299.63 411.65 296.56 407.29C296.3 406.911 296.151 406.467 296.13 406.008C296.109 405.549 296.217 405.094 296.442 404.693C296.667 404.292 296.999 403.962 297.402 403.741C297.805 403.52 298.261 403.415 298.72 403.44C303.4 403.65 314.2 404.86 330.58 410.85C330.58 410.85 332.4 413.97 331.49 419.85C331.49 419.87 298.6 421.82 276.62 431.71Z" fill="#005048"/>
<path opacity="0.2" d="M276.62 431.71C276.62 431.71 275.08 418.59 309.7 415.29C309.7 415.29 299.63 411.65 296.56 407.29C296.3 406.911 296.151 406.467 296.13 406.008C296.109 405.549 296.217 405.094 296.442 404.693C296.667 404.292 296.999 403.962 297.402 403.741C297.805 403.52 298.261 403.415 298.72 403.44C303.4 403.65 314.2 404.86 330.58 410.85C330.58 410.85 332.4 413.97 331.49 419.85C331.49 419.87 298.6 421.82 276.62 431.71Z" fill="white"/>
<path opacity="0.4" d="M462.2 310.2L450.2 328.37C447.672 332.248 444.627 335.764 441.15 338.82C429.46 349.03 426.33 341.92 426.33 341.92L442.85 309.36C442.85 309.36 450.8 309.27 462.2 310.2Z" fill="white"/>
<path d="M596 330.67C596 330.67 583.36 327.92 578.42 333.42C573.703 332.819 569.386 330.462 566.33 326.82C566.33 326.82 558.63 319.68 561.38 313.09C561.38 313.09 555.38 311.44 556.99 303.2C555.274 303.011 553.665 302.272 552.403 301.094C551.141 299.915 550.295 298.36 549.99 296.66C549.707 295.194 549.653 293.693 549.83 292.21C548.574 291.331 547.612 290.094 547.07 288.66C546.12 286.26 546 282.56 549.28 277.37C549.28 277.37 551.48 270.23 561.37 273.52C561.37 273.52 567.37 255.94 584.45 265.83C584.45 265.83 608.63 278.47 607.53 304.83C607.52 304.84 616.86 320.78 596 330.67Z" fill="#005048"/>
<path opacity="0.3" d="M596 330.67C596 330.67 583.36 327.92 578.42 333.42C573.703 332.819 569.386 330.462 566.33 326.82C566.33 326.82 558.63 319.68 561.38 313.09C561.38 313.09 555.38 311.44 556.99 303.2C555.274 303.011 553.665 302.272 552.403 301.094C551.141 299.915 550.295 298.36 549.99 296.66C549.707 295.194 549.653 293.693 549.83 292.21C548.574 291.331 547.612 290.094 547.07 288.66C546.12 286.26 546 282.56 549.28 277.37C549.28 277.37 551.48 270.23 561.37 273.52C561.37 273.52 567.37 255.94 584.45 265.83C584.45 265.83 608.63 278.47 607.53 304.83C607.52 304.84 616.86 320.78 596 330.67Z" fill="white"/>
<path opacity="0.3" d="M596 330.67C596 330.67 583.36 327.92 578.42 333.42C573.703 332.819 569.386 330.463 566.33 326.82C566.33 326.82 558.63 319.68 561.38 313.09C561.38 313.09 577.32 326.27 594.38 319.68C597.623 318.472 600.521 316.487 602.821 313.901C605.12 311.314 606.751 308.203 607.57 304.84C607.57 304.84 616.86 320.78 596 330.67Z" fill="white"/>
<path d="M547.51 293.24C545.766 297.531 543.535 301.608 540.86 305.39C538.245 309.006 536.263 313.04 535 317.32C531.55 329.1 530.25 348.53 560.31 346.61L569.1 360.34L587.24 352.1L580.64 336.17L566.91 335.62L562 320.23C562 320.23 559.76 318.03 561.41 313.09C561.41 313.09 555.41 311.44 557.02 303.2C555.361 302.868 553.827 302.08 552.591 300.924C551.355 299.769 550.464 298.293 550.02 296.66C549.37 295.394 548.523 294.239 547.51 293.24Z" fill="#F9B499"/>
<path d="M563.25 338.27C560.468 340.97 557.151 343.058 553.514 344.399C549.877 345.741 545.999 346.306 542.13 346.06C530.48 343.56 530.13 328.15 530.71 320.81C530.918 317.698 532.018 314.712 533.88 312.21C534.336 311.581 534.862 311.007 535.45 310.5C537.39 308.87 538.55 309.66 538.55 309.66C548.71 320.53 559.19 322.83 559.19 322.83L560.28 327L563.25 338.27Z" fill="#005048"/>
<path opacity="0.2" d="M560.28 327C543.73 322.33 537.57 314.42 535.45 310.5C537.39 308.87 538.55 309.66 538.55 309.66C548.71 320.53 559.19 322.83 559.19 322.83L560.28 327Z" fill="black"/>
<path d="M555.61 321.85C555.61 321.85 556.61 314.74 559.51 312.26L561.36 313.09C560.944 314.413 560.81 315.81 560.969 317.188C561.127 318.566 561.574 319.896 562.28 321.09C561.055 321.257 559.944 321.9 559.19 322.88L555.61 321.85Z" fill="#2F2E41"/>
<path d="M409.32 552.66H309.15V611.45H409.32V552.66Z" fill="#005048"/>
<path d="M414.81 623.21H305.46V656.18H414.81V623.21Z" fill="#005048"/>
<path d="M317.15 606.72H402C407.57 606.72 412.911 608.932 416.849 612.871C420.788 616.809 423 622.15 423 627.72V630.87H296.12V627.72C296.12 624.96 296.664 622.227 297.721 619.677C298.779 617.127 300.328 614.811 302.281 612.86C304.235 610.91 306.553 609.364 309.104 608.31C311.656 607.256 314.39 606.716 317.15 606.72Z" fill="#005048"/>
<path opacity="0.2" d="M317.15 606.72H402C407.57 606.72 412.911 608.932 416.849 612.871C420.788 616.809 423 622.15 423 627.72V630.87H296.12V627.72C296.12 624.96 296.664 622.227 297.721 619.677C298.779 617.127 300.328 614.811 302.281 612.86C304.235 610.91 306.553 609.364 309.104 608.31C311.656 607.256 314.39 606.716 317.15 606.72Z" fill="black"/>
<path d="M440.64 565.51L445.78 656.51L527.29 656.18V578.28L440.64 565.51Z" fill="#2F2E41"/>
<path opacity="0.2" d="M440.64 565.51L445.78 656.51L527.29 656.18V578.28L440.64 565.51Z" fill="black"/>
<path d="M509.16 577.36C509.16 577.36 523.83 627.6 536.36 656.18H595.43L600.92 573L509.16 577.36Z" fill="#2F2E41"/>
<path opacity="0.3" d="M358.37 552.66C358.37 552.66 381.84 571.01 381.29 592.44V606.72C381.29 606.72 398.01 613.44 391.84 656.51H414.84V630.9H423.08C423.08 630.9 424.68 612.64 409.32 608.03V552.66H358.37Z" fill="white"/>
<path d="M248.345 264.382C258.131 259.834 263.933 251.562 261.305 245.908C258.677 240.254 248.613 239.357 238.827 243.906C229.041 248.455 223.238 256.726 225.867 262.381C228.495 268.035 238.559 268.931 248.345 264.382Z" fill="white"/>
<path d="M292.825 243.833C302.236 239.459 307.894 231.674 305.464 226.446C303.033 221.217 293.434 220.524 284.024 224.899C274.613 229.273 268.955 237.057 271.385 242.286C273.816 247.515 283.415 248.207 292.825 243.833Z" fill="white"/>
<path d="M317.902 263.719C327.198 259.398 332.857 251.86 330.543 246.882C328.229 241.904 318.818 241.371 309.523 245.691C300.227 250.012 294.568 257.55 296.882 262.528C299.196 267.506 308.607 268.039 317.902 263.719Z" fill="white"/>
<path d="M290.933 294.463C299.597 290.435 304.745 283.135 302.431 278.157C300.117 273.178 291.217 272.408 282.553 276.435C273.889 280.462 268.741 287.763 271.055 292.741C273.369 297.719 282.268 298.49 290.933 294.463Z" fill="white"/>
<path d="M248.549 295.636C257.779 291.346 263.386 283.832 261.072 278.854C258.758 273.876 249.399 273.318 240.169 277.609C230.939 281.899 225.332 289.413 227.646 294.391C229.96 299.369 239.319 299.927 248.549 295.636Z" fill="white"/>
<path d="M331.67 234.38C331.008 233.111 330.221 231.912 329.32 230.8C323.45 223.66 310.12 214.53 281.56 219.95C264.017 223.204 247.579 230.833 233.77 242.13C220.57 253 208 269 215.12 287.07C214.9 286.97 208.48 284.01 205.66 270.99C205.36 269.64 205.11 268.18 204.91 266.59C204.91 266.59 203.81 234.72 251.06 212.74C251.06 212.74 290.54 196.41 315.84 209.07C320.131 211.211 323.825 214.382 326.59 218.3C328.957 221.642 330.564 225.461 331.3 229.49C331.613 231.1 331.737 232.741 331.67 234.38Z" fill="#3F4347"/>
<path d="M326.59 218.3C323.825 214.382 320.131 211.211 315.84 209.07C290.54 196.41 251.06 212.74 251.06 212.74C203.81 234.74 204.91 266.59 204.91 266.59C205.11 268.18 205.36 269.64 205.66 270.99C205.66 270.99 194.87 261.74 205.66 238.61C205.66 238.61 229.29 192.46 291.52 195.12C299.069 195.397 306.439 197.497 313 201.24C319.1 204.81 325.3 210.31 326.59 218.3Z" fill="#2E3135"/>
<path d="M418.22 332L424.54 340.6C424.54 340.6 426.27 343.37 432.74 340.95C437.921 339.024 442.232 335.292 444.88 330.44C446.588 327.279 447.703 323.832 448.17 320.27C448.468 319.157 448.525 317.992 448.335 316.856C448.145 315.719 447.714 314.636 447.07 313.68L442.12 308.18L418.22 332Z" fill="#F7A48B"/>
<path d="M425.612 331.294C439.162 327.334 446.286 310.914 441.524 294.618C436.762 278.323 421.917 268.322 408.367 272.282C394.818 276.241 387.694 292.662 392.456 308.957C397.218 325.253 412.063 335.253 425.612 331.294Z" fill="#F9B499"/>
<path d="M430.58 302.65L443.77 290.01" stroke="white" stroke-miterlimit="10"/>
<path d="M436.08 324.63L447.07 305.94" stroke="white" stroke-miterlimit="10"/>
<path d="M445.97 307.04C450.521 307.04 454.21 302.245 454.21 296.33C454.21 290.415 450.521 285.62 445.97 285.62C441.419 285.62 437.73 290.415 437.73 296.33C437.73 302.245 441.419 307.04 445.97 307.04Z" fill="#F9B499"/>
<path d="M450.67 287.37C450.67 287.37 440.39 282.66 441.53 294.57C443.13 300.79 440.47 301 440.47 301C435.53 302.65 434.98 292.76 434.98 292.76C422.89 293.85 415.75 279 415.75 279L408.6 278.45C408.6 278.45 406.6 286.59 393.04 288.57C393.04 288.57 383.33 298.23 376.19 286.69L378.93 285.59C378.93 285.59 375.33 283.43 376.88 278.25C377.343 276.753 378.035 275.336 378.93 274.05C378.93 274.05 391.57 258.67 420.14 258.12C420.14 258.14 454.82 254 450.67 287.37Z" fill="#2F2E41"/>
<path opacity="0.2" d="M408.6 278.47C408.6 278.47 406.6 286.61 393.04 288.59C393.04 288.59 383.33 298.25 376.19 286.71L378.93 285.61C378.93 285.61 375.33 283.45 376.88 278.27C379.53 282.27 383.88 286.68 389.37 285.06C389.37 285.06 389.82 281.95 389.5 281.33C390.59 281.78 397.08 283.27 408.6 278.47Z" fill="black"/>
<path d="M450.94 275.23C450.94 275.23 419.59 259.23 384.43 270.78L384.98 267.68L387.18 255.39C387.18 255.39 389.92 244.95 403.11 243.3C403.11 243.3 416.7 239.77 430.5 243.03C436.674 244.364 442.389 247.299 447.07 251.54C447.07 251.54 450.92 255.39 450.92 267.48L450.94 275.23Z" fill="#005048"/>
<path opacity="0.2" d="M450.94 275.23C450.94 275.23 419.59 259.23 384.43 270.78L384.98 267.68C393.2 260.87 415.75 260.34 415.75 260.34C446.52 257.04 430.42 243.17 430.42 243.17L430.5 243.03C436.674 244.364 442.389 247.299 447.07 251.54C447.07 251.54 450.92 255.39 450.92 267.48L450.94 275.23Z" fill="black"/>
<path d="M430.58 302.65C430.58 302.65 401.34 297.89 394.26 313.46C394.26 313.46 408.33 352.7 436.08 324.63C436.08 324.63 433.33 320.23 430.58 302.65Z" fill="#005048"/>
<path d="M151.17 497.71C172.869 497.71 190.46 486.025 190.46 471.61C190.46 457.195 172.869 445.51 151.17 445.51C129.471 445.51 111.88 457.195 111.88 471.61C111.88 486.025 129.471 497.71 151.17 497.71Z" fill="#F9B499"/>
<path d="M130.42 438.66C130.42 438.66 143.2 430.66 151.17 445.51C146.322 445.664 141.504 446.318 136.79 447.46C136.79 447.46 136.87 442.25 130.42 438.66Z" fill="#2F2E41"/>
<path d="M158.93 445.64L168.48 466.94L190.48 467.47C191.467 464.71 191.836 461.768 191.56 458.85C191.199 455.288 189.601 451.965 187.043 449.46C184.485 446.955 181.129 445.426 177.56 445.14C171.348 444.736 165.112 444.903 158.93 445.64Z" fill="#005048"/>
<path d="M145.13 511.45C151.349 511.45 156.39 507.761 156.39 503.21C156.39 498.659 151.349 494.97 145.13 494.97C138.911 494.97 133.87 498.659 133.87 503.21C133.87 507.761 138.911 511.45 145.13 511.45Z" fill="#F9B499"/>
<path d="M152 496.59C149.976 495.622 147.778 495.07 145.537 494.965C143.295 494.861 141.056 495.206 138.95 495.98C138.51 500.85 136.1 502.66 136.1 502.66C142.15 518.59 125.66 518.04 125.66 518.04C123.878 518.146 122.093 517.895 120.41 517.3C112.47 514.3 112.47 503.76 112.47 503.76C89.4 502.11 98.19 482.88 98.19 482.88C89.4 467.49 100.93 458.15 100.93 458.15C105.93 435.07 119.07 435.62 119.07 435.62C122.347 435.014 125.732 435.562 128.65 437.17C130.362 438.097 131.935 439.262 133.32 440.63C135.254 442.534 136.573 444.974 137.108 447.635C137.642 450.296 137.368 453.056 136.32 455.56C134.532 459.622 132.244 463.445 129.51 466.94C139.95 471.34 132.8 479.03 132.8 479.03C140.5 477.93 142.15 481.23 142.15 481.23C144.34 486.17 141.05 491.67 141.05 491.67C152 490 152 496.59 152 496.59Z" fill="#2F2E41"/>
<path opacity="0.2" d="M152 496.59C149.976 495.622 147.778 495.07 145.537 494.965C143.295 494.861 141.056 495.206 138.95 495.98C138.51 500.85 136.1 502.66 136.1 502.66C142.15 518.59 125.66 518.04 125.66 518.04C123.878 518.146 122.093 517.895 120.41 517.3C120.363 515.503 120.768 513.723 121.59 512.124C122.411 510.525 123.622 509.158 125.11 508.15C119.11 499.36 124.01 493.32 124.01 493.32C135.55 481.78 120.72 471.32 120.72 471.32C110.83 461.43 122.36 449.89 122.36 449.89C130.36 444.56 128.75 437.56 128.65 437.15C130.362 438.077 131.935 439.242 133.32 440.61C135.254 442.514 136.573 444.954 137.108 447.615C137.642 450.276 137.368 453.036 136.32 455.54C134.532 459.602 132.244 463.425 129.51 466.92C139.95 471.32 132.8 479.01 132.8 479.01C140.5 477.91 142.15 481.21 142.15 481.21C144.34 486.15 141.05 491.65 141.05 491.65C152 490 152 496.59 152 496.59Z" fill="black"/>
<path d="M618 451.56L617 475.1L613 577.94C547.61 607.06 450.91 570.79 450.91 570.79L408.6 560.9C368.49 550.46 313.54 580.68 313.54 580.68C272.33 598.27 219.03 581.78 219.03 581.78C218.48 568.6 225.08 552.66 225.08 552.66C230.57 530.66 218.48 506.5 218.48 506.5C217.009 502.613 215.91 498.595 215.2 494.5C213.804 486.308 213.248 477.995 213.54 469.69C211.34 449.91 229.47 446.06 229.47 446.06C239.42 443.48 245.91 443.37 249.11 443.58C250.713 443.694 252.31 443.283 253.66 442.41C287.92 420.26 317.94 420.79 317.94 420.79C343.18 417.88 373.25 421.33 400.03 426.46C424.138 431.129 447.926 437.321 471.25 445C553.12 467.53 586.09 459.84 586.09 459.84L596.85 457L618 451.56Z" fill="#005048"/>
<path opacity="0.2" d="M617 475.1L613 577.94C547.61 607.06 450.91 570.79 450.91 570.79L408.6 560.9C368.49 550.46 313.54 580.68 313.54 580.68C272.33 598.27 219.03 581.78 219.03 581.78C218.48 568.6 225.08 552.66 225.08 552.66C230.57 530.66 218.48 506.5 218.48 506.5C217.009 502.613 215.91 498.595 215.2 494.5C237.5 498.02 281.65 499 351.46 475.73C351.46 475.73 385.53 464.19 446.52 468.04C446.52 468 578.16 489.5 617 475.1Z" fill="black"/>
<path d="M643.23 357.05C643.23 357.05 704.23 404.85 697.63 423.53C697.63 423.53 694.97 432.06 689.71 437.69C689.71 437.69 654.22 369.13 643.23 357.05Z" fill="#005048"/>
<path opacity="0.4" d="M643.23 357.05C643.23 357.05 704.23 404.85 697.63 423.53C697.63 423.53 694.97 432.06 689.71 437.69C689.71 437.69 654.22 369.13 643.23 357.05Z" fill="white"/>
<path d="M475.63 454.26H469.63C469.63 454.26 456.99 447.12 447.1 447.12L435 445.51C435 445.51 431.15 449.91 444.89 452.66C444.89 452.66 450.39 453.75 448.74 456.5C448.74 456.5 442.69 460.9 436.1 460.35C436.1 460.35 426.72 457.82 422 458.03C421.748 458.044 421.505 458.13 421.301 458.278C421.096 458.427 420.939 458.631 420.848 458.867C420.758 459.102 420.737 459.359 420.788 459.606C420.84 459.854 420.962 460.081 421.14 460.26C425.14 464.2 436.14 474.37 444.86 475.61C445.81 475.738 446.775 475.694 447.71 475.48C451.16 474.74 461.59 472.4 470.17 469.69C470.17 469.69 474.68 467.91 477.1 468.25L475.63 454.26Z" fill="#F9B499"/>
<path d="M715.22 490C669.62 487.76 624.75 513.89 609.61 523.72C606.13 525.97 604.22 527.37 604.22 527.37C592.68 501.54 586.09 459.78 586.09 459.78L571.25 446.59C552.57 476.81 514.11 478.46 514.11 478.46C478.39 481.76 477.29 470.22 477.29 470.22L477.08 468.22L475.64 454.82C477.29 438.89 495.42 438.89 495.42 438.89C514.11 435.65 525.28 432.18 530.77 430.17C532.069 429.694 533.245 428.934 534.214 427.946C535.182 426.959 535.919 425.768 536.37 424.46L548.72 388.89C555.32 360.31 581.14 351.52 581.14 351.52C610.81 331.74 643.23 357.02 643.23 357.02C666.31 386.72 715.22 490 715.22 490Z" fill="#005048"/>
<path opacity="0.3" d="M715.22 490C669.62 487.76 624.75 513.89 609.61 523.72C606.13 525.97 604.22 527.37 604.22 527.37C592.68 501.54 586.09 459.78 586.09 459.78L571.25 446.59C552.57 476.81 514.11 478.46 514.11 478.46C478.39 481.76 477.29 470.22 477.29 470.22L477.08 468.22L475.64 454.82C477.29 438.89 495.42 438.89 495.42 438.89C514.11 435.65 525.28 432.18 530.77 430.17C532.069 429.694 533.245 428.934 534.214 427.946C535.182 426.959 535.919 425.768 536.37 424.46L548.72 388.89C555.32 360.31 581.14 351.52 581.14 351.52C610.81 331.74 643.23 357.02 643.23 357.02C666.31 386.72 715.22 490 715.22 490Z" fill="white"/>
<path d="M737.2 656L669.06 656.55L674.45 494.55C674.45 494.55 700.45 488.1 711.69 489.89C711.69 489.87 735.55 542.77 737.2 656Z" fill="#005048"/>
<path opacity="0.4" d="M737.2 656L669.06 656.55L674.45 494.55C674.45 494.55 700.45 488.1 711.69 489.89C711.69 489.87 735.55 542.77 737.2 656Z" fill="white"/>
<path opacity="0.3" d="M609.61 523.74C606.13 525.99 604.22 527.39 604.22 527.39C592.68 501.56 586.09 459.8 586.09 459.8L571.25 446.61C552.57 476.83 514.11 478.48 514.11 478.48C478.39 481.78 477.29 470.24 477.29 470.24L477.08 468.24C491.48 472.24 539.77 481.32 568.5 434.51C568.5 434.51 593.78 448.25 598.73 463.64L609.61 523.74Z" fill="white"/>
<path d="M604.22 527.39L584.88 656.45L669.06 656.51C669.06 656.51 693.8 535.07 685.83 491.94C685.83 491.94 651.48 496.61 604.22 527.39Z" fill="#005048"/>
<path opacity="0.5" d="M604.22 527.39L584.88 656.45L669.06 656.51C669.06 656.51 693.8 535.07 685.83 491.94C685.83 491.94 651.48 496.61 604.22 527.39Z" fill="white"/>
<path d="M567.486 332.237C570.955 327.968 571.562 322.714 568.84 320.503C566.118 318.291 561.1 319.958 557.631 324.227C554.161 328.496 553.555 333.75 556.277 335.961C558.998 338.173 564.017 336.506 567.486 332.237Z" fill="#F9B499"/>
<path d="M578.4 333.42C584.4 327.92 595.98 330.67 595.98 330.67C604.77 336.17 601.47 344.41 601.47 344.41C593.67 344.34 581.14 351.55 581.14 351.55C572.9 350.45 572.35 342.21 572.35 342.21C562.46 344.41 562.35 335.55 562.35 335.55C562.35 335.55 566.35 335.36 568.94 329.55C570.497 330.839 572.262 331.853 574.16 332.55C575.522 333.051 576.951 333.344 578.4 333.42Z" fill="#2F2E41"/>
<path d="M550 296.66H549.95C545.11 294.52 547.02 288.66 547.02 288.66H547.08C547.623 290.094 548.584 291.331 549.84 292.21C549.663 293.693 549.717 295.194 550 296.66Z" fill="#2F2E41"/>
</g>
<defs>
<filter id="filter0_d_499_36553" x="-4" y="0" width="873.76" height="690.89" filterUnits="userSpaceOnUse" color-interpolation-filters="sRGB">
<feFlood flood-opacity="0" result="BackgroundImageFix"/>
<feColorMatrix in="SourceAlpha" type="matrix" values="0 0 0 0 0 0 0 0 0 0 0 0 0 0 0 0 0 0 127 0" result="hardAlpha"/>
<feOffset dy="4"/>
<feGaussianBlur stdDeviation="2"/>
<feComposite in2="hardAlpha" operator="out"/>
<feColorMatrix type="matrix" values="0 0 0 0 0 0 0 0 0 0 0 0 0 0 0 0 0 0 0.25 0"/>
<feBlend mode="normal" in2="BackgroundImageFix" result="effect1_dropShadow_499_36553"/>
<feBlend mode="normal" in="SourceGraphic" in2="effect1_dropShadow_499_36553" result="shape"/>
</filter>
</defs>
</svg>
