<svg width="866" height="683" viewBox="0 0 866 683" fill="none" xmlns="http://www.w3.org/2000/svg">
<path d="M723 52.8C713.8 52.8 558.7 53.8 549 53.51C548.837 53.5058 548.68 53.4496 548.552 53.3495C548.424 53.2495 548.331 53.1109 548.287 52.9542C548.244 52.7975 548.252 52.6309 548.31 52.4789C548.368 52.327 548.473 52.1977 548.61 52.11C554.77 49.11 561.73 49.69 568.11 47.54C571.88 46.25 574.18 43.82 576.79 41C578.948 38.5439 581.735 36.7221 584.85 35.73C587.708 34.8683 590.743 34.7718 593.65 35.45C596.79 36.2 599.52 38.01 602.53 39.14C609.98 41.95 617.22 39.28 622.53 33.77C626.93 29.22 631.23 24.93 637.19 22.49C639.627 21.3894 642.264 20.8019 644.937 20.764C647.611 20.7262 650.263 21.2388 652.73 22.27C658.42 24.83 662.33 30.04 667.67 33.15C674.01 36.86 681.59 35.97 688.57 37.09C695.55 38.21 700.94 44.09 707.08 47.5C709.079 48.7786 711.388 49.4906 713.76 49.56C715.13 49.44 716.49 49.25 717.84 49C719.96 48.73 721.95 48.79 723.38 50.55C723.63 51 723.57 52.8 723 52.8Z" fill="#EBEBEB"/>
<path d="M358.53 184.15C349.31 184.15 194.21 185.15 184.47 184.87C183.78 184.87 183.39 183.82 184.09 183.47C190.24 180.47 197.23 181 203.64 178.88C207.39 177.6 209.7 175.16 212.3 172.34C214.471 169.889 217.262 168.069 220.38 167.07C223.233 166.217 226.26 166.123 229.16 166.8C232.3 167.55 235.04 169.37 238.04 170.48C245.49 173.3 252.73 170.62 258.04 165.11C262.43 160.57 266.74 156.28 272.71 153.83C275.144 152.73 277.779 152.145 280.449 152.11C283.12 152.076 285.769 152.593 288.23 153.63C293.92 156.19 297.83 161.32 303.18 164.5C309.51 168.2 317.09 167.33 324.08 168.45C331.07 169.57 336.45 175.45 342.59 178.84C344.588 180.132 346.902 180.852 349.28 180.92C350.644 180.81 352 180.616 353.34 180.34C355.46 180.09 357.46 180.14 358.88 181.91C359.2 182.28 359.13 184.15 358.53 184.15Z" fill="#EBEBEB"/>
<path d="M425.86 134.46C419.13 134.46 305.86 135.21 298.78 134.97C298.666 134.963 298.557 134.92 298.469 134.849C298.38 134.777 298.316 134.679 298.285 134.569C298.254 134.46 298.258 134.343 298.297 134.235C298.335 134.128 298.406 134.035 298.5 133.97C302.99 131.75 308.07 132.19 312.74 130.63C315.48 129.7 317.16 127.91 319.06 125.84C320.655 124.045 322.708 122.718 325 122C327.083 121.378 329.293 121.312 331.41 121.81C333.7 122.35 335.69 123.67 337.82 124.5C343.26 126.55 348.55 124.6 352.43 120.58C355.64 117.26 358.84 114.17 363.13 112.33C364.911 111.53 366.837 111.104 368.789 111.078C370.742 111.052 372.679 111.427 374.48 112.18C378.63 114.06 381.48 117.85 385.39 120.18C390 122.87 395.54 122.24 400.64 123.05C405.74 123.86 409.64 128.18 414.15 130.65C415.607 131.56 417.282 132.061 419 132.1C420.007 132.012 421.008 131.871 422 131.68C423.54 131.49 425 131.53 426 132.82C426.34 133.13 426.29 134.46 425.86 134.46Z" fill="#EBEBEB"/>
<path d="M676.55 116.9C669.82 116.9 556.55 117.64 549.47 117.41C549.398 117.407 549.327 117.391 549.261 117.361C549.195 117.331 549.136 117.288 549.087 117.235C549.038 117.182 548.999 117.12 548.974 117.052C548.949 116.984 548.937 116.912 548.94 116.84C548.944 116.752 548.969 116.667 549.013 116.59C549.056 116.514 549.117 116.449 549.19 116.4C553.68 114.18 558.77 114.62 563.43 113.05C566.18 112.13 567.86 110.34 569.77 108.27C571.344 106.479 573.377 105.151 575.65 104.43C577.733 103.809 579.942 103.74 582.06 104.23C584.35 104.77 586.35 106.09 588.55 106.93C593.98 108.93 599.26 107.03 603.15 103C606.35 99.68 609.56 96.59 613.85 94.76C615.63 93.9569 617.557 93.5292 619.509 93.5034C621.462 93.4776 623.399 93.8543 625.2 94.61C629.35 96.49 632.2 100.27 636.1 102.61C640.73 105.3 646.26 104.67 651.36 105.48C656.46 106.29 660.36 110.6 664.87 113.08C666.336 114.011 668.024 114.533 669.76 114.59C670.767 114.505 671.769 114.365 672.76 114.17C674.3 113.98 675.76 114.01 676.76 115.31C677 115.62 677 116.9 676.55 116.9Z" fill="#EBEBEB"/>
<path d="M354.81 47.68C348.08 47.68 234.81 48.42 227.74 48.2C227.667 48.2 227.595 48.1854 227.529 48.1571C227.462 48.1287 227.401 48.0871 227.351 48.0348C227.301 47.9825 227.261 47.9206 227.235 47.8528C227.209 47.7849 227.197 47.7126 227.2 47.64C227.199 47.5461 227.224 47.4537 227.272 47.3727C227.319 47.2917 227.388 47.2251 227.47 47.18C232 45 237 45.41 241.7 43.83C244.44 42.91 246.13 41.11 248.03 39.06C249.606 37.2617 251.648 35.933 253.93 35.22C256.01 34.581 258.223 34.5085 260.34 35.01C262.554 35.7712 264.718 36.6696 266.82 37.7C272.26 39.7 277.55 37.81 281.44 33.78C284.63 30.46 287.85 27.37 292.14 25.55C293.92 24.749 295.846 24.3207 297.797 24.2915C299.749 24.2622 301.687 24.6327 303.49 25.38C307.64 27.27 310.49 31.05 314.38 33.38C319 36 324.53 35.4 329.65 36.2C334.77 37 338.65 41.33 343.16 43.8C344.609 44.7301 346.28 45.255 348 45.32C349 45.22 350 45.06 351 44.86C351.708 44.6728 352.453 44.6798 353.157 44.8804C353.861 45.0811 354.497 45.4678 355 46C355.31 46.3 355.26 47.68 354.81 47.68Z" fill="#EBEBEB"/>
<path d="M204 272.31C203.26 272 202.94 273.2 203.67 273.5C204.609 273.873 205.373 274.587 205.807 275.5C206.241 276.413 206.314 277.456 206.01 278.42C205.983 278.574 206.015 278.733 206.1 278.865C206.184 278.997 206.314 279.093 206.465 279.135C206.616 279.176 206.777 279.159 206.917 279.088C207.056 279.017 207.164 278.896 207.22 278.75C207.59 277.468 207.465 276.094 206.868 274.901C206.272 273.708 205.248 272.783 204 272.31Z" fill="#EBEBEB"/>
<path d="M209.46 271.14C208.681 272.862 208.43 274.776 208.74 276.64C208.87 277.43 210.02 277.09 209.93 276.31C209.69 274.77 209.899 273.194 210.53 271.77C210.85 271.05 209.78 270.41 209.46 271.14Z" fill="#EBEBEB"/>
<path d="M604 285.61C603.26 285.31 602.94 286.5 603.67 286.81C604.602 287.18 605.361 287.888 605.797 288.792C606.232 289.696 606.312 290.73 606.02 291.69C605.976 291.849 605.997 292.019 606.079 292.163C606.161 292.306 606.296 292.411 606.455 292.455C606.614 292.499 606.784 292.477 606.928 292.396C607.071 292.314 607.176 292.179 607.22 292.02C607.58 290.742 607.449 289.377 606.853 288.191C606.257 287.005 605.24 286.084 604 285.61Z" fill="#EBEBEB"/>
<path d="M609.48 284.45C608.683 286.17 608.418 288.089 608.72 289.96C608.84 290.74 610 290.41 609.91 289.63C609.666 288.09 609.879 286.512 610.52 285.09C610.88 284.34 609.8 283.72 609.48 284.45Z" fill="#EBEBEB"/>
<path d="M192.86 541.79C192.11 541.5 191.79 542.69 192.52 543C193.454 543.369 194.215 544.075 194.653 544.979C195.09 545.883 195.171 546.919 194.88 547.88C194.859 547.959 194.853 548.041 194.864 548.122C194.875 548.203 194.901 548.281 194.942 548.351C194.983 548.422 195.038 548.484 195.102 548.533C195.167 548.583 195.241 548.619 195.32 548.64C195.398 548.661 195.48 548.666 195.56 548.656C195.64 548.645 195.717 548.618 195.787 548.577C195.857 548.536 195.918 548.482 195.966 548.417C196.015 548.352 196.05 548.279 196.07 548.2C196.433 546.924 196.304 545.558 195.71 544.372C195.116 543.185 194.099 542.264 192.86 541.79Z" fill="#EBEBEB"/>
<path d="M198.29 540.64C197.52 542.364 197.27 544.276 197.57 546.14C197.7 546.92 198.85 546.59 198.78 545.8C198.532 544.265 198.737 542.691 199.37 541.27C199.69 540.54 198.62 539.93 198.29 540.64Z" fill="#EBEBEB"/>
<path d="M286.64 298.93C285.9 298.64 285.58 299.83 286.31 300.14C287.244 300.509 288.005 301.215 288.443 302.119C288.88 303.023 288.961 304.059 288.67 305.02C288.638 305.101 288.624 305.188 288.628 305.275C288.632 305.363 288.654 305.448 288.693 305.526C288.733 305.604 288.788 305.672 288.856 305.728C288.923 305.783 289.002 305.823 289.086 305.846C289.17 305.868 289.258 305.873 289.345 305.859C289.431 305.845 289.513 305.814 289.586 305.766C289.659 305.718 289.721 305.656 289.768 305.582C289.816 305.509 289.847 305.426 289.86 305.34C290.222 304.062 290.092 302.696 289.496 301.509C288.9 300.323 287.881 299.402 286.64 298.93Z" fill="#EBEBEB"/>
<path d="M292.09 297.82C291.32 299.544 291.07 301.456 291.37 303.32C291.5 304.1 292.65 303.77 292.58 302.98C292.332 301.445 292.537 299.871 293.17 298.45C293.47 297.71 292.41 297.09 292.09 297.82Z" fill="#EBEBEB"/>
<path d="M449.52 271.7C448.82 271.33 448.24 272.41 448.89 272.78C449.569 273.132 450.127 273.679 450.493 274.351C450.858 275.023 451.014 275.789 450.94 276.55C450.94 277.34 452.12 277.34 452.23 276.55C452.302 275.565 452.084 274.581 451.602 273.719C451.12 272.857 450.396 272.155 449.52 271.7Z" fill="#EBEBEB"/>
<path d="M453.23 269.77C452.84 269.06 451.76 269.69 452.15 270.4C453.031 272.022 453.439 273.858 453.33 275.7C453.33 275.87 453.397 276.033 453.517 276.153C453.637 276.273 453.8 276.34 453.97 276.34C454.14 276.34 454.303 276.273 454.423 276.153C454.543 276.033 454.61 275.87 454.61 275.7C454.699 273.635 454.221 271.584 453.23 269.77Z" fill="#EBEBEB"/>
<path d="M456.17 270.59C455.488 271.805 455.211 273.207 455.38 274.59C455.47 275.37 456.66 275.39 456.66 274.59C456.501 273.439 456.719 272.267 457.28 271.25C457.36 271.102 457.38 270.929 457.336 270.767C457.291 270.604 457.185 270.466 457.04 270.38C456.896 270.294 456.725 270.268 456.562 270.308C456.4 270.347 456.259 270.448 456.17 270.59Z" fill="#EBEBEB"/>
<path d="M670.25 571.9C670.107 571.818 669.937 571.796 669.777 571.839C669.618 571.882 669.482 571.987 669.4 572.13C669.318 572.273 669.296 572.443 669.339 572.603C669.382 572.762 669.487 572.898 669.63 572.98C670.307 573.332 670.865 573.877 671.232 574.547C671.599 575.216 671.758 575.98 671.69 576.74C671.63 577.54 672.87 577.53 672.97 576.74C673.038 575.756 672.816 574.774 672.333 573.914C671.85 573.054 671.126 572.354 670.25 571.9Z" fill="#EBEBEB"/>
<path d="M673.9 570C673.51 569.29 672.45 569.92 672.82 570.62C673.691 572.238 674.099 574.065 674 575.9C674 576.7 675.19 576.7 675.28 575.9C675.362 573.845 674.885 571.806 673.9 570Z" fill="#EBEBEB"/>
<path d="M676.78 570.79C676.085 572 675.807 573.406 675.99 574.79C676.09 575.58 677.27 575.58 677.27 574.79C677.113 573.643 677.326 572.476 677.88 571.46C678.24 570.7 677.16 570.08 676.78 570.79Z" fill="#EBEBEB"/>
<path d="M707.43 324.57C707.289 324.51 707.13 324.503 706.985 324.551C706.839 324.599 706.716 324.699 706.638 324.832C706.561 324.965 706.535 325.121 706.564 325.272C706.594 325.422 706.678 325.557 706.8 325.65C707.475 326.002 708.03 326.546 708.395 327.213C708.76 327.881 708.918 328.642 708.85 329.4C708.79 330.2 710.03 330.2 710.14 329.4C710.215 328.417 709.997 327.435 709.515 326.576C709.033 325.716 708.307 325.018 707.43 324.57Z" fill="#EBEBEB"/>
<path d="M711.07 322.56C710.69 321.85 709.61 322.48 709.99 323.19C710.868 324.82 711.277 326.662 711.17 328.51C711.17 329.3 712.37 329.3 712.46 328.51C712.551 326.437 712.07 324.378 711.07 322.56Z" fill="#EBEBEB"/>
<path d="M714 323.39C713.302 324.6 713.021 326.005 713.2 327.39C713.29 328.17 714.48 328.19 714.48 327.39C714.321 326.242 714.538 325.073 715.1 324.06C715.42 323.29 714.34 322.69 714 323.39Z" fill="#EBEBEB"/>
<path d="M518.71 437.15C518.785 437.117 518.867 437.1 518.949 437.098C519.031 437.097 519.113 437.113 519.189 437.143C519.265 437.174 519.335 437.22 519.393 437.277C519.452 437.335 519.498 437.404 519.53 437.48C519.583 437.61 519.593 437.753 519.557 437.889C519.521 438.024 519.441 438.144 519.33 438.23C518.518 438.696 517.853 439.381 517.411 440.207C516.969 441.032 516.768 441.966 516.83 442.9C516.83 443.71 515.63 443.7 515.55 442.9C515.494 441.743 515.76 440.594 516.318 439.579C516.876 438.564 517.704 437.723 518.71 437.15Z" fill="#EBEBEB"/>
<path d="M514.16 440.12L514.58 442.62C514.72 443.4 513.51 443.75 513.39 442.96C513.27 442.17 513.09 441.29 512.95 440.39C512.931 440.31 512.927 440.227 512.94 440.145C512.953 440.064 512.982 439.986 513.026 439.916C513.069 439.846 513.126 439.785 513.194 439.737C513.261 439.69 513.337 439.656 513.417 439.638C513.498 439.62 513.581 439.618 513.662 439.633C513.743 439.647 513.821 439.678 513.89 439.723C513.959 439.768 514.019 439.826 514.065 439.894C514.111 439.962 514.144 440.039 514.16 440.12Z" fill="#EBEBEB"/>
<path d="M229.7 396.15C229.559 396.09 229.4 396.083 229.255 396.131C229.109 396.179 228.986 396.279 228.908 396.412C228.831 396.544 228.805 396.701 228.834 396.851C228.864 397.002 228.948 397.137 229.07 397.23C229.895 397.689 230.573 398.372 231.026 399.2C231.479 400.028 231.689 400.968 231.63 401.91C231.63 402.7 232.84 402.7 232.92 401.91C232.967 400.746 232.691 399.592 232.123 398.575C231.555 397.559 230.716 396.719 229.7 396.15Z" fill="#EBEBEB"/>
<path d="M234.25 399.13L233.83 401.63C233.68 402.41 234.89 402.74 235.02 401.96C235.15 401.18 235.3 400.29 235.45 399.46C235.6 398.63 234.4 398.33 234.25 399.13Z" fill="#EBEBEB"/>
<path d="M275.42 329.26C274.82 328.76 273.94 329.63 274.55 330.15C275.271 330.728 275.842 331.472 276.215 332.318C276.587 333.164 276.75 334.088 276.69 335.01C276.69 335.18 276.757 335.343 276.877 335.463C276.997 335.583 277.16 335.65 277.33 335.65C277.5 335.65 277.663 335.583 277.783 335.463C277.903 335.343 277.97 335.18 277.97 335.01C278.029 333.918 277.829 332.828 277.386 331.829C276.943 330.829 276.269 329.949 275.42 329.26Z" fill="#EBEBEB"/>
<path d="M418.18 453.3C417.56 452.8 416.68 453.67 417.29 454.19C418.016 454.768 418.591 455.512 418.967 456.36C419.343 457.208 419.509 458.134 419.45 459.06C419.45 459.85 420.65 459.85 420.73 459.06C420.785 457.967 420.582 456.877 420.14 455.877C419.697 454.877 419.026 453.994 418.18 453.3Z" fill="#EBEBEB"/>
<path d="M605.86 359.3C606.48 358.79 607.36 359.67 606.75 360.17C606.032 360.745 605.462 361.484 605.088 362.324C604.714 363.164 604.547 364.082 604.6 365C604.6 365.81 603.39 365.8 603.31 365C603.258 363.916 603.461 362.836 603.904 361.846C604.347 360.855 605.017 359.983 605.86 359.3Z" fill="#EBEBEB"/>
<path d="M587.78 542.09C588.38 541.57 589.26 542.46 588.65 542.96C587.93 543.542 587.36 544.287 586.988 545.135C586.615 545.982 586.452 546.906 586.51 547.83C586.51 548.64 585.3 548.62 585.23 547.83C585.169 546.74 585.368 545.65 585.812 544.652C586.255 543.654 586.93 542.776 587.78 542.09Z" fill="#EBEBEB"/>
<path d="M246.48 488.82C247.09 488.31 247.98 489.19 247.36 489.71C246.636 490.286 246.062 491.029 245.688 491.876C245.313 492.722 245.149 493.647 245.21 494.57C245.21 495.37 244 495.36 243.93 494.57C243.871 493.478 244.071 492.388 244.514 491.389C244.957 490.389 245.631 489.509 246.48 488.82Z" fill="#EBEBEB"/>
<path d="M559.82 337.39C558.975 338.24 558.35 339.284 558.002 340.431C557.653 341.578 557.591 342.793 557.82 343.97C557.96 344.75 559.11 344.41 559.02 343.63C558.838 342.67 558.893 341.679 559.18 340.745C559.468 339.811 559.979 338.961 560.67 338.27C561.29 337.74 560.37 336.85 559.82 337.39Z" fill="#EBEBEB"/>
<path d="M555.28 338.11V342.27C555.28 342.354 555.297 342.437 555.329 342.515C555.361 342.593 555.408 342.663 555.467 342.723C555.527 342.782 555.597 342.829 555.675 342.861C555.753 342.893 555.836 342.91 555.92 342.91C556.004 342.91 556.087 342.893 556.165 342.861C556.243 342.829 556.313 342.782 556.373 342.723C556.432 342.663 556.479 342.593 556.511 342.515C556.543 342.437 556.56 342.354 556.56 342.27V338.11C556.56 337.94 556.493 337.777 556.373 337.657C556.253 337.537 556.09 337.47 555.92 337.47C555.75 337.47 555.587 337.537 555.467 337.657C555.347 337.777 555.28 337.94 555.28 338.11Z" fill="#EBEBEB"/>
<path d="M561.93 339.42C561.368 339.781 560.911 340.284 560.604 340.877C560.297 341.47 560.151 342.133 560.18 342.8C560.18 342.97 560.247 343.133 560.367 343.253C560.487 343.373 560.65 343.44 560.82 343.44C560.99 343.44 561.152 343.373 561.272 343.253C561.392 343.133 561.46 342.97 561.46 342.8C561.429 342.349 561.518 341.897 561.718 341.491C561.918 341.085 562.223 340.74 562.6 340.49C563.23 340.06 562.57 339 561.93 339.42Z" fill="#EBEBEB"/>
<path d="M463.15 423.28C462.309 424.131 461.688 425.174 461.339 426.318C460.991 427.463 460.926 428.675 461.15 429.85C461.29 430.64 462.44 430.3 462.35 429.52C462.169 428.559 462.225 427.568 462.515 426.634C462.804 425.7 463.317 424.851 464.01 424.16C464.58 423.62 463.71 422.74 463.15 423.28Z" fill="#EBEBEB"/>
<path d="M458.62 424V428.16C458.62 428.33 458.687 428.493 458.807 428.613C458.927 428.733 459.09 428.8 459.26 428.8C459.43 428.8 459.593 428.733 459.713 428.613C459.833 428.493 459.9 428.33 459.9 428.16V424C459.9 423.83 459.833 423.667 459.713 423.547C459.593 423.427 459.43 423.36 459.26 423.36C459.09 423.36 458.927 423.427 458.807 423.547C458.687 423.667 458.62 423.83 458.62 424Z" fill="#EBEBEB"/>
<path d="M465.26 425.32C464.7 425.68 464.244 426.181 463.937 426.772C463.63 427.363 463.483 428.024 463.51 428.69C463.51 428.86 463.577 429.022 463.698 429.143C463.818 429.263 463.98 429.33 464.15 429.33C464.32 429.33 464.483 429.263 464.603 429.143C464.723 429.022 464.79 428.86 464.79 428.69C464.759 428.239 464.848 427.787 465.048 427.381C465.249 426.975 465.553 426.63 465.93 426.38C466.56 425.94 465.94 424.87 465.26 425.32Z" fill="#EBEBEB"/>
<path d="M732.63 435.57C732.63 467.4 683.63 491.08 616.77 516.13C463.47 573.55 511.66 612.45 524 620.69H133.13C193.68 551.47 314.32 512.47 394.78 492.16C486.93 468.89 573.16 445.76 573.16 433.98C573.16 419.2 515.21 409.46 440.86 397.81C368.25 386.44 334 369.87 334 351.88C334 334.25 395.17 321.48 444.34 315.82C489.55 310.61 638.82 301.18 638.82 292.63C638.82 285.68 559.19 277.09 535.69 274.56C504.22 271.17 485.78 266.96 485.78 259.85C485.78 258.42 486.94 257.12 488.86 256H495.27C495.27 256 493.14 257.68 493.14 259.24C493.14 264.24 529.64 266.94 541.78 267.76C578.15 270.32 688.84 281.38 688.84 296.38C688.84 304.91 667.57 311.2 644.95 315.29C604.81 322.53 496.95 331.66 475.4 334.52C451.63 337.7 418.23 343.25 418.23 349.29C418.23 354.93 449.06 359.8 482.95 363.59C540.55 370 732.63 386.3 732.63 435.57Z" fill="#005048"/>
<g opacity="0.7">
<path d="M732.63 435.57C732.63 467.4 683.63 491.08 616.77 516.13C463.47 573.55 511.66 612.45 524 620.69H133.13C193.68 551.47 314.32 512.47 394.78 492.16C486.93 468.89 573.16 445.76 573.16 433.98C573.16 419.2 515.21 409.46 440.86 397.81C368.25 386.44 334 369.87 334 351.88C334 334.25 395.17 321.48 444.34 315.82C489.55 310.61 638.82 301.18 638.82 292.63C638.82 285.68 559.19 277.09 535.69 274.56C504.22 271.17 485.78 266.96 485.78 259.85C485.78 258.42 486.94 257.12 488.86 256H495.27C495.27 256 493.14 257.68 493.14 259.24C493.14 264.24 529.64 266.94 541.78 267.76C578.15 270.32 688.84 281.38 688.84 296.38C688.84 304.91 667.57 311.2 644.95 315.29C604.81 322.53 496.95 331.66 475.4 334.52C451.63 337.7 418.23 343.25 418.23 349.29C418.23 354.93 449.06 359.8 482.95 363.59C540.55 370 732.63 386.3 732.63 435.57Z" fill="white"/>
</g>
<path d="M182.32 255.42C356.12 254.64 551.1 254.64 724.9 255.42C551.1 256.22 356.12 256.22 182.32 255.42Z" fill="#263238"/>
<path d="M718.8 255.42C718.8 255.42 659.15 195.81 647 190.47C637.74 186.39 611.69 152.38 592.8 128.63C590.52 125.76 581.8 128.12 579.73 125.45C572.67 116.45 566.91 108.95 563.99 105.11C557.99 97.24 523.23 100.86 517.56 105.11C514.65 107.27 494.03 139.35 480.92 154.55C476.7 159.43 449.02 162.55 437.65 165.06C426.65 167.48 397.2 213.62 388.65 216.97C341.5 235.49 329.85 252.05 320.48 255.42H718.8Z" fill="#005048"/>
<path opacity="0.4" d="M718.8 255.42C718.8 255.42 659.15 195.81 647 190.47C637.74 186.39 611.69 152.38 592.8 128.63C590.52 125.76 581.8 128.12 579.73 125.45C572.67 116.45 566.91 108.95 563.99 105.11C557.99 97.24 523.23 100.86 517.56 105.11C514.65 107.27 494.03 139.35 480.92 154.55C476.7 159.43 449.02 162.55 437.65 165.06C426.65 167.48 397.2 213.62 388.65 216.97C341.5 235.49 329.85 252.05 320.48 255.42H718.8Z" fill="black"/>
<path opacity="0.1" d="M718.78 255.41H481.51C495.84 247.5 526.37 230.41 529.05 226.71C532.56 221.9 537.11 187.08 538.41 182.47C539.71 177.86 564.05 150.27 565.02 145.29C565.99 140.31 562.02 104.14 561.93 103.4C562.023 103.438 562.111 103.488 562.19 103.55C562.293 103.607 562.39 103.674 562.48 103.75L562.77 103.95L563.01 104.14C563.107 104.216 563.197 104.299 563.28 104.39L563.38 104.48C563.457 104.546 563.528 104.62 563.59 104.7L563.73 104.84L563.92 105.08L564.36 105.64L564.83 106.26L565.33 106.91L565.87 107.62C569.07 111.78 573.87 118.1 579.66 125.42C579.729 125.526 579.817 125.617 579.92 125.69C580.001 125.774 580.091 125.848 580.19 125.91C580.308 126 580.436 126.077 580.57 126.14L580.89 126.27C580.89 126.27 581.67 143.72 581.51 145.27C581.35 146.82 574.33 157.9 573.91 160.27C573.49 162.64 574.53 171.94 573.91 173.93C573.52 175.07 566.51 187.19 564.68 190.17C564.16 190.96 569.68 190.44 569.87 190.44C570.56 190.44 577.11 179.66 578.37 178.9C579.63 178.14 580.67 163.64 581.56 162.54C582.45 161.44 590.97 149.45 592.08 148.13C593.19 146.81 592.79 128.61 592.79 128.61C596.33 133.06 600.12 137.86 604.01 142.79L606.94 146.48L607.94 147.76C608.827 148.9 609.727 150.033 610.64 151.16C611.92 152.7 613.1 154.23 614.33 155.75L616.18 158.03C616.78 158.79 617.4 159.53 618 160.27L619.81 162.49C622.22 165.43 624.59 168.25 626.86 170.91L628.56 172.91C632.87 177.91 636.84 182.2 640.18 185.35C640.73 185.86 641.25 186.35 641.77 186.8L642.77 187.68L643.37 188.17C643.96 188.64 644.53 189.07 645.05 189.45C645.05 189.45 624.13 202.36 621.05 206.03C617.97 209.7 610.45 232.95 608.05 235.51C605.65 238.07 589.52 248.85 590.22 249.73C590.92 250.61 620.57 245.39 623.92 240.38C627.27 235.37 634.46 216.38 637.78 213.78C640.34 211.78 652.39 203.19 658.94 199.12C686.92 223 717.58 254.55 718.78 255.41Z" fill="black"/>
<path opacity="0.1" d="M492.53 197C491.61 197.58 474.58 193.74 473.6 193.49C472.62 193.24 467.05 181.6 466 181.8C464.95 182 450.87 178.6 449 177.11C447.13 175.62 442.21 164.39 442.21 164.39L446.84 163.39C457.35 161.6 471 159.46 477.6 156.67C477.96 159.09 479.67 170.91 479.35 172.77C478.99 174.83 476.21 179.63 477.04 181.15C477.87 182.67 493.45 196.38 492.53 197Z" fill="black"/>
<path d="M494.72 255.41C494.72 255.41 410.72 238.03 400.1 235.76C393.33 234.31 362 210.54 340.62 196.88C338.97 195.88 330.73 196.76 329.73 196.35C321.11 192.84 314.51 186.61 309.22 186.61C303.45 186.61 259.22 225.76 254.63 229.04C250.04 232.32 225.15 244.22 217.46 245.42C209.77 246.62 188.46 255.42 188.46 255.42L494.72 255.41Z" fill="#005048"/>
<path opacity="0.2" d="M494.72 255.41C494.72 255.41 410.72 238.03 400.1 235.76C393.33 234.31 362 210.54 340.62 196.88C338.97 195.88 330.73 196.76 329.73 196.35C321.11 192.84 314.51 186.61 309.22 186.61C303.45 186.61 259.22 225.76 254.63 229.04C250.04 232.32 225.15 244.22 217.46 245.42C209.77 246.62 188.46 255.42 188.46 255.42L494.72 255.41Z" fill="black"/>
<path opacity="0.1" d="M315.92 230.25C314.86 229.7 314.51 223.25 314.18 222.13C313.85 221.01 298.79 210.83 298.65 209.31C298.51 207.79 309.22 186.56 309.22 186.56C303.45 186.56 259.22 225.71 254.63 228.99C254.34 229.2 253.98 229.44 253.54 229.71L252.82 230.13C251.94 230.66 250.82 231.25 249.62 231.9L248.53 232.48L246.76 233.39L245.48 234.02L243.48 235.02L242.11 235.68C240.72 236.34 239.3 236.97 237.84 237.68C232.52 240.13 226.95 242.48 222.65 243.96L221.5 244.33C221.15 244.46 220.79 244.56 220.44 244.67L219 245L218.14 245.2L217.37 245.34C216.88 245.42 216.37 245.52 215.77 245.65L214.87 245.87L213.87 246.13L212.87 246.41L211.81 246.72L209.58 247.41L207.22 248.19L205.4 248.82L204.8 249.04L203.58 249.47L202.98 249.69L201.69 250.13C194.69 252.69 188.31 255.33 188.31 255.33H372.45C353.93 247.3 316.7 230.64 315.92 230.25ZM273.83 228.31C273.23 228.2 269.22 224.75 268.71 224.63C268.2 224.51 266.94 221.8 267.25 221.63C267.56 221.46 269.4 220.95 269.69 220.91C269.98 220.87 271.62 222.57 271.91 222.57C274.05 222.528 276.19 222.612 278.32 222.82C278.86 223.08 283.12 227.82 282.95 228.27C282.78 228.72 274.42 228.43 273.83 228.31Z" fill="black"/>
<path d="M556.83 48.46C556.06 40.66 550.69 32.9 541.23 32.9C531.77 32.9 526.42 40.66 525.64 48.46C524.45 60.46 532.58 71.4 541.23 81.36C549.91 71.4 558 60.5 556.83 48.46ZM541.23 57.12C539.539 57.126 537.883 56.6301 536.474 55.6951C535.064 54.7601 533.964 53.428 533.311 51.8674C532.659 50.3068 532.484 48.5878 532.809 46.9278C533.134 45.2679 533.944 43.7416 535.137 42.542C536.329 41.3425 537.851 40.5236 539.509 40.189C541.167 39.8544 542.887 40.0191 544.451 40.6623C546.016 41.3055 547.354 42.3982 548.297 43.8023C549.24 45.2063 549.746 46.8586 549.75 48.55C549.753 49.671 549.534 50.7816 549.107 51.8181C548.681 52.8547 548.054 53.797 547.262 54.591C546.471 55.3851 545.531 56.0154 544.496 56.4459C543.461 56.8764 542.351 57.0987 541.23 57.1V57.12Z" fill="#005048"/>
<path d="M541.24 43.38L543.14 46.09L546.31 47.06L544.32 49.71L544.37 53.02L541.24 51.96L538.12 53.02L538.15 49.71L536.18 47.06L539.33 46.09L541.24 43.38Z" fill="#005048"/>
<path d="M678 385.1L676.83 383.6L677.33 383.21C678.12 384.21 678.51 384.73 678.51 384.73L678 385.1Z" fill="#2F2E41"/>
<path d="M674.28 380.62C673.55 379.74 672.69 378.77 671.72 377.69L672.19 377.27C673.19 378.35 674.01 379.33 674.75 380.21L674.28 380.62ZM669.15 374.82L666.41 372L666.87 371.55C667.87 372.55 668.72 373.48 669.55 374.37L669.15 374.82ZM663.77 369.26L661 366.55L661.44 366.09C662.44 367.02 663.33 367.93 664.22 368.8L663.77 369.26ZM658.18 363.89C657.26 363.04 656.31 362.17 655.32 361.32L655.74 360.85C656.74 361.73 657.74 362.61 658.62 363.41L658.18 363.89ZM652.41 358.76C651.46 357.94 650.47 357.09 649.46 356.2L649.87 355.71C650.87 356.55 651.87 357.4 652.87 358.27L652.41 358.76ZM646.48 353.76C645.48 352.96 644.48 352.15 643.48 351.35L643.88 350.85C644.88 351.65 645.88 352.46 646.88 353.26L646.48 353.76ZM640.36 348.9C639.36 348.13 638.31 347.35 637.26 346.58L637.63 346.06C638.69 346.83 639.73 347.62 640.75 348.38L640.36 348.9ZM634.12 344.31C633.12 343.58 632.02 342.83 630.94 342.1L631.3 341.58C632.37 342.31 633.44 343.05 634.48 343.8L634.12 344.31ZM627.71 340C626.64 339.29 625.57 338.59 624.46 337.89L624.81 337.34C625.91 338.05 627 338.75 628.07 339.46L627.71 340ZM621.18 335.83C620.09 335.16 618.99 334.48 617.88 333.83L618.21 333.28L621.53 335.28L621.18 335.83ZM614.53 331.83L611.16 330L611.47 329.44C612.61 330.07 613.74 330.72 614.85 331.34L614.53 331.83ZM607.75 328.1C606.62 327.5 605.48 326.91 604.33 326.32L604.61 325.74C605.77 326.33 606.92 326.93 608.06 327.53L607.75 328.1ZM600.86 324.59C599.71 324.02 598.54 323.46 597.36 322.91L597.65 322.33C598.83 322.88 599.99 323.45 601.15 324.01L600.86 324.59ZM593.86 321.29C592.7 320.77 591.52 320.24 590.32 319.73L590.57 319.14L594.13 320.7L593.86 321.29ZM586.75 318.23C585.57 317.74 584.36 317.23 583.16 316.79L583.4 316.19L586.99 317.64L586.75 318.23ZM579.54 315.41C578.35 314.96 577.13 314.52 575.92 314.13L576.12 313.52C577.4 313.96 578.57 314.4 579.77 314.81L579.54 315.41ZM572.25 312.84C571.04 312.43 569.81 312.04 568.57 311.64L568.76 311.04C570.04 311.42 571.24 311.83 572.45 312.24L572.25 312.84ZM416 311.57L415.82 310.96L419.56 309.96L419.73 310.58L416 311.57ZM564.92 310.46L561.2 309.38L561.38 308.76C562.66 309.11 563.87 309.48 565.1 309.85L564.92 310.46ZM423.48 309.59L423.32 308.97L427.09 308.05L427.24 308.66L423.48 309.59ZM557.48 308.44C556.19 308.11 554.99 307.79 553.72 307.44L553.87 306.81C555.15 307.12 556.4 307.44 557.64 307.81L557.48 308.44ZM431 307.91L430.86 307.29L434.71 306.44L434.85 307.07L431 307.91ZM549.95 306.62L546.17 305.79L546.31 305.16C547.59 305.43 548.87 305.7 550.09 306L549.95 306.62ZM438.57 306.26L438.44 305.64L442.28 304.89L442.41 305.52L438.57 306.26ZM542.37 305L538.52 304.29L538.64 303.66L542.49 304.37L542.37 305ZM446.23 304.82L446.11 304.2L449.96 303.54L450.06 304.17C448.7 304.36 447.42 304.58 446.15 304.81L446.23 304.82ZM534.81 303.64C533.53 303.44 532.24 303.23 530.96 303.05L531.05 302.41L534.9 303L534.81 303.64ZM453.87 303.57L453.76 302.94L457.61 302.39L457.7 303.03C456.34 303.18 455.07 303.37 453.79 303.55L453.87 303.57ZM461.56 302.57L461.48 301.93C462.76 301.77 464.05 301.62 465.33 301.49L465.39 302.12L461.56 302.57ZM527.18 302.57C525.9 302.4 524.62 302.24 523.33 302.09L523.41 301.45L527.26 301.93L527.18 302.57ZM469.25 301.72V301L473.1 300.66V301.3L469.25 301.72ZM519.49 301.72C518.21 301.61 516.92 301.48 515.64 301.38L515.71 300.74L519.55 301.08L519.49 301.72ZM477 301.09V300.44L480.84 300.21V300.84L477 301.09ZM511.8 301.09C510.52 301 509.24 300.92 507.96 300.86V300.21L511.8 300.44V301.09ZM484.73 300.73V300.09L488.57 299.96V300.6L484.73 300.73ZM504.08 300.73C502.8 300.73 501.52 300.65 500.24 300.62V300C501.52 300 502.8 300 504.08 300.11V300.73ZM492.47 300.57V299.93H496.32V300.57H492.47Z" fill="#2F2E41"/>
<path d="M408.59 313.78L410.12 312.67C410.12 312.67 410.64 312.29 411.7 311.58L412.04 312.1L412.22 312.71L410.36 313.25L408.59 313.78Z" fill="#2F2E41"/>
<path d="M415.33 310L414.99 309.45C415.99 308.85 417.08 308.17 418.33 307.45L418.67 308.01C417.41 308.74 416.29 309.42 415.33 310ZM422.05 306L421.73 305.43C422.8 304.83 423.94 304.2 425.15 303.55L425.46 304.11C424.25 304.77 423.11 305.39 422.05 306ZM428.91 302.28L428.61 301.72C429.72 301.13 430.88 300.54 432.09 299.93L432.38 300.51C431.18 301.11 430.01 301.7 428.91 302.28ZM435.91 298.79L435.63 298.22C436.77 297.66 437.95 297.1 439.17 296.55L439.44 297.13L435.91 298.79ZM442.99 295.51L442.73 294.92L446.31 293.36L446.56 293.95L442.99 295.51ZM450.15 292.43L449.91 291.84L453.54 290.37L453.77 290.97L450.15 292.43ZM457.41 289.55L457.18 288.95L460.85 287.58L461.06 288.18C459.82 288.63 458.6 289.09 457.41 289.55ZM464.73 286.86L464.51 286.26C465.73 285.82 466.96 285.4 468.22 284.97L468.42 285.59L464.73 286.86ZM472.11 284.29L471.92 283.68L475.65 282.5L475.83 283.11C474.57 283.56 473.34 283.96 472.11 284.36V284.29ZM479.57 281.97L479.38 281.36L483.14 280.27L483.32 280.9C482.05 281.31 480.8 281.68 479.57 282.04V281.97ZM487.07 279.85L486.91 279.23L490.69 278.23L490.84 278.86L487.07 279.85ZM494.62 277.91L494.47 277.28L498.32 276.38L498.46 277.01L494.62 277.91ZM502.23 276.15L502.08 275.53L505.93 274.72L506.06 275.35C504.76 275.67 503.48 275.94 502.23 276.22V276.15ZM509.92 274.58L509.8 273.95L513.65 273.23L513.76 273.87L509.92 274.58ZM637.85 274.58L634 274L634.1 273.36L637.95 274.05L637.85 274.58ZM630.16 273.3L626.32 272.69L626.4 272.06L630.25 272.67L630.16 273.3ZM517.58 273.3L517.48 272.67L521.33 272.04L521.43 272.67L517.58 273.3ZM622.46 272.18L618.61 271.67L618.7 271.03L622.55 271.55L622.46 272.18ZM525.29 272.09L525.2 271.46C526.48 271.273 527.76 271.093 529.04 270.92L529.13 271.56L525.29 272.09ZM614.71 271.18L610.87 270.74L610.95 270.1L614.79 270.54L614.71 271.18ZM533.02 271.08L532.94 270.44C534.22 270.28 535.5 270.13 536.79 270L536.86 270.63L533.02 271.08ZM607.02 270.35L603.1 270V269.36L606.94 269.72L607.02 270.35ZM540.82 270.23L540.76 269.6L544.6 269.24V269.89L540.82 270.23ZM599.25 269.68L595.41 269.41V268.77L599.25 269.04V269.68ZM548.55 269.54V269L552.4 268.74V269.38L548.55 269.54ZM591.42 269.14L587.57 268.96V268.32L591.42 268.5V269.14ZM556.35 269.06V268.42L560.26 268.26V269L556.35 269.06ZM583.64 268.82L579.73 268.72V268.12L583.64 268.22V268.82ZM564.14 268.82V268.12L567.99 268.04V268.68L564.14 268.82ZM575.83 268.72H571.99V268.08H575.9L575.83 268.72Z" fill="#2F2E41"/>
<path d="M644.74 276L643.46 275.75L641.58 275.38L641.69 274.75L642.27 274.86L641.82 274.52L642.19 274.01C643.19 274.74 643.71 275.18 643.73 275.19L644.74 276Z" fill="#2F2E41"/>
<path d="M638.78 272.4C637.78 271.72 636.69 271.04 635.6 270.4L635.94 269.86C637.04 270.54 638.12 271.22 639.14 271.91L638.78 272.4ZM632.37 268.45C631.3 267.83 630.18 267.17 629.07 266.63L629.36 266.06C630.49 266.65 631.61 267.27 632.69 267.88L632.37 268.45ZM625.7 264.91C624.57 264.36 623.41 263.82 622.29 263.31L622.54 262.72C623.7 263.24 624.85 263.78 625.98 264.33L625.7 264.91ZM618.8 261.76C617.66 261.28 616.49 260.81 615.29 260.33L615.52 259.74C616.73 260.21 617.9 260.68 619.04 261.17L618.8 261.76ZM511.73 260.28L511.51 259.68C512.72 259.26 513.92 258.86 515.12 258.47L515.31 259.08L511.73 260.28ZM611.73 259C610.57 258.59 609.37 258.18 608.16 257.72L608.35 257.1C609.63 257.5 610.78 257.91 611.95 258.39L611.73 259ZM518.9 257.94L518.72 257.32C519.93 256.95 521.15 256.6 522.36 256.27L522.54 256.89C521.36 257.28 520.14 257.63 518.92 258L518.9 257.94ZM604.55 256.65C603.36 256.31 602.14 255.96 600.91 255.65L601.08 255.02C602.36 255.36 603.54 255.7 604.73 256.02L604.55 256.65ZM526.18 255.9L526.02 255.27L529.72 254.39L529.86 255C528.66 255.35 527.43 255.65 526.2 256L526.18 255.9ZM597.25 254.72C596.04 254.44 594.81 254.15 593.55 253.9L593.7 253.27L597.4 254.09L597.25 254.72ZM533.55 254.21L533.42 253.58L537.14 252.85L537.25 253.48L533.55 254.21ZM589.85 253.21C588.57 252.99 587.39 252.79 586.13 252.6L586.22 251.97C587.5 252.16 588.79 252.36 589.97 252.58L589.85 253.21ZM541 252.85L540.9 252.21L544.66 251.67L544.73 252.3C543.53 252.54 542.29 252.78 541.03 252.92L541 252.85ZM582.41 252.05C581.13 251.9 579.92 251.76 578.65 251.63V251C579.94 251.12 581.22 251.26 582.42 251.41L582.41 252.05ZM548.5 251.92L548.43 251.28C549.71 251.14 550.99 251.03 552.21 250.92V251.57C551 251.67 549.75 251.78 548.47 251.92H548.5ZM574.9 251.4C573.62 251.31 572.33 251.23 571.13 251.18V250.54C572.41 250.54 573.69 250.67 574.97 250.76L574.9 251.4ZM556 251.3V250.66C557.28 250.58 558.56 250.51 559.84 250.48V251.12C558.54 251.12 557.28 251.22 556.01 251.3H556ZM567.33 251.05H563.55V250.41H567.39L567.33 251.05Z" fill="#2F2E41"/>
<path d="M506.08 262.38L505.95 262.12C505.95 262.12 505.67 261.51 505.07 260.44L505.63 260.13C506 260.81 506.26 261.3 506.4 261.58L507.93 261L508.16 261.6L506.36 262.28L506.08 262.38Z" fill="#2F2E41"/>
<path d="M503.13 257.15C502.48 256.15 501.77 255.03 501.03 253.95L501.55 253.59C502.31 254.68 503.02 255.76 503.67 256.81L503.13 257.15ZM498.81 250.82C498.07 249.82 497.29 248.82 496.49 247.82L496.99 247.44C497.79 248.44 498.58 249.44 499.32 250.5L498.81 250.82ZM494.07 244.82C493.25 243.82 492.41 242.82 491.57 241.92L492.04 241.49C492.89 242.49 493.73 243.42 494.61 244.41L494.07 244.82ZM488.94 239.09C488.07 238.17 487.17 237.24 486.27 236.35L486.74 235.9C487.63 236.79 488.53 237.72 489.41 238.65L488.94 239.09ZM483.54 233.67C482.63 232.81 481.7 231.94 480.72 231.1L481.16 230.63C482.16 231.51 483.07 232.39 483.98 233.19L483.54 233.67ZM477.85 228.54C476.85 227.73 475.92 226.91 474.85 226.09L475.26 225.59C476.26 226.41 477.26 227.24 478.21 228.05L477.85 228.54ZM471.85 223.72C470.85 222.95 469.85 222.18 468.79 221.41L469.17 220.9C470.23 221.67 471.25 222.44 472.24 223.21L471.85 223.72ZM465.67 219.19C464.67 218.48 463.59 217.76 462.51 217.04L462.85 216.5C463.94 217.22 465.01 217.94 466.05 218.67L465.67 219.19ZM459.27 214.96C458.19 214.3 457.1 213.68 456 212.96L456.32 212.41C457.43 213.06 458.52 213.69 459.6 214.41L459.27 214.96ZM452.73 211C451.64 210.38 450.51 209.72 449.38 209.16L449.68 208.59C450.82 209.2 451.94 209.88 453.05 210.44L452.73 211ZM446 207.43C444.88 206.85 443.73 206.29 442.57 205.72L442.84 205.15C444.02 205.71 445.16 206.28 446.29 206.85L446 207.43ZM439.16 204.07L435.66 202.53L435.91 201.94C437.09 202.44 438.27 202.94 439.43 203.49L439.16 204.07ZM432.16 201.07C430.99 200.59 429.8 200.12 428.6 199.66L428.83 199.07C430.03 199.53 431.22 199.99 432.4 200.47L432.16 201.07ZM425 198.33L421.37 197.05L421.57 196.44C422.86 196.85 424.01 197.28 425.21 197.72L425 198.33ZM417.73 195.89L414 194.76L414.18 194.16C415.47 194.52 416.65 194.89 417.85 195.28L417.73 195.89ZM410.38 193.81C409.1 193.48 407.93 193.15 406.68 192.81L406.84 192.19C408.13 192.51 409.33 192.83 410.55 193.19L410.38 193.81ZM402.96 191.92L399.23 191.07L399.36 190.44C400.64 190.71 401.92 190.99 403.11 191.29L402.96 191.92ZM395.47 190.29C394.19 190.03 392.99 189.79 391.72 189.56L391.83 188.93C393.1 189.16 394.35 189.41 395.6 189.66L395.47 190.29ZM387.94 188.91L384.15 188.3L384.26 187.67C385.54 187.87 386.82 188.06 388.04 188.28L387.94 188.91ZM380.36 187.76C379.08 187.6 377.8 187.43 376.51 187.29L376.59 186.65C377.87 186.8 379.16 186.96 380.44 187.14L380.36 187.76ZM372.76 186.85L368.91 186.5L368.98 185.85L372.82 186.23L372.76 186.85ZM315.34 186.57V185.93L319.19 185.64V186.28L315.34 186.57ZM365.12 186.17L361.27 185.92V185.28L365.12 185.53V186.17ZM322.94 186V185.36L326.79 185.14V185.78L322.94 186ZM357.43 185.69C356.15 185.69 354.86 185.58 353.58 185.54V184.9C354.86 184.9 356.15 184.99 357.43 185.05V185.69ZM330.55 185.56V184.92L334.39 184.8V185.44L330.55 185.56ZM349.78 185.39C348.49 185.39 347.21 185.39 345.93 185.32V184.68C347.21 184.68 348.49 184.68 349.78 184.74V185.39ZM338.24 185.39V184.74H342.08V185.39H338.24Z" fill="#2F2E41"/>
<path d="M308.86 187.11L309.22 186.56C309.22 186.56 309.57 186 310.3 184.97L310.83 185.33L310.13 186.33L311.41 186.22L311.47 186.86L309.56 187.04L308.86 187.11Z" fill="#2F2E41"/>
<path d="M313.07 182.28L312.56 181.89C313.24 181 314.02 179.98 314.92 178.89L315.42 179.29C314.54 180.37 313.75 181.37 313.07 182.28ZM317.84 176.28L317.34 175.87C318.12 174.94 318.96 173.98 319.91 172.97L320.39 173.39C319.44 174.39 318.61 175.39 317.84 176.26V176.28ZM322.84 170.55L322.36 170.11L324.93 167.32L325.39 167.76C324.53 168.7 323.67 169.64 322.82 170.53L322.84 170.55ZM328.09 165.02L327.63 164.57C328.5 163.69 329.41 162.79 330.35 161.88L330.8 162.33C329.86 163.23 328.97 164.12 328.09 165.01V165.02ZM333.55 159.7L333.08 159.16C333.99 158.3 334.93 157.45 335.89 156.6L336.32 157.07C335.39 157.97 334.45 158.83 333.55 159.69V159.7ZM339.19 154.57L338.77 154.09C339.71 153.27 340.68 152.43 341.67 151.59L342.08 152.09C341.08 152.91 340.13 153.73 339.19 154.56V154.57ZM345.01 149.64L344.6 149.15C345.6 148.36 346.6 147.55 347.6 146.75L348 147.25L345.01 149.64ZM351.01 144.92L350.62 144.41C351.62 143.65 352.62 142.88 353.69 142.13L354.06 142.64L351.01 144.92ZM357.16 140.41L356.79 139.88C357.79 139.15 358.85 138.42 359.92 137.7L360.29 138.23C359.23 138.95 358.19 139.67 357.16 140.4V140.41ZM363.44 136.1L363.1 135.58C364.15 134.88 365.21 134.19 366.3 133.5L366.65 134.04C365.56 134.72 364.49 135.4 363.44 136.04V136.1ZM369.85 132.02L369.52 131.47C370.6 130.82 371.69 130.19 372.8 129.47L373.12 130.02C372.08 130.62 371 131.287 369.88 132.02H369.85ZM376.42 128.18L376.11 127.63C377.21 127 378.31 126.35 379.44 125.77L379.75 126.33C378.66 126.9 377.54 127.53 376.44 128.14L376.42 128.18ZM383.1 124.55L382.79 123.99C383.92 123.4 385.04 122.82 386.2 122.24L386.48 122.81C385.4 123.37 384.27 124 383.11 124.59L383.1 124.55ZM389.9 121.13L389.62 120.55C390.76 120.01 391.91 119.46 393.08 118.94L393.35 119.51L389.9 121.13ZM396.82 117.95L396.57 117.36C397.72 116.85 398.89 116.36 400.08 115.85L400.32 116.44C399.2 116.86 398.03 117.44 396.88 117.9L396.82 117.95ZM403.82 115L403.58 114.3C404.76 113.82 405.93 113.36 407.14 112.91L407.37 113.5C406.22 114.01 405.04 114.5 403.87 114.95L403.82 115ZM410.93 112.28L410.72 111.68L414.32 110.4L414.52 111.01C413.37 111.37 412.18 111.8 410.99 112.23L410.93 112.28ZM418.14 109.8L417.95 109.18L421.59 108.03L421.77 108.64C420.6 108.96 419.39 109.35 418.19 109.75L418.14 109.8ZM425.42 107.55L425.24 106.94C426.46 106.58 427.69 106.23 428.92 105.94L429.09 106.55C427.93 106.84 426.65 107.18 425.47 107.55H425.42ZM432.76 105.55L432.61 104.94C433.89 104.61 435.07 104.31 436.32 104.01L436.47 104.64L432.76 105.55ZM440.19 103.78L440.05 103.15C441.33 102.87 442.52 102.61 443.78 102.35L443.9 102.97C442.71 103.19 441.47 103.45 440.24 103.73L440.19 103.78ZM447.65 102.24L447.52 101.61L451.28 100.92L451.39 101.55C450.19 101.73 448.93 101.95 447.7 102.19L447.65 102.24ZM455.15 100.96L455.04 100.32L458.83 99.76L458.92 100.38C457.7 100.49 456.45 100.68 455.2 100.88L455.15 100.96ZM534.88 100.23L531.04 99.78L531.11 99.14L534.96 99.6L534.88 100.23ZM462.7 99.88L462.61 99.24L466.45 98.78L466.53 99.42C465.26 99.49 463.99 99.64 462.75 99.81L462.7 99.88ZM527.32 99.36L523.51 99L523.58 98.36C524.86 98.47 526.14 98.59 527.42 98.73L527.32 99.36ZM470.32 98.92L470.26 98.28L474.1 97.95V98.58L470.32 98.92ZM519.79 98.58L516 98.32V97.68L519.84 97.97L519.79 98.58ZM478 98.35V97.71C479.28 97.62 480.56 97.54 481.84 97.48V98.12C480.53 98.18 479.25 98.26 478 98.35ZM512.26 98.13C510.98 98.0633 509.7 98.0033 508.42 97.95V97.31C509.7 97.31 510.98 97.41 512.26 97.49V98.13ZM485.6 97.94V97.3C486.88 97.3 488.16 97.2 489.44 97.17V97.81C488.12 97.81 486.86 97.89 485.59 97.94H485.6ZM504.65 97.82L500.8 97.74V97.09L504.65 97.18V97.82ZM493.23 97.74V97.09H497V97.67H496.74L493.23 97.74Z" fill="#2F2E41"/>
<path d="M540.69 101L538.78 100.73L538.87 100.09L540.78 100.35L540.69 101Z" fill="#2F2E41"/>
<path d="M679 145.37H677.32V391.09H679V145.37Z" fill="#2F2E41"/>
<path d="M688.25 383.36H668.06L670.15 374.14H686.15L688.25 383.36Z" fill="#2F2E41"/>
<path opacity="0.2" d="M688.25 383.36H668.06L670.15 374.14H686.15L688.25 383.36Z" fill="black"/>
<path d="M691.66 391.09H664.64L667.45 378.75H688.86L691.66 391.09Z" fill="#2F2E41"/>
<path d="M410.84 156.84H409.76V315.39H410.84V156.84Z" fill="#2F2E41"/>
<path d="M416.59 311.97H404.01L405.31 306.23H415.28L416.59 311.97Z" fill="#2F2E41"/>
<path d="M416.59 311.97H404.01L405.31 306.23H415.28L416.59 311.97Z" fill="#2F2E41"/>
<path opacity="0.2" d="M416.59 311.97H404.01L405.31 306.23H415.28L416.59 311.97Z" fill="black"/>
<path d="M418.7 316.78H401.88L403.63 309.1H416.96L418.7 316.78Z" fill="#2F2E41"/>
<path d="M643.86 192.79H643.3V275.46H643.86V192.79Z" fill="#2F2E41"/>
<path d="M647.18 274.92H639.96L640.71 271.62H646.44L647.18 274.92Z" fill="#2F2E41"/>
<path opacity="0.2" d="M647.18 274.92H639.96L640.71 271.62H646.44L647.18 274.92Z" fill="black"/>
<path d="M648.41 277.68H638.75L639.75 273.27H647.41L648.41 277.68Z" fill="#2F2E41"/>
<path d="M506.42 205.62H506.04V262.61H506.42V205.62Z" fill="#2F2E41"/>
<path d="M508.22 261.68H504.26L504.67 259.86H507.81L508.22 261.68Z" fill="#2F2E41"/>
<path opacity="0.2" d="M508.41 261.68H504.44L504.86 259.86H508L508.41 261.68Z" fill="black"/>
<path d="M508.9 263.19H503.59L504.14 260.77H508.35L508.9 263.19Z" fill="#2F2E41"/>
<path d="M309.49 171.29H309.28V186.72H309.49V171.29Z" fill="#2F2E41"/>
<path d="M312.27 176.92V173.32C312.26 173.38 312.26 173.44 312.27 173.5C312.292 173.564 312.322 173.624 312.36 173.68C312.68 174.1 313.64 174.38 315.06 174.52V178.14C313.59 178 312.68 177.71 312.36 177.29C312.32 177.232 312.29 177.168 312.27 177.1C312.25 177.042 312.25 176.978 312.27 176.92Z" fill="#005048"/>
<g opacity="0.1">
<path d="M312.27 176.92V173.32C312.26 173.38 312.26 173.44 312.27 173.5C312.292 173.564 312.322 173.624 312.36 173.68C312.68 174.1 313.64 174.38 315.06 174.52V178.14C313.59 178 312.68 177.71 312.36 177.29C312.32 177.232 312.29 177.168 312.27 177.1C312.25 177.042 312.25 176.978 312.27 176.92Z" fill="black"/>
</g>
<path d="M312.34 176.41C312.35 176.5 312.35 176.59 312.34 176.68V173.06C312.36 172.975 312.36 172.886 312.34 172.8C312.33 173.88 312.33 175.33 312.34 176.41Z" fill="#005048"/>
<g opacity="0.4">
<path d="M312.34 176.41C312.35 176.5 312.35 176.59 312.34 176.68V173.06C312.36 172.975 312.36 172.886 312.34 172.8C312.33 173.88 312.33 175.33 312.34 176.41Z" fill="black"/>
</g>
<path d="M312.32 172.8V176.41C312.33 176.34 312.33 176.27 312.32 176.2C312.287 176.138 312.25 176.078 312.21 176.02C311.88 175.59 310.93 175.32 309.42 175.23V171.61C310.97 171.71 311.89 171.97 312.21 172.42C312.261 172.47 312.299 172.532 312.32 172.6C312.33 172.666 312.33 172.734 312.32 172.8Z" fill="#005048"/>
<path d="M540.73 85.21H540.52V100.64H540.73V85.21Z" fill="#263238"/>
<path d="M543.51 90.84V87.22C543.5 87.2796 543.5 87.3405 543.51 87.4C543.528 87.4654 543.558 87.5266 543.6 87.58C543.92 88.01 544.88 88.3 546.31 88.43V92C544.843 91.86 543.943 91.58 543.61 91.16L543.51 90.98V90.84Z" fill="#005048"/>
<g opacity="0.1">
<path d="M543.51 90.84V87.22C543.5 87.2796 543.5 87.3405 543.51 87.4C543.528 87.4654 543.558 87.5266 543.6 87.58C543.92 88.01 544.88 88.3 546.31 88.43V92C544.843 91.86 543.943 91.58 543.61 91.16L543.51 90.98V90.84Z" fill="black"/>
</g>
<path d="M543.59 90.33C543.601 90.413 543.601 90.497 543.59 90.58C543.58 90.6664 543.58 90.7536 543.59 90.84V87.22C543.58 87.137 543.58 87.053 543.59 86.97C543.6 86.8836 543.6 86.7964 543.59 86.71C543.56 87.8 543.58 89.24 543.59 90.33Z" fill="#005048"/>
<g opacity="0.4">
<path d="M543.59 90.33C543.601 90.413 543.601 90.497 543.59 90.58C543.58 90.6664 543.58 90.7536 543.59 90.84V87.22C543.58 87.137 543.58 87.053 543.59 86.97C543.6 86.8836 543.6 86.7964 543.59 86.71C543.56 87.8 543.58 89.24 543.59 90.33Z" fill="black"/>
</g>
<path d="M543.56 86.71V90.33C543.58 90.2615 543.58 90.1886 543.56 90.12C543.535 90.056 543.501 89.9955 543.46 89.94C543.13 89.49 542.18 89.24 540.67 89.13V85.53C542.22 85.62 543.13 85.89 543.46 86.33C543.552 86.4353 543.601 86.5705 543.6 86.71H543.56Z" fill="#005048"/>
<path d="M701.76 191.49L701.57 161.91C701.582 162.414 701.669 162.913 701.83 163.39C702.021 163.919 702.287 164.417 702.62 164.87C705.19 168.34 712.62 170.68 724.72 171.82L724.9 201.39C712.83 200.25 705.42 197.93 702.82 194.44C702.467 194.01 702.189 193.523 702 193C701.837 192.514 701.755 192.003 701.76 191.49Z" fill="#005048"/>
<g opacity="0.1">
<path d="M701.76 191.49L701.57 161.91C701.582 162.414 701.669 162.913 701.83 163.39C702.021 163.919 702.287 164.417 702.62 164.87C705.19 168.34 712.62 170.68 724.72 171.82L724.9 201.39C712.83 200.25 705.42 197.93 702.82 194.44C702.467 194.01 702.189 193.523 702 193C701.837 192.514 701.755 192.003 701.76 191.49Z" fill="black"/>
</g>
<path d="M702.3 187.28C702.288 188.006 702.191 188.727 702.01 189.43C701.831 190.103 701.731 190.794 701.71 191.49L701.52 161.91C701.55 161.212 701.65 160.518 701.82 159.84C702 159.14 702.101 158.422 702.12 157.7C702.23 166.57 702.3 178.43 702.3 187.28Z" fill="#005048"/>
<g opacity="0.4">
<path d="M702.3 187.28C702.288 188.006 702.191 188.727 702.01 189.43C701.831 190.103 701.731 190.794 701.71 191.49L701.52 161.91C701.55 161.212 701.65 160.518 701.82 159.84C702 159.14 702.101 158.422 702.12 157.7C702.23 166.57 702.3 178.43 702.3 187.28Z" fill="black"/>
</g>
<path d="M702.17 157.7L702.3 187.28C702.299 186.7 702.198 186.125 702 185.58C701.799 185.069 701.53 184.588 701.2 184.15C698.48 180.53 690.95 178.38 678.29 177.57L678.1 148C690.77 148.8 698.3 151 701.01 154.57C701.346 155.01 701.613 155.499 701.8 156.02C702.025 156.553 702.151 157.122 702.17 157.7Z" fill="#005048"/>
<path d="M425.54 186.61L425.41 167.52C425.415 167.844 425.472 168.165 425.58 168.47C425.689 168.831 425.862 169.17 426.09 169.47C427.78 171.72 432.56 173.22 440.34 173.95L440.47 193.03C432.68 192.3 427.9 190.79 426.22 188.56C425.989 188.26 425.813 187.922 425.7 187.56C425.587 187.256 425.533 186.934 425.54 186.61Z" fill="#005048"/>
<g opacity="0.1">
<path d="M425.54 186.61L425.41 167.52C425.415 167.844 425.472 168.165 425.58 168.47C425.689 168.831 425.862 169.17 426.09 169.47C427.78 171.72 432.56 173.22 440.34 173.95L440.47 193.03C432.68 192.3 427.9 190.79 426.22 188.56C425.989 188.26 425.813 187.922 425.7 187.56C425.587 187.256 425.533 186.934 425.54 186.61Z" fill="black"/>
</g>
<path d="M425.92 183.89C425.902 184.358 425.838 184.824 425.73 185.28C425.617 185.698 425.554 186.127 425.54 186.56L425.41 167.47C425.428 167.038 425.492 166.609 425.6 166.19C425.718 165.739 425.782 165.276 425.79 164.81L425.92 183.89Z" fill="#005048"/>
<g opacity="0.4">
<path d="M425.92 183.89C425.902 184.358 425.838 184.824 425.73 185.28C425.617 185.698 425.554 186.127 425.54 186.56L425.41 167.47C425.428 167.038 425.492 166.609 425.6 166.19C425.718 165.739 425.782 165.276 425.79 164.81L425.92 183.89Z" fill="black"/>
</g>
<path d="M425.79 164.81L425.92 183.89C425.909 183.515 425.841 183.145 425.72 182.79C425.588 182.462 425.413 182.152 425.2 181.87C423.45 179.53 418.59 178.14 410.42 177.62L410.29 158.54C418.47 159.06 423.29 160.45 425.08 162.78C425.3 163.066 425.475 163.382 425.6 163.72C425.73 164.068 425.795 164.438 425.79 164.81Z" fill="#005048"/>
<path d="M651.51 208.3V198.3C651.511 198.47 651.538 198.638 651.59 198.8C651.658 198.978 651.749 199.146 651.86 199.3C652.74 200.47 655.23 201.3 659.29 201.64V211.58C655.23 211.2 652.73 210.42 651.86 209.25C651.749 209.096 651.658 208.928 651.59 208.75C651.547 208.603 651.52 208.453 651.51 208.3Z" fill="#005048"/>
<g opacity="0.1">
<path d="M651.51 208.3V198.3C651.511 198.47 651.538 198.638 651.59 198.8C651.658 198.978 651.749 199.146 651.86 199.3C652.74 200.47 655.23 201.3 659.29 201.64V211.58C655.23 211.2 652.73 210.42 651.86 209.25C651.749 209.096 651.658 208.928 651.59 208.75C651.547 208.603 651.52 208.453 651.51 208.3Z" fill="black"/>
</g>
<path d="M651.72 206.89C651.711 207.133 651.678 207.374 651.62 207.61C651.558 207.835 651.521 208.067 651.51 208.3V198.3C651.51 198.067 651.541 197.835 651.6 197.61C651.662 197.371 651.699 197.126 651.71 196.88C651.68 199.92 651.71 203.9 651.72 206.89Z" fill="#005048"/>
<g opacity="0.4">
<path d="M651.72 206.89C651.711 207.133 651.678 207.374 651.62 207.61C651.558 207.835 651.521 208.067 651.51 208.3V198.3C651.51 198.067 651.541 197.835 651.6 197.61C651.662 197.371 651.699 197.126 651.71 196.88C651.68 199.92 651.71 203.9 651.72 206.89Z" fill="black"/>
</g>
<path d="M651.65 196.93L651.72 206.93C651.717 206.733 651.683 206.537 651.62 206.35C651.55 206.18 651.459 206.018 651.35 205.87C650.44 204.66 647.9 203.93 643.66 203.66L643.59 193.66C647.85 193.93 650.39 194.66 651.28 195.87C651.391 196.021 651.482 196.185 651.55 196.36C651.624 196.541 651.658 196.735 651.65 196.93Z" fill="#005048"/>
<path d="M511.72 216.31V209.45C511.699 209.566 511.699 209.684 511.72 209.8C511.763 209.927 511.827 210.045 511.91 210.15C512.51 210.95 514.23 211.43 517.04 211.75V218.62C514.23 218.35 512.51 217.81 511.91 217C511.831 216.896 511.767 216.782 511.72 216.66C511.699 216.544 511.699 216.426 511.72 216.31Z" fill="#005048"/>
<g opacity="0.1">
<path d="M511.72 216.31V209.45C511.699 209.566 511.699 209.684 511.72 209.8C511.763 209.927 511.827 210.045 511.91 210.15C512.51 210.95 514.23 211.43 517.04 211.75V218.62C514.23 218.35 512.51 217.81 511.91 217C511.831 216.896 511.767 216.782 511.72 216.66C511.699 216.544 511.699 216.426 511.72 216.31Z" fill="black"/>
</g>
<path d="M511.86 215.34C511.859 215.51 511.832 215.678 511.78 215.84C511.74 215.993 511.72 216.151 511.72 216.31V209.45C511.72 209.291 511.74 209.133 511.78 208.98C511.8 208.814 511.8 208.646 511.78 208.48C511.82 210.54 511.85 213.29 511.86 215.34Z" fill="#005048"/>
<g opacity="0.4">
<path d="M511.86 215.34C511.859 215.51 511.832 215.678 511.78 215.84C511.74 215.993 511.72 216.151 511.72 216.31V209.45C511.72 209.291 511.74 209.133 511.78 208.98C511.8 208.814 511.8 208.646 511.78 208.48C511.82 210.54 511.85 213.29 511.86 215.34Z" fill="black"/>
</g>
<path d="M511.81 208.48V215.34C511.807 215.206 511.78 215.074 511.73 214.95C511.69 214.83 511.629 214.718 511.55 214.62C510.91 213.77 509.17 213.34 506.23 213.09V206.22C509.17 206.42 510.91 206.92 511.54 207.75C511.613 207.854 511.676 207.965 511.73 208.08C511.781 208.207 511.808 208.343 511.81 208.48Z" fill="#005048"/>
<path d="M380.03 354.08H352.11V367.2H380.03V354.08Z" fill="#F9B499"/>
<path d="M396.058 356.605C397.551 346.051 394.9 336.949 390.137 336.276C385.374 335.602 380.303 343.612 378.81 354.166C377.317 364.72 379.968 373.822 384.731 374.495C389.494 375.169 394.566 367.159 396.058 356.605Z" fill="#F9B499"/>
<path d="M365.23 317.16C365.23 317.16 366.54 321.47 363.54 327.47" stroke="#2F2E41" stroke-miterlimit="10"/>
<path d="M301.41 542C301.41 542 302.09 552.43 300.06 556.08C300.06 556.08 299.43 563.59 300.97 566.23C300.97 566.23 305.34 571.43 302.5 572.08C302.5 572.08 299.5 574.76 295.4 567.45C295.4 567.45 292.4 559.74 287.89 561.97C287.101 562.944 286.113 563.738 284.992 564.299C283.871 564.86 282.643 565.174 281.39 565.22C281.39 565.22 279.97 582.88 272.66 580.85C272.66 580.85 275.66 569.28 274.66 566.03C274.66 566.03 262.76 582.24 253.22 577.37C253.22 577.37 251.74 576.37 252.95 574.15C252.237 573.919 251.563 573.581 250.95 573.15C250.563 572.866 250.271 572.473 250.111 572.021C249.951 571.569 249.93 571.079 250.052 570.616C250.174 570.152 250.433 569.736 250.794 569.421C251.156 569.106 251.604 568.907 252.08 568.85C256.188 568.268 260.11 566.76 263.55 564.44C263.55 564.44 277.35 554.69 279.55 549.21C279.55 549.21 282.04 543.51 284.95 542.61C285 542.55 290.3 544.9 301.41 542Z" fill="#F9B499"/>
<path d="M427.11 553.44C427.11 553.44 425.26 559.83 426.37 563.78C426.701 564.845 426.899 565.947 426.96 567.06C427.04 569.48 426.96 573.38 425.96 575.14C425.96 575.14 421.59 580.33 424.43 580.98C424.43 580.98 427.43 583.66 431.53 576.35C431.53 576.35 434.18 569.64 438.16 570.55C438.646 570.673 439.085 570.937 439.42 571.31C440.198 572.166 441.141 572.857 442.193 573.34C443.245 573.823 444.383 574.088 445.54 574.12C445.54 574.12 446.96 591.78 454.27 589.75C454.27 589.75 451.22 578.18 452.27 574.93C452.27 574.93 464.44 590.56 473.98 585.69C473.98 585.69 475.61 585.49 473.98 583.05C474.71 582.823 475.402 582.486 476.03 582.05C476.417 581.766 476.709 581.373 476.869 580.921C477.029 580.469 477.05 579.979 476.928 579.516C476.806 579.052 476.547 578.636 476.186 578.321C475.824 578.006 475.376 577.807 474.9 577.75C470.792 577.168 466.87 575.66 463.43 573.34C463.43 573.34 449.63 563.6 447.43 558.12C447.43 558.12 444.94 552.41 442.03 551.51C437.126 552.607 432.132 553.253 427.11 553.44Z" fill="#F9B499"/>
<path d="M314.59 603.75V609.18C314.59 609.18 328.37 616.05 334.88 607.97V601.62L314.59 603.75Z" fill="#2F2E41"/>
<path d="M334.88 582.69L320.63 587.34L314.59 582.07V574.79H334.88V582.69Z" fill="#F9B499"/>
<path d="M334.88 582.69V601.62C334.886 602.175 334.771 602.725 334.543 603.231C334.315 603.737 333.98 604.187 333.56 604.55C327.11 609.94 319.16 606.61 315.99 604.9C315.127 604.413 314.43 603.678 313.99 602.79L309 593.07C308.607 592.31 308.273 591.521 308 590.71C306.36 585.88 308.23 583.31 308.23 583.31C309.78 579.13 314.58 582.07 314.58 582.07L319.34 586.22C319.73 586.559 320.201 586.791 320.707 586.895C321.214 586.998 321.738 586.969 322.23 586.81L334.88 582.69Z" fill="#005048"/>
<path opacity="0.2" d="M334.88 596.55V601.62C334.886 602.175 334.771 602.725 334.543 603.231C334.315 603.737 333.98 604.187 333.56 604.55C327.11 609.94 319.16 606.61 315.99 604.9C315.127 604.413 314.43 603.678 313.99 602.79L309 593.07C308.607 592.31 308.273 591.521 308 590.71C310.585 590.771 313.144 590.19 315.45 589.02C315.66 588.906 315.897 588.853 316.135 588.865C316.373 588.877 316.604 588.954 316.801 589.088C316.998 589.222 317.155 589.408 317.253 589.626C317.352 589.843 317.389 590.083 317.36 590.32C316.89 594.25 316.72 600.78 320.47 601.74C320.48 601.74 329.46 604.39 334.88 596.55Z" fill="black"/>
<path d="M346.88 608.72C346.88 608.72 344.65 614.2 357.39 628.18L358.89 627.71C358.89 627.71 360.89 650.25 364.4 655.71C364.4 655.71 366.4 663.01 377.84 661.76C377.84 661.76 397.84 663.43 403.97 657.48C403.97 657.48 388.04 648.18 383.73 634.35C383.15 632.47 382.46 630.62 381.73 628.79L376.91 616.94C376.91 616.94 364.62 595.19 353.56 599.16C353.55 599.13 345.09 601.38 346.88 608.72Z" fill="#2F2E41"/>
<path opacity="0.2" d="M360.6 641.53C360.6 641.53 378.99 654.73 396.74 652.18C399.051 654.069 401.465 655.828 403.97 657.45C403.97 657.45 400.03 663.19 377.84 661.73C377.84 661.73 365.43 665.21 362.77 651.73L360.6 641.53Z" fill="black"/>
<path opacity="0.2" d="M358.89 627.71L367.1 624.46C367.21 624.418 367.332 624.416 367.444 624.455C367.555 624.494 367.65 624.572 367.71 624.673C367.769 624.775 367.791 624.895 367.771 625.012C367.751 625.128 367.691 625.234 367.6 625.31C364.28 628.06 359.32 632.94 359.96 637.11L358.89 627.71Z" fill="black"/>
<path d="M311.08 531.19L310.26 573.29C310.243 573.972 310.444 574.642 310.835 575.201C311.225 575.76 311.784 576.181 312.43 576.4C317.95 578.3 332.52 582.4 340.51 575.74C340.875 575.436 341.167 575.055 341.368 574.624C341.568 574.194 341.672 573.725 341.67 573.25V540.85C341.67 540.85 324.41 541.89 311.08 531.19Z" fill="#2F2E41"/>
<path d="M447.72 548.39C440.65 553.97 429.06 554.22 429.06 554.22C427.146 554.244 425.267 553.705 423.656 552.671C422.045 551.636 420.774 550.151 420 548.4L411.29 538.08C403.86 529.67 392.56 522.25 392.56 522.25C399.47 513.82 400.89 509.01 401.08 506.74C401.08 506.74 401.08 506.64 401.08 506.44C401.111 505.602 400.837 504.782 400.31 504.13C398.702 502.274 396.494 501.042 394.07 500.65C390.93 500.281 387.758 500.986 385.07 502.65C377.95 506.9 372.52 500.92 372.52 500.92C364.12 491.87 349.26 497.04 349.26 497.04C346.483 498.171 343.542 498.847 340.55 499.04C338.342 499.176 336.128 498.901 334.02 498.23C333.13 497.953 332.283 497.556 331.5 497.05C322.14 491.88 314.71 497.05 314.71 497.05C310.039 501.055 304.348 503.683 298.27 504.64C295.63 505.11 292.952 505.334 290.27 505.31C285.723 505.2 281.268 506.607 277.61 509.31C268.01 516.73 269.29 526.2 269.42 526.97C265.49 512.75 270.79 497.66 270.79 497.66C272.55 492.89 283.66 463.59 288.53 450.73C290.05 446.725 290.983 442.522 291.3 438.25L292.1 427.58C294.69 388.83 311.8 384.63 311.8 384.63C322.14 380.76 336.67 369.13 336.67 369.13C343.77 363.65 349.91 364.61 349.91 364.61C359.91 358.48 377.35 364.61 377.35 364.61C404.81 367.52 421.92 383.01 421.92 383.01C428.71 388.51 432.57 406.27 432.57 406.27C437.1 422.74 439.04 450.84 439.04 450.84C443.24 464.07 440.65 480.84 440.65 480.84C440.328 486.711 440.782 492.598 442 498.35C445.74 509.35 448.81 534.84 449.77 543.35C449.88 544.295 449.75 545.252 449.392 546.133C449.033 547.014 448.458 547.79 447.72 548.39Z" fill="#005048"/>
<g opacity="0.2">
<path d="M301.5 409.1C301.58 409.83 301.66 410.55 301.72 411.28C301.78 412.01 301.89 412.74 301.87 413.47C301.895 414.935 301.845 416.4 301.72 417.86C301.484 420.797 300.906 423.696 300 426.5C299.111 429.299 297.896 431.985 296.38 434.5C295.624 435.758 294.803 436.977 293.92 438.15C293.022 439.305 292.036 440.388 290.97 441.39C292.79 439.132 294.378 436.696 295.71 434.12C297.067 431.562 298.185 428.884 299.05 426.12C299.936 423.379 300.575 420.565 300.96 417.71C301.338 414.856 301.518 411.979 301.5 409.1Z" fill="black"/>
</g>
<path opacity="0.2" d="M340.58 498.92C338.372 499.061 336.157 498.786 334.05 498.11C329.46 446.33 340.58 436.22 340.58 436.22C332.18 476.59 340.58 498.92 340.58 498.92Z" fill="black"/>
<g opacity="0.2">
<path d="M317.65 391.67C319.777 389.901 322.215 388.544 324.84 387.67C326.143 387.205 327.48 386.843 328.84 386.59C330.194 386.322 331.57 386.188 332.95 386.19L329 387.34C327.7 387.72 326.42 388.15 325.15 388.6C323.88 389.05 322.63 389.54 321.37 390.04C320.11 390.54 318.89 391.08 317.65 391.67Z" fill="black"/>
</g>
<g opacity="0.2">
<path d="M351.23 394.57C353.74 394.06 356.301 393.849 358.86 393.94C361.423 394 363.978 394.261 366.5 394.72C369.02 395.2 371.5 395.869 373.92 396.72C375.13 397.11 376.31 397.63 377.5 398.09C378.69 398.55 379.81 399.18 380.94 399.76C378.52 398.96 376.13 398.11 373.69 397.45C373.08 397.29 372.47 397.13 371.86 396.95L370.02 396.51C368.8 396.19 367.55 395.98 366.32 395.73C363.84 395.26 361.32 394.95 358.82 394.73C357.56 394.61 356.3 394.57 355.04 394.54C353.78 394.51 352.5 394.5 351.23 394.57Z" fill="black"/>
</g>
<path opacity="0.2" d="M420 548.28L411.3 538C403.87 529.6 392.57 522.18 392.57 522.18C399.48 513.74 400.9 508.93 401.09 506.67C401.09 506.67 401.09 506.57 401.09 506.37C401.61 491.871 400.81 477.354 398.7 463C398.7 463 396.11 446.85 406.45 436.19C406.45 436.19 400.64 465.26 412.27 485.93C412.27 485.93 416.78 490.77 416.46 510.47C416.46 510.5 416.46 540.2 420 548.28Z" fill="black"/>
<g opacity="0.2">
<path d="M402.25 406.52C403.241 408.35 404.139 410.229 404.94 412.15C405.75 414.07 406.43 416.04 407.05 418.04C407.665 420.039 408.146 422.077 408.49 424.14C408.809 426.227 408.932 428.34 408.86 430.45L407.95 430.22C410.11 425.3 412.41 420.44 414.63 415.55C416.85 410.66 419.21 405.83 421.63 401.03C419.63 406.03 417.51 410.96 415.39 415.9C413.27 420.84 411.08 425.74 408.82 430.61L407.82 432.85L407.95 430.39C408.043 428.345 407.946 426.297 407.66 424.27C407.34 422.27 406.94 420.27 406.42 418.27C405.325 414.255 403.931 410.327 402.25 406.52Z" fill="black"/>
</g>
<path d="M305.74 540.51C274.84 552.27 269.45 526.9 269.45 526.9C269.32 526.12 268.04 516.66 277.64 509.24C281.298 506.537 285.753 505.13 290.3 505.24C292.981 505.259 295.659 505.035 298.3 504.57L304.09 521.57C302.84 527.08 305.46 535.11 306.71 538.45C306.839 538.852 306.811 539.289 306.631 539.671C306.451 540.053 306.132 540.353 305.74 540.51Z" fill="#005048"/>
<path opacity="0.2" d="M305.74 540.51C274.84 552.27 269.45 526.9 269.45 526.9C269.32 526.12 268.04 516.66 277.64 509.24C281.298 506.537 285.753 505.13 290.3 505.24C292.981 505.259 295.659 505.035 298.3 504.57L304.09 521.57C302.84 527.08 305.46 535.11 306.71 538.45C306.839 538.852 306.811 539.289 306.631 539.671C306.451 540.053 306.132 540.353 305.74 540.51Z" fill="black"/>
<path d="M401.09 506.62C400.34 511.62 397.72 515.3 395.64 518.25C394.688 519.598 393.663 520.894 392.57 522.13C380.49 541.3 348 540.21 348 540.21C335.587 542.322 322.84 539.498 312.48 532.34C297 521.79 290.3 505.2 290.3 505.2C307.21 505.54 314.74 496.94 314.74 496.94C323.07 491.72 331.53 496.94 331.53 496.94C339.39 501.29 349.29 496.94 349.29 496.94C364.85 491.56 372.55 500.82 372.55 500.82C378.96 506.82 385.1 502.55 385.1 502.55C394.92 496.76 400.33 504.01 400.33 504.01C401.71 505.49 401.09 506.62 401.09 506.62Z" fill="#2F2E41"/>
<path d="M341.67 540.85C341.67 540.85 355.21 557.85 359.48 579.61L412.13 584.75L407.83 534.14C403.092 529.716 397.987 525.701 392.57 522.14C392.57 522.14 383.29 539.7 348 540.21L341.67 540.85Z" fill="#2F2E41"/>
<path opacity="0.2" d="M341.67 540.85L346.54 548.28C347.694 546.399 349.423 544.94 351.471 544.119C353.519 543.298 355.776 543.158 357.91 543.72C360.34 544.328 362.851 544.551 365.35 544.38C370.91 543.93 380.35 542.38 389.03 537.52C391.7 536.017 394.68 535.148 397.74 534.98L407.85 534.37C407.85 534.37 396.75 524.31 392.57 522.13C392.57 522.13 383.57 539.7 348 540.21L341.67 540.85Z" fill="black"/>
<path opacity="0.2" d="M311.08 531.19L310.65 553.44C310.65 553.44 322.12 561.44 341.65 557.53V540.85C341.65 540.85 324 541.14 311.08 531.19Z" fill="black"/>
<path d="M458.11 573.51C458.11 573.51 465.82 581.83 473.94 583.05Z" fill="#F9B499"/>
<path opacity="0.2" d="M401.09 506.62C400.24 511.02 397.72 515.3 395.64 518.25H395.56C395.06 506.16 385.67 509.32 385.67 509.32C377.51 515.75 364.67 507.59 364.67 507.59C342.67 500.67 326.1 505.86 326.1 505.86C305.82 508.33 312.96 532.51 312.96 532.51C297.43 522 290.3 505.2 290.3 505.2C307.21 505.54 314.74 496.94 314.74 496.94C323.07 491.72 331.53 496.94 331.53 496.94C339.39 501.29 349.29 496.94 349.29 496.94C364.85 491.56 372.55 500.82 372.55 500.82C378.96 506.82 385.1 502.55 385.1 502.55C394.92 496.76 400.33 504.01 400.33 504.01C401.71 505.49 401.09 506.62 401.09 506.62Z" fill="black"/>
<path d="M412.7 589.6C412.593 592.426 411.426 595.107 409.43 597.11C403.307 603.136 396.132 607.989 388.26 611.43C387.26 611.87 386.26 612.29 385.21 612.69C384.909 609.539 384.237 606.434 383.21 603.44C380.39 594.98 373.65 583.6 357.68 582.52C357.68 582.52 361.88 570.82 384.27 568.83C384.971 568.762 385.676 568.739 386.38 568.76C387.233 568.758 388.084 568.812 388.93 568.92C395.66 569.76 413.21 573.53 412.7 589.6Z" fill="#2F2E41"/>
<path opacity="0.2" d="M412.71 589.6C412.605 592.428 411.433 595.111 409.43 597.11C402.515 603.91 394.274 609.213 385.22 612.69C384.913 609.536 384.242 606.429 383.22 603.43C389.55 599.36 405.7 586.31 386.39 568.75C387.243 568.752 388.095 568.809 388.94 568.92C395.66 569.76 413.22 573.53 412.71 589.6Z" fill="black"/>
<path d="M407.81 652.81C407.42 655.96 403.97 657.44 403.97 657.44C391.85 661.16 376.89 632.23 376.89 632.23L369.32 610.76C368.613 608.734 367.485 606.879 366.012 605.319C364.539 603.758 362.753 602.526 360.77 601.703C358.788 600.88 356.655 600.484 354.509 600.542C352.364 600.6 350.255 601.111 348.32 602.04L347.82 602.3C347.57 591.66 357.7 582.52 357.7 582.52C373.7 583.6 380.41 594.98 383.23 603.44C384.257 606.434 384.929 609.539 385.23 612.69C386.28 612.29 387.3 611.87 388.28 611.43C390.63 624.25 398 639.89 398 639.89C399.53 645.37 402.45 647.19 404.39 647.77C405.457 648.081 406.382 648.755 407.007 649.675C407.631 650.595 407.915 651.703 407.81 652.81Z" fill="#005048"/>
<path d="M346.88 608.72C346.88 608.72 348.42 600.83 356.18 601.97C358.818 602.4 361.218 603.754 362.95 605.79C366.643 610.246 369.885 615.056 372.63 620.15L376.2 617.15C376.2 617.15 371.64 600 358.44 596.9C356.004 596.252 353.416 596.504 351.15 597.61C348.43 599 345.58 602.1 346.88 608.72Z" fill="#2F2E41"/>
<path opacity="0.2" d="M346.88 608.72C346.88 608.72 348.42 600.83 356.18 601.97C358.818 602.4 361.218 603.754 362.95 605.79C366.643 610.246 369.885 615.056 372.63 620.15L376.2 617.15C376.2 617.15 371.64 600 358.44 596.9C356.004 596.252 353.416 596.504 351.15 597.61C348.43 599 345.58 602.1 346.88 608.72Z" fill="black"/>
<path d="M268.81 564.58C266.871 567.085 264.521 569.242 261.86 570.96C260.518 571.818 259.099 572.548 257.62 573.14C256.135 573.714 254.569 574.052 252.98 574.14C254.465 573.686 255.913 573.117 257.31 572.44C258.683 571.744 260.018 570.976 261.31 570.14C262.61 569.31 263.87 568.4 265.11 567.48C266.35 566.56 267.59 565.58 268.81 564.58Z" fill="#F7A48B"/>
<path d="M394.65 346.77V344.2C394.659 344.076 394.642 343.951 394.6 343.834C394.558 343.717 394.492 343.609 394.406 343.519C394.32 343.429 394.216 343.358 394.101 343.311C393.986 343.264 393.862 343.241 393.737 343.245C393.613 343.248 393.49 343.278 393.378 343.331C393.266 343.385 393.166 343.462 393.085 343.557C393.004 343.652 392.944 343.762 392.909 343.882C392.874 344.001 392.864 344.126 392.88 344.25C392.979 345.585 392.922 346.928 392.71 348.25C392.539 349.27 392.028 350.203 391.26 350.896C390.492 351.589 389.512 352.003 388.48 352.07C388.109 352.079 387.74 352.129 387.38 352.22C383.38 353.22 385.09 358.34 385.09 358.34C386.41 362.84 385.09 362.66 385.09 362.66C381.16 365.28 373.47 359.66 373.47 359.66C370.435 358.975 367.331 358.64 364.22 358.66C362.034 358.638 359.877 359.168 357.95 360.2L352 363.47C345.15 365 348.54 353 348.54 353C346.324 353.921 343.874 354.117 341.54 353.56C340.956 353.395 340.394 353.156 339.87 352.85C339.758 352.782 339.664 352.688 339.593 352.578C339.523 352.467 339.479 352.342 339.465 352.212C339.45 352.081 339.466 351.95 339.51 351.826C339.554 351.703 339.626 351.591 339.72 351.5C342.16 349.09 342.72 340.88 342.8 335.5C342.822 330.515 344.672 325.712 348 322C350.122 319.635 352.876 317.925 355.938 317.073C358.999 316.221 362.241 316.261 365.28 317.19C381.21 310.07 388.89 324.68 388.89 324.68C390.76 329.75 394.14 330.87 394.14 330.87C399.2 326.37 399.2 335.74 399.2 335.74C399.53 345.27 394.65 346.77 394.65 346.77Z" fill="#2F2E41"/>
<path opacity="0.2" d="M385.09 358.38C386.41 362.88 385.09 362.7 385.09 362.7C381.16 365.32 373.47 359.7 373.47 359.7C370.435 359.015 367.331 358.68 364.22 358.7C362.034 358.678 359.877 359.208 357.95 360.24L352 363.47C345.15 365 348.54 353 348.54 353C346.324 353.921 343.874 354.117 341.54 353.56C341.54 353.56 348.19 347.4 346.91 333.77C347.18 335.43 352.68 368.32 366.11 351.69C366.11 351.69 374.51 368.42 385.32 349.06C385.32 349.06 385.32 352.57 387.42 352.31C383.38 353.25 385.09 358.38 385.09 358.38Z" fill="black"/>
<path opacity="0.2" d="M392.88 344.25C392.88 344.25 393.53 337.92 393.71 333.72C394.72 337.116 395.039 340.679 394.65 344.2C394.65 344.2 394 341.83 392.88 344.25Z" fill="black"/>
<path d="M499.48 605.1V635.42L611.51 633.18V603.41L499.48 605.1Z" fill="#005048"/>
<path d="M499.48 605.1L468.39 580.63L474.27 579.48L512.68 604.9L499.48 605.1Z" fill="#005048"/>
<path opacity="0.3" d="M499.48 605.1L468.39 580.63L474.27 579.48L512.68 604.9L499.48 605.1Z" fill="black"/>
<path d="M465.5 592.45L496.67 627.56L499.48 605.1L468.39 580.63L465.5 592.45Z" fill="#D1D3D4"/>
<path d="M465.5 592.45L464.68 595.41L499.48 635.42V605.1L496.67 627.56L465.5 592.45Z" fill="#005048"/>
<path opacity="0.2" d="M465.5 592.45L464.68 595.41L499.48 635.42V605.1L496.67 627.56L465.5 592.45Z" fill="black"/>
<path d="M553.24 613.94H523.22V627.56H553.24V613.94Z" fill="#2F2E41"/>
<path d="M511.27 624.87C513.325 624.87 514.99 623.204 514.99 621.15C514.99 619.095 513.325 617.43 511.27 617.43C509.216 617.43 507.55 619.095 507.55 621.15C507.55 623.204 509.216 624.87 511.27 624.87Z" fill="#2F2E41"/>
<path opacity="0.2" d="M503.56 605.1C503.56 605.1 581.85 618.76 611.56 617.43V603.43L503.56 605.1Z" fill="black"/>
<path d="M507.55 579.86L475.14 567.22L592.82 565.36L619.59 578.46L507.55 579.86Z" fill="#808285"/>
<path d="M592.29 572.61L506.49 576.25V556.86L590.43 551.81L592.29 572.61Z" fill="#2F2E41"/>
<path d="M469.56 550.75L506.49 556.86L590.43 551.81L521.36 546.5L469.56 550.75Z" fill="#2F2E41"/>
<path opacity="0.2" d="M469.56 550.75L506.49 556.86L590.43 551.81L521.36 546.5L469.56 550.75Z" fill="black"/>
<path d="M506.49 573.6L469.56 560.84V550.75L506.49 556.86V573.6Z" fill="#D1D3D4"/>
<path d="M469.56 560.84V562.17L506.49 576.25V573.6L469.56 560.84Z" fill="#2F2E41"/>
<path opacity="0.2" d="M506.49 576.25V566.72C506.49 566.72 566.27 573.67 591.77 566.72L592.29 572.61L506.49 576.25Z" fill="black"/>
<path d="M473.16 584.38V566.72L507.55 579.86V605.1L473.16 584.38Z" fill="#D1D3D4"/>
<path d="M507.55 579.86V605.1L619.59 603.23V578.46L507.55 579.86Z" fill="#939598"/>
<path opacity="0.2" d="M507.55 591.78C507.55 591.78 597.47 606.54 619.55 600.69V603.23L507.55 605.1V591.78Z" fill="black"/>
<path d="M560.97 587.67H531.72V599.07H560.97V587.67Z" fill="#808285"/>
</svg>
