<svg width="866" height="683" viewBox="0 0 866 683" fill="none" xmlns="http://www.w3.org/2000/svg">
<path d="M141.65 665C141.65 665 41.09 583.79 52.92 498.55C64.75 413.31 161.37 484.34 185 407.22C208.63 330.1 121.47 229.33 200.57 159C279.67 88.6699 352.63 155.6 401.92 141.39C451.21 127.18 447.27 17.5499 559.66 15.5199C672.05 13.4899 765.22 82.5199 723.57 280.38C681.92 478.24 810.07 500.58 827.82 571.61C845.57 642.64 801.82 667.42 801.82 667.42L141.65 665Z" fill="#00403A"/>
<path opacity="0.7" d="M141.65 665C141.65 665 41.09 583.79 52.92 498.55C64.75 413.31 161.37 484.34 185 407.22C208.63 330.1 121.47 229.33 200.57 159C279.67 88.6699 352.63 155.6 401.92 141.39C451.21 127.18 447.27 17.5499 559.66 15.5199C672.05 13.4899 765.22 82.5199 723.57 280.38C681.92 478.24 810.07 500.58 827.82 571.61C845.57 642.64 801.82 667.42 801.82 667.42L141.65 665Z" fill="white"/>
<path d="M112.53 391.14C112.53 391.14 138.47 369.79 146.71 379.82C146.71 379.82 152.87 383.66 139.36 391.14C139.36 391.14 69.36 412.9 131.1 508.46L172.6 485.94C172.6 485.94 244.35 451.94 227.38 423.34C227.38 423.34 210.97 370.34 238.97 367.19C238.97 367.19 255.97 367.19 251.06 391.14C251.06 391.14 240.62 428.28 245.56 443.14C245.56 443.14 264.36 432.43 273.36 425.98C273.36 425.98 352.65 361.54 357.36 360.88C362.07 360.22 363.95 352.69 363.95 352.69L352.69 321.77L313.93 310.24C313.93 310.24 235.66 300.87 197.05 317.91C197.05 317.91 210.8 322.66 203.98 327.23C202.333 328.297 200.401 328.837 198.44 328.78C187.15 328.59 134.42 331.15 112.53 391.14Z" fill="#939598"/>
<mask id="mask0_499_37038" style="mask-type:luminance" maskUnits="userSpaceOnUse" x="105" y="307" width="259" height="202">
<path d="M112.53 391.14C112.53 391.14 138.47 369.79 146.71 379.82C146.71 379.82 152.87 383.66 139.36 391.14C139.36 391.14 69.36 412.9 131.1 508.46L172.6 485.94C172.6 485.94 244.35 451.94 227.38 423.34C227.38 423.34 210.97 370.34 238.97 367.19C238.97 367.19 255.97 367.19 251.06 391.14C251.06 391.14 240.62 428.28 245.56 443.14C245.56 443.14 264.36 432.43 273.36 425.98C273.36 425.98 352.65 361.54 357.36 360.88C362.07 360.22 363.95 352.69 363.95 352.69L352.69 321.77L313.93 310.24C313.93 310.24 235.66 300.87 197.05 317.91C197.05 317.91 210.8 322.66 203.98 327.23C202.333 328.297 200.401 328.837 198.44 328.78C187.15 328.59 134.42 331.15 112.53 391.14Z" fill="white"/>
</mask>
<g mask="url(#mask0_499_37038)">
<path d="M131.1 508.46C131.1 508.46 117.22 432.12 172.6 377.76C172.6 377.76 230.6 321.19 306.99 324.22L363.91 352.66L354.85 387.21L237.13 463.54C237.13 463.54 143.5 511.21 131.1 508.46Z" fill="#BCBEC0"/>
</g>
<path d="M135.47 367.19C135.47 367.19 166.36 334.19 232.3 339.19" stroke="#A7A9AC" stroke-width="2.29" stroke-miterlimit="10"/>
<path d="M180.76 357.7C180.76 357.7 197.47 340.38 227.83 341.22" stroke="#A7A9AC" stroke-width="2.29" stroke-miterlimit="10"/>
<path d="M199.71 425.94C206.233 425.94 211.52 414.416 211.52 400.2C211.52 385.984 206.233 374.46 199.71 374.46C193.188 374.46 187.9 385.984 187.9 400.2C187.9 414.416 193.188 425.94 199.71 425.94Z" fill="#D1D3D4"/>
<path d="M282.45 367.19C282.45 367.19 274.98 349.34 295.52 341.19L282.45 367.19Z" fill="#D1D3D4"/>
<path d="M101.2 391.15C107.457 391.15 112.53 386.078 112.53 379.82C112.53 373.563 107.457 368.49 101.2 368.49C94.9426 368.49 89.87 373.563 89.87 379.82C89.87 386.078 94.9426 391.15 101.2 391.15Z" fill="#2F2E41"/>
<path d="M112.53 453.25C115.96 453.25 113.53 418.61 158.4 394.07" stroke="#A7A9AC" stroke-width="2.29" stroke-miterlimit="10"/>
<path d="M158.4 324.22V453.22H73.58L91 425.18C93.3143 421.451 94.1355 416.985 93.2993 412.676C92.4632 408.368 90.0313 404.533 86.49 401.94C84.5667 400.529 82.374 399.528 80.0478 399C77.7217 398.471 75.3117 398.426 72.9676 398.868C70.6234 399.31 68.3949 400.228 66.4206 401.567C64.4462 402.906 62.7679 404.636 61.49 406.65L26 462.28C24.3003 464.943 23.3478 468.014 23.2423 471.172C23.1367 474.329 23.8821 477.457 25.4003 480.228C26.9185 482.998 29.1536 485.309 31.8717 486.92C34.5898 488.53 37.6908 489.38 40.85 489.38H159.85V545.38C159.85 549.968 161.673 554.369 164.917 557.613C168.161 560.858 172.562 562.68 177.15 562.68C179.422 562.681 181.672 562.235 183.772 561.366C185.872 560.497 187.779 559.223 189.386 557.616C190.993 556.009 192.267 554.102 193.136 552.002C194.005 549.903 194.451 547.652 194.45 545.38V489.38H221.02C223.379 489.389 225.716 488.933 227.898 488.036C230.079 487.14 232.062 485.821 233.733 484.156C235.404 482.491 236.729 480.512 237.633 478.333C238.537 476.155 239.001 473.819 239 471.46C239 466.709 237.113 462.153 233.755 458.792C230.396 455.432 225.841 453.543 221.09 453.54H194.9L195.31 308.15C195.311 304.085 194.512 300.06 192.957 296.305C191.402 292.549 189.122 289.137 186.248 286.262C183.374 283.388 179.961 281.108 176.206 279.553C172.45 277.999 168.425 277.199 164.36 277.2C153.64 277.2 140.82 282.15 135.18 291.26L110.13 333.85C108.963 335.691 108.176 337.746 107.815 339.896C107.454 342.045 107.527 344.245 108.029 346.366C108.532 348.487 109.453 350.486 110.74 352.245C112.026 354.004 113.651 355.488 115.52 356.61C118.947 358.662 123.007 359.388 126.933 358.651C130.859 357.914 134.38 355.765 136.83 352.61L158.4 324.22Z" fill="#00403A"/>
<path opacity="0.36" d="M158.4 324.22V453.22H73.58L91 425.18C93.3143 421.451 94.1355 416.985 93.2993 412.676C92.4632 408.368 90.0313 404.533 86.49 401.94C84.5667 400.529 82.374 399.528 80.0478 399C77.7217 398.471 75.3117 398.426 72.9676 398.868C70.6234 399.31 68.3949 400.228 66.4206 401.567C64.4462 402.906 62.7679 404.636 61.49 406.65L26 462.28C24.3003 464.943 23.3478 468.014 23.2423 471.172C23.1367 474.329 23.8821 477.457 25.4003 480.228C26.9185 482.998 29.1536 485.309 31.8717 486.92C34.5898 488.53 37.6908 489.38 40.85 489.38H159.85V545.38C159.85 549.968 161.673 554.369 164.917 557.613C168.161 560.858 172.562 562.68 177.15 562.68C179.422 562.681 181.672 562.235 183.772 561.366C185.872 560.497 187.779 559.223 189.386 557.616C190.993 556.009 192.267 554.102 193.136 552.002C194.005 549.903 194.451 547.652 194.45 545.38V489.38H221.02C223.379 489.389 225.716 488.933 227.898 488.036C230.079 487.14 232.062 485.821 233.733 484.156C235.404 482.491 236.729 480.512 237.633 478.333C238.537 476.155 239.001 473.819 239 471.46C239 466.709 237.113 462.153 233.755 458.792C230.396 455.432 225.841 453.543 221.09 453.54H194.9L195.31 308.15C195.311 304.085 194.512 300.06 192.957 296.305C191.402 292.549 189.122 289.137 186.248 286.262C183.374 283.388 179.961 281.108 176.206 279.553C172.45 277.999 168.425 277.199 164.36 277.2C153.64 277.2 140.82 282.15 135.18 291.26L110.13 333.85C108.963 335.691 108.176 337.746 107.815 339.896C107.454 342.045 107.527 344.245 108.029 346.366C108.532 348.487 109.453 350.486 110.74 352.245C112.026 354.004 113.651 355.488 115.52 356.61C118.947 358.662 123.007 359.388 126.933 358.651C130.859 357.914 134.38 355.765 136.83 352.61L158.4 324.22Z" fill="white"/>
<path d="M785.51 460.84C785.51 460.84 794.06 452.09 799.4 464.9C799.4 464.9 803.32 474.16 799.4 486.63C799.4 486.63 798.33 491.25 811.15 496.95C811.15 496.95 827.53 502.65 830.74 506.21C830.74 506.21 847.36 480.82 841.06 448.56C839.883 442.366 836.815 436.69 832.28 432.31C826.654 426.868 819.872 422.766 812.44 420.31C811.879 420.144 811.393 419.79 811.063 419.307C810.734 418.825 810.581 418.243 810.63 417.66C810.85 416.05 812.72 414.33 820.41 415.37C820.41 415.37 824.88 416.43 830.64 418.29C830.64 418.29 821.38 387.6 778.13 385.54H769C768.215 385.54 767.446 385.322 766.779 384.909C766.112 384.496 765.573 383.905 765.223 383.203C764.873 382.501 764.726 381.715 764.798 380.934C764.87 380.153 765.158 379.407 765.63 378.78C765.9 378.44 766.97 378.06 766.63 377.72C762.92 374.42 742.75 374.83 742.75 374.83V422.75C742.75 422.75 748.89 420.25 752.15 425.9C752.612 426.722 752.949 427.609 753.15 428.53C753.79 431.24 755.06 438.38 755.53 453.76L771.53 454.07C771.53 454.07 780.39 453.86 785.51 460.84Z" fill="#D1D3D4"/>
<path d="M776.672 449.083C780.77 448.523 783.097 440.789 781.868 431.81C780.64 422.83 776.321 416.006 772.223 416.566C768.125 417.127 765.798 424.861 767.026 433.84C768.255 442.819 772.573 449.644 776.672 449.083Z" fill="#BCBEC0"/>
<path d="M798.27 450.314C800.795 449.79 801.838 444.522 800.6 438.546C799.361 432.57 796.31 428.15 793.784 428.674C791.259 429.197 790.216 434.466 791.454 440.442C792.693 446.417 795.744 450.837 798.27 450.314Z" fill="#BCBEC0"/>
<path d="M744.588 387.213C750.678 386.821 755.498 384.688 755.354 382.451C755.209 380.213 750.155 378.717 744.065 379.11C737.975 379.503 733.155 381.635 733.299 383.873C733.444 386.11 738.498 387.606 744.588 387.213Z" fill="#BCBEC0"/>
<path d="M742.35 395.36C744.904 395.574 747.443 395.948 749.95 396.48C751.2 396.73 752.45 397 753.68 397.32C754.91 397.64 756.16 397.92 757.37 398.32C759.83 399 762.23 399.87 764.63 400.72C765.82 401.17 766.99 401.67 768.18 402.15L769.95 402.87L771.68 403.68C780.946 407.972 789.523 413.617 797.13 420.43C799 422.16 800.77 424 802.59 425.78C804.41 427.56 805.93 429.6 807.59 431.5C809.277 433.426 810.818 435.475 812.2 437.63C813.61 439.75 814.88 441.95 816.11 444.17C818.55 448.62 820.74 453.17 822.77 457.82C824.8 462.47 826.56 467.2 828.23 471.96C824.442 462.62 820.022 453.549 815 444.81C813.7 442.67 812.38 440.53 811 438.47C809.617 436.4 808.079 434.438 806.4 432.6C804.71 430.75 803.07 428.84 801.33 427.05C799.59 425.26 797.73 423.57 795.87 421.9C788.357 415.297 779.938 409.801 770.87 405.58L769.18 404.77L767.45 404.05C766.29 403.57 765.15 403.05 763.98 402.62L760.46 401.35C759.29 400.9 758.08 400.59 756.89 400.2C752.111 398.703 747.208 397.632 742.24 397L742.35 395.36Z" fill="#A7A9AC"/>
<path d="M802.68 425.8C806.54 426.751 810.244 428.25 813.68 430.25C817.116 432.194 820.305 434.544 823.18 437.25C826.051 439.931 828.583 442.954 830.72 446.25C831.797 447.873 832.775 449.559 833.65 451.3C834.094 452.16 834.488 453.045 834.83 453.95L835.93 456.63C834.145 453.236 832.067 450.003 829.72 446.97C827.413 443.952 824.773 441.205 821.85 438.78C818.987 436.314 815.862 434.171 812.53 432.39C810.88 431.488 809.185 430.674 807.45 429.95C805.743 429.19 803.989 428.539 802.2 428L802.68 425.8Z" fill="#A7A9AC"/>
<path d="M814.51 415.18C808.7 415.85 811.24 419.55 811.24 419.55C811.24 419.55 803.39 414.28 812.44 412.9C817.502 412.552 822.521 414.036 826.58 417.08C826.58 417.08 820.23 414.71 814.51 415.18Z" fill="#BCBEC0"/>
<path d="M744.11 395.79C746.988 394.722 749.943 393.876 752.95 393.26C755.942 392.682 758.963 392.261 762 392C768.103 391.483 774.244 391.647 780.31 392.49C781.83 392.62 783.31 392.99 784.83 393.24C786.336 393.497 787.828 393.831 789.3 394.24L793.73 395.41C795.19 395.84 796.61 396.41 798.05 396.89C800.96 397.82 803.69 399.17 806.48 400.37L807.48 400.84C807.82 401.01 808.15 401.21 808.48 401.39L810.48 402.48C811.813 403.213 813.147 403.953 814.48 404.7C813.09 404.1 811.7 403.5 810.32 402.88L808.25 401.96C807.91 401.81 807.57 401.65 807.25 401.51L806.18 401.13C803.34 400.13 800.57 398.93 797.65 398.19C796.21 397.79 794.78 397.33 793.33 396.95L788.94 395.95C787.49 395.58 786 395.38 784.53 395.14C783.06 394.9 781.58 394.6 780.09 394.5L775.62 394.04L771.14 393.85C768.14 393.78 765.14 393.85 762.14 394.02C756.174 394.368 750.265 395.374 744.52 397.02L744.11 395.79Z" fill="#A7A9AC"/>
<path d="M742.72 422.79L742.3 416.19C742.3 416.19 756.57 411.81 757.95 434.05C759.33 456.29 757.95 453.84 757.95 453.84H755.49L753.9 432.84C753.9 432.84 753.59 419.77 742.72 422.79Z" fill="#BCBEC0"/>
<path d="M782.72 457.94C782.72 457.94 787.14 450.29 794.11 454.15C795.592 454.989 796.854 456.168 797.79 457.59C799.39 460.01 801.44 464.59 800.97 471.94C800.97 471.94 798.51 449.74 785.51 460.84L782.72 457.94Z" fill="#BCBEC0"/>
<path d="M799.4 486.63C799.4 486.63 804.49 492.54 817.33 495.28C817.33 495.28 826.68 497.94 829.62 500.5C829.62 500.5 840.25 483.82 842.48 462.5C842.784 477.888 838.713 493.046 830.74 506.21C830.74 506.21 826.24 501.66 816.53 498.95C816.53 499 800.35 494.72 799.4 486.63Z" fill="#BCBEC0"/>
<path d="M766.87 425.86C766.87 425.86 768.8 419.12 773.26 419.55C773.26 419.55 778.61 420.43 779.79 423.88C779.79 423.88 776.51 415.59 772.22 416.56C772.22 416.56 768.47 416.19 766.87 425.86Z" fill="#A7A9AC"/>
<path d="M791 434.88C791 434.88 793.81 427.78 798.67 432.81C798.67 432.81 797.09 428.5 793.83 428.7C793.78 428.7 790.44 429.3 791 434.88Z" fill="#A7A9AC"/>
<path d="M385.92 559.52C385.92 559.52 394.05 563.1 415.25 562.28V527.1L400 526.33C400 526.33 395.54 529.96 392.84 530.83C392.87 530.83 393.42 549.37 385.92 559.52Z" fill="#00403A"/>
<path opacity="0.5" d="M385.92 559.52C385.92 559.52 394.05 563.1 415.25 562.28V527.1L400 526.33C400 526.33 395.54 529.96 392.84 530.83C392.87 530.83 393.42 549.37 385.92 559.52Z" fill="white"/>
<path d="M636.31 380.43C654.281 380.43 668.85 365.861 668.85 347.89C668.85 329.919 654.281 315.35 636.31 315.35C618.339 315.35 603.77 329.919 603.77 347.89C603.77 365.861 618.339 380.43 636.31 380.43Z" fill="#00403A"/>
<path opacity="0.9" d="M636.31 380.43C654.281 380.43 668.85 365.861 668.85 347.89C668.85 329.919 654.281 315.35 636.31 315.35C618.339 315.35 603.77 329.919 603.77 347.89C603.77 365.861 618.339 380.43 636.31 380.43Z" fill="white"/>
<path d="M519.35 227.75L529.24 228.34L530.24 265.81L520.57 265.06C520.57 265.06 530 237.25 519.35 227.75Z" fill="#2F2E41"/>
<path d="M516.86 224.54C516.86 224.54 522.35 220.42 524.27 217.67C524.27 217.67 526.19 213.91 533.33 214.01L543.22 209.16C543.22 209.16 555.85 203.94 561.89 216.85L544 216.33C537.117 218.587 531.084 222.884 526.7 228.65H521.49C521.49 228.65 520.7 226.73 516.86 224.54Z" fill="#F7A48B"/>
<path d="M520.6 227.39L527.23 221.39C527.23 221.39 532.23 216.16 535.8 216.9C535.8 216.9 554.18 210.08 556.95 216.8L527.9 228.7H521.53L520.6 227.39Z" fill="#F9B499"/>
<path d="M575.37 223.65L574.9 223.26C574.83 223.26 568.28 217.92 557.02 219.48L556.5 219.55V219.03C556.44 218.33 555.08 201.86 562.4 194.75C563.699 193.507 565.271 192.583 566.989 192.054C568.708 191.524 570.526 191.403 572.3 191.7C574.057 192.182 575.685 193.048 577.068 194.234C578.452 195.42 579.555 196.897 580.3 198.56C582.95 204.45 581.41 212.72 575.74 223.11L575.37 223.65ZM561.21 218.19C566.117 218.066 570.944 219.44 575.05 222.13C580.34 212.27 581.78 204.48 579.32 198.98C578.633 197.474 577.631 196.133 576.382 195.046C575.133 193.959 573.666 193.153 572.08 192.68C570.466 192.42 568.814 192.536 567.253 193.02C565.692 193.504 564.263 194.342 563.08 195.47C556.81 201.57 557.28 215.55 557.45 218.42C558.698 218.27 559.953 218.193 561.21 218.19Z" fill="#2F2E41"/>
<path d="M581.062 328.956C598.789 323.933 611.848 315.235 610.231 309.528C608.614 303.821 592.933 303.267 575.207 308.289C557.48 313.312 544.421 322.01 546.038 327.717C547.655 333.424 563.336 333.978 581.062 328.956Z" fill="#2F2E41"/>
<path d="M484.39 296.74C484.39 296.74 515.69 310.48 539.39 350.86L470 354L463.18 303L484.39 296.74Z" fill="#00403A"/>
<path opacity="0.8" d="M484.39 296.74C484.39 296.74 515.69 310.48 539.39 350.86L470 354L463.18 303L484.39 296.74Z" fill="#00403A"/>
<g opacity="0.36">
<path d="M484.39 296.74C484.39 296.74 515.69 310.48 539.39 350.86L470 354L463.18 303L484.39 296.74Z" fill="white"/>
<path opacity="0.8" d="M484.39 296.74C484.39 296.74 515.69 310.48 539.39 350.86L470 354L463.18 303L484.39 296.74Z" fill="white"/>
</g>
<path d="M412.24 333.08C412.24 333.08 394.07 330.99 398.91 321.08C398.91 321.08 401.39 316.6 412.13 315.33L412.24 333.08Z" fill="#2F2E41"/>
<path d="M467.81 317.88C467.81 317.88 471.98 317.88 474.61 319.64L470.3 331.64L467.81 317.88Z" fill="#2F2E41"/>
<path d="M143.55 275.07C143.55 275.07 115.24 218.92 200.63 195.42C200.63 195.42 210.71 234.55 248.63 228.65C248.63 228.65 260.63 220.5 232.8 202.2C232.8 202.2 217.45 194.67 211.21 192.89C211.21 192.89 252.48 178.28 271.42 202.2C275.208 208.265 277.599 215.097 278.42 222.2C278.42 222.2 280.91 238.35 290.23 239.54C290.23 239.54 302.41 240.95 294.23 212.42C294.23 212.42 283.23 196.57 278.4 192.87C278.4 192.87 318.64 193.24 321.55 216.87C321.55 216.87 314.86 258.02 334.05 265.87C334.05 265.87 351.32 265.42 336.45 227.57C336.45 227.57 333.57 217.05 328.29 212.5C328.29 212.5 375.64 247.02 382.91 320.31L384.91 345.63L363.97 352.72C363.97 352.72 316.14 344.56 295.58 341.28C295.58 341.28 283.69 339.39 279.37 328.84C279.37 328.84 304.37 328.84 312.96 316.28C313.806 315.103 314.262 313.69 314.262 312.24C314.262 310.79 313.806 309.377 312.96 308.2C310.71 305.2 306.05 302.43 296.68 307.25C296.68 307.25 234.32 349.48 214.17 315.41C214.17 315.41 284.17 301.5 277.01 280.87C277.01 280.87 273.65 271.87 248.23 285.01C248.23 285.01 171.11 332.92 152.17 281.85C152.17 281.85 181.17 278.77 185.77 265.16C186.067 264.323 186.17 263.428 186.07 262.545C185.971 261.662 185.672 260.813 185.196 260.063C184.72 259.312 184.08 258.68 183.323 258.213C182.567 257.747 181.714 257.458 180.83 257.37C177.64 257.04 172.67 257.8 164.94 261.25C164.84 261.19 151.06 268.36 143.55 275.07Z" fill="#D1D3D4"/>
<path d="M462.909 311.475C488.072 307.02 502.293 268.519 494.673 225.481C487.054 182.442 460.478 151.164 435.315 155.619C410.152 160.074 395.931 198.575 403.551 241.614C411.17 284.652 437.746 315.93 462.909 311.475Z" fill="#F9B499"/>
<path d="M363.91 285C363.91 285 356.26 305 370 314.86C371.917 316.207 374.129 317.075 376.45 317.39C383.15 318.39 399.17 319.08 412.27 307.46L411.89 269.86C411.89 269.86 403.52 278.61 390.32 262.14C390.32 262.14 386.27 254.91 385.71 251.8C385.68 251.8 363.91 274.79 363.91 285Z" fill="#00403A"/>
<path opacity="0.2" d="M363.91 285C363.91 285 356.26 305 370 314.86C371.917 316.207 374.129 317.075 376.45 317.39C383.15 318.39 399.17 319.08 412.27 307.46L411.89 269.86C411.89 269.86 403.52 278.61 390.32 262.14C390.32 262.14 386.27 254.91 385.71 251.8C385.68 251.8 363.91 274.79 363.91 285Z" fill="black"/>
<path d="M400.46 271C400.46 271 396.86 280.53 382.86 288.77C382.86 288.77 396.86 284.1 404.28 274.49C402.862 282.196 399.125 289.285 393.57 294.81C393.57 294.81 403.73 299.48 412.24 297.56L411.86 269.84C411.86 269.84 407.47 274.19 400.46 271Z" fill="#2F2E41"/>
<path d="M464.27 154.92C464.27 154.92 467.87 155.16 469.09 157.3C469.09 157.3 476.44 149.19 481.34 156.58C482.468 158.403 483.289 160.4 483.77 162.49C483.77 162.49 497.83 161.93 483.77 174.44C483.77 174.44 479.83 171.12 470.77 171.85C470.77 171.85 459.77 174.34 450.05 173.46C450.06 173.46 446.13 153.47 464.27 154.92Z" fill="#2F2E41"/>
<path d="M398.06 166.65C398.06 166.65 398.06 161.01 405.06 158.49C405.06 158.49 410.06 157.64 413.91 159.99L408.25 166.65H398.06Z" fill="#2F2E41"/>
<path d="M412.24 333.08L411.86 269.86C411.86 269.86 430.02 318.24 466.49 310.61L471.1 336C471.1 336 470.3 353.08 469.64 360.85C469.64 360.85 457.86 334.58 445.97 334.54L412.24 333.08Z" fill="#F9B499"/>
<path d="M411.86 269.86C411.86 269.86 415.43 321.36 470.3 331.61L466.49 310.61C466.49 310.61 433.86 323.05 411.86 269.86Z" fill="#F7A48B"/>
<path d="M418.56 527.27L353.89 524L361.78 463C352.78 477.41 328.78 499.57 328.78 499.57L374.12 495.57C360.48 506.68 363.36 524 363.36 524C364.6 555.71 381.9 562.3 381.9 562.3C371.19 570.13 343.59 570.13 343.59 570.13L256.27 566.42C233.21 561.89 231.15 546.65 231.15 546.65C222.91 525.65 250.92 489.4 250.92 489.4L305.61 403.46C308.729 398.613 311.48 393.539 313.84 388.28C330.53 350.41 363.91 352.68 363.91 352.68L395.7 336C393.95 327.82 398.91 321.1 398.91 321.1C398.91 321.1 391.08 332.65 425.03 333.64L445.97 334.54C445.97 334.54 454.38 333.16 463.24 348.04L469.64 360.85L471.1 336L470.3 331.61L474.61 319.61C474.61 319.61 485.01 317.32 487.75 340.66C487.75 340.66 539.65 339.56 558.32 365.92L546.24 327.48C546.24 327.48 555.3 338.6 583.31 326.65C587.02 326.65 601.84 319.65 610.08 310.18L634.38 380.18L533.06 546.55L418.56 527.27Z" fill="#00403A"/>
<path opacity="0.2" d="M361.78 463L391.37 426C391.37 426 367.75 491.22 357.32 497.53L361.78 463Z" fill="black"/>
<path d="M381.9 562.28C381.9 562.28 392.14 561.11 392.9 530.83C392.9 530.83 372.17 539.04 365.57 539.31C365.54 539.31 369.1 555.42 381.9 562.28Z" fill="#2F2E41"/>
<path d="M374.07 495.56V498.85L366.34 505.35C366.34 505.35 371 498 374.07 495.56Z" fill="#2F2E41"/>
<path d="M516.86 268.47C516.86 268.47 534.71 291.81 551.18 290.71C551.18 290.71 566.33 307.42 568.64 331.61C568.64 331.61 594.17 323.54 600.45 318.61C594.515 307.729 590.57 295.877 588.8 283.61C588.8 283.61 585.23 266 583 264.35L560 273.14L522.38 261.88C522.38 261.88 520.43 266.82 516.86 268.47Z" fill="#F9B499"/>
<path opacity="0.2" d="M395.36 339.22C395.36 339.22 390.5 367.1 409.31 387.22C409.31 387.22 417.67 361.28 445.31 342.79C445.31 342.79 426.83 348.65 408.31 371.18C408.33 371.17 396.82 361.69 395.36 339.22Z" fill="black"/>
<path opacity="0.2" d="M485.51 357.7C485.51 357.7 477.34 333.94 483.05 324.7C485.739 329.62 487.342 335.059 487.75 340.65L485.51 357.7Z" fill="black"/>
<path opacity="0.2" d="M463.22 371.17C465.418 371.17 467.2 369.388 467.2 367.19C467.2 364.992 465.418 363.21 463.22 363.21C461.022 363.21 459.24 364.992 459.24 367.19C459.24 369.388 461.022 371.17 463.22 371.17Z" fill="black"/>
<path d="M566.07 354.9L491.05 393.98V603.75L566.07 565.37V354.9Z" fill="#E6E7E8"/>
<path d="M641.48 603.75L566.07 565.37V354.9L641.48 395.35V603.75Z" fill="#00403A"/>
<path opacity="0.8" d="M641.48 603.75L566.07 565.37V354.9L641.48 395.35V603.75Z" fill="white"/>
<path d="M641.48 395.35L705.23 363.21V546.55L641.48 603.75V395.35Z" fill="#E6E7E8"/>
<path d="M706 324.22V453.22H621.18L638.62 425.15C640.934 421.421 641.755 416.955 640.919 412.646C640.083 408.338 637.651 404.503 634.11 401.91C632.187 400.499 629.994 399.498 627.668 398.97C625.342 398.441 622.932 398.396 620.588 398.838C618.243 399.28 616.015 400.198 614.041 401.537C612.066 402.876 610.388 404.606 609.11 406.62L573.6 462.25C571.9 464.913 570.948 467.984 570.842 471.142C570.737 474.299 571.482 477.427 573 480.198C574.518 482.968 576.754 485.279 579.472 486.89C582.19 488.5 585.291 489.35 588.45 489.35H707.45V545.35C707.45 549.938 709.273 554.339 712.517 557.583C715.761 560.828 720.162 562.65 724.75 562.65C729.338 562.65 733.739 560.828 736.983 557.583C740.227 554.339 742.05 549.938 742.05 545.35V489.35L771.47 489.91C773.826 489.917 776.161 489.458 778.339 488.561C780.518 487.664 782.498 486.346 784.167 484.682C785.835 483.018 787.159 481.042 788.062 478.866C788.965 476.689 789.43 474.356 789.43 472C789.43 467.248 787.542 462.689 784.181 459.329C780.821 455.968 776.263 454.08 771.51 454.08L742.51 453.51L742.92 308.12C742.915 299.921 739.655 292.06 733.858 286.262C728.06 280.465 720.199 277.205 712 277.2C701.28 277.2 688.46 282.15 682.82 291.26L657.82 333.85C656.653 335.691 655.866 337.746 655.505 339.896C655.144 342.045 655.217 344.245 655.719 346.366C656.222 348.487 657.143 350.486 658.43 352.245C659.716 354.004 661.341 355.488 663.21 356.61C666.638 358.662 670.697 359.388 674.623 358.651C678.549 357.914 682.07 355.765 684.52 352.61L706 324.22Z" fill="#00403A"/>
<path opacity="0.36" d="M706 324.22V453.22H621.18L638.62 425.15C640.934 421.421 641.755 416.955 640.919 412.646C640.083 408.338 637.651 404.503 634.11 401.91C632.187 400.499 629.994 399.498 627.668 398.97C625.342 398.441 622.932 398.396 620.588 398.838C618.243 399.28 616.015 400.198 614.041 401.537C612.066 402.876 610.388 404.606 609.11 406.62L573.6 462.25C571.9 464.913 570.948 467.984 570.842 471.142C570.737 474.299 571.482 477.427 573 480.198C574.518 482.968 576.754 485.279 579.472 486.89C582.19 488.5 585.291 489.35 588.45 489.35H707.45V545.35C707.45 549.938 709.273 554.339 712.517 557.583C715.761 560.828 720.162 562.65 724.75 562.65C729.338 562.65 733.739 560.828 736.983 557.583C740.227 554.339 742.05 549.938 742.05 545.35V489.35L771.47 489.91C773.826 489.917 776.161 489.458 778.339 488.561C780.518 487.664 782.498 486.346 784.167 484.682C785.835 483.018 787.159 481.042 788.062 478.866C788.965 476.689 789.43 474.356 789.43 472C789.43 467.248 787.542 462.689 784.181 459.329C780.821 455.968 776.263 454.08 771.51 454.08L742.51 453.51L742.92 308.12C742.915 299.921 739.655 292.06 733.858 286.262C728.06 280.465 720.199 277.205 712 277.2C701.28 277.2 688.46 282.15 682.82 291.26L657.82 333.85C656.653 335.691 655.866 337.746 655.505 339.896C655.144 342.045 655.217 344.245 655.719 346.366C656.222 348.487 657.143 350.486 658.43 352.245C659.716 354.004 661.341 355.488 663.21 356.61C666.638 358.662 670.697 359.388 674.623 358.651C678.549 357.914 682.07 355.765 684.52 352.61L706 324.22Z" fill="white"/>
<path d="M648.8 391.15C655.057 391.15 660.13 386.078 660.13 379.82C660.13 373.563 655.057 368.49 648.8 368.49C642.543 368.49 637.47 373.563 637.47 379.82C637.47 386.078 642.543 391.15 648.8 391.15Z" fill="#2F2E41"/>
<path d="M558.65 275.32C558.65 275.32 528.52 279.95 524.41 258.14C526.112 254.263 526.975 250.07 526.944 245.836C526.913 241.602 525.988 237.422 524.23 233.57C524.016 232.586 524.149 231.559 524.607 230.662C525.064 229.765 525.818 229.054 526.74 228.65C526.74 228.65 533.33 217.73 544.04 216.33L562.57 216.85L558.65 275.32Z" fill="#00403A"/>
<path d="M464.25 227.51C464.25 227.51 436.81 229.57 437.91 246.08C437.91 246.08 435.41 260.82 465.91 265.81L464.25 227.51Z" fill="#00403A"/>
<path d="M546.34 365.52L545.34 365.34L554.82 312.62C557.06 294.94 565.5 275.07 565.59 274.87L566.51 275.26C566.42 275.46 558.04 295.21 555.8 312.77L546.34 365.52Z" fill="#2F2E41"/>
<path d="M491.3 303.41L490.79 302.55C490.9 302.48 502.45 295.61 515.4 293.33C520.091 292.547 524.876 292.507 529.58 293.21C538.15 294.42 566.64 296.47 573.64 272.33L574.64 272.6C567.42 297.53 538.25 295.44 529.49 294.2C524.889 293.517 520.209 293.557 515.62 294.32C502.8 296.56 491.42 303.34 491.3 303.41Z" fill="#2F2E41"/>
<path d="M566.22 645.9C575.89 645.9 583.73 638.06 583.73 628.39C583.73 618.719 575.89 610.88 566.22 610.88C556.549 610.88 548.71 618.719 548.71 628.39C548.71 638.06 556.549 645.9 566.22 645.9Z" fill="#00403A"/>
<path d="M147.25 272.07C147.25 272.07 129.93 235.29 165.71 210.14C165.71 210.14 126.79 231.28 143.55 275.07L147.25 272.07Z" fill="#BCBEC0"/>
<path d="M178.84 257.07C178.84 257.07 190.18 253.07 192.75 258.58C193.019 259.181 193.158 259.832 193.158 260.49C193.158 261.148 193.019 261.799 192.75 262.4C190.89 266.65 183.08 278.12 152.11 281.79C152.11 281.79 183.27 279.79 186.02 262.86C186 262.86 187.9 258.72 178.84 257.07Z" fill="#BCBEC0"/>
<path d="M208.49 298C171.01 310.17 152.07 281.75 152.07 281.75C152.07 281.75 159.12 313.48 202.96 303.48C202.96 303.48 217.88 300.66 237.66 290.66C237.66 290.66 254.48 281.09 260.42 279.58C260.42 279.58 239.8 286.69 220.42 293.9C220.44 293.94 213.35 296.66 208.49 298Z" fill="#BCBEC0"/>
<path d="M264.27 278.54C264.27 278.54 277.82 272.41 281.81 278.21C282.023 278.515 282.185 278.853 282.29 279.21C282.75 280.96 282.85 285.83 273.14 292.28C273.14 292.28 279.22 287.63 276.91 280.78C276.91 280.81 275.35 276.72 264.27 278.54Z" fill="#BCBEC0"/>
<path d="M313.89 310.21C311.1 300.05 296.58 307.21 296.58 307.21C285.58 315.46 264.27 323.57 264.27 323.57C225.27 339.11 214.07 315.37 214.07 315.37C214.07 315.37 230.22 333.84 264.27 320.11L294.72 305.49C294.72 305.49 315.58 294.58 317.23 312.42C317.23 312.42 318.06 317.23 310.73 318.83C312.105 317.916 313.153 316.588 313.722 315.037C314.29 313.487 314.349 311.796 313.89 310.21Z" fill="#BCBEC0"/>
<path d="M334 265.81C334 265.81 347.51 271.53 346 252.36C346 252.36 344.63 235.1 334 220.55C334 220.55 352.93 262.9 334 265.81Z" fill="#BCBEC0"/>
<path d="M177.47 238.81C197.383 238.749 217.26 240.486 236.86 244C256.543 247.354 275.778 252.947 294.19 260.67C303.39 264.607 312.233 269.331 320.62 274.79C329.043 280.252 336.808 286.668 343.76 293.91C344.63 294.82 345.49 295.73 346.31 296.69C347.13 297.65 347.98 298.56 348.77 299.55L350 301C350.41 301.48 350.78 302 351.15 302.51L353.34 305.51C356.227 309.577 359.027 313.707 361.74 317.9C364.43 322.1 367.02 326.38 369.4 330.79C371.888 335.194 373.926 339.837 375.48 344.65L373.27 345.28C371.731 340.664 369.731 336.215 367.3 332C364.94 327.68 362.35 323.46 359.67 319.3C356.99 315.14 354.22 311 351.36 307L349.19 304C348.81 303.49 348.49 303 348.09 302.55L346.92 301.13C346.16 300.13 345.35 299.25 344.53 298.33C343.71 297.41 342.89 296.5 342.04 295.61C335.237 288.467 327.645 282.12 319.41 276.69C311.162 271.241 302.464 266.507 293.41 262.54C275.31 254.54 256.11 249.07 236.65 245.25C226.91 243.35 217.097 241.87 207.21 240.81C197.33 239.68 187.41 238.93 177.47 238.81Z" fill="#A7A9AC"/>
<path d="M237.13 279.62C243.378 276.306 249.962 273.668 256.77 271.75C263.583 269.765 270.572 268.449 277.64 267.82C284.728 267.174 291.869 267.405 298.9 268.51C305.911 269.593 312.7 271.809 319 275.07C312.426 272.677 305.592 271.073 298.64 270.29C297.78 270.18 296.91 270.08 296.04 270.03L293.45 269.83C291.71 269.76 289.97 269.66 288.23 269.68C284.755 269.635 281.28 269.775 277.82 270.1C270.872 270.707 263.979 271.837 257.2 273.48C250.385 275.093 243.681 277.144 237.13 279.62Z" fill="#A7A9AC"/>
<path d="M260.42 233.57C260.74 233.652 261.028 233.826 261.25 234.07C261.492 234.292 261.719 234.529 261.93 234.78C262.37 235.27 262.76 235.78 263.16 236.29L265.51 239.41C267.06 241.49 268.64 243.55 270.31 245.52C271.959 247.488 273.736 249.346 275.63 251.08C277.478 252.796 279.518 254.293 281.71 255.54L280.53 257.54C278.303 256.051 276.256 254.31 274.43 252.35C272.632 250.434 270.962 248.403 269.43 246.27C267.89 244.15 266.43 241.97 265.06 239.78L262.95 236.5C262.59 235.96 262.23 235.42 261.84 234.91C261.647 234.649 261.44 234.398 261.22 234.16C261.019 233.887 260.74 233.681 260.42 233.57Z" fill="#A7A9AC"/>
<path d="M216.71 257.07C220.877 255.684 225.113 254.513 229.4 253.56C231.54 253.08 233.7 252.66 235.86 252.25C238.02 251.84 240.2 251.52 242.39 251.25C246.763 250.636 251.174 250.332 255.59 250.34C260.029 250.302 264.445 250.977 268.67 252.34C264.26 252.11 259.95 252.21 255.62 252.41C251.29 252.61 246.97 252.93 242.62 253.41C238.27 253.89 233.97 254.41 229.62 255.07C225.27 255.73 221 256.38 216.71 257.07Z" fill="#A7A9AC"/>
<path d="M209.661 230.715C212.05 227.487 208.326 220.681 201.344 215.513C194.361 210.344 186.764 208.77 184.375 211.997C181.986 215.224 185.71 222.03 192.693 227.199C199.676 232.368 207.273 233.942 209.661 230.715Z" fill="#BCBEC0"/>
<path d="M185.767 230.643C187.11 228.092 184.383 224.016 179.677 221.539C174.971 219.062 170.067 219.122 168.724 221.673C167.381 224.224 170.108 228.3 174.814 230.777C179.521 233.255 184.425 233.195 185.767 230.643Z" fill="#BCBEC0"/>
<path d="M230.034 279.521C244.028 275.59 254.177 268.144 252.701 262.891C251.225 257.638 238.684 256.566 224.69 260.497C210.695 264.428 200.547 271.873 202.022 277.127C203.498 282.38 216.039 283.452 230.034 279.521Z" fill="#BCBEC0"/>
<path d="M320.29 368.77C320.29 368.77 330.38 353.69 336.14 347.95C336.14 347.95 303.47 342.95 295.52 341.22L320.29 368.77Z" fill="#2F2E41"/>
<path d="M713.3 582.59C682.3 582.59 668.66 567.35 668.48 567.15C664.86 563.43 661.727 559.937 659.08 556.67C654.696 560.552 650.015 564.086 645.08 567.24C623.88 576.57 606.08 577.98 592.18 571.47C575.46 563.66 570.44 546.86 570.39 546.69L571.32 546.42C571.32 546.59 576.32 562.98 592.6 570.61C606.26 576.99 623.76 575.61 644.6 566.39C649.479 563.25 654.109 559.739 658.45 555.89C651.29 546.89 648.02 539.66 648.71 534.4C648.874 533.04 649.359 531.738 650.126 530.602C650.893 529.467 651.919 528.53 653.12 527.87C654.918 526.842 656.957 526.312 659.028 526.335C661.098 526.358 663.126 526.932 664.9 528C669.15 530.46 671.33 533.62 671.39 537.4C671.49 543.6 665.86 550.45 659.78 556.02C662.407 559.273 665.54 562.767 669.18 566.5C669.43 566.79 693.06 593.02 748.99 575.74C751.168 575.065 753.311 574.28 755.41 573.39C769.33 567.46 815.74 548.19 828.27 549.23L828.19 550.23C815.55 549.23 765.66 570.11 755.78 574.31C753.656 575.218 751.486 576.016 749.28 576.7C735.36 581 723.4 582.59 713.3 582.59ZM658.81 527.29C656.984 527.282 655.191 527.769 653.62 528.7C652.547 529.287 651.63 530.121 650.945 531.133C650.26 532.145 649.826 533.306 649.68 534.52C649.02 539.52 652.2 546.52 659.17 555.24C665.08 549.82 670.53 543.24 670.44 537.41C670.39 534 668.36 531.11 664.44 528.83C662.732 527.83 660.789 527.299 658.81 527.29Z" fill="#00403A"/>
<g opacity="0.25">
<path d="M713.3 582.59C682.3 582.59 668.66 567.35 668.48 567.15C664.86 563.43 661.727 559.937 659.08 556.67C654.696 560.552 650.015 564.086 645.08 567.24C623.88 576.57 606.08 577.98 592.18 571.47C575.46 563.66 570.44 546.86 570.39 546.69L571.32 546.42C571.32 546.59 576.32 562.98 592.6 570.61C606.26 576.99 623.76 575.61 644.6 566.39C649.479 563.25 654.109 559.739 658.45 555.89C651.29 546.89 648.02 539.66 648.71 534.4C648.874 533.04 649.359 531.738 650.126 530.602C650.893 529.467 651.919 528.53 653.12 527.87C654.918 526.842 656.957 526.312 659.028 526.335C661.098 526.358 663.126 526.932 664.9 528C669.15 530.46 671.33 533.62 671.39 537.4C671.49 543.6 665.86 550.45 659.78 556.02C662.407 559.273 665.54 562.767 669.18 566.5C669.43 566.79 693.06 593.02 748.99 575.74C751.168 575.065 753.311 574.28 755.41 573.39C769.33 567.46 815.74 548.19 828.27 549.23L828.19 550.23C815.55 549.23 765.66 570.11 755.78 574.31C753.656 575.218 751.486 576.016 749.28 576.7C735.36 581 723.4 582.59 713.3 582.59ZM658.81 527.29C656.984 527.282 655.191 527.769 653.62 528.7C652.547 529.287 651.63 530.121 650.945 531.133C650.26 532.145 649.826 533.306 649.68 534.52C649.02 539.52 652.2 546.52 659.17 555.24C665.08 549.82 670.53 543.24 670.44 537.41C670.39 534 668.36 531.11 664.44 528.83C662.732 527.83 660.789 527.299 658.81 527.29Z" fill="white"/>
</g>
<path d="M528.56 515.05C528.56 515.05 535.56 518.05 541.56 509.05C541.56 509.05 544.91 496.43 554.74 495.64C554.74 495.64 552 501.36 554.74 506.85C554.74 506.85 557.93 526.35 541.64 518.39C541.65 518.35 535.31 526.86 528.56 515.05Z" fill="#2F2E41"/>
<path d="M394.7 224.9C394.7 224.9 364.53 181.74 398.06 166.65C404.01 163.68 410.174 161.16 416.5 159.11C416.5 159.11 431.58 151.11 434.93 147.79C434.93 147.79 454.02 133.37 464.27 154.92C464.27 154.92 447.39 152.92 450.06 173.46C450.06 173.46 456.24 174.46 467.57 172.46C467.57 172.46 490.43 165.87 491.05 191.41C491.05 191.41 479.1 178.23 458.92 185.85C458.92 185.85 443.27 189.69 438.6 197.93C438.6 197.93 428.99 198.75 424.32 211.39C424.32 211.39 400.43 241.87 391.92 245.39C391.92 245.39 366.92 269.28 363.92 284.94C363.91 285 369.48 255.47 394.7 224.9Z" fill="#00403A"/>
<path d="M449.87 189.06C447.555 189.726 445.084 189.588 442.857 188.669C440.631 187.75 438.781 186.105 437.61 184C436.875 182.879 436.392 181.612 436.195 180.286C435.998 178.96 436.092 177.607 436.47 176.32C436.89 175.088 437.561 173.956 438.441 172.995C439.32 172.035 440.389 171.267 441.58 170.74C441.58 170.74 435.92 182.11 445 185.13C445.877 185.402 446.784 185.567 447.7 185.62C450.5 185.83 457.55 186.29 458.92 185.81C455.788 186.54 452.751 187.631 449.87 189.06Z" fill="#2F2E41"/>
<g opacity="0.2">
<path d="M400.46 165.46C399.011 170.028 398.154 174.764 397.91 179.55C397.589 184.313 397.841 189.097 398.66 193.8C399.42 198.514 400.722 203.125 402.54 207.54C403.417 209.768 404.418 211.945 405.54 214.06L405.93 214.87L406.38 215.64L407.29 217.19L409.1 220.31L407.1 217.31L406.1 215.81L405.59 215.06L405.15 214.27C403.942 212.18 402.854 210.023 401.89 207.81C401.42 206.7 400.89 205.6 400.5 204.47L399.33 201C398.958 199.848 398.651 198.676 398.41 197.49C398.107 196.32 397.864 195.135 397.68 193.94L397.19 190.34L396.95 186.71C396.858 184.292 396.922 181.87 397.14 179.46C397.37 177.057 397.741 174.67 398.25 172.31C398.796 169.969 399.535 167.678 400.46 165.46Z" fill="black"/>
</g>
<path opacity="0.2" d="M449.74 180.96C450.977 180.96 451.98 179.957 451.98 178.72C451.98 177.483 450.977 176.48 449.74 176.48C448.503 176.48 447.5 177.483 447.5 178.72C447.5 179.957 448.503 180.96 449.74 180.96Z" fill="black"/>
<path opacity="0.2" d="M466.49 178.72C467.727 178.72 468.73 177.717 468.73 176.48C468.73 175.243 467.727 174.24 466.49 174.24C465.253 174.24 464.25 175.243 464.25 176.48C464.25 177.717 465.253 178.72 466.49 178.72Z" fill="black"/>
<path opacity="0.2" d="M484.06 183.2C485.297 183.2 486.3 182.197 486.3 180.96C486.3 179.723 485.297 178.72 484.06 178.72C482.823 178.72 481.82 179.723 481.82 180.96C481.82 182.197 482.823 183.2 484.06 183.2Z" fill="black"/>
<g opacity="0.2">
<path d="M447.5 174.25C446.607 171.745 446.219 169.087 446.36 166.43C446.461 163.725 447.238 161.088 448.62 158.76C450.04 156.448 452.058 154.562 454.46 153.3C455.631 152.668 456.86 152.149 458.13 151.75C458.77 151.55 459.41 151.42 460.05 151.25C460.69 151.08 461.35 151.01 462 150.91C459.49 151.598 457.084 152.624 454.85 153.96C454.29 154.28 453.8 154.7 453.27 155.05C452.768 155.444 452.291 155.868 451.84 156.32C450.915 157.206 450.117 158.215 449.47 159.32C448.169 161.523 447.366 163.984 447.12 166.53C446.977 167.815 446.943 169.11 447.02 170.4C447.078 171.694 447.238 172.982 447.5 174.25Z" fill="black"/>
</g>
<path d="M409.947 271.191C416.732 267.767 417.985 256.578 412.747 246.199C407.509 235.821 397.763 230.183 390.978 233.607C384.194 237.031 382.941 248.22 388.179 258.599C393.417 268.978 403.163 274.615 409.947 271.191Z" fill="#F9B499"/>
<path d="M415.25 354.9V562.28L491.05 603.75V393.98L415.25 354.9Z" fill="#00403A"/>
<path opacity="0.8" d="M415.25 354.9V562.28L491.05 603.75V393.98L415.25 354.9Z" fill="white"/>
<path d="M366.34 505.35C373.204 500.69 378.807 494.403 382.65 487.05L394.65 465.52C394.65 465.52 396.14 454.58 411.82 454.21C411.82 454.21 446.61 441.71 464.99 452.32C465.598 452.677 466.092 453.199 466.415 453.825C466.739 454.452 466.879 455.157 466.82 455.859C466.76 456.562 466.503 457.233 466.079 457.796C465.654 458.358 465.079 458.79 464.42 459.04C461.558 459.907 458.563 460.246 455.58 460.04C455.58 460.04 429.68 457.12 426.03 464.42C426.03 464.42 479.66 465.15 476.38 470.98C476.38 470.98 481.49 480.11 423.17 476.77C422.94 476.759 422.711 476.798 422.497 476.882C422.282 476.966 422.088 477.094 421.927 477.259C421.766 477.423 421.641 477.619 421.56 477.834C421.48 478.05 421.446 478.28 421.46 478.51C421.488 478.934 421.68 479.331 421.996 479.616C422.311 479.902 422.725 480.054 423.15 480.04C431.96 479.71 474.42 478.53 473.1 487.04C473.1 487.04 478 492.23 425.18 490.11C425.143 490.119 425.11 490.14 425.087 490.17C425.064 490.2 425.051 490.237 425.051 490.275C425.051 490.313 425.064 490.35 425.087 490.379C425.11 490.409 425.143 490.431 425.18 490.44L453.8 494.33C453.8 494.33 464.38 494.04 463.65 497.47C463.65 497.47 465.84 503.47 445.41 502.36L421.61 503.46C421.61 503.46 410.45 531 365.54 539.31C365.54 539.31 359.88 519.64 366.34 505.35Z" fill="#F9B499"/>
<path d="M465.9 227.51C465.9 227.51 465.55 227.06 461.34 227.87C461.34 227.87 453.34 250.58 463.62 265.41C463.62 265.41 467.3 266.18 467.92 266.18L465.9 227.51Z" fill="#2F2E41"/>
<path d="M498.47 216.85C498.47 216.85 473.25 212.32 464.25 227.51C464.25 227.51 457.35 235.15 460.73 253.82C461.744 259.756 464.706 265.186 469.15 269.25C474.15 273.75 482.15 277.5 493.69 274.49L498.47 216.85Z" fill="#00403A"/>
<path d="M522.57 246.08C522.57 259.35 513.04 270.08 501.28 270.08C500.488 270.08 499.696 270.03 498.91 269.93C488.27 268.6 480.01 258.42 480.01 246.06C480.01 233.7 488.27 223.53 498.91 222.2C499.696 222.095 500.487 222.045 501.28 222.05C513 222.07 522.57 232.82 522.57 246.08Z" fill="#E6E7E8"/>
<path d="M498.91 222.35C509.55 223.68 517.81 233.86 517.81 246.21C517.81 258.31 509.89 268.29 499.59 269.96C500.15 270.01 500.71 270.04 501.28 270.04C513.04 270.04 522.57 259.29 522.57 246.04C522.57 232.79 513.04 222.04 501.28 222.04C500.488 222.04 499.696 222.09 498.91 222.19" fill="#2F2E41"/>
<path d="M500.46 216.85C485.67 216.85 473.68 229.94 473.68 246.08C473.68 262.22 485.68 275.32 500.46 275.32C515.24 275.32 527.23 262.23 527.23 246.08C527.23 229.93 515.25 216.85 500.46 216.85ZM501.28 270.1C500.487 270.102 499.695 270.048 498.91 269.94C488.27 268.62 480.01 258.44 480.01 246.08C480.01 233.72 488.27 223.54 498.91 222.22C499.695 222.112 500.487 222.058 501.28 222.06C513.04 222.06 522.57 232.82 522.57 246.06C522.57 259.3 513 270.1 501.28 270.1Z" fill="#00403A"/>
<path opacity="0.8" d="M500.46 216.85C485.67 216.85 473.68 229.94 473.68 246.08C473.68 262.22 485.68 275.32 500.46 275.32C515.24 275.32 527.23 262.23 527.23 246.08C527.23 229.93 515.25 216.85 500.46 216.85ZM501.28 270.1C500.487 270.102 499.695 270.048 498.91 269.94C488.27 268.62 480.01 258.44 480.01 246.08C480.01 233.72 488.27 223.54 498.91 222.22C499.695 222.112 500.487 222.058 501.28 222.06C513.04 222.06 522.57 232.82 522.57 246.06C522.57 259.3 513 270.1 501.28 270.1Z" fill="white"/>
<path d="M433.66 208.61C433.66 208.61 418.56 253.37 365.83 257.07C365.83 257.07 382.75 253.2 390.28 246.97C391.45 245.97 392.63 245.07 393.87 244.19C397.59 241.54 406.94 233.59 424.32 211.36C424.32 211.36 427.89 199.27 438.6 197.9C438.6 197.9 441.9 189.9 458.92 185.82C458.92 185.82 477.68 177.31 491.05 191.38C493.388 194.205 496.27 196.531 499.526 198.218C502.782 199.905 506.344 200.919 510 201.2C510 201.2 500.5 223.54 480 211.1C479.365 210.731 478.654 210.511 477.921 210.457C477.188 210.403 476.452 210.517 475.77 210.79C472.35 212.1 464.98 213.17 455.27 204.61C454.972 204.335 454.597 204.156 454.195 204.099C453.793 204.042 453.383 204.109 453.02 204.29C452.4 204.63 452.02 205.29 453.15 206.69C453.15 206.69 465.26 213.95 449.15 212.18C449.11 212.18 440 211.91 433.66 208.61Z" fill="#2F2E41"/>
<path opacity="0.2" d="M448.51 189.47C455.786 192.13 462.734 195.613 469.22 199.85C471.382 201.267 473.416 202.869 475.3 204.64C478.64 207.77 485.3 213.44 491.05 214.85C491.05 214.85 499.48 216.39 506.85 206.41C506.85 206.41 490.27 207.41 478.38 199.02C477.049 198.104 475.648 197.295 474.19 196.6C469 194.09 458.22 189.45 448.51 189.47Z" fill="black"/>
<path d="M584.69 246.08C584.69 259.35 575.15 270.08 563.4 270.08C562.599 270.105 561.797 270.078 561 270C550.37 268.67 542.1 258.49 542.1 246.13C542.1 233.77 550.37 223.6 561 222.27C561.789 222.165 562.584 222.115 563.38 222.12C575.15 222.07 584.69 232.82 584.69 246.08Z" fill="#E6E7E8"/>
<path d="M561 222.35C571.64 223.68 579.91 233.86 579.91 246.21C579.91 258.31 571.99 268.29 561.68 269.96C562.24 270.01 562.81 270.04 563.38 270.04C575.13 270.04 584.67 259.29 584.67 246.04C584.67 232.79 575.13 222.04 563.38 222.04C562.584 222.04 561.789 222.09 561 222.19" fill="#2F2E41"/>
<path d="M562.57 216.85C547.79 216.85 535.8 229.94 535.8 246.08C535.8 262.22 547.8 275.32 562.57 275.32C577.34 275.32 589.35 262.23 589.35 246.08C589.35 229.93 577.36 216.85 562.57 216.85ZM563.4 270.1C562.604 270.102 561.809 270.049 561.02 269.94C550.39 268.62 542.12 258.44 542.12 246.08C542.12 233.72 550.39 223.54 561.02 222.22C561.809 222.111 562.604 222.058 563.4 222.06C575.15 222.06 584.69 232.82 584.69 246.06C584.69 259.3 575.15 270.1 563.4 270.1Z" fill="#00403A"/>
<path opacity="0.8" d="M562.57 216.85C547.79 216.85 535.8 229.94 535.8 246.08C535.8 262.22 547.8 275.32 562.57 275.32C577.34 275.32 589.35 262.23 589.35 246.08C589.35 229.93 577.36 216.85 562.57 216.85ZM563.4 270.1C562.604 270.102 561.809 270.049 561.02 269.94C550.39 268.62 542.12 258.44 542.12 246.08C542.12 233.72 550.39 223.54 561.02 222.22C561.809 222.111 562.604 222.058 563.4 222.06C575.15 222.06 584.69 232.82 584.69 246.06C584.69 259.3 575.15 270.1 563.4 270.1Z" fill="white"/>
<path d="M140.94 543.05C118.14 543.05 101.55 538.58 89.94 533.32C64.94 522.02 56.84 504.71 56.76 504.54L57.64 504.14C57.72 504.31 65.74 521.34 90.41 532.48C113.22 542.77 155.3 549.99 226.3 525.94C238.034 521.937 249.55 517.32 260.8 512.11C281.68 502.47 337.26 478.26 402.36 461.59C483.52 440.8 550.74 438.59 602.14 455.1L601.84 456.01C482.9 417.88 311 490 261.2 513C249.916 518.222 238.367 522.851 226.6 526.87C191.36 538.79 163.19 543.05 140.94 543.05Z" fill="#00403A"/>
<g opacity="0.25">
<path d="M140.94 543.05C118.14 543.05 101.55 538.58 89.94 533.32C64.94 522.02 56.84 504.71 56.76 504.54L57.64 504.14C57.72 504.31 65.74 521.34 90.41 532.48C113.22 542.77 155.3 549.99 226.3 525.94C238.034 521.937 249.55 517.32 260.8 512.11C281.68 502.47 337.26 478.26 402.36 461.59C483.52 440.8 550.74 438.59 602.14 455.1L601.84 456.01C482.9 417.88 311 490 261.2 513C249.916 518.222 238.367 522.851 226.6 526.87C191.36 538.79 163.19 543.05 140.94 543.05Z" fill="white"/>
</g>
<path d="M295.52 341.22L320.29 368.77C320.29 368.77 300.86 401.55 311.72 449.44C311.72 449.44 315.98 472.75 342.59 498.33L299.41 501.93C299.41 501.93 275.19 486.56 271.7 420.84C271.7 420.84 266.94 383.23 295.52 341.22Z" fill="#00403A"/>
<path opacity="0.36" d="M295.52 341.22L320.29 368.77C320.29 368.77 300.86 401.55 311.72 449.44C311.72 449.44 315.98 472.75 342.59 498.33L299.41 501.93C299.41 501.93 275.19 486.56 271.7 420.84C271.7 420.84 266.94 383.23 295.52 341.22Z" fill="white"/>
<path d="M223.43 496.05C215.416 496.144 207.484 494.435 200.22 491.05C195.476 488.845 191.391 485.438 188.37 481.166C185.349 476.895 183.498 471.908 183 466.7C182.21 457.1 186.18 444.31 209.54 437.84C211.09 437.01 233.13 426.53 306.54 456.46C313.911 450.452 320.949 444.046 327.62 437.27C393.56 380.61 436.53 293.11 444.47 276.15C445.76 273.39 447.15 270.72 448.34 268.48C468.34 230.68 451.8 210.66 451.63 210.48L452.39 209.82C452.57 210.03 469.55 230.52 449.22 268.96C448.04 271.19 446.66 273.84 445.38 276.58C437.38 293.58 394.38 381.24 328.31 438.01C321.744 444.671 314.828 450.976 307.59 456.9C313.13 459.173 318.963 461.683 325.09 464.43C326.71 465.16 328.31 465.82 329.84 466.43C340.01 470.3 374.38 483.05 389.41 484.8L389.29 485.8C374.14 484.03 339.69 471.25 329.49 467.37C327.93 466.78 326.32 466.11 324.68 465.37C318.367 462.543 312.367 459.97 306.68 457.65C299.548 463.499 292.104 468.958 284.38 474C267.46 485 245.05 496 223.43 496.05ZM224.83 436.53C214.2 436.53 210.07 438.68 209.98 438.74L209.86 438.79C191.86 443.79 182.86 453.38 183.99 466.62C184.479 471.649 186.274 476.463 189.196 480.585C192.118 484.707 196.066 487.994 200.65 490.12C207.778 493.449 215.563 495.134 223.43 495.05C244.82 495.05 267.03 484.05 283.82 473.16C291.364 468.219 298.638 462.878 305.61 457.16C263.83 440.23 238.76 436.53 224.83 436.53Z" fill="#2F2E41"/>
<path opacity="0.2" d="M400.17 233.57C400.17 233.57 402.81 220.95 440.85 187.57" stroke="black" stroke-miterlimit="10"/>
<path d="M309.53 241.63C301.844 241.707 294.172 240.949 286.65 239.37C269.07 235.49 262.74 228.14 262.48 227.83L263.25 227.19C263.31 227.26 269.69 234.63 286.99 238.42C302.99 241.93 331.84 243 378.45 228.18C381.37 227.29 449.97 206.77 460.26 234.18L459.33 234.53C449.33 208.02 379.45 228.94 378.75 229.15C348.85 238.64 326.2 241.63 309.53 241.63Z" fill="#2F2E41"/>
<path d="M458.9 236.36C451.73 236.05 438.32 231.52 437.75 231.36C423.43 225.72 413.67 218.36 408.75 209.63C404.03 201.27 406.62 190.63 414.54 185.97C427.66 178.21 443.49 192.4 443.65 192.55L442.98 193.29C442.82 193.15 427.53 179.45 415.05 186.84C407.6 191.24 405.16 201.25 409.62 209.13C414.46 217.71 424.06 224.87 438.14 230.42C438.25 230.42 451.96 235.08 458.98 235.42L458.9 236.36Z" fill="#2F2E41"/>
</svg>
