<svg width="866" height="683" viewBox="0 0 866 683" fill="none" xmlns="http://www.w3.org/2000/svg">
<path d="M199.47 581.03H177.22V621.15H199.47V581.03Z" fill="#E0E0E0"/>
<path d="M297.8 581.03H275.55V621.15H297.8V581.03Z" fill="#E0E0E0"/>
<path d="M312.62 340.52H128.31V581.04H312.62V340.52Z" fill="#E0E0E0"/>
<path d="M274.08 340.52H94.55V581.04H274.08V340.52Z" fill="#F5F5F5"/>
<path d="M132.66 581.03H110.41V621.15H132.66V581.03Z" fill="#F5F5F5"/>
<path d="M260.62 581.03H238.37V621.15H260.62V581.03Z" fill="#F5F5F5"/>
<path d="M259.8 553.56V537.63C259.8 527.41 259.71 512.63 259.66 494.2L259.91 494.43L105.68 494.56L106.05 494.2V553.56L105.7 553.22L216.08 553.37L248.16 553.47H248.4L216.32 553.56L105.7 553.73H105.35V493.64H105.68L259.75 493.76H260V494C260 512.46 259.88 527.33 259.86 537.6V552.35C259.866 552.754 259.846 553.158 259.8 553.56Z" fill="#E0E0E0"/>
<path d="M187.41 523.88C187.289 523.52 187.192 523.153 187.12 522.78C186.829 521.817 186.232 520.975 185.42 520.38C184.823 519.947 184.127 519.668 183.396 519.571C182.664 519.473 181.92 519.559 181.23 519.82C180.404 520.129 179.692 520.683 179.19 521.408C178.688 522.133 178.418 522.993 178.418 523.875C178.418 524.757 178.688 525.618 179.19 526.342C179.692 527.067 180.404 527.621 181.23 527.93C181.92 528.191 182.664 528.277 183.396 528.179C184.127 528.082 184.823 527.803 185.42 527.37C186.229 526.777 186.825 525.939 187.12 524.98C187.33 524.28 187.34 523.87 187.41 523.88C187.52 524.262 187.52 524.668 187.41 525.05C187.192 526.126 186.601 527.089 185.74 527.77C185.094 528.289 184.325 528.633 183.507 528.77C182.689 528.907 181.85 528.831 181.07 528.55C180.096 528.214 179.251 527.583 178.652 526.744C178.054 525.905 177.732 524.9 177.732 523.87C177.732 522.84 178.054 521.835 178.652 520.996C179.251 520.157 180.096 519.526 181.07 519.19C181.85 518.911 182.689 518.836 183.506 518.973C184.324 519.109 185.093 519.453 185.74 519.97C186.616 520.667 187.21 521.658 187.41 522.76C187.51 523.127 187.51 523.513 187.41 523.88Z" fill="#E0E0E0"/>
<path d="M259.8 482.46V466.53C259.8 456.3 259.71 441.43 259.66 423.08L259.91 423.33L105.68 423.46L106.05 423.08V482.46L105.68 482.17L216.07 482.32L248.15 482.42H248.4L216.32 482.52L105.7 482.69H105.35V422.59H105.68L259.75 422.71H260V422.94C260 441.41 259.88 456.28 259.86 466.55V481.31C259.866 481.694 259.846 482.078 259.8 482.46Z" fill="#E0E0E0"/>
<path d="M187.41 452.78C187.289 452.42 187.192 452.053 187.12 451.68C186.829 450.717 186.232 449.874 185.42 449.28C184.823 448.847 184.127 448.568 183.396 448.471C182.664 448.373 181.92 448.459 181.23 448.72C180.404 449.029 179.692 449.583 179.19 450.308C178.688 451.032 178.418 451.893 178.418 452.775C178.418 453.657 178.688 454.518 179.19 455.242C179.692 455.967 180.404 456.521 181.23 456.83C181.92 457.091 182.664 457.177 183.396 457.079C184.127 456.982 184.823 456.703 185.42 456.27C186.229 455.677 186.825 454.839 187.12 453.88C187.33 453.18 187.34 452.77 187.41 452.78C187.52 453.159 187.52 453.561 187.41 453.94C187.21 455.042 186.616 456.033 185.74 456.73C185.093 457.247 184.324 457.591 183.506 457.727C182.689 457.864 181.85 457.789 181.07 457.51C180.096 457.174 179.251 456.543 178.652 455.704C178.054 454.865 177.732 453.86 177.732 452.83C177.732 451.8 178.054 450.795 178.652 449.956C179.251 449.117 180.096 448.486 181.07 448.15C181.85 447.871 182.689 447.796 183.506 447.933C184.324 448.069 185.093 448.413 185.74 448.93C186.616 449.627 187.21 450.618 187.41 451.72C187.5 452.068 187.5 452.432 187.41 452.78Z" fill="#E0E0E0"/>
<path d="M259.8 412.31V396.4C259.8 386.16 259.71 371.4 259.66 352.94L259.91 353.2L105.68 353.31L106.05 352.94V412.31L105.7 411.96L216.08 412.13L248.16 412.23H248.32L216.23 412.33L105.61 412.48H105.26V352.4H105.68L259.75 352.51H260V352.76C260 371.23 259.88 386.09 259.86 396.37V411.13C259.866 411.524 259.846 411.918 259.8 412.31Z" fill="#E0E0E0"/>
<path d="M187.41 382.63C187.289 382.27 187.192 381.903 187.12 381.53C186.825 380.571 186.229 379.733 185.42 379.14C184.773 378.666 184.008 378.38 183.208 378.315C182.409 378.249 181.607 378.406 180.892 378.769C180.176 379.131 179.576 379.685 179.156 380.368C178.736 381.052 178.514 381.838 178.514 382.64C178.514 383.442 178.736 384.228 179.156 384.912C179.576 385.595 180.176 386.149 180.892 386.511C181.607 386.874 182.409 387.031 183.208 386.965C184.008 386.9 184.773 386.614 185.42 386.14C186.23 385.543 186.826 384.702 187.12 383.74C187.191 383.364 187.288 382.993 187.41 382.63C187.52 383.016 187.52 383.424 187.41 383.81C187.21 384.912 186.616 385.903 185.74 386.6C185.08 387.117 184.299 387.456 183.471 387.586C182.643 387.715 181.796 387.631 181.01 387.34C180.297 387.127 179.641 386.758 179.089 386.259C178.537 385.76 178.103 385.145 177.82 384.457C177.536 383.77 177.409 383.027 177.448 382.284C177.488 381.542 177.692 380.817 178.047 380.163C178.402 379.509 178.899 378.943 179.5 378.506C180.102 378.068 180.793 377.77 181.525 377.634C182.256 377.498 183.008 377.526 183.727 377.717C184.446 377.909 185.113 378.258 185.68 378.74C186.556 379.439 187.152 380.429 187.36 381.53C187.468 381.887 187.485 382.265 187.41 382.63Z" fill="#E0E0E0"/>
<path d="M620.29 582.72C606.1 582.72 594.59 589.43 594.59 597.72C594.59 606.01 606.1 612.72 620.29 612.72C634.48 612.72 646 606 646 597.72C646 589.44 634.49 582.72 620.29 582.72ZM620.29 601.26C615.6 601.26 611.79 599.19 611.79 596.65C611.79 594.11 615.6 592.03 620.29 592.03C624.98 592.03 628.8 594.1 628.8 596.65C628.8 599.2 625 601.26 620.29 601.26Z" fill="#E0E0E0"/>
<path d="M61.1305 50.4875L47.5479 314.959L247.095 325.207L260.678 60.7358L61.1305 50.4875Z" fill="#FAFAFA"/>
<path d="M247.71 326H247L46.8401 315.62V314.93L60.4901 49.78H61.1801L261.43 60.07V60.77L247.71 326ZM48.2401 314.3L246.4 324.5L259.92 61.42L61.8401 51.24L48.2401 314.3Z" fill="#E0E0E0"/>
<path d="M178.82 158.41C178.928 157.464 179.277 156.562 179.834 155.79C180.391 155.018 181.137 154.401 182 154C183.728 153.221 185.587 152.777 187.48 152.69C190.41 152.34 193.366 152.26 196.31 152.45C197.777 152.499 199.211 152.9 200.49 153.62C203.18 155.33 203.84 159.04 203.28 162.16C203.153 163.416 202.578 164.584 201.66 165.45C201.11 165.847 200.494 166.141 199.84 166.32C194.256 168.122 188.33 168.598 182.53 167.71C180.8 167.45 178.8 166.82 178.24 165.16" fill="#E0E0E0"/>
<path d="M125.55 156.69C125.437 155.748 125.088 154.85 124.533 154.081C123.979 153.311 123.238 152.695 122.38 152.29C120.65 151.52 118.791 151.082 116.9 151C113.973 150.65 111.021 150.57 108.08 150.76C106.613 150.809 105.179 151.21 103.9 151.93C101.22 153.64 100.55 157.35 101.11 160.47C101.219 161.727 101.789 162.898 102.71 163.76C103.263 164.163 103.887 164.458 104.55 164.63C110.13 166.432 116.054 166.908 121.85 166.02C123.58 165.76 125.59 165.13 126.13 163.47" fill="#E0E0E0"/>
<path d="M152.38 159.31C141.67 159.57 128.18 158.09 124.49 157.06C120.8 156.03 105.19 151.36 97.59 158.76C89.99 166.16 82.39 215.47 82.9 225.76C83.41 236.05 96.38 243 104.16 238.51C111.94 234.02 122.66 212.89 125.24 212.51C127.82 212.13 135.24 215.62 140.11 212.16C142.739 210.348 145.169 208.263 147.36 205.94C147.36 205.94 157.04 205.59 157.91 205.59C158.78 205.59 162.09 212.16 166.72 213.54C171.35 214.92 179.86 212.33 181.06 211.81C182.26 211.29 190.4 227.16 198.7 235.15C207 243.14 222.41 238.26 223.23 225.63C224.05 213 209.41 167.23 204.4 160.63C199.39 154.03 181.4 155.91 173.78 158.2C166.16 160.49 159.12 159.13 152.38 159.31Z" fill="#EBEBEB"/>
<path d="M198.7 227.12C190.33 219.12 182.28 203.26 181.06 203.78C179.84 204.3 171.4 206.89 166.72 205.51C162.04 204.13 158.77 197.56 157.91 197.56C157.05 197.56 147.36 197.91 147.36 197.91C145.167 200.23 142.737 202.315 140.11 204.13C135.27 207.59 127.83 204.13 125.24 204.48C122.65 204.83 111.93 225.9 104.16 230.39C96.8701 234.58 84.9901 228.62 83.1601 219.44C82.9603 221.527 82.8802 223.624 82.9201 225.72C83.4401 235.92 96.4001 243 104.18 238.51C111.96 234.02 122.68 212.89 125.26 212.51C127.84 212.13 135.26 215.62 140.13 212.16C142.759 210.348 145.19 208.263 147.38 205.94C147.38 205.94 157.06 205.59 157.93 205.59C158.8 205.59 162.11 212.16 166.74 213.54C171.37 214.92 179.88 212.33 181.08 211.81C182.28 211.29 190.42 227.16 198.72 235.15C207.02 243.14 222.43 238.26 223.25 225.63C223.334 223.674 223.226 221.715 222.93 219.78C220.5 230.71 206.48 234.51 198.7 227.12Z" fill="#E0E0E0"/>
<path d="M116.63 193.46C125.097 193.46 131.96 186.597 131.96 178.13C131.96 169.663 125.097 162.8 116.63 162.8C108.164 162.8 101.3 169.663 101.3 178.13C101.3 186.597 108.164 193.46 116.63 193.46Z" fill="#E0E0E0"/>
<path d="M115.81 191.48C124.293 191.48 131.17 184.603 131.17 176.12C131.17 167.637 124.293 160.76 115.81 160.76C107.327 160.76 100.45 167.637 100.45 176.12C100.45 184.603 107.327 191.48 115.81 191.48Z" fill="#F5F5F5"/>
<path d="M206 178.92C206.002 181.957 205.103 184.926 203.417 187.452C201.731 189.978 199.334 191.947 196.529 193.11C193.724 194.273 190.636 194.578 187.658 193.986C184.679 193.394 181.943 191.931 179.796 189.784C177.649 187.637 176.186 184.901 175.595 181.922C175.003 178.944 175.307 175.856 176.47 173.051C177.633 170.246 179.602 167.849 182.128 166.163C184.654 164.477 187.623 163.578 190.66 163.58C194.728 163.58 198.63 165.196 201.507 168.073C204.384 170.95 206 174.852 206 178.92Z" fill="#E0E0E0"/>
<path d="M203.105 187.579C209.092 181.592 209.092 171.885 203.105 165.899C197.119 159.912 187.412 159.912 181.425 165.899C175.439 171.885 175.439 181.592 181.425 187.579C187.412 193.565 197.119 193.565 203.105 187.579Z" fill="#F5F5F5"/>
<path d="M180.678 202.197C181.987 196.649 178.552 191.091 173.005 189.782C167.458 188.473 161.899 191.908 160.59 197.455C159.281 203.003 162.716 208.561 168.264 209.87C173.811 211.179 179.369 207.744 180.678 202.197Z" fill="#F5F5F5"/>
<path d="M143.12 202.202C144.43 196.655 140.994 191.097 135.447 189.788C129.9 188.478 124.341 191.914 123.032 197.461C121.723 203.008 125.158 208.566 130.706 209.876C136.253 211.185 141.811 207.749 143.12 202.202Z" fill="#F5F5F5"/>
<path d="M123.13 172.48H119.38V168.72C119.38 168.312 119.3 167.907 119.143 167.53C118.987 167.153 118.758 166.81 118.469 166.521C118.18 166.232 117.837 166.003 117.46 165.847C117.083 165.69 116.678 165.61 116.27 165.61H114C113.173 165.61 112.38 165.937 111.794 166.52C111.207 167.102 110.875 167.893 110.87 168.72V172.48H107.12C106.71 172.48 106.305 172.561 105.926 172.717C105.547 172.874 105.204 173.104 104.914 173.394C104.624 173.684 104.394 174.027 104.237 174.406C104.081 174.785 104 175.19 104 175.6V177.87C104 178.696 104.327 179.488 104.91 180.073C105.493 180.657 106.284 180.987 107.11 180.99H110.83V184.74C110.835 185.568 111.167 186.36 111.753 186.944C112.339 187.528 113.132 187.857 113.96 187.86H116.23C117.056 187.857 117.847 187.527 118.43 186.943C119.013 186.358 119.34 185.566 119.34 184.74V181H123.09C123.918 180.997 124.711 180.668 125.297 180.084C125.883 179.5 126.215 178.708 126.22 177.88V175.6C126.217 174.778 125.892 173.991 125.314 173.407C124.736 172.823 123.951 172.49 123.13 172.48Z" fill="#E0E0E0"/>
<path d="M196.92 169C196.922 169.894 196.659 170.768 196.164 171.513C195.669 172.257 194.964 172.838 194.139 173.182C193.314 173.526 192.405 173.618 191.528 173.445C190.651 173.273 189.844 172.844 189.211 172.213C188.577 171.582 188.145 170.778 187.969 169.902C187.792 169.025 187.88 168.116 188.22 167.29C188.56 166.463 189.138 165.756 189.88 165.257C190.623 164.759 191.496 164.492 192.39 164.49C192.983 164.489 193.571 164.604 194.12 164.83C194.669 165.056 195.168 165.388 195.589 165.807C196.01 166.226 196.344 166.723 196.572 167.271C196.8 167.819 196.919 168.406 196.92 169Z" fill="#E0E0E0"/>
<path d="M206.05 177C206.052 177.894 205.789 178.768 205.294 179.512C204.8 180.256 204.096 180.837 203.271 181.181C202.447 181.525 201.539 181.617 200.662 181.446C199.785 181.274 198.978 180.846 198.345 180.217C197.711 179.587 197.278 178.783 197.1 177.908C196.923 177.032 197.009 176.123 197.347 175.296C197.686 174.47 198.262 173.762 199.003 173.262C199.744 172.763 200.616 172.494 201.51 172.49C202.104 172.487 202.694 172.602 203.244 172.827C203.794 173.053 204.294 173.384 204.716 173.803C205.137 174.222 205.472 174.72 205.701 175.269C205.93 175.817 206.049 176.406 206.05 177Z" fill="#E0E0E0"/>
<path d="M196.92 184.33C196.92 185.224 196.655 186.099 196.157 186.842C195.66 187.586 194.954 188.165 194.127 188.507C193.301 188.849 192.391 188.938 191.514 188.762C190.637 188.587 189.832 188.156 189.2 187.523C188.568 186.889 188.139 186.083 187.966 185.206C187.792 184.328 187.883 183.419 188.227 182.593C188.57 181.768 189.151 181.062 189.896 180.567C190.641 180.071 191.515 179.808 192.41 179.81C193.002 179.81 193.588 179.927 194.134 180.154C194.681 180.38 195.177 180.713 195.595 181.132C196.013 181.55 196.345 182.048 196.57 182.595C196.796 183.142 196.911 183.728 196.91 184.32L196.92 184.33Z" fill="#E0E0E0"/>
<path d="M187.43 177.12C187.434 178.014 187.173 178.889 186.679 179.634C186.186 180.38 185.483 180.962 184.658 181.308C183.834 181.654 182.926 181.747 182.048 181.577C181.17 181.406 180.363 180.979 179.728 180.35C179.093 179.721 178.659 178.917 178.481 178.041C178.303 177.165 178.388 176.256 178.727 175.429C179.065 174.601 179.641 173.893 180.382 173.393C181.123 172.893 181.996 172.624 182.89 172.62C183.484 172.617 184.072 172.732 184.621 172.956C185.171 173.181 185.671 173.512 186.092 173.93C186.514 174.348 186.849 174.844 187.078 175.392C187.308 175.939 187.427 176.526 187.43 177.12Z" fill="#E0E0E0"/>
<path d="M173.78 158.26C166.18 160.52 159.09 159.13 152.36 159.31C146.145 159.4 139.931 159.12 133.75 158.47C133.76 159.12 133.82 159.769 133.93 160.41C134.597 165.077 135.263 169.693 135.93 174.26C135.864 175.368 136.241 176.458 136.978 177.288C137.715 178.119 138.752 178.623 139.86 178.69C140.103 178.71 140.347 178.71 140.59 178.69C146.063 179.356 151.567 179.723 157.08 179.79C160.948 179.99 164.824 179.571 168.56 178.55C169.081 178.403 169.561 178.136 169.96 177.77C170.269 177.393 170.5 176.958 170.64 176.49C172.78 170.58 174.04 164.387 174.38 158.11L173.78 158.26Z" fill="#E0E0E0"/>
<path d="M76.14 63.43C76.1557 64.2589 75.9251 65.0739 75.4775 65.7717C75.0299 66.4696 74.3853 67.0189 73.6253 67.3503C72.8653 67.6816 72.0241 67.78 71.2081 67.6331C70.3922 67.4862 69.6382 67.1005 69.0415 66.5248C68.4449 65.9492 68.0324 65.2095 67.8563 64.3993C67.6802 63.5891 67.7485 62.745 68.0524 61.9736C68.3563 61.2022 68.8822 60.5383 69.5635 60.066C70.2449 59.5936 71.051 59.334 71.88 59.32H72C73.0843 59.3011 74.1323 59.7105 74.9166 60.4593C75.701 61.2082 76.1586 62.236 76.19 63.32L76.14 63.43Z" fill="#E0E0E0"/>
<path d="M124.18 133.21H129.86C130.073 133.205 130.284 133.257 130.47 133.36C130.66 133.462 130.817 133.616 130.923 133.803C131.03 133.991 131.08 134.205 131.07 134.42C131.09 134.539 131.09 134.661 131.07 134.78C130.96 135.27 130.83 135.78 130.69 136.18C130.012 138.563 128.797 140.759 127.14 142.6C126.554 143.33 125.821 143.929 124.989 144.357C124.157 144.786 123.244 145.036 122.31 145.09C122.084 145.11 121.856 145.11 121.63 145.09C120.819 144.939 120.051 144.611 119.382 144.129C118.713 143.646 118.159 143.022 117.76 142.3C116.567 140.23 115.982 137.867 116.07 135.48C116.078 133.834 116.303 132.197 116.74 130.61C117.352 128.193 118.504 125.947 120.11 124.04C120.706 123.23 121.472 122.56 122.355 122.078C123.238 121.596 124.216 121.313 125.22 121.25C125.964 121.251 126.699 121.419 127.37 121.74C128.171 122.185 128.876 122.785 129.444 123.504C130.012 124.223 130.432 125.048 130.68 125.93C130.766 126.108 130.814 126.302 130.82 126.5C130.812 126.822 130.679 127.128 130.45 127.354C130.22 127.58 129.912 127.707 129.59 127.71C129.464 127.73 129.336 127.73 129.21 127.71C129.028 127.657 128.861 127.56 128.725 127.427C128.589 127.295 128.488 127.131 128.43 126.95V126.83C128.269 126.337 128.04 125.87 127.75 125.44C127.459 124.962 127.049 124.568 126.56 124.296C126.071 124.025 125.519 123.885 124.96 123.89C124.28 123.91 123.624 124.149 123.09 124.57C121.67 125.733 120.601 127.266 120 129C119.121 131.018 118.649 133.189 118.61 135.39C118.561 137.111 118.903 138.82 119.61 140.39C119.823 141.023 120.224 141.575 120.761 141.972C121.297 142.369 121.943 142.592 122.61 142.61C123.163 142.541 123.696 142.359 124.176 142.075C124.656 141.791 125.073 141.411 125.4 140.96C126.718 139.417 127.711 137.625 128.32 135.69H124.24C123.37 135.55 122.85 135.09 122.85 134.29C122.858 134.148 122.903 134.01 122.98 133.89C123.091 133.671 123.264 133.49 123.478 133.37C123.691 133.249 123.935 133.193 124.18 133.21Z" fill="#E0E0E0"/>
<path d="M143.48 122.13C143.517 122.276 143.57 122.417 143.64 122.55C143.88 123.37 145.213 130.37 147.64 143.55C147.66 143.652 147.66 143.758 147.64 143.86C147.642 144.08 147.587 144.297 147.48 144.49C147.385 144.673 147.242 144.827 147.065 144.935C146.889 145.042 146.687 145.099 146.48 145.1H146.28C146.055 145.072 145.844 144.977 145.675 144.827C145.505 144.677 145.385 144.48 145.33 144.26L143.94 137.26H136.94L133.59 144.26C133.562 144.344 133.525 144.424 133.48 144.5C133.359 144.672 133.201 144.815 133.018 144.917C132.834 145.019 132.63 145.078 132.42 145.09C132.099 145.085 131.793 144.954 131.567 144.726C131.341 144.498 131.213 144.191 131.21 143.87C131.19 143.751 131.19 143.629 131.21 143.51C131.42 143.02 131.77 142.25 132.21 141.19C137.203 130.523 140.177 124.237 141.13 122.33C141.225 122.088 141.388 121.879 141.599 121.728C141.81 121.577 142.061 121.491 142.32 121.48C142.555 121.471 142.787 121.526 142.992 121.641C143.197 121.756 143.366 121.925 143.48 122.13ZM142 126.85L138.23 134.78H143.56L142 126.85Z" fill="#E0E0E0"/>
<path d="M167.78 143.91C167.67 144.7 167.27 145.09 166.57 145.09C166.342 145.105 166.117 145.041 165.93 144.91C165.723 144.767 165.558 144.57 165.453 144.342C165.347 144.113 165.305 143.861 165.33 143.61C165.33 143.45 165.793 139.267 166.72 131.06C164.3 136.16 162.4 140.177 161.02 143.11C160.73 143.74 160.56 144.11 160.52 144.11C160.422 144.354 160.258 144.566 160.045 144.721C159.833 144.877 159.582 144.97 159.32 144.99C159.22 145 159.12 145 159.02 144.99C158.773 144.921 158.549 144.786 158.372 144.599C158.196 144.412 158.074 144.181 158.02 143.93L155.37 131C154.76 135.64 154.14 139.91 153.53 143.77C153.42 144.57 153.01 144.96 152.32 144.96C152.09 144.967 151.863 144.904 151.67 144.78C151.463 144.637 151.299 144.44 151.195 144.212C151.091 143.983 151.052 143.73 151.08 143.48C151.08 143.38 151.8 137.897 153.24 127.03C153.61 124.24 153.81 122.72 153.85 122.5C153.878 122.324 153.939 122.154 154.03 122C154.136 121.804 154.296 121.643 154.491 121.535C154.686 121.427 154.908 121.376 155.13 121.39H155.48C155.92 121.51 156.17 121.73 156.22 122.07C156.427 123.21 157.093 126.523 158.22 132.01C159.02 136.01 159.527 138.577 159.74 139.71L168.03 122.45C168.077 122.335 168.133 122.225 168.2 122.12C168.328 121.951 168.492 121.814 168.681 121.719C168.87 121.624 169.078 121.573 169.29 121.57C169.483 121.57 169.673 121.622 169.84 121.72C170.029 121.815 170.189 121.956 170.307 122.132C170.424 122.307 170.494 122.51 170.51 122.72C170.51 123.02 170.43 123.36 170.39 123.72C168.937 135.687 168.067 142.417 167.78 143.91Z" fill="#E0E0E0"/>
<path d="M177.54 121.53H187.3C187.486 121.5 187.675 121.5 187.86 121.53C188.114 121.595 188.337 121.749 188.489 121.963C188.641 122.177 188.713 122.438 188.69 122.7C188.701 122.859 188.67 123.017 188.6 123.16C188.484 123.391 188.309 123.587 188.093 123.729C187.877 123.871 187.628 123.954 187.37 123.97H178.6L177.49 132.34H183.81C184.047 132.345 184.28 132.393 184.5 132.48C184.73 132.568 184.927 132.727 185.061 132.933C185.196 133.14 185.262 133.384 185.25 133.63C185.248 133.774 185.221 133.916 185.17 134.05C185.06 134.291 184.885 134.496 184.664 134.641C184.442 134.786 184.185 134.865 183.92 134.87H177.19L176.19 142.64H184.95C185.175 142.641 185.397 142.678 185.61 142.75C185.88 142.896 186.1 143.12 186.241 143.393C186.382 143.666 186.437 143.975 186.4 144.28C186.3 144.532 186.128 144.748 185.906 144.903C185.684 145.058 185.421 145.144 185.15 145.15H175C174.751 145.159 174.506 145.089 174.3 144.95C174.098 144.809 173.936 144.618 173.831 144.395C173.725 144.172 173.68 143.926 173.7 143.68C173.7 143.54 174.63 136.567 176.49 122.76C176.504 122.611 176.545 122.465 176.61 122.33C176.672 122.121 176.792 121.935 176.957 121.793C177.122 121.651 177.324 121.56 177.54 121.53Z" fill="#E0E0E0"/>
<path d="M119 249.34C118.85 250.16 118.44 250.58 117.76 250.59C117.529 250.596 117.303 250.522 117.12 250.38C116.919 250.239 116.758 250.047 116.655 249.824C116.551 249.601 116.508 249.355 116.53 249.11L119.32 228.19C119.31 228.024 119.31 227.857 119.32 227.69C119.382 227.541 119.476 227.406 119.594 227.296C119.712 227.185 119.852 227.101 120.006 227.049C120.159 226.997 120.322 226.978 120.483 226.994C120.644 227.01 120.8 227.059 120.94 227.14C121.127 227.235 121.287 227.377 121.402 227.553C121.518 227.728 121.586 227.93 121.6 228.14L120.75 236.27C125.763 230.69 128.393 227.78 128.64 227.54C128.77 227.383 128.929 227.254 129.11 227.159C129.29 227.065 129.487 227.007 129.69 226.99C129.906 226.994 130.116 227.056 130.3 227.17C130.479 227.269 130.628 227.413 130.732 227.589C130.836 227.765 130.89 227.966 130.89 228.17C130.878 228.53 130.76 228.878 130.55 229.17C130.27 229.53 127.133 233.013 121.14 239.62L123.35 241.62C127.62 245.47 130.05 247.7 130.65 248.28C130.961 248.558 131.163 248.937 131.22 249.35C131.221 249.583 131.147 249.811 131.01 250C130.91 250.177 130.765 250.323 130.589 250.423C130.413 250.524 130.213 250.574 130.01 250.57C129.65 250.568 129.3 250.452 129.01 250.24C128.67 249.993 125.67 247.25 120.01 242.01C119.52 245.84 119.2 248.26 119 249.34Z" fill="#E0E0E0"/>
<path d="M137.24 249.43C137.1 250.26 136.68 250.68 136.02 250.69C135.788 250.69 135.562 250.62 135.37 250.49C135.166 250.349 135.003 250.156 134.899 249.931C134.795 249.706 134.754 249.457 134.78 249.21L137.57 228.29C137.56 228.14 137.56 227.99 137.57 227.84C137.651 227.616 137.801 227.423 137.999 227.29C138.197 227.157 138.432 227.09 138.67 227.1C138.875 227.1 139.077 227.148 139.26 227.24C139.447 227.334 139.605 227.476 139.718 227.652C139.83 227.828 139.893 228.031 139.9 228.24C138.227 241.833 137.34 248.897 137.24 249.43Z" fill="#E0E0E0"/>
<path d="M157.88 249.43C157.77 250.22 157.36 250.62 156.67 250.63C156.393 250.609 156.126 250.515 155.898 250.357C155.669 250.199 155.487 249.982 155.37 249.73L147.67 232.11C147.57 232.95 147.45 233.88 147.31 234.9C146.303 243.347 145.697 248.17 145.49 249.37C145.34 250.18 144.93 250.6 144.24 250.62C144.003 250.623 143.772 250.549 143.58 250.41C143.378 250.269 143.216 250.078 143.111 249.855C143.005 249.632 142.96 249.386 142.98 249.14C144.84 235.193 145.77 228.193 145.77 228.14C145.801 227.969 145.858 227.804 145.94 227.65C146.051 227.45 146.216 227.286 146.416 227.174C146.615 227.063 146.842 227.01 147.07 227.02C147.319 226.985 147.572 227.022 147.8 227.129C148.027 227.236 148.218 227.406 148.35 227.62L156 244.87L158.24 228.13C158.248 227.945 158.295 227.764 158.38 227.6C158.46 227.401 158.599 227.231 158.777 227.111C158.955 226.992 159.165 226.928 159.38 226.93C159.591 226.935 159.798 226.994 159.98 227.1C160.165 227.204 160.317 227.357 160.419 227.543C160.522 227.728 160.571 227.938 160.56 228.15C160.56 228.48 160.47 228.86 160.43 229.25C158.963 241.33 158.113 248.057 157.88 249.43Z" fill="#E0E0E0"/>
<path d="M171.77 238.64H177.45C177.666 238.639 177.879 238.69 178.07 238.79C178.258 238.894 178.414 239.048 178.52 239.235C178.626 239.422 178.678 239.635 178.67 239.85C178.68 239.976 178.68 240.104 178.67 240.23C178.55 240.7 178.43 241.23 178.29 241.62C177.615 244.006 176.396 246.203 174.73 248.04C174.145 248.773 173.413 249.374 172.581 249.807C171.749 250.239 170.836 250.492 169.9 250.55C169.67 250.57 169.44 250.57 169.21 250.55C168.4 250.404 167.633 250.077 166.967 249.594C166.3 249.111 165.751 248.484 165.36 247.76C164.163 245.692 163.577 243.327 163.67 240.94C163.677 239.294 163.903 237.657 164.34 236.07C164.941 233.651 166.091 231.403 167.7 229.5C168.305 228.706 169.076 228.052 169.958 227.585C170.84 227.117 171.813 226.846 172.81 226.79C173.552 226.786 174.284 226.954 174.95 227.28C176.567 228.182 177.761 229.689 178.27 231.47C178.358 231.647 178.402 231.842 178.4 232.04C178.4 232.255 178.342 232.466 178.23 232.65C178.135 232.833 177.992 232.986 177.815 233.092C177.639 233.198 177.436 233.253 177.23 233.25C176.974 233.256 176.723 233.18 176.514 233.032C176.305 232.884 176.149 232.673 176.07 232.43V232.32C175.891 231.828 175.657 231.358 175.37 230.92C175.164 230.52 174.871 230.172 174.513 229.9C174.154 229.629 173.739 229.442 173.298 229.353C172.858 229.263 172.403 229.274 171.967 229.385C171.531 229.495 171.125 229.702 170.78 229.99C169.364 231.162 168.298 232.702 167.7 234.44C166.814 236.459 166.338 238.635 166.3 240.84C166.261 242.56 166.603 244.267 167.3 245.84C167.518 246.47 167.921 247.019 168.456 247.415C168.991 247.811 169.634 248.036 170.3 248.06C170.854 247.996 171.388 247.817 171.868 247.535C172.349 247.252 172.765 246.873 173.09 246.42C174.405 244.873 175.395 243.078 176 241.14H171.93C171.05 241 170.53 240.54 170.53 239.75C170.549 239.605 170.589 239.463 170.65 239.33C170.757 239.124 170.917 238.952 171.115 238.83C171.312 238.709 171.538 238.643 171.77 238.64Z" fill="#E0E0E0"/>
<path d="M96.7099 110.15L98.1099 112.58C99.5957 115.311 101.839 117.554 104.57 119.04L106.99 120.43L104.57 121.83C101.84 123.312 99.5963 125.552 98.1099 128.28L96.7099 130.71L95.3199 128.28C93.8249 125.559 91.5837 123.321 88.8599 121.83L86.4299 120.43L88.8599 119C91.5823 117.503 93.8228 115.262 95.3199 112.54L96.7099 110.15Z" fill="#EBEBEB"/>
<path d="M127 291.28L128.39 293.71C129.879 296.439 132.121 298.682 134.85 300.17L137.28 301.56L134.85 302.96C132.119 304.446 129.876 306.689 128.39 309.42L127 311.84L125.67 309.42C124.19 306.685 121.945 304.44 119.21 302.96L116.79 301.56L119.21 300.17C121.941 298.684 124.184 296.441 125.67 293.71L127 291.28Z" fill="#EBEBEB"/>
<path d="M221.82 142L222.23 142.74C222.69 143.585 223.385 144.28 224.23 144.74L224.97 145.13L224.23 145.54C223.387 146.004 222.694 146.697 222.23 147.54L221.82 148.28L221.42 147.54C220.973 146.702 220.297 146.008 219.47 145.54L218.73 145.13L219.47 144.74C220.297 144.272 220.973 143.578 221.42 142.74L221.82 142Z" fill="#E0E0E0"/>
<path d="M80.0001 289.89L80.5001 290.81C81.0766 291.853 81.9456 292.705 83.0001 293.26L83.9201 293.77L83.0001 294.28C81.9618 294.848 81.108 295.702 80.5401 296.74L80.0401 297.66L79.5401 296.74C78.9534 295.688 78.07 294.833 77.0001 294.28L76.0801 293.77L77.0001 293.26C78.0436 292.704 78.8994 291.851 79.4601 290.81L80.0001 289.89Z" fill="#E0E0E0"/>
<path d="M166.88 282.91L167.38 283.83C167.948 284.868 168.802 285.722 169.84 286.29L170.76 286.79L169.84 287.29C168.806 287.864 167.954 288.716 167.38 289.75L166.88 290.67L166.38 289.75C165.8 288.721 164.95 287.87 163.92 287.29L163 286.79L163.92 286.29C164.954 285.716 165.806 284.864 166.38 283.83L166.88 282.91Z" fill="#E0E0E0"/>
<path d="M160.34 84.26L160.82 85.15C161.376 86.1475 162.2 86.9687 163.2 87.52L164.09 88.01L163.2 88.5C162.194 89.0427 161.367 89.8661 160.82 90.87L160.34 91.76L159.85 90.87C159.304 89.8689 158.481 89.0461 157.48 88.5L156.58 88.01L157.48 87.52C158.477 86.9681 159.298 86.1468 159.85 85.15L160.34 84.26Z" fill="#E0E0E0"/>
<path d="M101.25 156C101.232 156.25 101.188 156.498 101.12 156.74L100.65 158.84L98.86 166.48C97.35 172.94 95.42 181.82 93.59 191.83C91.76 201.84 90.39 210.83 89.51 217.38C89.08 220.59 88.73 223.23 88.51 225.16L88.22 227.29C88.1816 227.536 88.1074 227.775 88 228C87.96 227.752 87.96 227.498 88 227.25C88 226.68 88.08 225.98 88.15 225.12C88.3 223.28 88.57 220.6 88.94 217.31C89.7 210.71 90.94 201.63 92.78 191.65C94.62 181.67 96.64 172.72 98.28 166.32C99.09 163.1 99.78 160.5 100.28 158.73L100.88 156.68C100.974 156.439 101.099 156.21 101.25 156Z" fill="#E0E0E0"/>
<path d="M219.82 230.81C219.502 230.267 219.238 229.694 219.03 229.1C218.59 227.98 217.95 226.31 217.19 224.34C215.69 220.29 213.69 214.67 211.61 208.42C209.53 202.17 207.85 196.42 206.68 192.3C206.09 190.22 205.68 188.53 205.35 187.36C205.17 186.762 205.04 186.15 204.96 185.53C205.24 186.092 205.461 186.682 205.62 187.29C206.03 188.57 206.55 190.21 207.18 192.14C208.46 196.26 210.26 201.91 212.3 208.2C214.34 214.49 216.3 220.09 217.65 224.2C218.31 226.14 218.85 227.77 219.27 229.04C219.515 229.609 219.699 230.202 219.82 230.81Z" fill="#E0E0E0"/>
<path d="M190.75 90.54C190.274 90.6834 189.807 90.8537 189.35 91.05C187.666 91.7653 186.169 92.8591 184.976 94.2465C183.783 95.6339 182.925 97.2776 182.47 99.05C182.148 100.492 182.122 101.985 182.394 103.437C182.665 104.889 183.229 106.272 184.05 107.5C184.985 108.955 186.244 110.174 187.73 111.06C189.309 112 191.087 112.558 192.92 112.69C196.8 113.01 200.92 111.83 205.24 111.03C210.028 110.14 214.958 110.401 219.625 111.792C224.292 113.183 228.561 115.664 232.08 119.03C235.759 122.496 238.442 126.885 239.85 131.74C241.17 136.241 241.46 140.981 240.7 145.61C240.362 147.761 239.775 149.865 238.95 151.88C238.212 153.8 237.249 155.627 236.08 157.32C233.999 160.362 231.363 162.985 228.31 165.05C223.906 168.082 218.78 169.899 213.45 170.32C211.516 170.5 209.566 170.43 207.65 170.11H209.16C210.588 170.173 212.018 170.137 213.44 170C218.676 169.464 223.688 167.598 228 164.58C230.978 162.524 233.543 159.925 235.56 156.92C236.693 155.264 237.629 153.482 238.35 151.61C239.14 149.631 239.697 147.567 240.01 145.46C240.738 140.925 240.441 136.285 239.14 131.88C237.759 127.153 235.142 122.879 231.56 119.5C228.114 116.221 223.941 113.803 219.383 112.444C214.824 111.085 210.009 110.823 205.33 111.68C201.03 112.45 196.96 113.68 192.86 113.29C190.913 113.16 189.025 112.57 187.35 111.57C185.833 110.615 184.551 109.33 183.6 107.81C182.764 106.521 182.197 105.075 181.934 103.561C181.671 102.047 181.718 100.496 182.07 99C182.65 96.7617 183.882 94.7463 185.61 93.21C186.681 92.2283 187.93 91.4611 189.29 90.95C189.758 90.7541 190.248 90.6164 190.75 90.54Z" fill="#E0E0E0"/>
<path d="M189.13 92.64C188.467 91.3472 188.066 89.9365 187.948 88.4884C187.831 87.0404 188 85.5833 188.445 84.2006C188.891 82.8178 189.605 81.5365 190.546 80.4296C191.487 79.3228 192.637 78.4123 193.93 77.75L203.77 72.75L213.87 92.44L204.01 97.44C201.4 98.7728 198.367 99.0159 195.578 98.1161C192.788 97.2163 190.47 95.247 189.13 92.64Z" fill="#EBEBEB"/>
<path d="M254.3 65.3C254.302 66.1291 254.058 66.9402 253.599 67.6306C253.139 68.3209 252.486 68.8595 251.72 69.1782C250.955 69.4968 250.112 69.5812 249.299 69.4207C248.485 69.2602 247.738 68.8619 247.151 68.2763C246.564 67.6907 246.164 66.9442 246.001 66.1311C245.839 65.3181 245.921 64.4751 246.238 63.7089C246.555 62.9427 247.092 62.2877 247.781 61.8268C248.47 61.366 249.281 61.12 250.11 61.12H250.18C251.277 61.1383 252.324 61.5865 253.094 62.3681C253.864 63.1498 254.297 64.2025 254.3 65.3Z" fill="#E0E0E0"/>
<path d="M827.85 41.17V191.17H612.43L604.66 42.21L827.85 41.17Z" fill="#E0E0E0"/>
<path d="M820.09 42.23H604.65V190.86H820.09V42.23Z" fill="white"/>
<path d="M821 191.72H603.8V41.36H821V191.72ZM605.53 190H819.22V43.09H605.53V190Z" fill="#E0E0E0"/>
<path d="M796.76 60.68H627.99V172.38H796.76V60.68Z" fill="white"/>
<path d="M796.76 60.68H784.28L749.5 60.79L628 61L628.42 60.58V172.26L627.97 171.81H796.72L796.39 172.43C796.39 138.43 796.55 110.54 796.58 91.15V90.87C796.58 110.32 796.69 138.27 796.77 172.33V172.69H627.19V172.43V60.34H627.61L749.39 60.54L784.05 60.65H795.58L796.76 60.68Z" fill="#E0E0E0"/>
<path d="M676.81 207.92C677.66 208.363 678.464 208.889 679.21 209.49C680.65 210.49 682.62 212.03 684.74 213.73C686.86 215.43 688.74 217.03 690.06 218.27C690.814 218.861 691.501 219.531 692.11 220.27C691.297 219.771 690.537 219.192 689.84 218.54C688.28 217.3 686.43 215.82 684.41 214.19L679 209.87C678.199 209.304 677.465 208.65 676.81 207.92Z" fill="#E0E0E0"/>
<path d="M820.08 42.23C816.477 45.6429 812.677 48.8417 808.7 51.81C804.903 55.0056 800.916 57.9677 796.76 60.68C800.358 57.2678 804.158 54.0753 808.14 51.12C811.934 47.9148 815.922 44.9458 820.08 42.23Z" fill="#E0E0E0"/>
<path d="M819.93 190.87L795.93 171.41Z" fill="white"/>
<path d="M795.91 171.41C800.187 174.292 804.291 177.424 808.2 180.79C812.303 183.918 816.22 187.284 819.93 190.87C815.642 187.989 811.532 184.854 807.62 181.48C803.526 178.352 799.616 174.99 795.91 171.41Z" fill="#E0E0E0"/>
<path d="M676.81 305.67C681.603 301.36 686.66 297.352 691.95 293.67C689.617 295.893 687.149 297.971 684.56 299.89C682.097 301.972 679.508 303.903 676.81 305.67Z" fill="#E0E0E0"/>
<path d="M724.19 83.23C717.403 81.4007 710.218 81.6903 703.6 84.06C701.377 84.8396 699.269 85.9125 697.33 87.25C690.88 91.86 679.17 101.12 678.86 119.45C678.55 137.78 689.36 142.81 694.45 144.58C699.54 146.35 738.89 144.17 738.89 144.17C738.89 144.17 754.83 135.79 753.45 119.8C752.3 106.07 743.81 88.41 724.19 83.23Z" fill="#E0E0E0"/>
<path d="M693.19 138.78C693.19 138.78 692.41 148.46 696.65 151.91C700.89 155.36 709.71 156.91 716.79 156.73C723.87 156.55 734.79 155 737.14 150.02C739.49 145.04 739.91 138.5 739.31 137.65C738.71 136.8 729.76 128.65 715.04 129.78C700.32 130.91 693.19 138.78 693.19 138.78Z" fill="#F5F5F5"/>
<g opacity="0.4">
<path d="M733.21 100.68C733.298 104.265 732.321 107.795 730.403 110.824C728.484 113.854 725.711 116.246 722.432 117.699C719.154 119.152 715.519 119.601 711.986 118.988C708.453 118.375 705.181 116.728 702.584 114.255C699.987 111.783 698.182 108.596 697.396 105.097C696.61 101.598 696.88 97.9454 698.17 94.5999C699.461 91.2544 701.714 88.3667 704.646 86.3019C707.577 84.2372 711.055 83.0881 714.64 83C717.02 82.9415 719.389 83.3524 721.61 84.2092C723.832 85.0661 725.863 86.3521 727.587 87.9939C729.311 89.6356 730.695 91.601 731.66 93.7776C732.625 95.9543 733.152 98.2998 733.21 100.68Z" fill="white"/>
</g>
<g opacity="0.4">
<path d="M679.91 129.11C684.28 125.643 687.258 120.72 688.3 115.24C689.122 109.804 687.926 104.256 684.94 99.64C684.94 99.64 679.32 108.86 678.94 117.09C678.54 125.81 679.91 129.11 679.91 129.11Z" fill="white"/>
</g>
<g opacity="0.4">
<path d="M752.93 127.37C748.401 124.118 745.185 119.355 743.86 113.94C742.648 108.821 743.442 103.432 746.08 98.88C749.346 103.876 751.69 109.417 753 115.24C754.54 124 752.93 127.37 752.93 127.37Z" fill="white"/>
</g>
<path d="M468.31 595.89L467.37 619.45L481.72 619.7C482.939 619.721 484.148 619.485 485.27 619.007C486.391 618.53 487.4 617.822 488.23 616.93L495.56 609.07C496.479 608.093 497.593 607.322 498.83 606.805C500.068 606.288 501.4 606.037 502.74 606.07L527.38 606.6L522.38 589.95L468.31 595.89Z" fill="#F7A48B"/>
<path d="M467.05 627L467.37 619.45L481.72 619.7C482.939 619.721 484.148 619.485 485.27 619.007C486.391 618.53 487.4 617.822 488.23 616.93L495.56 609.07C496.479 608.093 497.593 607.322 498.83 606.805C500.067 606.288 501.4 606.037 502.74 606.07L527.38 606.6L531.15 615.09L509.2 615.36C506.941 615.384 504.766 616.218 503.07 617.71L493.33 626.25C492.378 627.086 491.268 627.724 490.066 628.124C488.864 628.524 487.593 628.679 486.33 628.58L467.05 627Z" fill="#E6E7E8"/>
<path d="M467.05 627C467.05 627 464.54 640.19 469.88 641.45L534.08 641.72C535.135 641.725 536.173 641.461 537.098 640.953C538.023 640.446 538.804 639.712 539.367 638.82C539.93 637.928 540.256 636.908 540.317 635.854C540.377 634.801 540.168 633.75 539.71 632.8L531.15 615.06L509.2 615.33C506.941 615.354 504.766 616.188 503.07 617.68L493.33 626.22C492.378 627.057 491.268 627.694 490.066 628.094C488.864 628.494 487.593 628.649 486.33 628.55L467.05 627Z" fill="#005048"/>
<path d="M283.36 598.37V600.61L292.95 618.51L345.06 617.55L344.42 601.24L285.28 591.33L283.36 598.37Z" fill="#F7A48B"/>
<path d="M283.36 600.61L276.65 605.4L292 628.42L346.34 624.26L345.06 617.55L292.95 618.51L283.36 600.61Z" fill="#E6E7E8"/>
<path d="M276.65 605.4L240.21 632.89C240.21 632.89 237.33 638.65 243.08 639.61L342.19 639.3C343.292 639.297 344.347 638.858 345.125 638.078C345.903 637.298 346.34 636.242 346.34 635.14V624.26L292 628.42L276.65 605.4Z" fill="#005048"/>
<path d="M464.9 338.83L512.9 454.62C514.222 457.815 515.08 461.182 515.45 464.62L528.89 590.28C528.89 590.28 511 601.47 461.67 598L448 489.64C447.752 487.662 447.3 485.715 446.65 483.83C442.39 471.39 424.98 422.71 410.5 411.83C409.335 410.964 407.93 410.481 406.479 410.449C405.028 410.417 403.602 410.836 402.4 411.65C396.71 415.52 384.74 427.35 365.75 463.57C362.994 468.847 361.35 474.633 360.92 480.57L352.13 600.46C352.13 600.46 326.59 613.46 280.06 597.32C280.06 597.32 276.21 484.67 288.81 453.18L360.87 339.18L464.9 338.83Z" fill="#2F2E41"/>
<path d="M525.11 330.1C525.11 330.1 490.7 336.38 462.28 291.76L460.78 276L492.1 258.24L500.84 270.51L511 284.82V284.87C511 284.87 516.5 254 528.72 242.7L551.18 252.25C551.18 252.25 562.7 325.2 525.11 330.1Z" fill="#F7A48B"/>
<path d="M511 284.82C510.186 287.605 509.719 290.48 509.61 293.38C509.545 296.943 509.98 300.497 510.9 303.94C510.924 304.014 510.926 304.094 510.904 304.168C510.883 304.243 510.84 304.31 510.78 304.36C510.18 304.82 508.96 304.45 508.54 304.31C491.04 298.76 499.69 273.86 500.82 270.55L511 284.82Z" fill="#F29079"/>
<path d="M526.76 250.1C530.355 250.1 533.27 248.139 533.27 245.72C533.27 243.301 530.355 241.34 526.76 241.34C523.165 241.34 520.25 243.301 520.25 245.72C520.25 248.139 523.165 250.1 526.76 250.1Z" fill="#F7A48B"/>
<path d="M550.73 242.26L524.3 229.42C531.5 221.83 531.37 215.78 529.71 211.81C528.15 208.06 523.35 204.99 519.29 205.24C515.07 205.5 512.29 208.24 510.57 210.97C508.664 214.128 507.719 217.773 507.85 221.46C508.11 238.23 519.18 241.46 519.18 241.46L545.3 253.62C546.812 254.34 548.548 254.43 550.126 253.87C551.704 253.31 552.995 252.147 553.715 250.635C554.435 249.123 554.525 247.387 553.965 245.809C553.406 244.231 552.242 242.94 550.73 242.22V242.26ZM523.93 219.92C522.79 224.21 519.38 227.04 516.3 226.23C513.22 225.42 511.65 221.23 512.78 216.97C513.91 212.71 517.33 209.85 520.41 210.66C523.49 211.47 525.06 215.62 523.93 219.92Z" fill="#2F2E41"/>
<path d="M536.57 228.41C536.57 228.41 529.57 222.3 524.3 229.41C524.3 229.41 521.11 234.14 522.41 238.18C522.564 238.696 522.854 239.162 523.249 239.527C523.645 239.893 524.132 240.145 524.659 240.258C525.186 240.37 525.733 240.339 526.244 240.167C526.754 239.995 527.209 239.688 527.56 239.28C528.364 238.354 529.018 237.308 529.5 236.18C529.5 236.18 525.03 246.08 533.98 242.54C533.98 242.54 531.24 249.72 544.61 244.24C544.74 244.19 544.86 244.34 544.76 244.44C543.47 245.68 540.59 249.02 544.47 250.91C544.47 250.91 552.61 253.82 553.39 243.12C553.46 242.099 553.287 241.077 552.888 240.135C552.488 239.193 551.872 238.359 551.09 237.7C548.89 235.85 544.67 232.86 536.57 228.41Z" fill="#F7A48B"/>
<path d="M528.68 238.08L531.74 231.12" stroke="#F29079" stroke-linecap="round" stroke-linejoin="round"/>
<path d="M533.98 242.55L538.46 236.66" stroke="#F29079" stroke-linecap="round" stroke-linejoin="round"/>
<path d="M544.61 244.25L548.47 240.43" stroke="#F29079" stroke-linecap="round" stroke-linejoin="round"/>
<path d="M388.82 206.52C388.82 206.52 336.16 204.77 330.89 251.11C329.756 266.702 330.464 282.374 333 297.8L361.78 289.72L388.78 344.49L467.06 338.87L460.78 276L496.94 256C496.94 256 476.23 203 416.94 205.45L388.82 206.52Z" fill="#005048"/>
<path opacity="0.2" d="M333.32 297.55C335.17 296.21 344.99 289.65 365.69 284.93L372.11 252.61L376.48 289.24C376.48 289.24 366.4 286.16 333.39 297.66C333.32 297.68 333.26 297.6 333.32 297.55Z" fill="black"/>
<path opacity="0.2" d="M496.94 256.02L460.09 250.73L452.32 265.04L460.78 276.03L496.94 256.02Z" fill="black"/>
<path d="M714.65 161.15C714.651 167.217 713.458 173.224 711.137 178.829C708.816 184.434 705.414 189.528 701.125 193.818C696.836 198.108 691.743 201.511 686.138 203.833C680.534 206.155 674.527 207.35 668.46 207.35C666.198 207.35 663.939 207.186 661.7 206.86C661.15 206.77 660.61 206.69 660.07 206.59C649.595 204.656 640.11 199.161 633.223 191.034C626.336 182.908 622.47 172.651 622.28 162C622.28 161.73 622.28 161.45 622.28 161.18V160.7C622.412 148.537 627.334 136.917 635.98 128.361C644.626 119.806 656.297 115.005 668.46 115C669.96 115 671.46 115.08 672.94 115.21C673.45 115.27 673.94 115.32 674.49 115.39C685.278 116.814 695.217 121.999 702.558 130.031C709.898 138.064 714.17 148.428 714.62 159.3C714.62 159.72 714.62 160.14 714.62 160.56C714.65 160.73 714.65 160.94 714.65 161.15Z" fill="#005048"/>
<g opacity="0.2">
<path d="M714.64 160.52C697.88 165.533 680.493 168.142 663 168.27C658.24 168.27 653.84 168.05 649.81 167.7L648.59 167.59C639.621 166.836 630.781 164.958 622.28 162C622.28 161.73 622.28 161.45 622.28 161.18V160.7C625.77 162.02 634.83 165.05 648.67 166.41L649.88 166.52C665.81 167.94 687.78 167.13 714.63 159.29C714.63 159.68 714.64 160.1 714.64 160.52Z" fill="black"/>
</g>
<g opacity="0.2">
<path d="M649.83 167.7C649.55 179.37 652.51 192.7 661.7 206.86C661.15 206.77 660.61 206.69 660.07 206.59C651.18 192.51 648.3 179.23 648.61 167.59C648.61 167.18 648.61 166.77 648.61 166.38C649.053 157.595 651.186 148.978 654.89 141C659.35 131.395 665.459 122.646 672.94 115.15C673.45 115.21 673.94 115.26 674.49 115.33C666.801 122.895 660.537 131.784 656 141.57C652.387 149.41 650.309 157.869 649.88 166.49C649.84 166.89 649.83 167.3 649.83 167.7Z" fill="black"/>
</g>
<path d="M768.9 436.18C768.9 439.082 768.629 441.978 768.09 444.83C768.02 445.24 767.93 445.66 767.83 446.08C765.569 456.366 759.862 465.572 751.655 472.171C743.448 478.771 733.232 482.369 722.7 482.37H721.29C720.74 482.37 720.19 482.37 719.65 482.29C707.954 481.514 696.99 476.32 688.98 467.763C680.97 459.205 676.512 447.922 676.51 436.2C676.506 432.984 676.841 429.776 677.51 426.63C677.58 426.21 677.68 425.81 677.78 425.4C680.204 415.312 685.953 406.333 694.102 399.911C702.251 393.49 712.325 389.998 722.7 390C723.46 390 724.22 390 724.96 390.06C725.48 390.06 725.96 390.11 726.51 390.15C738.062 391.106 748.832 396.369 756.684 404.896C764.537 413.422 768.897 424.589 768.9 436.18Z" fill="#005048"/>
<g opacity="0.2">
<path d="M768.09 444.83C768.02 445.24 767.93 445.66 767.83 446.08C765.83 446.21 763.15 446.35 759.73 446.35C753.227 446.325 746.732 445.904 740.28 445.09C739.88 445.09 739.47 445 739.07 444.94C717.738 442.021 696.982 435.839 677.53 426.61C677.6 426.19 677.7 425.79 677.8 425.38C697.213 434.623 717.938 440.812 739.24 443.73L740.45 443.89C749.611 445.099 758.868 445.414 768.09 444.83Z" fill="black"/>
</g>
<g opacity="0.2">
<path d="M740.44 443.89C740.39 444.28 740.34 444.68 740.28 445.09C738.55 456.95 733.28 469.92 721.28 482.35C720.73 482.35 720.18 482.35 719.64 482.27C731.87 469.84 737.3 456.84 739.05 444.94C739.11 444.53 739.17 444.13 739.22 443.73C740.172 435.968 739.783 428.1 738.07 420.47C735.617 409.614 731.186 399.302 725 390.05C725.52 390.05 726 390.1 726.55 390.14C732.541 399.33 736.861 409.506 739.31 420.2C741.043 427.974 741.425 435.987 740.44 443.89Z" fill="black"/>
</g>
<path d="M647.79 312.27C647.795 316.83 646.852 321.342 645.02 325.519C643.189 329.695 640.508 333.445 637.15 336.53C636.71 336.94 636.25 337.35 635.79 337.73C631.72 341.09 626.904 343.426 621.745 344.54C616.586 345.654 611.236 345.515 606.142 344.134C601.048 342.753 596.36 340.17 592.471 336.602C588.581 333.034 585.604 328.586 583.79 323.63C583.632 323.237 583.496 322.837 583.38 322.43C580.981 315.004 581.291 306.969 584.255 299.75C587.219 292.532 592.645 286.597 599.57 283C600.028 282.743 600.498 282.509 600.98 282.3C608.882 278.657 617.903 278.283 626.08 281.259C634.257 284.235 640.927 290.32 644.64 298.19C644.82 298.57 645 298.96 645.17 299.35C646.907 303.436 647.798 307.831 647.79 312.27Z" fill="#005048"/>
<g opacity="0.2">
<path d="M645.17 299.36C640.852 303.019 636.202 306.266 631.28 309.06C630.93 309.26 630.57 309.47 630.2 309.66C615.908 317.565 600.098 322.337 583.82 323.66C583.662 323.267 583.526 322.867 583.41 322.46C599.609 321.196 615.351 316.484 629.58 308.64L630.66 308.03C635.63 305.22 640.318 301.938 644.66 298.23C644.82 298.58 645 299 645.17 299.36Z" fill="black"/>
</g>
<g opacity="0.2">
<path d="M637.15 336.53C636.71 336.94 636.25 337.35 635.79 337.73C637.074 328.013 635.109 318.144 630.2 309.66C630.01 309.31 629.8 308.95 629.58 308.61C620.38 293.39 604.25 285.16 599.58 283.01C600.038 282.753 600.508 282.519 600.99 282.31C606.68 285.05 621.81 293.31 630.67 308C630.89 308.35 631.1 308.69 631.29 309.06C636.102 317.366 638.154 326.984 637.15 336.53Z" fill="black"/>
</g>
<path d="M392.21 185.86L387.94 208.12C387.753 209.081 387.794 210.072 388.058 211.015C388.321 211.958 388.802 212.826 389.46 213.55C393.995 218.395 399.945 221.681 406.46 222.94C407.157 223.081 407.874 223.082 408.571 222.943C409.268 222.804 409.931 222.527 410.52 222.13L420.43 215.43L416.79 212L417.48 201.17L405.11 184.49L397.54 181.57L391.18 183.29L392.21 185.86Z" fill="#F9B499"/>
<path d="M417.14 201.67C417.14 201.67 410.78 201.67 403.9 195.31C403.9 195.31 399.09 207.86 416.79 211.99L417.14 201.67Z" fill="#F7A48B"/>
<path d="M422.71 132.69H418.03C405.885 132.69 396.04 142.535 396.04 154.68V179.83C396.04 191.975 405.885 201.82 418.03 201.82H422.71C434.855 201.82 444.7 191.975 444.7 179.83V154.68C444.7 142.535 434.855 132.69 422.71 132.69Z" fill="#F9B499"/>
<path d="M421.21 142.09C421.21 142.09 435 128 441.68 166.25L448.73 166.59C448.73 166.59 454.43 115.59 409.8 119.59C409.8 119.59 398.73 114.89 389 127.31C389 127.31 359.8 136.7 370.2 162.54L397.72 173.28L408.8 153.82C408.8 153.82 409.13 135.71 421.21 142.09Z" fill="#2F2E41"/>
<path d="M386.98 187.39C393.282 187.39 398.39 182.282 398.39 175.98C398.39 169.678 393.282 164.57 386.98 164.57C380.679 164.57 375.57 169.678 375.57 175.98C375.57 182.282 380.679 187.39 386.98 187.39Z" fill="#F9B499"/>
<path d="M381.56 152.81L411.56 153.03L412.87 180.67C412.87 180.67 406.36 182.83 402.63 177.67C400.304 174.231 396.903 171.66 392.96 170.36C389.77 169.286 386.347 169.103 383.06 169.83L381.56 152.81Z" fill="#E6E7E8"/>
<path d="M378.5 176.53C383.078 176.53 386.79 170.929 386.79 164.02C386.79 157.111 383.078 151.51 378.5 151.51C373.922 151.51 370.21 157.111 370.21 164.02C370.21 170.929 373.922 176.53 378.5 176.53Z" fill="#005048"/>
<path opacity="0.2" d="M378.08 170C380.123 170 381.78 167.224 381.78 163.8C381.78 160.376 380.123 157.6 378.08 157.6C376.036 157.6 374.38 160.376 374.38 163.8C374.38 167.224 376.036 170 378.08 170Z" fill="black"/>
<path d="M454.69 159.72V172.12C454.682 174.574 453.7 176.925 451.96 178.656C450.22 180.386 447.864 181.355 445.41 181.35L416 181.28C415.666 181.279 415.332 181.259 415 181.22C414.447 181.163 413.901 181.053 413.37 180.89C412.474 180.624 411.626 180.216 410.86 179.68C410.502 179.446 410.167 179.178 409.86 178.88C409.1 178.214 408.463 177.418 407.98 176.53C407.772 176.164 407.591 175.783 407.44 175.39C407.02 174.316 406.807 173.173 406.81 172.02V159.62C406.815 157.168 407.794 154.819 409.53 153.089C411.266 151.358 413.619 150.387 416.07 150.39L445.45 150.45C445.804 150.453 446.158 150.476 446.51 150.52C447.555 150.637 448.571 150.938 449.51 151.41C449.917 151.596 450.305 151.821 450.67 152.08C451.222 152.45 451.725 152.887 452.17 153.38C452.457 153.691 452.718 154.026 452.95 154.38C454.08 155.931 454.689 157.801 454.69 159.72Z" fill="#005048"/>
<g opacity="0.2">
<path d="M446.52 150.52L407.96 176.52C407.752 176.154 407.571 175.773 407.42 175.38L444.42 150.44H445.42C445.788 150.445 446.155 150.472 446.52 150.52Z" fill="black"/>
</g>
<g opacity="0.2">
<path d="M450.67 152.08L410.84 179.68C410.482 179.446 410.147 179.178 409.84 178.88L449.51 151.41C449.917 151.596 450.305 151.821 450.67 152.08Z" fill="black"/>
</g>
<g opacity="0.2">
<path d="M453 154.33L415 181.22C414.447 181.163 413.901 181.053 413.37 180.89L452.19 153.38C452.485 153.674 452.756 153.992 453 154.33Z" fill="black"/>
</g>
<path d="M466.84 263.45L444.54 244.33C453.43 238.81 454.84 232.93 454.24 228.67C453.68 224.67 449.82 220.46 445.83 219.67C441.84 218.88 438.32 220.77 435.94 223C433.296 225.571 431.455 228.853 430.64 232.45C426.64 248.73 436.52 254.71 436.52 254.71L458.7 273.11C459.989 274.121 461.619 274.592 463.249 274.425C464.878 274.257 466.379 273.463 467.434 272.21C468.49 270.958 469.018 269.344 468.907 267.71C468.796 266.076 468.055 264.549 466.84 263.45ZM437.61 239.21C434.84 237.64 434.37 233.21 436.56 229.36C438.75 225.51 442.77 223.63 445.56 225.19C448.35 226.75 448.8 231.19 446.56 235.04C444.32 238.89 440.38 240.78 437.61 239.21Z" fill="#2F2E41"/>
<path d="M462.63 252.37L459.51 256.22C458.547 257.417 457.931 258.857 457.73 260.38C456.25 271.94 450.96 277.07 448.29 278.96C447.156 279.758 446.165 280.741 445.36 281.87C429.57 304.34 406.72 331.5 406.72 331.5C389.86 349.4 375.12 348.7 375.12 348.7C336.51 349.4 333 297.8 333 297.8C360.89 287.91 372.29 288.27 376.48 289.24C377.251 289.406 378.051 289.383 378.812 289.174C379.572 288.965 380.272 288.576 380.85 288.04C394.141 276.383 408.851 266.451 424.63 258.48L431.3 247.94C437.62 236.01 443.22 239.52 443.22 239.52L462.11 249.77C462.334 249.889 462.53 250.056 462.682 250.259C462.833 250.463 462.938 250.698 462.988 250.946C463.038 251.195 463.031 251.452 462.969 251.699C462.907 251.945 462.792 252.174 462.63 252.37Z" fill="#F7A48B"/>
<path d="M379 289.37C379 289.37 367.76 296.37 361.44 312.19C361.44 312.19 354.44 324.83 349.86 309.38C349.85 309.38 345.64 298.5 379 289.37Z" fill="#F29079"/>
<path d="M459.51 256.22C458.547 257.417 457.931 258.856 457.73 260.38C456.25 271.94 450.96 277.07 448.29 278.96C448.29 278.96 454.76 269.55 452.21 259.8C452.112 259.404 452.172 258.985 452.377 258.632C452.582 258.279 452.917 258.02 453.31 257.91L459.51 256.22Z" fill="#F29079"/>
<path d="M443.68 240.61L440.07 245.2" stroke="#F29079" stroke-linecap="round" stroke-linejoin="round"/>
<path d="M449.76 243.74L446.51 247.87" stroke="#F29079" stroke-linecap="round" stroke-linejoin="round"/>
<path d="M456.23 247.14L452.34 251.03" stroke="#F29079" stroke-linecap="round" stroke-linejoin="round"/>
<path d="M649.5 173.78C652.676 173.78 655.25 170.785 655.25 167.09C655.25 163.395 652.676 160.4 649.5 160.4C646.324 160.4 643.75 163.395 643.75 167.09C643.75 170.785 646.324 173.78 649.5 173.78Z" fill="#2F2E41"/>
<path d="M630.24 313.33C632.51 313.33 634.35 311.19 634.35 308.55C634.35 305.91 632.51 303.77 630.24 303.77C627.97 303.77 626.13 305.91 626.13 308.55C626.13 311.19 627.97 313.33 630.24 313.33Z" fill="#2F2E41"/>
<path d="M739.33 450.87C742.506 450.87 745.08 447.875 745.08 444.18C745.08 440.485 742.506 437.49 739.33 437.49C736.154 437.49 733.58 440.485 733.58 444.18C733.58 447.875 736.154 450.87 739.33 450.87Z" fill="#2F2E41"/>
<path d="M71.3 536.6L107.31 545.12L143.44 536.6V533.08H71.47L71.3 536.6Z" fill="#2F2E41"/>
<path d="M103.72 471.61C103.72 471.61 102.09 434.41 106.18 416.01C106.866 412.909 108.332 410.035 110.44 407.66C118.77 398.29 144.62 369.74 166.58 351.32C166.58 351.32 146.01 347.04 126.58 358.75V371.32L122.29 361.32C122.29 361.32 98.2901 375.61 100.58 414.75L101.72 452.46L103.72 471.61Z" fill="#005048"/>
<g opacity="0.6">
<path d="M103.72 471.61C103.72 471.61 102.09 434.41 106.18 416.01C106.866 412.909 108.332 410.035 110.44 407.66C118.77 398.29 144.62 369.74 166.58 351.32C166.58 351.32 146.01 347.04 126.58 358.75V371.32L122.29 361.32C122.29 361.32 98.2901 375.61 100.58 414.75L101.72 452.46L103.72 471.61Z" fill="white"/>
</g>
<path d="M144.44 502.61C144.44 511.355 141.366 519.822 135.756 526.53C130.146 533.239 122.357 537.762 113.75 539.31C108.382 540.267 102.87 540.036 97.6017 538.634C92.333 537.232 87.4355 534.692 83.2537 531.194C79.0719 527.695 75.7074 523.323 73.3969 518.385C71.0863 513.447 69.8859 508.062 69.8799 502.61C69.8663 493.492 73.2047 484.687 79.2599 477.87L119.65 477.59L134.71 477.48C140.983 484.344 144.455 493.311 144.44 502.61Z" fill="#005048"/>
<path d="M75.2901 523.24C75.2901 521.047 73.5149 519.27 71.3251 519.27C69.1353 519.27 67.3601 521.047 67.3601 523.24V632.86C67.3601 635.053 69.1353 636.83 71.3251 636.83C73.5149 636.83 75.2901 635.053 75.2901 632.86V523.24Z" fill="#2F2E41"/>
<path d="M110.83 523.24C110.83 521.047 109.055 519.27 106.865 519.27C104.675 519.27 102.9 521.047 102.9 523.24V632.86C102.9 635.053 104.675 636.83 106.865 636.83C109.055 636.83 110.83 635.053 110.83 632.86V523.24Z" fill="#2F2E41"/>
<path d="M146.96 523.24C146.96 521.047 145.185 519.27 142.995 519.27C140.805 519.27 139.03 521.047 139.03 523.24V632.86C139.03 635.053 140.805 636.83 142.995 636.83C145.185 636.83 146.96 635.053 146.96 632.86V523.24Z" fill="#2F2E41"/>
<g opacity="0.2">
<path d="M144.44 502.61C144.44 511.355 141.366 519.822 135.756 526.53C130.146 533.239 122.357 537.762 113.75 539.31C139.22 514.7 120.84 479.8 119.64 477.59L134.7 477.48C140.977 484.343 144.452 493.31 144.44 502.61Z" fill="black"/>
</g>
<path d="M99.2799 477.74V474.36C99.3057 472.157 98.8859 469.972 98.0455 467.935C97.2052 465.899 95.9617 464.054 94.3899 462.51L37.9099 407C37.9099 407 65.0799 403.57 78.0099 414.39L78.2799 429.16L82.7599 417.55C82.7599 417.55 107.03 427.84 104.92 477.7L99.2799 477.74Z" fill="#005048"/>
<path d="M112.58 477.64L115.67 452.37C115.889 450.57 116.673 448.886 117.91 447.56C126 438.9 158 405 176.58 389.61C176.58 389.61 155.15 387.61 136.01 397.32L135.44 410.75L131.15 400.46C131.15 400.46 110.29 412.18 109.72 453V477.62L112.58 477.64Z" fill="#005048"/>
<g opacity="0.5">
<path d="M99.2799 477.74V474.36C99.3057 472.157 98.8859 469.972 98.0455 467.935C97.2052 465.899 95.9617 464.053 94.3899 462.51L37.9099 407C37.9099 407 65.0799 403.57 78.0099 414.39L78.2799 429.16L82.7599 417.55C82.7599 417.55 107.03 427.84 104.92 477.7L99.2799 477.74Z" fill="white"/>
<path d="M112.58 477.64L115.67 452.37C115.889 450.57 116.673 448.886 117.91 447.56C126 438.9 158 405 176.58 389.61C176.58 389.61 155.15 387.61 136.01 397.32L135.44 410.75L131.15 400.46C131.15 400.46 110.29 412.18 109.72 453V477.62L112.58 477.64Z" fill="white"/>
</g>
</svg>
