<svg width="129" height="145" viewBox="0 0 129 145" fill="none" xmlns="http://www.w3.org/2000/svg">
<g filter="url(#filter0_d_221_35852)">
<path fill-rule="evenodd" clip-rule="evenodd" d="M21.4546 115.313C21.4546 117.656 22.8186 119.785 24.9473 120.764L59.0133 136.434C61.8363 137.732 65.1338 136.627 66.8549 134.04C69.2132 130.495 71.7455 127.648 76.2474 123.778C76.5779 123.494 76.9446 123.248 77.3277 123.041C81.4183 120.824 82.2536 119.805 87.4472 119.158C96.9852 117.96 101.51 116.816 108.693 114.265C112.149 112.721 112.634 110.954 111.525 106.577C111.122 104.926 110.96 103.914 110.869 102.592C110.827 101.991 110.887 101.386 111.063 100.81C111.447 99.5562 111.855 98.7469 112.41 98.0491C113.128 97.146 113.84 96.2067 114.093 95.0809C114.666 92.5375 114.601 90.7686 113.857 88.3475C113.726 87.92 113.627 87.4802 113.579 87.0355C113.181 83.3326 113.1 82.828 117.182 80.7177L123.184 77.6262C123.869 77.2347 124.032 76.8748 123.688 76.133C123.623 75.9932 123.54 75.8398 123.44 75.6701L112.13 54.5873C111.732 53.8442 111.494 53.0253 111.433 52.1842L110.817 43.6753V37.381C110.817 36.9193 110.763 36.4532 110.655 36.0045C106.439 18.5723 99.5369 10.2771 81.7817 3.83733C61.1848 -1.6589 51.0855 -0.432003 34.3333 7.33189C21.611 13.8134 16.6554 19.2829 10.255 31.0949C3.28309 46.1206 3.74113 53.9382 8.13048 66.7394L13.796 80.7176C21.9966 96.9832 21.7018 103.529 21.4546 110.955L21.4546 115.313Z" fill="white"/>
<path fill-rule="evenodd" clip-rule="evenodd" d="M31.2333 110.269L63.1424 126.815C66.1434 121.504 68.2114 118.604 73.7787 113.815C77.6201 111.757 79.8841 110.841 84.4151 110.269C92.3736 109.256 96.1487 108.289 102.142 106.133C105.026 104.827 105.431 103.333 104.506 99.6327C104.097 97.9359 103.986 97.0382 103.915 95.4963C104.497 93.225 105.072 92.4301 106.279 91.36C107.185 88.151 107.209 86.4643 106.279 83.6782C105.906 80.0245 106.813 78.4741 110.415 76.5872L114.234 75.1553C114.806 74.8244 114.941 74.5201 114.654 73.8929C114.6 73.7747 114.531 73.645 114.447 73.5016L104.506 54.7236L103.915 46.4509V40.5418C100.409 25.4089 94.6945 18.2842 79.6878 12.7691C62.5017 8.12217 54.0749 9.15947 40.0969 15.7236C29.4814 21.2036 25.3465 25.8279 20.006 35.8145C14.1886 48.5183 14.5708 55.1278 18.2333 65.9509L23.5514 77.7691C30.3941 91.5211 32.0304 96.8996 31.8242 103.178L31.2333 110.269Z" fill="#405AA9"/>
<path d="M57.7741 85.8C57.7741 86.9 58.6312 88 59.9169 88H68.4884C69.7741 88 70.6312 86.9 70.6312 85.8V83.6H57.7741V85.8ZM64.2026 44C55.8455 44 49.2026 50.82 49.2026 59.4C49.2026 64.68 51.7741 69.3 55.6312 71.94V77C55.6312 78.1 56.4884 79.2 57.7741 79.2H70.6312C71.9169 79.2 72.7741 78.1 72.7741 77V71.94C76.6312 69.08 79.2026 64.46 79.2026 59.4C79.2026 50.82 72.5598 44 64.2026 44Z" fill="#F9F9F9"/>
<path d="M65.8602 29.4543C65.3148 32.7267 64.224 35.4537 64.224 35.4537H63.6786C63.6786 35.4537 62.5879 32.7267 62.0424 29.4543C61.4969 26.1819 66.4055 26.1819 65.8602 29.4543Z" fill="#F9F9F9"/>
<path d="M86.1299 39.4359C83.4846 41.4379 80.8179 42.6689 80.8179 42.6689L80.4218 42.2941C80.4218 42.2941 81.5039 39.5636 83.3568 36.8118C85.2098 34.06 88.7752 37.4338 86.1299 39.4359Z" fill="#F9F9F9"/>
<path d="M44.4907 36.6091C46.3439 39.3608 47.4259 42.0913 47.4259 42.0913L47.0298 42.4662C47.0298 42.4662 44.3632 41.2351 41.7177 39.2332C39.0723 37.2313 42.6376 33.8574 44.4907 36.6091Z" fill="#F9F9F9"/>
</g>
<defs>
<filter id="filter0_d_221_35852" x="0.90918" y="0.45459" width="127.145" height="144.525" filterUnits="userSpaceOnUse" color-interpolation-filters="sRGB">
<feFlood flood-opacity="0" result="BackgroundImageFix"/>
<feColorMatrix in="SourceAlpha" type="matrix" values="0 0 0 0 0 0 0 0 0 0 0 0 0 0 0 0 0 0 127 0" result="hardAlpha"/>
<feOffset dy="4"/>
<feGaussianBlur stdDeviation="2"/>
<feComposite in2="hardAlpha" operator="out"/>
<feColorMatrix type="matrix" values="0 0 0 0 0 0 0 0 0 0 0 0 0 0 0 0 0 0 0.25 0"/>
<feBlend mode="normal" in2="BackgroundImageFix" result="effect1_dropShadow_221_35852"/>
<feBlend mode="normal" in="SourceGraphic" in2="effect1_dropShadow_221_35852" result="shape"/>
</filter>
</defs>
</svg>
