<svg width="59" height="58" viewBox="0 0 59 58" fill="none" xmlns="http://www.w3.org/2000/svg">
<path d="M22.5714 55.8C22.5714 56.9 23.4286 58 24.7143 58H33.2857C34.5714 58 35.4286 56.9 35.4286 55.8V53.6H22.5714V55.8ZM29 14C20.6429 14 14 20.82 14 29.4C14 34.68 16.5714 39.3 20.4286 41.94V47C20.4286 48.1 21.2857 49.2 22.5714 49.2H35.4286C36.7143 49.2 37.5714 48.1 37.5714 47V41.94C41.4286 39.08 44 34.46 44 29.4C44 20.82 37.3571 14 29 14Z" fill="#F9F9F9"/>
<path d="M30.8602 2.45429C30.3148 5.72668 29.224 8.45368 29.224 8.45368H28.6786C28.6786 8.45368 27.5879 5.72667 27.0424 2.45429C26.4969 -0.818095 31.4055 -0.818098 30.8602 2.45429Z" fill="#F9F9F9"/>
<path d="M48.9274 11.4359C46.2821 13.4379 43.6154 14.6689 43.6154 14.6689L43.2192 14.2941C43.2192 14.2941 44.3013 11.5636 46.1543 8.81181C48.0073 6.05999 51.5727 9.43381 48.9274 11.4359Z" fill="#F9F9F9"/>
<path d="M11.2881 8.60915C13.1413 11.3608 14.2233 14.0913 14.2233 14.0913L13.8272 14.4662C13.8272 14.4662 11.1606 13.2352 8.51512 11.2333C5.86968 9.23136 9.43497 5.85747 11.2881 8.60915Z" fill="#F9F9F9"/>
<path d="M2.45969 24.5164C5.73131 25.0663 8.45679 26.161 8.45679 26.161L8.45603 26.7064C8.45603 26.7064 5.7275 27.7933 2.45436 28.3342C-0.818781 28.8751 -0.811931 23.9665 2.45969 24.5164Z" fill="#F9F9F9"/>
<path d="M56.0048 27.8636C52.7316 27.3228 50.0031 26.2358 50.0031 26.2358L50.0024 25.6904C50.0024 25.6904 52.7278 24.5959 55.9994 24.0458C59.2711 23.4958 59.2779 28.4044 56.0048 27.8636Z" fill="#F9F9F9"/>
<path d="M48.204 45.9952C46.3192 43.265 45.2058 40.5472 45.2058 40.5472L45.5976 40.1677C45.5976 40.1677 48.2782 41.368 50.9465 43.3393C53.6149 45.3106 50.0887 48.7253 48.204 45.9952Z" fill="#F9F9F9"/>
<path d="M6.7378 43.3393C9.40604 41.3678 12.0867 40.1677 12.0867 40.1677L12.4785 40.5471C12.4785 40.5471 11.365 43.2649 9.48038 45.9951C7.59577 48.7254 4.06956 45.3107 6.7378 43.3393Z" fill="#F9F9F9"/>
</svg>
